G04*
G04 #@! TF.GenerationSoftware,Altium Limited,Altium Designer,23.7.1 (13)*
G04*
G04 Layer_Color=65535*
%FSLAX25Y25*%
%MOIN*%
G70*
G04*
G04 #@! TF.SameCoordinates,EF7137CB-2ACC-42BF-A9FD-E08E9475024B*
G04*
G04*
G04 #@! TF.FilePolarity,Positive*
G04*
G01*
G75*
%ADD10C,0.00394*%
%ADD11C,0.00500*%
%ADD12C,0.00100*%
%ADD13C,0.01000*%
D10*
X29528Y93307D02*
X36614D01*
Y105905D01*
X29528Y93307D02*
Y105905D01*
X36614D01*
X36352Y91863D02*
X35893Y92322D01*
X34975D01*
X34516Y91863D01*
Y90026D01*
X34975Y89567D01*
X35893D01*
X36352Y90026D01*
X39107Y89567D02*
X37271D01*
X39107Y91404D01*
Y91863D01*
X38648Y92322D01*
X37730D01*
X37271Y91863D01*
X40026D02*
X40485Y92322D01*
X41403D01*
X41862Y91863D01*
Y90026D01*
X41403Y89567D01*
X40485D01*
X40026Y90026D01*
Y91863D01*
X22638Y85959D02*
X25393Y87795D01*
X22638D02*
X25393Y85959D01*
Y88714D02*
Y89632D01*
Y89173D01*
X22638D01*
X23097Y88714D01*
D11*
X2362Y107480D02*
X3858D01*
X25591Y104016D02*
Y107480D01*
Y91732D02*
Y95197D01*
X2362Y91732D02*
X3858D01*
X2362D02*
Y107480D01*
X13465D02*
X25591D01*
X13465Y91732D02*
X25591D01*
X21516Y114480D02*
X24016Y108480D01*
X21516Y114480D02*
X26516D01*
X24016Y108480D02*
X26516Y114480D01*
D12*
X65074Y168536D02*
X63874D01*
X63274Y167937D01*
Y165537D01*
X63874Y164938D01*
X65074D01*
X65674Y165537D01*
Y167937D01*
X65074Y168536D01*
X66873Y167337D02*
Y165537D01*
X67473Y164938D01*
X69273D01*
Y167337D01*
X71072Y167937D02*
Y167337D01*
X70472D01*
X71672D01*
X71072D01*
Y165537D01*
X71672Y164938D01*
X75271D02*
X74071D01*
X73471Y165537D01*
Y166737D01*
X74071Y167337D01*
X75271D01*
X75870Y166737D01*
Y166137D01*
X73471D01*
X77070Y167337D02*
Y164938D01*
Y166137D01*
X77670Y166737D01*
X78270Y167337D01*
X78869D01*
X84268Y168536D02*
Y164938D01*
X86067D01*
X86667Y165537D01*
Y167937D01*
X86067Y168536D01*
X84268D01*
X87866Y164938D02*
X89066D01*
X88466D01*
Y167337D01*
X87866D01*
X91465D02*
X92665D01*
X93265Y166737D01*
Y164938D01*
X91465D01*
X90865Y165537D01*
X91465Y166137D01*
X93265D01*
X94464Y164938D02*
Y167337D01*
X95064D01*
X95664Y166737D01*
Y164938D01*
Y166737D01*
X96264Y167337D01*
X96864Y166737D01*
Y164938D01*
X99863D02*
X98663D01*
X98063Y165537D01*
Y166737D01*
X98663Y167337D01*
X99863D01*
X100462Y166737D01*
Y166137D01*
X98063D01*
X102262Y167937D02*
Y167337D01*
X101662D01*
X102862D01*
X102262D01*
Y165537D01*
X102862Y164938D01*
X106460D02*
X105261D01*
X104661Y165537D01*
Y166737D01*
X105261Y167337D01*
X106460D01*
X107060Y166737D01*
Y166137D01*
X104661D01*
X108260Y167337D02*
Y164938D01*
Y166137D01*
X108860Y166737D01*
X109459Y167337D01*
X110059D01*
X115458Y166137D02*
X117857D01*
X115458Y167337D02*
X117857D01*
X122655Y164938D02*
X123855D01*
X123255D01*
Y168536D01*
X122655Y167937D01*
X128053Y168536D02*
X126854Y167937D01*
X125654Y166737D01*
Y165537D01*
X126254Y164938D01*
X127454D01*
X128053Y165537D01*
Y166137D01*
X127454Y166737D01*
X125654D01*
X129253Y167937D02*
X129853Y168536D01*
X131053D01*
X131652Y167937D01*
Y165537D01*
X131053Y164938D01*
X129853D01*
X129253Y165537D01*
Y167937D01*
X132852D02*
X133452Y168536D01*
X134651D01*
X135251Y167937D01*
Y165537D01*
X134651Y164938D01*
X133452D01*
X132852Y165537D01*
Y167937D01*
X140050Y164938D02*
Y167337D01*
X140649D01*
X141249Y166737D01*
Y164938D01*
Y166737D01*
X141849Y167337D01*
X142449Y166737D01*
Y164938D01*
X143649D02*
X144848D01*
X144248D01*
Y167337D01*
X143649D01*
X146648Y164938D02*
X147847D01*
X147247D01*
Y168536D01*
X146648D01*
X149647Y164938D02*
X151446D01*
X152046Y165537D01*
X151446Y166137D01*
X150246D01*
X149647Y166737D01*
X150246Y167337D01*
X152046D01*
X158044Y164938D02*
X156844Y166137D01*
Y167337D01*
X158044Y168536D01*
X159843Y164938D02*
Y167337D01*
X161043Y168536D01*
X162242Y167337D01*
Y164938D01*
Y166737D01*
X159843D01*
X163442Y163738D02*
Y167337D01*
X165242D01*
X165841Y166737D01*
Y165537D01*
X165242Y164938D01*
X163442D01*
X167041Y163738D02*
Y167337D01*
X168840D01*
X169440Y166737D01*
Y165537D01*
X168840Y164938D01*
X167041D01*
X170640Y167337D02*
Y164938D01*
Y166137D01*
X171240Y166737D01*
X171839Y167337D01*
X172439D01*
X174838Y164938D02*
X176038D01*
X176638Y165537D01*
Y166737D01*
X176038Y167337D01*
X174838D01*
X174239Y166737D01*
Y165537D01*
X174838Y164938D01*
X177838Y167337D02*
X180237Y164938D01*
X179037Y166137D01*
X180237Y167337D01*
X177838Y164938D01*
X181436D02*
Y165537D01*
X182036D01*
Y164938D01*
X181436D01*
X184435D02*
X185635Y166137D01*
Y167337D01*
X184435Y168536D01*
X63274Y173236D02*
X64474D01*
X63874D01*
Y169638D01*
X63274D01*
X64474D01*
X66273D02*
Y172037D01*
X68073D01*
X68673Y171437D01*
Y169638D01*
X69872D02*
Y172037D01*
X71672D01*
X72272Y171437D01*
Y169638D01*
X75271D02*
X74071D01*
X73471Y170237D01*
Y171437D01*
X74071Y172037D01*
X75271D01*
X75870Y171437D01*
Y170837D01*
X73471D01*
X77070Y172037D02*
Y169638D01*
Y170837D01*
X77670Y171437D01*
X78270Y172037D01*
X78869D01*
X84268Y173236D02*
Y169638D01*
X86067D01*
X86667Y170237D01*
Y172637D01*
X86067Y173236D01*
X84268D01*
X87866Y169638D02*
X89066D01*
X88466D01*
Y172037D01*
X87866D01*
X91465D02*
X92665D01*
X93265Y171437D01*
Y169638D01*
X91465D01*
X90865Y170237D01*
X91465Y170837D01*
X93265D01*
X94464Y169638D02*
Y172037D01*
X95064D01*
X95664Y171437D01*
Y169638D01*
Y171437D01*
X96264Y172037D01*
X96864Y171437D01*
Y169638D01*
X99863D02*
X98663D01*
X98063Y170237D01*
Y171437D01*
X98663Y172037D01*
X99863D01*
X100462Y171437D01*
Y170837D01*
X98063D01*
X102262Y172637D02*
Y172037D01*
X101662D01*
X102862D01*
X102262D01*
Y170237D01*
X102862Y169638D01*
X106460D02*
X105261D01*
X104661Y170237D01*
Y171437D01*
X105261Y172037D01*
X106460D01*
X107060Y171437D01*
Y170837D01*
X104661D01*
X108260Y172037D02*
Y169638D01*
Y170837D01*
X108860Y171437D01*
X109459Y172037D01*
X110059D01*
X115458Y170837D02*
X117857D01*
X115458Y172037D02*
X117857D01*
X125055Y173236D02*
X122655D01*
Y171437D01*
X123855Y172037D01*
X124455D01*
X125055Y171437D01*
Y170237D01*
X124455Y169638D01*
X123255D01*
X122655Y170237D01*
X126254D02*
X126854Y169638D01*
X128053D01*
X128653Y170237D01*
Y172637D01*
X128053Y173236D01*
X126854D01*
X126254Y172637D01*
Y172037D01*
X126854Y171437D01*
X128653D01*
X132252Y169638D02*
X129853D01*
X132252Y172037D01*
Y172637D01*
X131652Y173236D01*
X130453D01*
X129853Y172637D01*
X137051Y169638D02*
Y172037D01*
X137651D01*
X138250Y171437D01*
Y169638D01*
Y171437D01*
X138850Y172037D01*
X139450Y171437D01*
Y169638D01*
X140649D02*
X141849D01*
X141249D01*
Y172037D01*
X140649D01*
X143649Y169638D02*
X144848D01*
X144248D01*
Y173236D01*
X143649D01*
X146648Y169638D02*
X148447D01*
X149047Y170237D01*
X148447Y170837D01*
X147247D01*
X146648Y171437D01*
X147247Y172037D01*
X149047D01*
X155045Y169638D02*
X153845Y170837D01*
Y172037D01*
X155045Y173236D01*
X156844Y169638D02*
Y172037D01*
X158044Y173236D01*
X159244Y172037D01*
Y169638D01*
Y171437D01*
X156844D01*
X160443Y168438D02*
Y172037D01*
X162242D01*
X162842Y171437D01*
Y170237D01*
X162242Y169638D01*
X160443D01*
X164042Y168438D02*
Y172037D01*
X165841D01*
X166441Y171437D01*
Y170237D01*
X165841Y169638D01*
X164042D01*
X167641Y172037D02*
Y169638D01*
Y170837D01*
X168241Y171437D01*
X168840Y172037D01*
X169440D01*
X171839Y169638D02*
X173039D01*
X173639Y170237D01*
Y171437D01*
X173039Y172037D01*
X171839D01*
X171240Y171437D01*
Y170237D01*
X171839Y169638D01*
X174838Y172037D02*
X177238Y169638D01*
X176038Y170837D01*
X177238Y172037D01*
X174838Y169638D01*
X178437D02*
Y170237D01*
X179037D01*
Y169638D01*
X178437D01*
X181436D02*
X182636Y170837D01*
Y172037D01*
X181436Y173236D01*
X63274Y177936D02*
X65674D01*
X64474D01*
Y174338D01*
X66873Y176737D02*
Y174338D01*
Y175537D01*
X67473Y176137D01*
X68073Y176737D01*
X68673D01*
X71072D02*
X72272D01*
X72871Y176137D01*
Y174338D01*
X71072D01*
X70472Y174937D01*
X71072Y175537D01*
X72871D01*
X76470Y176737D02*
X74671D01*
X74071Y176137D01*
Y174937D01*
X74671Y174338D01*
X76470D01*
X79469D02*
X78270D01*
X77670Y174937D01*
Y176137D01*
X78270Y176737D01*
X79469D01*
X80069Y176137D01*
Y175537D01*
X77670D01*
X87267Y177337D02*
X86667Y177936D01*
X85467D01*
X84868Y177337D01*
Y176737D01*
X85467Y176137D01*
X86667D01*
X87267Y175537D01*
Y174937D01*
X86667Y174338D01*
X85467D01*
X84868Y174937D01*
X88466Y173138D02*
Y176737D01*
X90266D01*
X90865Y176137D01*
Y174937D01*
X90266Y174338D01*
X88466D01*
X92665Y176737D02*
X93865D01*
X94464Y176137D01*
Y174338D01*
X92665D01*
X92065Y174937D01*
X92665Y175537D01*
X94464D01*
X98063Y176737D02*
X96264D01*
X95664Y176137D01*
Y174937D01*
X96264Y174338D01*
X98063D01*
X99263D02*
X100462D01*
X99863D01*
Y176737D01*
X99263D01*
X102262Y174338D02*
Y176737D01*
X104061D01*
X104661Y176137D01*
Y174338D01*
X107060Y173138D02*
X107660D01*
X108260Y173738D01*
Y176737D01*
X106460D01*
X105861Y176137D01*
Y174937D01*
X106460Y174338D01*
X108260D01*
X113058Y175537D02*
X115458D01*
X113058Y176737D02*
X115458D01*
X122655Y177936D02*
X120256D01*
Y176137D01*
X121456Y176737D01*
X122055D01*
X122655Y176137D01*
Y174937D01*
X122055Y174338D01*
X120856D01*
X120256Y174937D01*
X123855Y174338D02*
Y174937D01*
X124455D01*
Y174338D01*
X123855D01*
X126854Y174937D02*
X127454Y174338D01*
X128653D01*
X129253Y174937D01*
Y177337D01*
X128653Y177936D01*
X127454D01*
X126854Y177337D01*
Y176737D01*
X127454Y176137D01*
X129253D01*
X130453Y177337D02*
X131053Y177936D01*
X132252D01*
X132852Y177337D01*
Y176737D01*
X132252Y176137D01*
X132852Y175537D01*
Y174937D01*
X132252Y174338D01*
X131053D01*
X130453Y174937D01*
Y175537D01*
X131053Y176137D01*
X130453Y176737D01*
Y177337D01*
X131053Y176137D02*
X132252D01*
X137651Y174338D02*
Y176737D01*
X138250D01*
X138850Y176137D01*
Y174338D01*
Y176137D01*
X139450Y176737D01*
X140050Y176137D01*
Y174338D01*
X141249D02*
X142449D01*
X141849D01*
Y176737D01*
X141249D01*
X144248Y174338D02*
X145448D01*
X144848D01*
Y177936D01*
X144248D01*
X147247Y174338D02*
X149047D01*
X149647Y174937D01*
X149047Y175537D01*
X147847D01*
X147247Y176137D01*
X147847Y176737D01*
X149647D01*
X63274Y182536D02*
X65674D01*
X64474D01*
Y178938D01*
X66873Y181337D02*
Y178938D01*
Y180137D01*
X67473Y180737D01*
X68073Y181337D01*
X68673D01*
X71072D02*
X72272D01*
X72871Y180737D01*
Y178938D01*
X71072D01*
X70472Y179537D01*
X71072Y180137D01*
X72871D01*
X76470Y181337D02*
X74671D01*
X74071Y180737D01*
Y179537D01*
X74671Y178938D01*
X76470D01*
X79469D02*
X78270D01*
X77670Y179537D01*
Y180737D01*
X78270Y181337D01*
X79469D01*
X80069Y180737D01*
Y180137D01*
X77670D01*
X84868Y182536D02*
Y178938D01*
X86067Y180137D01*
X87267Y178938D01*
Y182536D01*
X88466Y178938D02*
X89666D01*
X89066D01*
Y181337D01*
X88466D01*
X93865Y182536D02*
Y178938D01*
X92065D01*
X91465Y179537D01*
Y180737D01*
X92065Y181337D01*
X93865D01*
X95664Y181937D02*
Y181337D01*
X95064D01*
X96264D01*
X95664D01*
Y179537D01*
X96264Y178938D01*
X98063Y182536D02*
Y178938D01*
Y180737D01*
X98663Y181337D01*
X99863D01*
X100462Y180737D01*
Y178938D01*
X105261Y180137D02*
X107660D01*
X105261Y181337D02*
X107660D01*
X112459Y182536D02*
X114858D01*
Y181937D01*
X112459Y179537D01*
Y178938D01*
X116057D02*
Y179537D01*
X116657D01*
Y178938D01*
X116057D01*
X119056Y179537D02*
X119656Y178938D01*
X120856D01*
X121456Y179537D01*
Y181937D01*
X120856Y182536D01*
X119656D01*
X119056Y181937D01*
Y181337D01*
X119656Y180737D01*
X121456D01*
X122655Y179537D02*
X123255Y178938D01*
X124455D01*
X125055Y179537D01*
Y181937D01*
X124455Y182536D01*
X123255D01*
X122655Y181937D01*
Y181337D01*
X123255Y180737D01*
X125055D01*
X129853Y178938D02*
Y181337D01*
X130453D01*
X131053Y180737D01*
Y178938D01*
Y180737D01*
X131652Y181337D01*
X132252Y180737D01*
Y178938D01*
X133452D02*
X134651D01*
X134052D01*
Y181337D01*
X133452D01*
X136451Y178938D02*
X137651D01*
X137051D01*
Y182536D01*
X136451D01*
X139450Y178938D02*
X141249D01*
X141849Y179537D01*
X141249Y180137D01*
X140050D01*
X139450Y180737D01*
X140050Y181337D01*
X141849D01*
X63274Y187236D02*
X65674D01*
X64474D01*
Y183638D01*
X66873Y186037D02*
Y184237D01*
X67473Y183638D01*
X69273D01*
Y186037D01*
X70472D02*
Y183638D01*
Y184837D01*
X71072Y185437D01*
X71672Y186037D01*
X72272D01*
X74071Y183638D02*
Y186037D01*
X75870D01*
X76470Y185437D01*
Y183638D01*
X77670D02*
X79469D01*
X80069Y184237D01*
X79469Y184837D01*
X78270D01*
X77670Y185437D01*
X78270Y186037D01*
X80069D01*
X84868Y184837D02*
X87267D01*
X84868Y186037D02*
X87267D01*
X92065Y186637D02*
X92665Y187236D01*
X93865D01*
X94464Y186637D01*
Y186037D01*
X93865Y185437D01*
X93265D01*
X93865D01*
X94464Y184837D01*
Y184237D01*
X93865Y183638D01*
X92665D01*
X92065Y184237D01*
X98063Y187236D02*
X96864Y186637D01*
X95664Y185437D01*
Y184237D01*
X96264Y183638D01*
X97463D01*
X98063Y184237D01*
Y184837D01*
X97463Y185437D01*
X95664D01*
X63274Y191936D02*
Y188338D01*
X65674D01*
X67473Y190737D02*
X68673D01*
X69273Y190137D01*
Y188338D01*
X67473D01*
X66873Y188937D01*
X67473Y189537D01*
X69273D01*
X70472Y190737D02*
Y188937D01*
X71072Y188338D01*
X72871D01*
Y187738D01*
X72272Y187138D01*
X71672D01*
X72871Y188338D02*
Y190737D01*
X75870Y188338D02*
X74671D01*
X74071Y188937D01*
Y190137D01*
X74671Y190737D01*
X75870D01*
X76470Y190137D01*
Y189537D01*
X74071D01*
X77670Y190737D02*
Y188338D01*
Y189537D01*
X78270Y190137D01*
X78869Y190737D01*
X79469D01*
X81269Y188338D02*
X83068D01*
X83668Y188937D01*
X83068Y189537D01*
X81868D01*
X81269Y190137D01*
X81868Y190737D01*
X83668D01*
X88466Y189537D02*
X90865D01*
X88466Y190737D02*
X90865D01*
X97463Y188338D02*
Y191936D01*
X95664Y190137D01*
X98063D01*
X63274Y194837D02*
X65674D01*
X66873D02*
X69273D01*
X70472D02*
X72871D01*
X74071D02*
X76470D01*
X77670D02*
X80069D01*
X81269D02*
X83668D01*
X84868D02*
X87267D01*
X88466D02*
X90865D01*
X92065D02*
X94464D01*
X95664D02*
X98063D01*
X99263D02*
X101662D01*
X102862D02*
X105261D01*
X106460D02*
X108860D01*
X110059D02*
X112459D01*
X65674Y200737D02*
X65074Y201336D01*
X63874D01*
X63274Y200737D01*
Y198337D01*
X63874Y197738D01*
X65074D01*
X65674Y198337D01*
X67473Y197738D02*
X68673D01*
X69273Y198337D01*
Y199537D01*
X68673Y200137D01*
X67473D01*
X66873Y199537D01*
Y198337D01*
X67473Y197738D01*
X70472D02*
X71672D01*
X71072D01*
Y200137D01*
X70472D01*
X73471Y197738D02*
X74671D01*
X74071D01*
Y201336D01*
X73471D01*
X80069Y197738D02*
Y201336D01*
X81868D01*
X82468Y200737D01*
Y199537D01*
X81868Y198937D01*
X80069D01*
X84268Y200137D02*
X85467D01*
X86067Y199537D01*
Y197738D01*
X84268D01*
X83668Y198337D01*
X84268Y198937D01*
X86067D01*
X87267Y200137D02*
Y197738D01*
Y198937D01*
X87866Y199537D01*
X88466Y200137D01*
X89066D01*
X91465D02*
X92665D01*
X93265Y199537D01*
Y197738D01*
X91465D01*
X90865Y198337D01*
X91465Y198937D01*
X93265D01*
X94464Y197738D02*
Y200137D01*
X95064D01*
X95664Y199537D01*
Y197738D01*
Y199537D01*
X96264Y200137D01*
X96864Y199537D01*
Y197738D01*
X99863D02*
X98663D01*
X98063Y198337D01*
Y199537D01*
X98663Y200137D01*
X99863D01*
X100462Y199537D01*
Y198937D01*
X98063D01*
X102262Y200737D02*
Y200137D01*
X101662D01*
X102862D01*
X102262D01*
Y198337D01*
X102862Y197738D01*
X106460D02*
X105261D01*
X104661Y198337D01*
Y199537D01*
X105261Y200137D01*
X106460D01*
X107060Y199537D01*
Y198937D01*
X104661D01*
X108260Y200137D02*
Y197738D01*
Y198937D01*
X108860Y199537D01*
X109459Y200137D01*
X110059D01*
X111859Y197738D02*
X113658D01*
X114258Y198337D01*
X113658Y198937D01*
X112459D01*
X111859Y199537D01*
X112459Y200137D01*
X114258D01*
D13*
X47970Y163235D02*
Y157237D01*
X51968D01*
X53968D02*
X55967D01*
X54968D01*
Y163235D01*
X53968Y162236D01*
M02*
