G04*
G04 #@! TF.GenerationSoftware,Altium Limited,Altium Designer,23.7.1 (13)*
G04*
G04 Layer_Physical_Order=4*
G04 Layer_Color=16711680*
%FSLAX25Y25*%
%MOIN*%
G70*
G04*
G04 #@! TF.SameCoordinates,EF7137CB-2ACC-42BF-A9FD-E08E9475024B*
G04*
G04*
G04 #@! TF.FilePolarity,Positive*
G04*
G01*
G75*
%ADD26C,0.01400*%
%ADD28C,0.00799*%
%ADD29C,0.04000*%
D26*
X99815Y99547D02*
X102061Y96547D01*
X42419Y107547D02*
X44819D01*
D28*
X47219Y99547D02*
X47277Y89032D01*
X52774Y68742D01*
X63327Y50580D01*
X78211Y35778D01*
X96406Y25341D01*
X116666Y19972D01*
X137611Y20030D01*
X157812Y25504D01*
X175895Y36011D01*
X190632Y50830D01*
X201023Y68944D01*
X206368Y89117D01*
X206310Y109969D02*
X206368Y89117D01*
X200860Y130081D02*
X206310Y109969D01*
X190399Y148085D02*
X200860Y130081D01*
X175645Y162756D02*
X190399Y148085D01*
X157610Y173102D02*
X175645Y162756D01*
X137527Y178423D02*
X157610Y173102D01*
X116766Y178364D02*
X137527Y178423D01*
X96742Y172939D02*
X116766Y178364D01*
X78819Y162523D02*
X96742Y172939D01*
X64212Y147835D02*
X78819Y162523D01*
X53913Y129879D02*
X64212Y147835D01*
X48616Y109885D02*
X53913Y129879D01*
X48616Y109885D02*
X48674Y89216D01*
X54076Y69281D01*
X64445Y51437D01*
X79069Y36896D01*
X96945Y26643D01*
X116850Y21369D01*
X137427Y21427D01*
X157273Y26805D01*
X175038Y37129D01*
X189514Y51688D01*
X199721Y69484D01*
X204971Y89300D01*
X204913Y109785D02*
X204971Y89300D01*
X199558Y129542D02*
X204913Y109785D01*
X189281Y147227D02*
X199558Y129542D01*
X174787Y161638D02*
X189281Y147227D01*
X157071Y171800D02*
X174787Y161638D01*
X137343Y177026D02*
X157071Y171800D01*
X116950Y176967D02*
X137343Y177026D01*
X97282Y171637D02*
X116950Y176967D01*
X79677Y161406D02*
X97282Y171637D01*
X65330Y146977D02*
X79677Y161406D01*
X55215Y129340D02*
X65330Y146977D01*
X50013Y109701D02*
X55215Y129340D01*
X50013Y109701D02*
X50071Y89400D01*
X55378Y69821D01*
X65563Y52295D01*
X79927Y38014D01*
X97484Y27944D01*
X117034Y22766D01*
X137243Y22824D01*
X156734Y28107D01*
X174180Y38247D01*
X188396Y52545D01*
X198419Y70023D01*
X203574Y89484D01*
X203516Y109601D02*
X203574Y89484D01*
X198257Y129003D02*
X203516Y109601D01*
X188163Y146369D02*
X198257Y129003D01*
X173930Y160521D02*
X188163Y146369D01*
X156532Y170498D02*
X173930Y160521D01*
X137159Y175629D02*
X156532Y170498D01*
X117134Y175570D02*
X137159Y175629D01*
X97821Y170335D02*
X117134Y175570D01*
X80534Y160288D02*
X97821Y170335D01*
X66448Y146119D02*
X80534Y160288D01*
X56517Y128801D02*
X66448Y146119D01*
X51410Y109517D02*
X56517Y128801D01*
X51410Y109517D02*
X51468Y89584D01*
X56679Y70360D01*
X66681Y53153D01*
X80785Y39132D01*
X98023Y29246D01*
X117218Y24163D01*
X137059Y24221D01*
X156195Y29409D01*
X173322Y39365D01*
X187278Y53403D01*
X197118Y70562D01*
X202177Y89668D01*
X202119Y109417D02*
X202177Y89668D01*
X196955Y128464D02*
X202119Y109417D01*
X187045Y145512D02*
X196955Y128464D01*
X173072Y159403D02*
X187045Y145512D01*
X155992Y169196D02*
X173072Y159403D01*
X136975Y174232D02*
X155992Y169196D01*
X117318Y174173D02*
X136975Y174232D01*
X98360Y169034D02*
X117318Y174173D01*
X81392Y159170D02*
X98360Y169034D01*
X67566Y145261D02*
X81392Y159170D01*
X57819Y128262D02*
X67566Y145261D01*
X52807Y109333D02*
X57819Y128262D01*
X52807Y109333D02*
X52865Y89768D01*
X57981Y70899D01*
X67799Y54011D01*
X81642Y40250D01*
X98562Y30548D01*
X117402Y25560D01*
X136875Y25618D01*
X155655Y30711D01*
X172464Y40483D01*
X186160Y54261D01*
X195816Y71101D01*
X200780Y89852D01*
X200722Y109233D02*
X200780Y89852D01*
X195653Y127925D02*
X200722Y109233D01*
X185927Y144654D02*
X195653Y127925D01*
X172214Y158285D02*
X185927Y144654D01*
X155453Y167894D02*
X172214Y158285D01*
X136791Y172835D02*
X155453Y167894D01*
X117502Y172776D02*
X136791Y172835D01*
X98899Y167732D02*
X117502Y172776D01*
X82250Y158052D02*
X98899Y167732D01*
X68684Y144404D02*
X82250Y158052D01*
X59120Y127722D02*
X68684Y144404D01*
X54204Y109149D02*
X59120Y127722D01*
X54204Y109149D02*
X54262Y89952D01*
X59283Y71438D01*
X68917Y54868D01*
X82500Y41368D01*
X99102Y31850D01*
X117586Y26957D01*
X136691Y27015D01*
X155116Y32013D01*
X171606Y41600D01*
X185042Y55119D01*
X194514Y71640D01*
X199383Y90036D01*
X199325Y109050D02*
X199383Y90036D01*
X194351Y127385D02*
X199325Y109050D01*
X184809Y143796D02*
X194351Y127385D01*
X171356Y157167D02*
X184809Y143796D01*
X154914Y166593D02*
X171356Y157167D01*
X136607Y171438D02*
X154914Y166593D01*
X117686Y171379D02*
X136607Y171438D01*
X99439Y166430D02*
X117686Y171379D01*
X83108Y156934D02*
X99439Y166430D01*
X69802Y143546D02*
X83108Y156934D01*
X60422Y127183D02*
X69802Y143546D01*
X55601Y108965D02*
X60422Y127183D01*
X55601Y108965D02*
X55659Y90136D01*
X60585Y71978D01*
X70035Y55726D01*
X83358Y42485D01*
X99641Y33152D01*
X117770Y28354D01*
X136508Y28412D01*
X154577Y33314D01*
X170749Y42718D01*
X183924Y55976D01*
X193212Y72180D01*
X197986Y90220D01*
X197928Y108866D02*
X197986Y90220D01*
X193050Y126846D02*
X197928Y108866D01*
X183692Y142938D02*
X193050Y126846D01*
X170498Y156049D02*
X183692Y142938D01*
X154375Y165291D02*
X170498Y156049D01*
X136423Y170041D02*
X154375Y165291D01*
X117870Y169982D02*
X136423Y170041D01*
X99978Y165128D02*
X117870Y169982D01*
X83965Y155816D02*
X99978Y165128D01*
X70920Y142688D02*
X83965Y155816D01*
X61724Y126644D02*
X70920Y142688D01*
X56998Y108781D02*
X61724Y126644D01*
X56998Y108781D02*
X57056Y90320D01*
X61887Y72517D01*
X71153Y56584D01*
X84216Y43603D01*
X100180Y34453D01*
X117954Y29751D01*
X136324Y29809D01*
X154038Y34616D01*
X169891Y43836D01*
X182807Y56834D01*
X191910Y72719D01*
X196589Y90404D01*
X196531Y108682D02*
X196589Y90404D01*
X191748Y126307D02*
X196531Y108682D01*
X182574Y142080D02*
X191748Y126307D01*
X169641Y154931D02*
X182574Y142080D01*
X153835Y163989D02*
X169641Y154931D01*
X136239Y168644D02*
X153835Y163989D01*
X118053Y168585D02*
X136239Y168644D01*
X100517Y163826D02*
X118053Y168585D01*
X84823Y154698D02*
X100517Y163826D01*
X72038Y141830D02*
X84823Y154698D01*
X63026Y126105D02*
X72038Y141830D01*
X58395Y108598D02*
X63026Y126105D01*
X58395Y108598D02*
X58453Y90504D01*
X63188Y73056D01*
X72271Y57442D01*
X85074Y44721D01*
X100719Y35755D01*
X118138Y31148D01*
X136140Y31206D01*
X153498Y35918D01*
X169033Y44954D01*
X181689Y57692D01*
X190609Y73258D01*
X195192Y90588D01*
X195134Y108498D02*
X195192Y90588D01*
X190446Y125768D02*
X195134Y108498D01*
X181456Y141223D02*
X190446Y125768D01*
X168783Y153813D02*
X181456Y141223D01*
X153296Y162687D02*
X168783Y153813D01*
X136056Y167247D02*
X153296Y162687D01*
X118237Y167188D02*
X136056Y167247D01*
X101056Y162524D02*
X118237Y167188D01*
X85681Y153580D02*
X101056Y162524D01*
X73155Y140972D02*
X85681Y153580D01*
X64328Y125566D02*
X73155Y140972D01*
X59792Y108414D02*
X64328Y125566D01*
X59792Y108414D02*
X59850Y90687D01*
X64490Y73595D01*
X73388Y58300D01*
X85931Y45839D01*
X101259Y37057D01*
X118322Y32545D01*
X135956Y32603D01*
X152959Y37220D01*
X168175Y46072D01*
X180571Y58550D01*
X189307Y73797D01*
X193795Y90772D01*
X193737Y108314D02*
X193795Y90772D01*
X189144Y125229D02*
X193737Y108314D01*
X180338Y140365D02*
X189144Y125229D01*
X167925Y152695D02*
X180338Y140365D01*
X152757Y161386D02*
X167925Y152695D01*
X135872Y165850D02*
X152757Y161386D01*
X118421Y165791D02*
X135872Y165850D01*
X101595Y161223D02*
X118421Y165791D01*
X86539Y152462D02*
X101595Y161223D01*
X74273Y140115D02*
X86539Y152462D01*
X65629Y125026D02*
X74273Y140115D01*
X61189Y108230D02*
X65629Y125026D01*
X61189Y108230D02*
X61247Y90871D01*
X65792Y74134D01*
X74506Y59157D01*
X86789Y46957D01*
X101798Y38359D01*
X118506Y33942D01*
X135772Y34000D01*
X152420Y38522D01*
X167317Y47190D01*
X179453Y59408D01*
X188005Y74337D01*
X192398Y90956D01*
X192340Y108130D02*
X192398Y90956D01*
X187842Y124689D02*
X192340Y108130D01*
X179220Y139507D02*
X187842Y124689D01*
X167067Y151577D02*
X179220Y139507D01*
X152218Y160084D02*
X167067Y151577D01*
X135688Y164453D02*
X152218Y160084D01*
X118605Y164394D02*
X135688Y164453D01*
X102135Y159921D02*
X118605Y164394D01*
X87397Y151345D02*
X102135Y159921D01*
X75391Y139257D02*
X87397Y151345D01*
X66931Y124487D02*
X75391Y139257D01*
X62586Y108046D02*
X66931Y124487D01*
X62586Y108046D02*
X62644Y91055D01*
X67094Y74674D01*
X75624Y60015D01*
X87647Y48075D01*
X102337Y39661D01*
X118690Y35339D01*
X135588Y35397D01*
X151881Y39823D01*
X166460Y48308D01*
X178335Y60265D01*
X186703Y74876D01*
X191001Y91140D01*
X190943Y107946D02*
X191001Y91140D01*
X186540Y124150D02*
X190943Y107946D01*
X178102Y138649D02*
X186540Y124150D01*
X166209Y150460D02*
X178102Y138649D01*
X151679Y158782D02*
X166209Y150460D01*
X135504Y163056D02*
X151679Y158782D01*
X118789Y162997D02*
X135504Y163056D01*
X102674Y158619D02*
X118789Y162997D01*
X88254Y150227D02*
X102674Y158619D01*
X76509Y138399D02*
X88254Y150227D01*
X68233Y123948D02*
X76509Y138399D01*
X63983Y107862D02*
X68233Y123948D01*
X63983Y107862D02*
X64041Y91239D01*
X68396Y75213D01*
X76742Y60873D01*
X88505Y49193D01*
X102876Y40962D01*
X118873Y36736D01*
X135404Y36794D01*
X151342Y41125D01*
X165602Y49426D01*
X177217Y61123D01*
X185401Y75415D01*
X189604Y91324D01*
X189546Y107762D02*
X189604Y91324D01*
X185239Y123611D02*
X189546Y107762D01*
X176984Y137792D02*
X185239Y123611D01*
X165352Y149342D02*
X176984Y137792D01*
X151139Y157480D02*
X165352Y149342D01*
X135320Y161659D02*
X151139Y157480D01*
X118973Y161600D02*
X135320Y161659D01*
X103213Y157317D02*
X118973Y161600D01*
X89112Y149109D02*
X103213Y157317D01*
X77627Y137541D02*
X89112Y149109D01*
X69535Y123409D02*
X77627Y137541D01*
X65380Y107678D02*
X69535Y123409D01*
X65380Y107678D02*
X65438Y91423D01*
X69697Y75752D01*
X77860Y61731D01*
X89362Y50310D01*
X103415Y42264D01*
X119057Y38133D01*
X135220Y38191D01*
X150802Y42427D01*
X164744Y50543D01*
X176099Y61981D01*
X184100Y75954D01*
X188207Y91507D01*
X188149Y107578D02*
X188207Y91507D01*
X183937Y123072D02*
X188149Y107578D01*
X175866Y136934D02*
X183937Y123072D01*
X164494Y148224D02*
X175866Y136934D01*
X150600Y156178D02*
X164494Y148224D01*
X135136Y160262D02*
X150600Y156178D01*
X119157Y160203D02*
X135136Y160262D01*
X103752Y156016D02*
X119157Y160203D01*
X89970Y147991D02*
X103752Y156016D01*
X78745Y136684D02*
X89970Y147991D01*
X70836Y122869D02*
X78745Y136684D01*
X66777Y107494D02*
X70836Y122869D01*
X66777Y107494D02*
X66835Y91607D01*
X70999Y76291D01*
X78978Y62589D01*
X90220Y51428D01*
X103955Y43566D01*
X119241Y39530D01*
X135036Y39588D01*
X150263Y43729D01*
X163886Y51661D01*
X174981Y62839D01*
X182798Y76494D01*
X186810Y91691D01*
X186752Y107394D02*
X186810Y91691D01*
X182635Y122532D02*
X186752Y107394D01*
X174749Y136076D02*
X182635Y122532D01*
X163636Y147106D02*
X174749Y136076D01*
X150061Y154876D02*
X163636Y147106D01*
X134952Y158865D02*
X150061Y154876D01*
X119341Y158806D02*
X134952Y158865D01*
X104292Y154714D02*
X119341Y158806D01*
X90828Y146873D02*
X104292Y154714D01*
X79863Y135826D02*
X90828Y146873D01*
X72138Y122330D02*
X79863Y135826D01*
X68174Y107310D02*
X72138Y122330D01*
X68174Y107310D02*
X68232Y91791D01*
X72301Y76831D01*
X80096Y63446D01*
X91078Y52546D01*
X104494Y44868D01*
X119425Y40927D01*
X134852Y40985D01*
X149724Y45031D01*
X163029Y52779D01*
X173864Y63696D01*
X181496Y77033D01*
X185413Y91875D01*
X185355Y107210D02*
X185413Y91875D01*
X181333Y121993D02*
X185355Y107210D01*
X173631Y135218D02*
X181333Y121993D01*
X162778Y145988D02*
X173631Y135218D01*
X149522Y153575D02*
X162778Y145988D01*
X134768Y157468D02*
X149522Y153575D01*
X119525Y157409D02*
X134768Y157468D01*
X104831Y153412D02*
X119525Y157409D01*
X91685Y145755D02*
X104831Y153412D01*
X80981Y134968D02*
X91685Y145755D01*
X73440Y121791D02*
X80981Y134968D01*
X69571Y107126D02*
X73440Y121791D01*
X69571Y107126D02*
X69629Y91975D01*
X73603Y77370D01*
X81213Y64304D01*
X91936Y53664D01*
X105033Y46170D01*
X119609Y42324D01*
X134668Y42382D01*
X149185Y46332D01*
X162171Y53897D01*
X172746Y64554D01*
X180194Y77572D01*
X184016Y92059D01*
X183958Y107027D02*
X184016Y92059D01*
X180032Y121454D02*
X183958Y107027D01*
X172513Y134360D02*
X180032Y121454D01*
X161921Y144870D02*
X172513Y134360D01*
X148983Y152273D02*
X161921Y144870D01*
X134584Y156071D02*
X148983Y152273D01*
X119709Y156012D02*
X134584Y156071D01*
X105370Y152110D02*
X119709Y156012D01*
X92543Y144637D02*
X105370Y152110D01*
X82099Y134110D02*
X92543Y144637D01*
X74742Y121252D02*
X82099Y134110D01*
X70968Y106942D02*
X74742Y121252D01*
X70968Y106942D02*
X71026Y92159D01*
X74905Y77909D01*
X82331Y65162D01*
X92794Y54782D01*
X105572Y47471D01*
X119793Y43721D01*
X134485Y43779D01*
X148645Y47634D01*
X161313Y55015D01*
X171628Y65412D01*
X178893Y78111D01*
X182619Y92243D01*
X182561Y106843D02*
X182619Y92243D01*
X178730Y120915D02*
X182561Y106843D01*
X171395Y133503D02*
X178730Y120915D01*
X161063Y143752D02*
X171395Y133503D01*
X148443Y150971D02*
X161063Y143752D01*
X134400Y154674D02*
X148443Y150971D01*
X119893Y154615D02*
X134400Y154674D01*
X105909Y150808D02*
X119893Y154615D01*
X93401Y143519D02*
X105909Y150808D01*
X83216Y133253D02*
X93401Y143519D01*
X76044Y120713D02*
X83216Y133253D01*
X72365Y106758D02*
X76044Y120713D01*
X72365Y106758D02*
X72423Y92343D01*
X76206Y78448D01*
X83449Y66020D01*
X93651Y55900D01*
X106112Y48773D01*
X119977Y45118D01*
X134301Y45176D01*
X148106Y48936D01*
X160455Y56133D01*
X170510Y66270D01*
X177591Y78650D01*
X181222Y92427D01*
X181164Y106659D02*
X181222Y92427D01*
X177428Y120376D02*
X181164Y106659D01*
X170277Y132645D02*
X177428Y120376D01*
X160205Y142634D02*
X170277Y132645D01*
X147904Y149669D02*
X160205Y142634D01*
X134216Y153277D02*
X147904Y149669D01*
X120077Y153218D02*
X134216Y153277D01*
X106448Y149507D02*
X120077Y153218D01*
X94259Y142402D02*
X106448Y149507D01*
X84334Y132395D02*
X94259Y142402D01*
X77345Y120173D02*
X84334Y132395D01*
X73762Y106574D02*
X77345Y120173D01*
X73762Y106574D02*
X73820Y92527D01*
X77508Y78987D01*
X84567Y66877D01*
X94509Y57018D01*
X106651Y50075D01*
X120161Y46515D01*
X134117Y46573D01*
X147567Y50238D01*
X159598Y57251D01*
X169392Y67128D01*
X176289Y79190D01*
X179825Y92611D01*
X179767Y106475D02*
X179825Y92611D01*
X176126Y119836D02*
X179767Y106475D01*
X169159Y131787D02*
X176126Y119836D01*
X159347Y141517D02*
X169159Y131787D01*
X147365Y148368D02*
X159347Y141517D01*
X134032Y151880D02*
X147365Y148368D01*
X120261Y151821D02*
X134032Y151880D01*
X106988Y148205D02*
X120261Y151821D01*
X95117Y141284D02*
X106988Y148205D01*
X85452Y131537D02*
X95117Y141284D01*
X78647Y119634D02*
X85452Y131537D01*
X75159Y106391D02*
X78647Y119634D01*
X75159Y106391D02*
X75217Y92711D01*
X78810Y79527D01*
X85685Y67735D01*
X95367Y58136D01*
X107190Y51377D01*
X120345Y47912D01*
X133933Y47970D01*
X147028Y51539D01*
X158740Y58368D01*
X168274Y67985D01*
X174987Y79729D01*
X178428Y92795D01*
X178370Y106291D02*
X178428Y92795D01*
X174824Y119297D02*
X178370Y106291D01*
X168041Y130929D02*
X174824Y119297D01*
X158490Y140399D02*
X168041Y130929D01*
X146826Y147066D02*
X158490Y140399D01*
X133849Y150483D02*
X146826Y147066D01*
X120444Y150424D02*
X133849Y150483D01*
X107527Y146903D02*
X120444Y150424D01*
X95974Y140166D02*
X107527Y146903D01*
X86570Y130679D02*
X95974Y140166D01*
X79949Y119095D02*
X86570Y130679D01*
X76556Y106207D02*
X79949Y119095D01*
X76556Y106207D02*
X76614Y92895D01*
X80112Y80066D01*
X86803Y68593D01*
X96225Y59254D01*
X107729Y52679D01*
X120529Y49309D01*
X133749Y49367D01*
X146489Y52841D01*
X157882Y59486D01*
X167156Y68843D01*
X173685Y80268D01*
X177031Y92979D01*
X176973Y106107D02*
X177031Y92979D01*
X173523Y118758D02*
X176973Y106107D01*
X166923Y130071D02*
X173523Y118758D01*
X157632Y139281D02*
X166923Y130071D01*
X146286Y145764D02*
X157632Y139281D01*
X133665Y149086D02*
X146286Y145764D01*
X120628Y149027D02*
X133665Y149086D01*
X108066Y145601D02*
X120628Y149027D01*
X96832Y139048D02*
X108066Y145601D01*
X87688Y129821D02*
X96832Y139048D01*
X81251Y118556D02*
X87688Y129821D01*
X77953Y106023D02*
X81251Y118556D01*
X77953Y106023D02*
X78011Y93078D01*
X81414Y80605D01*
X87921Y69451D01*
X97082Y60371D01*
X108268Y53980D01*
X120713Y50706D01*
X133565Y50764D01*
X145949Y54143D01*
X157024Y60604D01*
X166038Y69701D01*
X172383Y80807D01*
X175634Y93163D01*
X175576Y105923D02*
X175634Y93163D01*
X172221Y118219D02*
X175576Y105923D01*
X165805Y129214D02*
X172221Y118219D01*
X156774Y138163D02*
X165805Y129214D01*
X145747Y144462D02*
X156774Y138163D01*
X133481Y147689D02*
X145747Y144462D01*
X120812Y147630D02*
X133481Y147689D01*
X108605Y144299D02*
X120812Y147630D01*
X97690Y137930D02*
X108605Y144299D01*
X88806Y128964D02*
X97690Y137930D01*
X82553Y118016D02*
X88806Y128964D01*
X79350Y105839D02*
X82553Y118016D01*
X79350Y105839D02*
X79408Y93262D01*
X82715Y81144D01*
X89039Y70309D01*
X97940Y61489D01*
X108808Y55282D01*
X120896Y52103D01*
X133381Y52161D01*
X145410Y55445D01*
X156166Y61722D01*
X164920Y70559D01*
X171082Y81346D01*
X174237Y93347D01*
X174179Y105739D02*
X174237Y93347D01*
X170919Y117679D02*
X174179Y105739D01*
X164688Y128356D02*
X170919Y117679D01*
X155916Y137045D02*
X164688Y128356D01*
X145208Y143160D02*
X155916Y137045D01*
X133297Y146292D02*
X145208Y143160D01*
X120996Y146233D02*
X133297Y146292D01*
X109145Y142998D02*
X120996Y146233D01*
X98548Y136812D02*
X109145Y142998D01*
X89924Y128106D02*
X98548Y136812D01*
X83854Y117477D02*
X89924Y128106D01*
X80747Y105655D02*
X83854Y117477D01*
X80747Y105655D02*
X80805Y93446D01*
X84017Y81683D01*
X90157Y71166D01*
X98798Y62607D01*
X109347Y56584D01*
X121081Y53500D01*
X133197Y53558D01*
X144871Y56747D01*
X155309Y62840D01*
X163803Y71416D01*
X169780Y81886D01*
X172840Y93530D01*
X172782Y105555D02*
X172840Y93530D01*
X169617Y117140D02*
X172782Y105555D01*
X163570Y127498D02*
X169617Y117140D01*
X155058Y135927D02*
X163570Y127498D01*
X144669Y141858D02*
X155058Y135927D01*
X133113Y144895D02*
X144669Y141858D01*
X121180Y144836D02*
X133113Y144895D01*
X109684Y141696D02*
X121180Y144836D01*
X99405Y135694D02*
X109684Y141696D01*
X91041Y127248D02*
X99405Y135694D01*
X85156Y116938D02*
X91041Y127248D01*
X82144Y105471D02*
X85156Y116938D01*
X82144Y105471D02*
X82202Y93630D01*
X85319Y82223D01*
X91274Y72024D01*
X99656Y63725D01*
X109886Y57886D01*
X121264Y54897D01*
X133013Y54955D01*
X144332Y58048D01*
X154451Y63958D01*
X162685Y72274D01*
X168478Y82425D01*
X171443Y93714D01*
X171385Y105371D02*
X171443Y93714D01*
X168315Y116601D02*
X171385Y105371D01*
X162452Y126640D02*
X168315Y116601D01*
X154201Y134809D02*
X162452Y126640D01*
X144130Y140557D02*
X154201Y134809D01*
X132929Y143498D02*
X144130Y140557D01*
X121364Y143439D02*
X132929Y143498D01*
X110223Y140394D02*
X121364Y143439D01*
X100263Y134576D02*
X110223Y140394D01*
X92159Y126390D02*
X100263Y134576D01*
X86458Y116399D02*
X92159Y126390D01*
X83541Y105287D02*
X86458Y116399D01*
X83541Y105287D02*
X83599Y93814D01*
X86621Y82762D01*
X92392Y72882D01*
X100514Y64843D01*
X110425Y59188D01*
X121448Y56294D01*
X132829Y56352D01*
X143792Y59350D01*
X153593Y65076D01*
X161567Y73132D01*
X167176Y82964D01*
X170046Y93898D01*
X169988Y105187D02*
X170046Y93898D01*
X167014Y116062D02*
X169988Y105187D01*
X161334Y125783D02*
X167014Y116062D01*
X153343Y133692D02*
X161334Y125783D01*
X143590Y139255D02*
X153343Y133692D01*
X132745Y142101D02*
X143590Y139255D01*
X121548Y142042D02*
X132745Y142101D01*
X110762Y139092D02*
X121548Y142042D01*
X101121Y133459D02*
X110762Y139092D01*
X93277Y125532D02*
X101121Y133459D01*
X87760Y115859D02*
X93277Y125532D01*
X84938Y105103D02*
X87760Y115859D01*
X84938Y105103D02*
X84996Y93998D01*
X87923Y83301D01*
X93510Y73740D01*
X101371Y65961D01*
X110965Y60489D01*
X121632Y57691D01*
X132645Y57749D01*
X143253Y60652D01*
X152735Y66194D01*
X160449Y73990D01*
X165875Y83503D01*
X168649Y94082D01*
X168591Y105003D02*
X168649Y94082D01*
X165712Y115523D02*
X168591Y105003D01*
X160216Y124925D02*
X165712Y115523D01*
X152485Y132574D02*
X160216Y124925D01*
X143051Y137953D02*
X152485Y132574D01*
X132561Y140704D02*
X143051Y137953D01*
X121732Y140645D02*
X132561Y140704D01*
X111302Y137790D02*
X121732Y140645D01*
X101979Y132341D02*
X111302Y137790D01*
X94395Y124675D02*
X101979Y132341D01*
X89062Y115320D02*
X94395Y124675D01*
X86335Y104919D02*
X89062Y115320D01*
X86335Y104919D02*
X86393Y94182D01*
X89224Y83840D01*
X94628Y74597D01*
X102229Y67079D01*
X111504Y61791D01*
X121816Y59088D01*
X132461Y59146D01*
X142714Y61954D01*
X151877Y67312D01*
X159331Y74848D01*
X164573Y84043D01*
X167252Y94266D01*
X167194Y104820D02*
X167252Y94266D01*
X164410Y114983D02*
X167194Y104820D01*
X159098Y124067D02*
X164410Y114983D01*
X151627Y131456D02*
X159098Y124067D01*
X142512Y136651D02*
X151627Y131456D01*
X132377Y139307D02*
X142512Y136651D01*
X121916Y139248D02*
X132377Y139307D01*
X111841Y136489D02*
X121916Y139248D01*
X102837Y131223D02*
X111841Y136489D01*
X95513Y123817D02*
X102837Y131223D01*
X90363Y114781D02*
X95513Y123817D01*
X87732Y104735D02*
X90363Y114781D01*
X87732Y104735D02*
X87790Y94366D01*
X90526Y84380D01*
X95746Y75455D01*
X103087Y68196D01*
X112043Y63093D01*
X122000Y60485D01*
X132278Y60543D01*
X142175Y63256D01*
X151020Y68429D01*
X158213Y75705D01*
X163271Y84582D01*
X165855Y94450D01*
X165797Y104636D02*
X165855Y94450D01*
X163108Y114444D02*
X165797Y104636D01*
X157980Y123209D02*
X163108Y114444D01*
X150769Y130338D02*
X157980Y123209D01*
X141973Y135350D02*
X150769Y130338D01*
X132193Y137910D02*
X141973Y135350D01*
X122100Y137851D02*
X132193Y137910D01*
X112380Y135187D02*
X122100Y137851D01*
X103694Y130105D02*
X112380Y135187D01*
X96631Y122959D02*
X103694Y130105D01*
X91665Y114242D02*
X96631Y122959D01*
X89129Y104551D02*
X91665Y114242D01*
X89129Y104551D02*
X89187Y94550D01*
X91828Y84919D01*
X96864Y76313D01*
X103945Y69314D01*
X112582Y64395D01*
X122184Y61882D01*
X132094Y61940D01*
X141636Y64557D01*
X150162Y69547D01*
X157095Y76563D01*
X161969Y85121D01*
X164458Y94634D01*
X164400Y104452D02*
X164458Y94634D01*
X161806Y113905D02*
X164400Y104452D01*
X156862Y122352D02*
X161806Y113905D01*
X149912Y129220D02*
X156862Y122352D01*
X141433Y134048D02*
X149912Y129220D01*
X132009Y136513D02*
X141433Y134048D01*
X122284Y136454D02*
X132009Y136513D01*
X112919Y133885D02*
X122284Y136454D01*
X104552Y128987D02*
X112919Y133885D01*
X97749Y122101D02*
X104552Y128987D01*
X92967Y113703D02*
X97749Y122101D01*
X90526Y104367D02*
X92967Y113703D01*
X90526Y104367D02*
X90584Y94734D01*
X93130Y85458D01*
X97982Y77171D01*
X104802Y70432D01*
X113121Y65697D01*
X122368Y63279D01*
X131910Y63337D01*
X141096Y65859D01*
X149304Y70665D01*
X155977Y77421D01*
X160667Y85660D01*
X163061Y94818D01*
X163003Y104268D02*
X163061Y94818D01*
X160505Y113366D02*
X163003Y104268D01*
X155745Y121494D02*
X160505Y113366D01*
X149054Y128102D02*
X155745Y121494D01*
X140894Y132746D02*
X149054Y128102D01*
X131825Y135116D02*
X140894Y132746D01*
X122468Y135057D02*
X131825Y135116D01*
X113458Y132583D02*
X122468Y135057D01*
X105410Y127869D02*
X113458Y132583D01*
X98867Y121244D02*
X105410Y127869D01*
X94269Y113163D02*
X98867Y121244D01*
X91923Y104183D02*
X94269Y113163D01*
X91923Y104183D02*
X91981Y94918D01*
X94432Y85997D01*
X99099Y78029D01*
X105660Y71550D01*
X113661Y66998D01*
X122552Y64676D01*
X131726Y64734D01*
X140557Y67161D01*
X148446Y71783D01*
X154860Y78279D01*
X159365Y86199D01*
X161664Y95002D01*
X161606Y104084D02*
X161664Y95002D01*
X159203Y112826D02*
X161606Y104084D01*
X154627Y120636D02*
X159203Y112826D01*
X148196Y126984D02*
X154627Y120636D01*
X140355Y131444D02*
X148196Y126984D01*
X131641Y133719D02*
X140355Y131444D01*
X122651Y133660D02*
X131641Y133719D01*
X113998Y131281D02*
X122651Y133660D01*
X106268Y126751D02*
X113998Y131281D01*
X99985Y120386D02*
X106268Y126751D01*
X95571Y112624D02*
X99985Y120386D01*
X93320Y103999D02*
X95571Y112624D01*
X93320Y103999D02*
X93378Y95101D01*
X95733Y86537D01*
X100217Y78886D01*
X106518Y72668D01*
X114200Y68300D01*
X122736Y66073D01*
X131542Y66131D01*
X140018Y68463D01*
X147589Y72901D01*
X153742Y79136D01*
X158064Y86739D01*
X160267Y95186D01*
X160209Y103900D02*
X160267Y95186D01*
X157901Y112287D02*
X160209Y103900D01*
X153509Y119778D02*
X157901Y112287D01*
X147338Y125866D02*
X153509Y119778D01*
X139816Y130142D02*
X147338Y125866D01*
X131457Y132322D02*
X139816Y130142D01*
X122835Y132263D02*
X131457Y132322D01*
X114537Y129980D02*
X122835Y132263D01*
X107125Y125633D02*
X114537Y129980D01*
X101102Y119528D02*
X107125Y125633D01*
X96872Y112085D02*
X101102Y119528D01*
X94717Y103816D02*
X96872Y112085D01*
X94717Y103816D02*
X94775Y95285D01*
X97035Y87076D01*
X101335Y79744D01*
X107376Y73786D01*
X114739Y69602D01*
X122920Y67470D01*
X131358Y67528D01*
X139479Y69765D01*
X146731Y74019D01*
X152624Y79994D01*
X156762Y87278D01*
X158870Y95370D01*
X158812Y103716D02*
X158870Y95370D01*
X156599Y111748D02*
X158812Y103716D01*
X152391Y118920D02*
X156599Y111748D01*
X146481Y124749D02*
X152391Y118920D01*
X139277Y128840D02*
X146481Y124749D01*
X131274Y130925D02*
X139277Y128840D01*
X123019Y130866D02*
X131274Y130925D01*
X115076Y128678D02*
X123019Y130866D01*
X107983Y124516D02*
X115076Y128678D01*
X102220Y118670D02*
X107983Y124516D01*
X98174Y111546D02*
X102220Y118670D01*
X96114Y103632D02*
X98174Y111546D01*
X96114Y103632D02*
X96172Y95469D01*
X98337Y87615D01*
X102453Y80602D01*
X108233Y74904D01*
X115278Y70904D01*
X123104Y68867D01*
X131174Y68925D01*
X138939Y71066D01*
X145873Y75137D01*
X151506Y80852D01*
X155460Y87817D01*
X157473Y95554D01*
X157415Y103532D02*
X157473Y95554D01*
X155297Y111209D02*
X157415Y103532D01*
X151273Y118063D02*
X155297Y111209D01*
X145623Y123631D02*
X151273Y118063D01*
X138737Y127539D02*
X145623Y123631D01*
X131090Y129528D02*
X138737Y127539D01*
X123203Y129469D02*
X131090Y129528D01*
X115615Y127376D02*
X123203Y129469D01*
X108841Y123398D02*
X115615Y127376D01*
X103338Y117813D02*
X108841Y123398D01*
X99476Y111007D02*
X103338Y117813D01*
X97511Y103448D02*
X99476Y111007D01*
X97511Y103448D02*
X97569Y99547D01*
X99815D01*
X47219D02*
Y103547D01*
X44819Y107547D02*
X47219Y103547D01*
D29*
X42453Y107500D02*
D03*
X102053Y102500D02*
D03*
X42453Y99500D02*
D03*
X102053Y96500D02*
D03*
M02*
