G04*
G04 #@! TF.GenerationSoftware,Altium Limited,Altium Designer,23.7.1 (13)*
G04*
G04 Layer_Physical_Order=1*
G04 Layer_Color=255*
%FSLAX25Y25*%
%MOIN*%
G70*
G04*
G04 #@! TF.SameCoordinates,EF7137CB-2ACC-42BF-A9FD-E08E9475024B*
G04*
G04*
G04 #@! TF.FilePolarity,Positive*
G04*
G01*
G75*
%ADD13C,0.01000*%
%ADD14R,0.02400X0.02200*%
%ADD15R,0.04921X0.03347*%
%ADD16R,0.07087X0.04724*%
%ADD17R,0.06102X0.02362*%
%ADD25C,0.01181*%
%ADD26C,0.01400*%
%ADD27C,0.01181*%
%ADD28C,0.00799*%
%ADD29C,0.04000*%
D13*
X33071Y103248D02*
X34244Y104421D01*
X37901D01*
X38745Y105266D01*
Y107547D01*
X42419Y91547D02*
X44819D01*
X38745Y107547D02*
X42406D01*
D14*
X38745D02*
D03*
X42419Y91547D02*
D03*
D15*
X33071Y103248D02*
D03*
Y95965D02*
D03*
D16*
X8661Y92520D02*
D03*
Y106693D02*
D03*
D17*
X24016Y97638D02*
D03*
Y101575D02*
D03*
D25*
X194488Y15748D02*
D03*
D26*
X102036Y102513D02*
X102061Y102547D01*
X99815Y99547D02*
X102036Y102513D01*
D27*
X22940Y101969D02*
X33071D01*
X24606Y97047D02*
X30746D01*
X33305Y94488D01*
X24016Y97638D02*
X24606Y97047D01*
X32677Y95276D02*
X42419Y91547D01*
D28*
X47219Y99547D02*
X47277Y110061D01*
X52774Y130351D01*
X63327Y148514D01*
X78211Y163315D01*
X96406Y173752D01*
X116666Y179121D01*
X137611Y179063D01*
X157812Y173590D01*
X175895Y163082D01*
X190632Y148264D01*
X201023Y130149D01*
X206368Y109977D01*
X206310Y89124D02*
X206368Y109977D01*
X200860Y69012D02*
X206310Y89124D01*
X190399Y51008D02*
X200860Y69012D01*
X175645Y36337D02*
X190399Y51008D01*
X157610Y25992D02*
X175645Y36337D01*
X137527Y20671D02*
X157610Y25992D01*
X116766Y20729D02*
X137527Y20671D01*
X96742Y26154D02*
X116766Y20729D01*
X78819Y36570D02*
X96742Y26154D01*
X64212Y51259D02*
X78819Y36570D01*
X53913Y69214D02*
X64212Y51259D01*
X48616Y89208D02*
X53913Y69214D01*
X48616Y89208D02*
X48674Y109877D01*
X54076Y129812D01*
X64445Y147656D01*
X79069Y162197D01*
X96945Y172451D01*
X116850Y177724D01*
X137427Y177666D01*
X157273Y172288D01*
X175038Y161964D01*
X189514Y147406D01*
X199721Y129610D01*
X204971Y109793D01*
X204913Y89308D02*
X204971Y109793D01*
X199558Y69551D02*
X204913Y89308D01*
X189281Y51866D02*
X199558Y69551D01*
X174787Y37455D02*
X189281Y51866D01*
X157071Y27294D02*
X174787Y37455D01*
X137343Y22068D02*
X157071Y27294D01*
X116950Y22126D02*
X137343Y22068D01*
X97282Y27456D02*
X116950Y22126D01*
X79677Y37688D02*
X97282Y27456D01*
X65330Y52116D02*
X79677Y37688D01*
X55215Y69753D02*
X65330Y52116D01*
X50013Y89392D02*
X55215Y69753D01*
X50013Y89392D02*
X50071Y109693D01*
X55378Y129273D01*
X65563Y146798D01*
X79927Y161080D01*
X97484Y171149D01*
X117034Y176327D01*
X137243Y176269D01*
X156734Y170986D01*
X174180Y160847D01*
X188396Y146548D01*
X198419Y129070D01*
X203574Y109609D01*
X203516Y89492D02*
X203574Y109609D01*
X198257Y70090D02*
X203516Y89492D01*
X188163Y52724D02*
X198257Y70090D01*
X173930Y38573D02*
X188163Y52724D01*
X156532Y28595D02*
X173930Y38573D01*
X137159Y23465D02*
X156532Y28595D01*
X117134Y23523D02*
X137159Y23465D01*
X97821Y28758D02*
X117134Y23523D01*
X80534Y38806D02*
X97821Y28758D01*
X66448Y52974D02*
X80534Y38806D01*
X56517Y70292D02*
X66448Y52974D01*
X51410Y89576D02*
X56517Y70292D01*
X51410Y89576D02*
X51468Y109509D01*
X56679Y128734D01*
X66681Y145940D01*
X80785Y159962D01*
X98023Y169847D01*
X117218Y174930D01*
X137059Y174872D01*
X156195Y169684D01*
X173322Y159729D01*
X187278Y145690D01*
X197118Y128531D01*
X202177Y109425D01*
X202119Y89676D02*
X202177Y109425D01*
X196955Y70630D02*
X202119Y89676D01*
X187045Y53582D02*
X196955Y70630D01*
X173072Y39691D02*
X187045Y53582D01*
X155992Y29897D02*
X173072Y39691D01*
X136975Y24862D02*
X155992Y29897D01*
X117318Y24920D02*
X136975Y24862D01*
X98360Y30060D02*
X117318Y24920D01*
X81392Y39924D02*
X98360Y30060D01*
X67566Y53832D02*
X81392Y39924D01*
X57819Y70832D02*
X67566Y53832D01*
X52807Y89760D02*
X57819Y70832D01*
X52807Y89760D02*
X52865Y109326D01*
X57981Y128194D01*
X67799Y145083D01*
X81642Y158844D01*
X98562Y168545D01*
X117402Y173533D01*
X136875Y173475D01*
X155655Y168383D01*
X172464Y158611D01*
X186160Y144833D01*
X195816Y127992D01*
X200780Y109241D01*
X200722Y89860D02*
X200780Y109241D01*
X195653Y71169D02*
X200722Y89860D01*
X185927Y54440D02*
X195653Y71169D01*
X172214Y40808D02*
X185927Y54440D01*
X155453Y31199D02*
X172214Y40808D01*
X136791Y26259D02*
X155453Y31199D01*
X117502Y26317D02*
X136791Y26259D01*
X98899Y31362D02*
X117502Y26317D01*
X82250Y41041D02*
X98899Y31362D01*
X68684Y54690D02*
X82250Y41041D01*
X59120Y71371D02*
X68684Y54690D01*
X54204Y89944D02*
X59120Y71371D01*
X54204Y89944D02*
X54262Y109142D01*
X59283Y127655D01*
X68917Y144225D01*
X82500Y157726D01*
X99102Y167244D01*
X117586Y172136D01*
X136691Y172078D01*
X155116Y167081D01*
X171606Y157493D01*
X185042Y143975D01*
X194514Y127453D01*
X199383Y109057D01*
X199325Y90044D02*
X199383Y109057D01*
X194351Y71708D02*
X199325Y90044D01*
X184809Y55297D02*
X194351Y71708D01*
X171356Y41926D02*
X184809Y55297D01*
X154914Y32501D02*
X171356Y41926D01*
X136607Y27656D02*
X154914Y32501D01*
X117686Y27714D02*
X136607Y27656D01*
X99439Y32663D02*
X117686Y27714D01*
X83108Y42159D02*
X99439Y32663D01*
X69802Y55547D02*
X83108Y42159D01*
X60422Y71910D02*
X69802Y55547D01*
X55601Y90128D02*
X60422Y71910D01*
X55601Y90128D02*
X55659Y108958D01*
X60585Y127116D01*
X70035Y143367D01*
X83358Y156608D01*
X99641Y165942D01*
X117770Y170739D01*
X136508Y170681D01*
X154577Y165779D01*
X170749Y156375D01*
X183924Y143117D01*
X193212Y126914D01*
X197986Y108873D01*
X197928Y90228D02*
X197986Y108873D01*
X193050Y72247D02*
X197928Y90228D01*
X183692Y56155D02*
X193050Y72247D01*
X170498Y43044D02*
X183692Y56155D01*
X154375Y33803D02*
X170498Y43044D01*
X136423Y29053D02*
X154375Y33803D01*
X117870Y29111D02*
X136423Y29053D01*
X99978Y33965D02*
X117870Y29111D01*
X83965Y43277D02*
X99978Y33965D01*
X70920Y56405D02*
X83965Y43277D01*
X61724Y72449D02*
X70920Y56405D01*
X56998Y90312D02*
X61724Y72449D01*
X56998Y90312D02*
X57056Y108774D01*
X61887Y126577D01*
X71153Y142509D01*
X84216Y155490D01*
X100180Y164640D01*
X117954Y169342D01*
X136324Y169284D01*
X154038Y164477D01*
X169891Y155257D01*
X182807Y142259D01*
X191910Y126374D01*
X196589Y108689D01*
X196531Y90412D02*
X196589Y108689D01*
X191748Y72786D02*
X196531Y90412D01*
X182574Y57013D02*
X191748Y72786D01*
X169641Y44162D02*
X182574Y57013D01*
X153835Y35104D02*
X169641Y44162D01*
X136239Y30450D02*
X153835Y35104D01*
X118053Y30508D02*
X136239Y30450D01*
X100517Y35267D02*
X118053Y30508D01*
X84823Y44395D02*
X100517Y35267D01*
X72038Y57263D02*
X84823Y44395D01*
X63026Y72989D02*
X72038Y57263D01*
X58395Y90496D02*
X63026Y72989D01*
X58395Y90496D02*
X58453Y108590D01*
X63188Y126037D01*
X72271Y141651D01*
X85074Y154372D01*
X100719Y163338D01*
X118138Y167945D01*
X136140Y167887D01*
X153498Y163175D01*
X169033Y154139D01*
X181689Y141401D01*
X190609Y125835D01*
X195192Y108505D01*
X195134Y90596D02*
X195192Y108505D01*
X190446Y73326D02*
X195134Y90596D01*
X181456Y57871D02*
X190446Y73326D01*
X168783Y45280D02*
X181456Y57871D01*
X153296Y36406D02*
X168783Y45280D01*
X136056Y31847D02*
X153296Y36406D01*
X118237Y31905D02*
X136056Y31847D01*
X101056Y36569D02*
X118237Y31905D01*
X85681Y45513D02*
X101056Y36569D01*
X73155Y58121D02*
X85681Y45513D01*
X64328Y73528D02*
X73155Y58121D01*
X59792Y90680D02*
X64328Y73528D01*
X59792Y90680D02*
X59850Y108406D01*
X64490Y125498D01*
X73388Y140794D01*
X85931Y153254D01*
X101259Y162036D01*
X118322Y166548D01*
X135956Y166490D01*
X152959Y161874D01*
X168175Y153022D01*
X180571Y140544D01*
X189307Y125296D01*
X193795Y108322D01*
X193737Y90779D02*
X193795Y108322D01*
X189144Y73865D02*
X193737Y90779D01*
X180338Y58728D02*
X189144Y73865D01*
X167925Y46398D02*
X180338Y58728D01*
X152757Y37708D02*
X167925Y46398D01*
X135872Y33244D02*
X152757Y37708D01*
X118421Y33302D02*
X135872Y33244D01*
X101595Y37871D02*
X118421Y33302D01*
X86539Y46631D02*
X101595Y37871D01*
X74273Y58979D02*
X86539Y46631D01*
X65629Y74067D02*
X74273Y58979D01*
X61189Y90864D02*
X65629Y74067D01*
X61189Y90864D02*
X61247Y108222D01*
X65792Y124959D01*
X74506Y139936D01*
X86789Y152137D01*
X101798Y160735D01*
X118506Y165151D01*
X135772Y165093D01*
X152420Y160572D01*
X167317Y151904D01*
X179453Y139686D01*
X188005Y124757D01*
X192398Y108138D01*
X192340Y90963D02*
X192398Y108138D01*
X187842Y74404D02*
X192340Y90963D01*
X179220Y59586D02*
X187842Y74404D01*
X167067Y47516D02*
X179220Y59586D01*
X152218Y39010D02*
X167067Y47516D01*
X135688Y34641D02*
X152218Y39010D01*
X118605Y34699D02*
X135688Y34641D01*
X102135Y39172D02*
X118605Y34699D01*
X87397Y47749D02*
X102135Y39172D01*
X75391Y59836D02*
X87397Y47749D01*
X66931Y74606D02*
X75391Y59836D01*
X62586Y91048D02*
X66931Y74606D01*
X62586Y91048D02*
X62644Y108038D01*
X67094Y124420D01*
X75624Y139078D01*
X87647Y151019D01*
X102337Y159433D01*
X118690Y163754D01*
X135588Y163696D01*
X151881Y159270D01*
X166460Y150786D01*
X178335Y138828D01*
X186703Y124217D01*
X191001Y107954D01*
X190943Y91147D02*
X191001Y107954D01*
X186540Y74943D02*
X190943Y91147D01*
X178102Y60444D02*
X186540Y74943D01*
X166209Y48634D02*
X178102Y60444D01*
X151679Y40312D02*
X166209Y48634D01*
X135504Y36038D02*
X151679Y40312D01*
X118789Y36096D02*
X135504Y36038D01*
X102674Y40474D02*
X118789Y36096D01*
X88254Y48867D02*
X102674Y40474D01*
X76509Y60694D02*
X88254Y48867D01*
X68233Y75146D02*
X76509Y60694D01*
X63983Y91232D02*
X68233Y75146D01*
X63983Y91232D02*
X64041Y107854D01*
X68396Y123881D01*
X76742Y138220D01*
X88505Y149901D01*
X102876Y158131D01*
X118873Y162357D01*
X135404Y162299D01*
X151342Y157968D01*
X165602Y149668D01*
X177217Y137970D01*
X185401Y123678D01*
X189604Y107770D01*
X189546Y91331D02*
X189604Y107770D01*
X185239Y75482D02*
X189546Y91331D01*
X176984Y61302D02*
X185239Y75482D01*
X165352Y49751D02*
X176984Y61302D01*
X151139Y41613D02*
X165352Y49751D01*
X135320Y37435D02*
X151139Y41613D01*
X118973Y37493D02*
X135320Y37435D01*
X103213Y41776D02*
X118973Y37493D01*
X89112Y49984D02*
X103213Y41776D01*
X77627Y61552D02*
X89112Y49984D01*
X69535Y75685D02*
X77627Y61552D01*
X65380Y91415D02*
X69535Y75685D01*
X65380Y91415D02*
X65438Y107670D01*
X69697Y123341D01*
X77860Y137363D01*
X89362Y148783D01*
X103415Y156829D01*
X119057Y160960D01*
X135220Y160902D01*
X150802Y156666D01*
X164744Y148550D01*
X176099Y137112D01*
X184100Y123139D01*
X188207Y107586D01*
X188149Y91515D02*
X188207Y107586D01*
X183937Y76022D02*
X188149Y91515D01*
X175866Y62160D02*
X183937Y76022D01*
X164494Y50869D02*
X175866Y62160D01*
X150600Y42915D02*
X164494Y50869D01*
X135136Y38832D02*
X150600Y42915D01*
X119157Y38890D02*
X135136Y38832D01*
X103752Y43078D02*
X119157Y38890D01*
X89970Y51102D02*
X103752Y43078D01*
X78745Y62410D02*
X89970Y51102D01*
X70836Y76224D02*
X78745Y62410D01*
X66777Y91599D02*
X70836Y76224D01*
X66777Y91599D02*
X66835Y107486D01*
X70999Y122802D01*
X78978Y136505D01*
X90220Y147665D01*
X103955Y155527D01*
X119241Y159563D01*
X135036Y159505D01*
X150263Y155365D01*
X163886Y147432D01*
X174981Y136255D01*
X182798Y122600D01*
X186810Y107402D01*
X186752Y91699D02*
X186810Y107402D01*
X182635Y76561D02*
X186752Y91699D01*
X174749Y63017D02*
X182635Y76561D01*
X163636Y51987D02*
X174749Y63017D01*
X150061Y44217D02*
X163636Y51987D01*
X134952Y40229D02*
X150061Y44217D01*
X119341Y40287D02*
X134952Y40229D01*
X104292Y44380D02*
X119341Y40287D01*
X90828Y52220D02*
X104292Y44380D01*
X79863Y63267D02*
X90828Y52220D01*
X72138Y76763D02*
X79863Y63267D01*
X68174Y91783D02*
X72138Y76763D01*
X68174Y91783D02*
X68232Y107302D01*
X72301Y122263D01*
X80096Y135647D01*
X91078Y146547D01*
X104494Y154226D01*
X119425Y158166D01*
X134852Y158108D01*
X149724Y154063D01*
X163029Y146314D01*
X173864Y135397D01*
X181496Y122061D01*
X185413Y107218D01*
X185355Y91883D02*
X185413Y107218D01*
X181333Y77100D02*
X185355Y91883D01*
X173631Y63875D02*
X181333Y77100D01*
X162778Y53105D02*
X173631Y63875D01*
X149522Y45519D02*
X162778Y53105D01*
X134768Y41626D02*
X149522Y45519D01*
X119525Y41684D02*
X134768Y41626D01*
X104831Y45681D02*
X119525Y41684D01*
X91685Y53338D02*
X104831Y45681D01*
X80981Y64125D02*
X91685Y53338D01*
X73440Y77302D02*
X80981Y64125D01*
X69571Y91967D02*
X73440Y77302D01*
X69571Y91967D02*
X69629Y107118D01*
X73603Y121724D01*
X81213Y134789D01*
X91936Y145429D01*
X105033Y152924D01*
X119609Y156769D01*
X134668Y156711D01*
X149185Y152761D01*
X162171Y145196D01*
X172746Y134539D01*
X180194Y121521D01*
X184016Y107034D01*
X183958Y92067D02*
X184016Y107034D01*
X180032Y77639D02*
X183958Y92067D01*
X172513Y64733D02*
X180032Y77639D01*
X161921Y54223D02*
X172513Y64733D01*
X148983Y46821D02*
X161921Y54223D01*
X134584Y43023D02*
X148983Y46821D01*
X119709Y43081D02*
X134584Y43023D01*
X105370Y46983D02*
X119709Y43081D01*
X92543Y54456D02*
X105370Y46983D01*
X82099Y64983D02*
X92543Y54456D01*
X74742Y77842D02*
X82099Y64983D01*
X70968Y92151D02*
X74742Y77842D01*
X70968Y92151D02*
X71026Y106934D01*
X74905Y121184D01*
X82331Y133932D01*
X92794Y144311D01*
X105572Y151622D01*
X119793Y155372D01*
X134485Y155314D01*
X148645Y151459D01*
X161313Y144078D01*
X171628Y133681D01*
X178893Y120982D01*
X182619Y106850D01*
X182561Y92251D02*
X182619Y106850D01*
X178730Y78179D02*
X182561Y92251D01*
X171395Y65591D02*
X178730Y78179D01*
X161063Y55341D02*
X171395Y65591D01*
X148443Y48122D02*
X161063Y55341D01*
X134400Y44420D02*
X148443Y48122D01*
X119893Y44478D02*
X134400Y44420D01*
X105909Y48285D02*
X119893Y44478D01*
X93401Y55574D02*
X105909Y48285D01*
X83216Y65841D02*
X93401Y55574D01*
X76044Y78381D02*
X83216Y65841D01*
X72365Y92335D02*
X76044Y78381D01*
X72365Y92335D02*
X72423Y106751D01*
X76206Y120645D01*
X83449Y133074D01*
X93651Y143193D01*
X106112Y150320D01*
X119977Y153975D01*
X134301Y153917D01*
X148106Y150157D01*
X160455Y142961D01*
X170510Y132824D01*
X177591Y120443D01*
X181222Y106666D01*
X181164Y92435D02*
X181222Y106666D01*
X177428Y78718D02*
X181164Y92435D01*
X170277Y66448D02*
X177428Y78718D01*
X160205Y56459D02*
X170277Y66448D01*
X147904Y49424D02*
X160205Y56459D01*
X134216Y45817D02*
X147904Y49424D01*
X120077Y45875D02*
X134216Y45817D01*
X106448Y49587D02*
X120077Y45875D01*
X94259Y56692D02*
X106448Y49587D01*
X84334Y66699D02*
X94259Y56692D01*
X77345Y78920D02*
X84334Y66699D01*
X73762Y92519D02*
X77345Y78920D01*
X73762Y92519D02*
X73820Y106567D01*
X77508Y120106D01*
X84567Y132216D01*
X94509Y142076D01*
X106651Y149018D01*
X120161Y152578D01*
X134117Y152520D01*
X147567Y148856D01*
X159598Y141843D01*
X169392Y131966D01*
X176289Y119904D01*
X179825Y106482D01*
X179767Y92619D02*
X179825Y106482D01*
X176126Y79257D02*
X179767Y92619D01*
X169159Y67306D02*
X176126Y79257D01*
X159347Y57577D02*
X169159Y67306D01*
X147365Y50726D02*
X159347Y57577D01*
X134032Y47214D02*
X147365Y50726D01*
X120261Y47272D02*
X134032Y47214D01*
X106988Y50889D02*
X120261Y47272D01*
X95117Y57810D02*
X106988Y50889D01*
X85452Y67556D02*
X95117Y57810D01*
X78647Y79459D02*
X85452Y67556D01*
X75159Y92703D02*
X78647Y79459D01*
X75159Y92703D02*
X75217Y106383D01*
X78810Y119567D01*
X85685Y131358D01*
X95367Y140958D01*
X107190Y147717D01*
X120345Y151181D01*
X133933Y151123D01*
X147028Y147554D01*
X158740Y140725D01*
X168274Y131108D01*
X174987Y119365D01*
X178428Y106298D01*
X178370Y92803D02*
X178428Y106298D01*
X174824Y79796D02*
X178370Y92803D01*
X168041Y68164D02*
X174824Y79796D01*
X158490Y58695D02*
X168041Y68164D01*
X146826Y52028D02*
X158490Y58695D01*
X133849Y48611D02*
X146826Y52028D01*
X120444Y48669D02*
X133849Y48611D01*
X107527Y52190D02*
X120444Y48669D01*
X95974Y58928D02*
X107527Y52190D01*
X86570Y68414D02*
X95974Y58928D01*
X79949Y79998D02*
X86570Y68414D01*
X76556Y92887D02*
X79949Y79998D01*
X76556Y92887D02*
X76614Y106199D01*
X80112Y119027D01*
X86803Y130500D01*
X96225Y139840D01*
X107729Y146415D01*
X120529Y149784D01*
X133749Y149726D01*
X146489Y146252D01*
X157882Y139607D01*
X167156Y130250D01*
X173685Y118825D01*
X177031Y106115D01*
X176973Y92986D02*
X177031Y106115D01*
X173523Y80335D02*
X176973Y92986D01*
X166923Y69022D02*
X173523Y80335D01*
X157632Y59812D02*
X166923Y69022D01*
X146286Y53329D02*
X157632Y59812D01*
X133665Y50008D02*
X146286Y53329D01*
X120628Y50066D02*
X133665Y50008D01*
X108066Y53492D02*
X120628Y50066D01*
X96832Y60045D02*
X108066Y53492D01*
X87688Y69272D02*
X96832Y60045D01*
X81251Y80538D02*
X87688Y69272D01*
X77953Y93071D02*
X81251Y80538D01*
X77953Y93071D02*
X78011Y106015D01*
X81414Y118488D01*
X87921Y129643D01*
X97082Y138722D01*
X108268Y145113D01*
X120713Y148387D01*
X133565Y148329D01*
X145949Y144950D01*
X157024Y138489D01*
X166038Y129393D01*
X172383Y118286D01*
X175634Y105931D01*
X175576Y93170D02*
X175634Y105931D01*
X172221Y80875D02*
X175576Y93170D01*
X165805Y69880D02*
X172221Y80875D01*
X156774Y60930D02*
X165805Y69880D01*
X145747Y54631D02*
X156774Y60930D01*
X133481Y51405D02*
X145747Y54631D01*
X120812Y51463D02*
X133481Y51405D01*
X108605Y54794D02*
X120812Y51463D01*
X97690Y61163D02*
X108605Y54794D01*
X88806Y70130D02*
X97690Y61163D01*
X82553Y81077D02*
X88806Y70130D01*
X79350Y93255D02*
X82553Y81077D01*
X79350Y93255D02*
X79408Y105831D01*
X82715Y117949D01*
X89039Y128785D01*
X97940Y137604D01*
X108808Y143811D01*
X120896Y146990D01*
X133381Y146932D01*
X145410Y143649D01*
X156166Y137371D01*
X164920Y128535D01*
X171082Y117747D01*
X174237Y105747D01*
X174179Y93354D02*
X174237Y105747D01*
X170919Y81414D02*
X174179Y93354D01*
X164688Y70737D02*
X170919Y81414D01*
X155916Y62048D02*
X164688Y70737D01*
X145208Y55933D02*
X155916Y62048D01*
X133297Y52802D02*
X145208Y55933D01*
X120996Y52860D02*
X133297Y52802D01*
X109145Y56096D02*
X120996Y52860D01*
X98548Y62281D02*
X109145Y56096D01*
X89924Y70987D02*
X98548Y62281D01*
X83854Y81616D02*
X89924Y70987D01*
X80747Y93439D02*
X83854Y81616D01*
X80747Y93439D02*
X80805Y105647D01*
X84017Y117410D01*
X90157Y127927D01*
X98798Y136486D01*
X109347Y142509D01*
X121081Y145593D01*
X133197Y145535D01*
X144871Y142347D01*
X155309Y136253D01*
X163803Y127677D01*
X169780Y117208D01*
X172840Y105563D01*
X172782Y93538D02*
X172840Y105563D01*
X169617Y81953D02*
X172782Y93538D01*
X163570Y71595D02*
X169617Y81953D01*
X155058Y63166D02*
X163570Y71595D01*
X144669Y57235D02*
X155058Y63166D01*
X133113Y54199D02*
X144669Y57235D01*
X121180Y54257D02*
X133113Y54199D01*
X109684Y57398D02*
X121180Y54257D01*
X99405Y63399D02*
X109684Y57398D01*
X91041Y71845D02*
X99405Y63399D01*
X85156Y82155D02*
X91041Y71845D01*
X82144Y93622D02*
X85156Y82155D01*
X82144Y93622D02*
X82202Y105463D01*
X85319Y116871D01*
X91274Y127069D01*
X99656Y135368D01*
X109886Y141208D01*
X121264Y144196D01*
X133013Y144138D01*
X144332Y141045D01*
X154451Y135135D01*
X162685Y126819D01*
X168478Y116668D01*
X171443Y105379D01*
X171385Y93722D02*
X171443Y105379D01*
X168315Y82492D02*
X171385Y93722D01*
X162452Y72453D02*
X168315Y82492D01*
X154201Y64284D02*
X162452Y72453D01*
X144130Y58537D02*
X154201Y64284D01*
X132929Y55596D02*
X144130Y58537D01*
X121364Y55654D02*
X132929Y55596D01*
X110223Y58699D02*
X121364Y55654D01*
X100263Y64517D02*
X110223Y58699D01*
X92159Y72703D02*
X100263Y64517D01*
X86458Y82695D02*
X92159Y72703D01*
X83541Y93806D02*
X86458Y82695D01*
X83541Y93806D02*
X83599Y105279D01*
X86621Y116331D01*
X92392Y126212D01*
X100514Y134250D01*
X110425Y139906D01*
X121448Y142799D01*
X132829Y142741D01*
X143792Y139743D01*
X153593Y134018D01*
X161567Y125961D01*
X167176Y116129D01*
X170046Y105195D01*
X169988Y93906D02*
X170046Y105195D01*
X167014Y83032D02*
X169988Y93906D01*
X161334Y73311D02*
X167014Y83032D01*
X153343Y65402D02*
X161334Y73311D01*
X143590Y59838D02*
X153343Y65402D01*
X132745Y56993D02*
X143590Y59838D01*
X121548Y57051D02*
X132745Y56993D01*
X110762Y60001D02*
X121548Y57051D01*
X101121Y65635D02*
X110762Y60001D01*
X93277Y73561D02*
X101121Y65635D01*
X87760Y83234D02*
X93277Y73561D01*
X84938Y93990D02*
X87760Y83234D01*
X84938Y93990D02*
X84996Y105095D01*
X87923Y115792D01*
X93510Y125354D01*
X101371Y133133D01*
X110965Y138604D01*
X121632Y141402D01*
X132645Y141344D01*
X143253Y138441D01*
X152735Y132900D01*
X160449Y125104D01*
X165875Y115590D01*
X168649Y105011D01*
X168591Y94090D02*
X168649Y105011D01*
X165712Y83571D02*
X168591Y94090D01*
X160216Y74168D02*
X165712Y83571D01*
X152485Y66520D02*
X160216Y74168D01*
X143051Y61140D02*
X152485Y66520D01*
X132561Y58390D02*
X143051Y61140D01*
X121732Y58448D02*
X132561Y58390D01*
X111302Y61303D02*
X121732Y58448D01*
X101979Y66753D02*
X111302Y61303D01*
X94395Y74419D02*
X101979Y66753D01*
X89062Y83773D02*
X94395Y74419D01*
X86335Y94174D02*
X89062Y83773D01*
X86335Y94174D02*
X86393Y104911D01*
X89224Y115253D01*
X94628Y124496D01*
X102229Y132015D01*
X111504Y137302D01*
X121816Y140005D01*
X132461Y139947D01*
X142714Y137139D01*
X151877Y131782D01*
X159331Y124246D01*
X164573Y115051D01*
X167252Y104827D01*
X167194Y94274D02*
X167252Y104827D01*
X164410Y84110D02*
X167194Y94274D01*
X159098Y75026D02*
X164410Y84110D01*
X151627Y67638D02*
X159098Y75026D01*
X142512Y62442D02*
X151627Y67638D01*
X132377Y59787D02*
X142512Y62442D01*
X121916Y59845D02*
X132377Y59787D01*
X111841Y62605D02*
X121916Y59845D01*
X102837Y67870D02*
X111841Y62605D01*
X95513Y75276D02*
X102837Y67870D01*
X90363Y84312D02*
X95513Y75276D01*
X87732Y94358D02*
X90363Y84312D01*
X87732Y94358D02*
X87790Y104727D01*
X90526Y114714D01*
X95746Y123638D01*
X103087Y130897D01*
X112043Y136000D01*
X122000Y138608D01*
X132278Y138550D01*
X142175Y135838D01*
X151020Y130664D01*
X158213Y123388D01*
X163271Y114512D01*
X165855Y104643D01*
X165797Y94458D02*
X165855Y104643D01*
X163108Y84649D02*
X165797Y94458D01*
X157980Y75884D02*
X163108Y84649D01*
X150769Y68756D02*
X157980Y75884D01*
X141973Y63744D02*
X150769Y68756D01*
X132193Y61184D02*
X141973Y63744D01*
X122100Y61242D02*
X132193Y61184D01*
X112380Y63907D02*
X122100Y61242D01*
X103694Y68988D02*
X112380Y63907D01*
X96631Y76134D02*
X103694Y68988D01*
X91665Y84851D02*
X96631Y76134D01*
X89129Y94542D02*
X91665Y84851D01*
X89129Y94542D02*
X89187Y104544D01*
X91828Y114174D01*
X96864Y122780D01*
X103945Y129779D01*
X112582Y134699D01*
X122184Y137211D01*
X132094Y137153D01*
X141636Y134536D01*
X150162Y129546D01*
X157095Y122530D01*
X161969Y113972D01*
X164458Y104459D01*
X164400Y94642D02*
X164458Y104459D01*
X161806Y85189D02*
X164400Y94642D01*
X156862Y76742D02*
X161806Y85189D01*
X149912Y69873D02*
X156862Y76742D01*
X141433Y65046D02*
X149912Y69873D01*
X132009Y62581D02*
X141433Y65046D01*
X122284Y62639D02*
X132009Y62581D01*
X112919Y65208D02*
X122284Y62639D01*
X104552Y70106D02*
X112919Y65208D01*
X97749Y76992D02*
X104552Y70106D01*
X92967Y85391D02*
X97749Y76992D01*
X90526Y94726D02*
X92967Y85391D01*
X90526Y94726D02*
X90584Y104360D01*
X93130Y113635D01*
X97982Y121923D01*
X104802Y128661D01*
X113121Y133397D01*
X122368Y135814D01*
X131910Y135756D01*
X141096Y133234D01*
X149304Y128428D01*
X155977Y121672D01*
X160667Y113433D01*
X163061Y104275D01*
X163003Y94826D02*
X163061Y104275D01*
X160505Y85728D02*
X163003Y94826D01*
X155745Y77600D02*
X160505Y85728D01*
X149054Y70991D02*
X155745Y77600D01*
X140894Y66347D02*
X149054Y70991D01*
X131825Y63978D02*
X140894Y66347D01*
X122468Y64036D02*
X131825Y63978D01*
X113458Y66510D02*
X122468Y64036D01*
X105410Y71224D02*
X113458Y66510D01*
X98867Y77850D02*
X105410Y71224D01*
X94269Y85930D02*
X98867Y77850D01*
X91923Y94910D02*
X94269Y85930D01*
X91923Y94910D02*
X91981Y104176D01*
X94432Y113096D01*
X99099Y121065D01*
X105660Y127543D01*
X113661Y132095D01*
X122552Y134417D01*
X131726Y134359D01*
X140557Y131932D01*
X148446Y127310D01*
X154860Y120815D01*
X159365Y112894D01*
X161664Y104092D01*
X161606Y95009D02*
X161664Y104092D01*
X159203Y86267D02*
X161606Y95009D01*
X154627Y78457D02*
X159203Y86267D01*
X148196Y72109D02*
X154627Y78457D01*
X140355Y67649D02*
X148196Y72109D01*
X131641Y65375D02*
X140355Y67649D01*
X122651Y65433D02*
X131641Y65375D01*
X113998Y67812D02*
X122651Y65433D01*
X106268Y72342D02*
X113998Y67812D01*
X99985Y78707D02*
X106268Y72342D01*
X95571Y86469D02*
X99985Y78707D01*
X93320Y95094D02*
X95571Y86469D01*
X93320Y95094D02*
X93378Y103992D01*
X95733Y112557D01*
X100217Y120207D01*
X106518Y126425D01*
X114200Y130793D01*
X122736Y133020D01*
X131542Y132962D01*
X140018Y130631D01*
X147589Y126192D01*
X153742Y119957D01*
X158064Y112355D01*
X160267Y103908D01*
X160209Y95193D02*
X160267Y103908D01*
X157901Y86806D02*
X160209Y95193D01*
X153509Y79315D02*
X157901Y86806D01*
X147338Y73227D02*
X153509Y79315D01*
X139816Y68951D02*
X147338Y73227D01*
X131457Y66772D02*
X139816Y68951D01*
X122835Y66830D02*
X131457Y66772D01*
X114537Y69114D02*
X122835Y66830D01*
X107125Y73460D02*
X114537Y69114D01*
X101102Y79565D02*
X107125Y73460D01*
X96872Y87008D02*
X101102Y79565D01*
X94717Y95278D02*
X96872Y87008D01*
X94717Y95278D02*
X94775Y103808D01*
X97035Y112018D01*
X101335Y119349D01*
X107376Y125307D01*
X114739Y129491D01*
X122920Y131623D01*
X131358Y131565D01*
X139479Y129329D01*
X146731Y125075D01*
X152624Y119099D01*
X156762Y111815D01*
X158870Y103724D01*
X158812Y95377D02*
X158870Y103724D01*
X156599Y87345D02*
X158812Y95377D01*
X152391Y80173D02*
X156599Y87345D01*
X146481Y74345D02*
X152391Y80173D01*
X139277Y70253D02*
X146481Y74345D01*
X131274Y68169D02*
X139277Y70253D01*
X123019Y68227D02*
X131274Y68169D01*
X115076Y70416D02*
X123019Y68227D01*
X107983Y74578D02*
X115076Y70416D01*
X102220Y80423D02*
X107983Y74578D01*
X98174Y87548D02*
X102220Y80423D01*
X96114Y95462D02*
X98174Y87548D01*
X96114Y95462D02*
X96172Y103624D01*
X98337Y111478D01*
X102453Y118491D01*
X108233Y124189D01*
X115278Y128190D01*
X123104Y130226D01*
X131174Y130168D01*
X138939Y128027D01*
X145873Y123957D01*
X151506Y118241D01*
X155460Y111276D01*
X157473Y103540D01*
X157415Y95561D02*
X157473Y103540D01*
X155297Y87885D02*
X157415Y95561D01*
X151273Y81031D02*
X155297Y87885D01*
X145623Y75463D02*
X151273Y81031D01*
X138737Y71555D02*
X145623Y75463D01*
X131090Y69566D02*
X138737Y71555D01*
X123203Y69624D02*
X131090Y69566D01*
X115615Y71717D02*
X123203Y69624D01*
X108841Y75696D02*
X115615Y71717D01*
X103338Y81281D02*
X108841Y75696D01*
X99476Y88087D02*
X103338Y81281D01*
X97511Y95646D02*
X99476Y88087D01*
X97511Y95646D02*
X97569Y99547D01*
X99815D01*
X47219Y95547D02*
Y99547D01*
X44819Y91547D02*
X47219Y95547D01*
X42419Y91547D02*
X44819D01*
D29*
X42453Y107500D02*
D03*
X102053Y102500D02*
D03*
X42453Y99500D02*
D03*
X102053Y96500D02*
D03*
M02*
