M48
;Layer_Color=9474304
;FILE_FORMAT=2:5
INCH,TZ
;TYPE=PLATED
T01F00S00C0.00787
T02F00S00C0.01181
T03F00S00C0.01400
;TYPE=NON_PLATED
T04F00S00C0.14567
%
T01
X135433Y33268
Y37008
Y40748
X139370
Y37008
Y33268
X128740Y86811
X124606Y91732
X132849Y91767
X128740Y96653
X52941Y172122
X50972Y174583
X54909
X52941Y177043
T02
X11811Y25430
X11417Y34486
X11024Y43147
Y52202
X21654
X22047Y43147
X22441Y34486
X22835Y25430
X33465Y25824
X33071Y34486
X32677Y52202
X32492Y70784
X32374Y75410
X36740Y79996
X47095Y73909
X47221Y65299
X46457Y44882
X52756Y23031
X64567Y10630
X99213
X112205Y20866
X113634Y26791
X104496Y38752
X125984Y37008
X124803Y41732
X123000Y49764
X119685Y52870
X98110Y60844
X98209Y64780
X88972Y59102
X84264Y58406
X80390Y45299
X77319Y76378
X72154Y83909
X56299Y79134
X46913Y96933
X40236Y95878
X40878Y105398
X45150Y103260
X38583Y117323
X30709Y116535
X18898Y109843
X22441Y102362
X13780
X17323Y94488
X26378Y94882
X36882Y134236
X55905Y135827
X89067Y89429
X95669Y94488
X106693Y94882
X116142Y92520
X111811Y87795
X116929Y82284
X119291Y105905
X135827Y104331
X139764Y101969
X145276Y107874
X146539Y74650
X140157Y77165
X150787Y55905
X140551Y10630
X92520Y80315
X131118Y144882
X128347Y157480
X134646
X150787
X112839Y158398
X77807Y178524
X54555Y180831
X62051Y189366
X26992Y181264
T03
X163319Y99500
Y107500
X222919Y102500
Y96500
T04
X161319Y17441
X331319
Y187441
X161319
M30
