G04*
G04 #@! TF.GenerationSoftware,Altium Limited,Altium Designer,23.7.1 (13)*
G04*
G04 Layer_Color=8388736*
%FSLAX25Y25*%
%MOIN*%
G70*
G04*
G04 #@! TF.SameCoordinates,E761BF88-05AE-44ED-84BE-F3DD1BAF6ADF*
G04*
G04*
G04 #@! TF.FilePolarity,Negative*
G04*
G01*
G75*
%ADD17R,0.01997X0.05756*%
%ADD18R,0.05756X0.01997*%
%ADD19R,0.09449X0.07874*%
%ADD20R,0.01811X0.04331*%
%ADD21R,0.02500X0.13156*%
%ADD22R,0.02197X0.04156*%
%ADD30R,0.01600X0.02800*%
%ADD33R,0.04100X0.03700*%
%ADD35R,0.02197X0.05728*%
%ADD36R,0.02978X0.03200*%
%ADD37R,0.03200X0.02978*%
%ADD38R,0.03378X0.03200*%
%ADD39R,0.02699X0.02499*%
%ADD40R,0.05221X0.03646*%
%ADD41C,0.04737*%
%ADD42R,0.05324X0.07687*%
%ADD43R,0.02962X0.06702*%
%ADD44R,0.03646X0.05221*%
G04:AMPARAMS|DCode=45|XSize=58.11mil|YSize=73.86mil|CornerRadius=8.39mil|HoleSize=0mil|Usage=FLASHONLY|Rotation=180.000|XOffset=0mil|YOffset=0mil|HoleType=Round|Shape=RoundedRectangle|*
%AMROUNDEDRECTD45*
21,1,0.05811,0.05709,0,0,180.0*
21,1,0.04134,0.07386,0,0,180.0*
1,1,0.01677,-0.02067,0.02854*
1,1,0.01677,0.02067,0.02854*
1,1,0.01677,0.02067,-0.02854*
1,1,0.01677,-0.02067,-0.02854*
%
%ADD45ROUNDEDRECTD45*%
G04:AMPARAMS|DCode=46|XSize=58.11mil|YSize=73.86mil|CornerRadius=8.39mil|HoleSize=0mil|Usage=FLASHONLY|Rotation=270.000|XOffset=0mil|YOffset=0mil|HoleType=Round|Shape=RoundedRectangle|*
%AMROUNDEDRECTD46*
21,1,0.05811,0.05709,0,0,270.0*
21,1,0.04134,0.07386,0,0,270.0*
1,1,0.01677,-0.02854,-0.02067*
1,1,0.01677,-0.02854,0.02067*
1,1,0.01677,0.02854,0.02067*
1,1,0.01677,0.02854,-0.02067*
%
%ADD46ROUNDEDRECTD46*%
%ADD47R,0.06306X0.07290*%
%ADD48O,0.02762X0.01581*%
%ADD49R,0.02762X0.01975*%
%ADD50R,0.06306X0.09849*%
%ADD51R,0.06702X0.02962*%
%ADD52R,0.07687X0.05324*%
G04:AMPARAMS|DCode=53|XSize=26.61mil|YSize=12.84mil|CornerRadius=2.73mil|HoleSize=0mil|Usage=FLASHONLY|Rotation=0.000|XOffset=0mil|YOffset=0mil|HoleType=Round|Shape=RoundedRectangle|*
%AMROUNDEDRECTD53*
21,1,0.02661,0.00738,0,0,0.0*
21,1,0.02116,0.01284,0,0,0.0*
1,1,0.00545,0.01058,-0.00369*
1,1,0.00545,-0.01058,-0.00369*
1,1,0.00545,-0.01058,0.00369*
1,1,0.00545,0.01058,0.00369*
%
%ADD53ROUNDEDRECTD53*%
G04:AMPARAMS|DCode=54|XSize=110.36mil|YSize=126.11mil|CornerRadius=6.56mil|HoleSize=0mil|Usage=FLASHONLY|Rotation=0.000|XOffset=0mil|YOffset=0mil|HoleType=Round|Shape=RoundedRectangle|*
%AMROUNDEDRECTD54*
21,1,0.11036,0.11299,0,0,0.0*
21,1,0.09724,0.12611,0,0,0.0*
1,1,0.01312,0.04862,-0.05650*
1,1,0.01312,-0.04862,-0.05650*
1,1,0.01312,-0.04862,0.05650*
1,1,0.01312,0.04862,0.05650*
%
%ADD54ROUNDEDRECTD54*%
%ADD55C,0.05118*%
%ADD56C,0.02368*%
%ADD57C,0.00299*%
%ADD58C,0.03055*%
%ADD59C,0.04299*%
%ADD60C,0.01480*%
D17*
X77362Y70602D02*
D03*
X80512D02*
D03*
X83661D02*
D03*
X86811D02*
D03*
X89961D02*
D03*
X93110D02*
D03*
X96260D02*
D03*
X99410D02*
D03*
Y38202D02*
D03*
X96260D02*
D03*
X93110D02*
D03*
X89961D02*
D03*
X86811D02*
D03*
X83661D02*
D03*
X80512D02*
D03*
X77362D02*
D03*
D18*
X104586Y65425D02*
D03*
Y62276D02*
D03*
Y59126D02*
D03*
Y55976D02*
D03*
Y52827D02*
D03*
Y49677D02*
D03*
Y46528D02*
D03*
Y43378D02*
D03*
X72186D02*
D03*
Y46528D02*
D03*
Y49677D02*
D03*
Y52827D02*
D03*
Y55976D02*
D03*
Y59126D02*
D03*
Y62276D02*
D03*
Y65425D02*
D03*
D19*
X56346Y66327D02*
D03*
Y51366D02*
D03*
D20*
X57480Y10433D02*
D03*
Y19488D02*
D03*
X44882Y10433D02*
D03*
Y19488D02*
D03*
D21*
X104547Y13565D02*
D03*
X94547Y23965D02*
D03*
X84547Y13565D02*
D03*
X74547Y23965D02*
D03*
D22*
X79528Y142209D02*
D03*
X84646D02*
D03*
X89764D02*
D03*
Y119209D02*
D03*
X84646D02*
D03*
X79528D02*
D03*
D30*
X136626Y14567D02*
D03*
X141326D02*
D03*
X136626Y22047D02*
D03*
X141326D02*
D03*
D33*
X138287Y115260D02*
D03*
X131004D02*
D03*
Y120960D02*
D03*
X138287D02*
D03*
D35*
X36354Y89203D02*
D03*
X41354D02*
D03*
X46354D02*
D03*
X51354D02*
D03*
Y110631D02*
D03*
X46354D02*
D03*
X41354D02*
D03*
X36354D02*
D03*
D36*
X130598Y14567D02*
D03*
X124520D02*
D03*
X130598Y20866D02*
D03*
X124520D02*
D03*
D37*
X51925Y129744D02*
D03*
Y123666D02*
D03*
X29921Y104048D02*
D03*
Y110126D02*
D03*
X43728Y123532D02*
D03*
Y129610D02*
D03*
D38*
X59926Y74803D02*
D03*
X54248D02*
D03*
X59138Y41339D02*
D03*
X53460D02*
D03*
X50871Y135827D02*
D03*
X45193D02*
D03*
D39*
X163285Y91547D02*
D03*
X159611Y107547D02*
D03*
D40*
X155118Y95768D02*
D03*
Y88484D02*
D03*
X95276Y100689D02*
D03*
Y107972D02*
D03*
X106299Y100689D02*
D03*
Y107972D02*
D03*
X146063Y79823D02*
D03*
Y87106D02*
D03*
X145669Y102854D02*
D03*
Y95571D02*
D03*
X52492Y27343D02*
D03*
Y34626D02*
D03*
X61122Y27327D02*
D03*
Y34610D02*
D03*
X38996Y72555D02*
D03*
Y65272D02*
D03*
X71437Y170988D02*
D03*
Y178272D02*
D03*
X151969Y46161D02*
D03*
Y38878D02*
D03*
D41*
X115354Y44094D02*
D03*
X33071Y43307D02*
D03*
X126772Y108661D02*
D03*
X110004Y80315D02*
D03*
X44488Y58661D02*
D03*
X43701Y51575D02*
D03*
X77870Y83854D02*
D03*
X89098Y84110D02*
D03*
D42*
X124409Y197244D02*
D03*
X138583D02*
D03*
D43*
X129528Y181890D02*
D03*
X133465D02*
D03*
D44*
X120177Y164961D02*
D03*
X112894D02*
D03*
X150492D02*
D03*
X143209D02*
D03*
X131150Y138957D02*
D03*
X138433D02*
D03*
X130968Y130972D02*
D03*
X138252D02*
D03*
X40547Y80079D02*
D03*
X47831D02*
D03*
X57268Y188126D02*
D03*
X49984D02*
D03*
D45*
X133661Y74803D02*
D03*
X123425D02*
D03*
D46*
X36169Y171634D02*
D03*
Y181870D02*
D03*
D47*
X52941Y174583D02*
D03*
D48*
X47429Y170744D02*
D03*
Y173303D02*
D03*
Y175862D02*
D03*
Y178421D02*
D03*
X58453D02*
D03*
Y175862D02*
D03*
Y173303D02*
D03*
Y170744D02*
D03*
D49*
X131890Y40945D02*
D03*
Y37008D02*
D03*
Y33071D02*
D03*
X142913D02*
D03*
Y37008D02*
D03*
Y40945D02*
D03*
D50*
X137402Y37008D02*
D03*
D51*
X25547Y78638D02*
D03*
Y74701D02*
D03*
Y70764D02*
D03*
Y66827D02*
D03*
X26047Y136079D02*
D03*
Y132142D02*
D03*
Y128205D02*
D03*
Y124268D02*
D03*
D52*
X10193Y83756D02*
D03*
Y61709D02*
D03*
X10693Y141197D02*
D03*
Y119150D02*
D03*
D53*
X136221Y92716D02*
D03*
Y86811D02*
D03*
Y88779D02*
D03*
Y90748D02*
D03*
Y94685D02*
D03*
Y96653D02*
D03*
X121260Y86811D02*
D03*
Y88779D02*
D03*
Y90748D02*
D03*
Y92716D02*
D03*
Y94685D02*
D03*
Y96653D02*
D03*
D54*
X128740Y91732D02*
D03*
D55*
X15157Y15748D02*
D03*
X315354D02*
D03*
X15264Y192642D02*
D03*
D56*
X52941Y172122D02*
D03*
Y177043D02*
D03*
X50972Y174583D02*
D03*
X54909D02*
D03*
X135433Y37008D02*
D03*
X139370D02*
D03*
X135433Y40748D02*
D03*
X139370D02*
D03*
X135433Y33268D02*
D03*
X139370D02*
D03*
D57*
X161319Y187441D02*
D03*
X331319Y17441D02*
D03*
Y187441D02*
D03*
X161319Y17441D02*
D03*
D58*
X150787Y55905D02*
D03*
X140551Y10630D02*
D03*
X150787Y157480D02*
D03*
X145276Y107874D02*
D03*
X134646Y157480D02*
D03*
X128347D02*
D03*
X139764Y101969D02*
D03*
X119291Y105905D02*
D03*
X135827Y104331D02*
D03*
X140157Y77165D02*
D03*
X146539Y74650D02*
D03*
X119685Y52870D02*
D03*
X124803Y41732D02*
D03*
X92520Y80315D02*
D03*
X125984Y37008D02*
D03*
X116929Y82284D02*
D03*
X116142Y92520D02*
D03*
X111811Y87795D02*
D03*
X131118Y144882D02*
D03*
X106693Y94882D02*
D03*
X95669Y94488D02*
D03*
X56299Y79134D02*
D03*
X46457Y44882D02*
D03*
X47095Y73909D02*
D03*
X52756Y23031D02*
D03*
X99213Y10630D02*
D03*
X64567D02*
D03*
X112205Y20866D02*
D03*
X36882Y134236D02*
D03*
X11024Y43147D02*
D03*
X22047D02*
D03*
X30709Y116535D02*
D03*
X18898Y109843D02*
D03*
X26378Y94882D02*
D03*
X17323Y94488D02*
D03*
X22441Y102362D02*
D03*
X13780D02*
D03*
X33465Y25824D02*
D03*
X22835Y25430D02*
D03*
X11811D02*
D03*
X33071Y34486D02*
D03*
X22441D02*
D03*
X11417D02*
D03*
X32677Y52202D02*
D03*
X21654D02*
D03*
X11024D02*
D03*
X55905Y135827D02*
D03*
X38583Y117323D02*
D03*
X54555Y180831D02*
D03*
X26992Y181264D02*
D03*
X62051Y189366D02*
D03*
X77807Y178524D02*
D03*
X104496Y38752D02*
D03*
X77319Y76378D02*
D03*
X36740Y79996D02*
D03*
X40236Y95878D02*
D03*
X112839Y158398D02*
D03*
X32374Y75410D02*
D03*
X40878Y105398D02*
D03*
X32492Y70784D02*
D03*
X46913Y96933D02*
D03*
X45150Y103260D02*
D03*
X80390Y45299D02*
D03*
X123000Y49764D02*
D03*
X47221Y65299D02*
D03*
X72154Y83909D02*
D03*
X84264Y58406D02*
D03*
X89067Y89429D02*
D03*
X88972Y59102D02*
D03*
X98209Y64780D02*
D03*
X98110Y60844D02*
D03*
X113634Y26791D02*
D03*
D59*
X222919Y96500D02*
D03*
X163319Y99500D02*
D03*
X222919Y102500D02*
D03*
X163319Y107500D02*
D03*
D60*
X132849Y91767D02*
D03*
X124606Y91732D02*
D03*
X128740Y86811D02*
D03*
Y96653D02*
D03*
M02*
