G04*
G04 #@! TF.GenerationSoftware,Altium Limited,Altium Designer,23.7.1 (13)*
G04*
G04 Layer_Physical_Order=3*
G04 Layer_Color=16440176*
%FSLAX25Y25*%
%MOIN*%
G70*
G04*
G04 #@! TF.SameCoordinates,E761BF88-05AE-44ED-84BE-F3DD1BAF6ADF*
G04*
G04*
G04 #@! TF.FilePolarity,Positive*
G04*
G01*
G75*
%ADD66C,0.01181*%
%ADD71C,0.00799*%
%ADD72C,0.01400*%
%ADD75C,0.01968*%
%ADD76C,0.02756*%
%ADD77C,0.04000*%
%ADD78C,0.06000*%
G36*
X160843Y195724D02*
X160503D01*
X158903Y195406D01*
X157395Y194782D01*
X156039Y193875D01*
X154885Y192721D01*
X153978Y191365D01*
X153354Y189857D01*
X153035Y188257D01*
Y186625D01*
X153354Y185025D01*
X153978Y183517D01*
X154885Y182161D01*
X156039Y181007D01*
X157395Y180100D01*
X158903Y179476D01*
X160503Y179157D01*
X160843D01*
Y109211D01*
X160523Y108658D01*
X160319Y107895D01*
Y107105D01*
X160523Y106342D01*
X160843Y105789D01*
Y101211D01*
X160523Y100658D01*
X160319Y99895D01*
Y99105D01*
X160523Y98342D01*
X160843Y97789D01*
Y25725D01*
X160503D01*
X158903Y25406D01*
X157395Y24782D01*
X156039Y23875D01*
X154885Y22721D01*
X153978Y21365D01*
X153354Y19857D01*
X153035Y18257D01*
Y16625D01*
X153354Y15025D01*
X153978Y13517D01*
X154885Y12161D01*
X156039Y11007D01*
X157395Y10100D01*
X158903Y9476D01*
X160503Y9157D01*
X160843D01*
Y1606D01*
X1606D01*
Y205875D01*
X160843D01*
Y195724D01*
D02*
G37*
%LPC*%
G36*
X62551Y191733D02*
Y189866D01*
X64418D01*
X64067Y190713D01*
X63398Y191382D01*
X62551Y191733D01*
D02*
G37*
G36*
X61551D02*
X60704Y191382D01*
X60035Y190713D01*
X59684Y189866D01*
X61551D01*
Y191733D01*
D02*
G37*
G36*
X64418Y188866D02*
X62551D01*
Y186999D01*
X63398Y187350D01*
X64067Y188019D01*
X64418Y188866D01*
D02*
G37*
G36*
X61551D02*
X59684D01*
X60035Y188019D01*
X60704Y187350D01*
X61551Y186999D01*
Y188866D01*
D02*
G37*
G36*
X27492Y183631D02*
Y181764D01*
X29359D01*
X29008Y182611D01*
X28339Y183280D01*
X27492Y183631D01*
D02*
G37*
G36*
X26492D02*
X25645Y183280D01*
X24976Y182611D01*
X24625Y181764D01*
X26492D01*
Y183631D01*
D02*
G37*
G36*
X55055Y183197D02*
Y181331D01*
X56922D01*
X56571Y182178D01*
X55902Y182847D01*
X55055Y183197D01*
D02*
G37*
G36*
X54055D02*
X53208Y182847D01*
X52539Y182178D01*
X52188Y181331D01*
X54055D01*
Y183197D01*
D02*
G37*
G36*
X78307Y180890D02*
Y179024D01*
X80174D01*
X79823Y179871D01*
X79154Y180540D01*
X78307Y180890D01*
D02*
G37*
G36*
X77307D02*
X76460Y180540D01*
X75791Y179871D01*
X75440Y179024D01*
X77307D01*
Y180890D01*
D02*
G37*
G36*
X29359Y180764D02*
X27492D01*
Y178897D01*
X28339Y179248D01*
X29008Y179917D01*
X29359Y180764D01*
D02*
G37*
G36*
X26492D02*
X24625D01*
X24976Y179917D01*
X25645Y179248D01*
X26492Y178897D01*
Y180764D01*
D02*
G37*
G36*
X56922Y180331D02*
X52188D01*
X52525Y179519D01*
X52528Y179449D01*
X52364Y178952D01*
X51817Y178726D01*
X51637Y178546D01*
X51499Y178583D01*
X51472D01*
Y174583D01*
X50972D01*
Y174083D01*
X46972D01*
Y174056D01*
X47245Y173039D01*
X47772Y172127D01*
X48516Y171382D01*
X49086Y171053D01*
X49213Y170578D01*
X49740Y169666D01*
X50485Y168921D01*
X51397Y168395D01*
X52414Y168122D01*
X52441D01*
Y172122D01*
X53441D01*
Y168122D01*
X53468D01*
X54485Y168395D01*
X55397Y168921D01*
X56142Y169666D01*
X56668Y170578D01*
X56796Y171053D01*
X57366Y171382D01*
X58110Y172127D01*
X58637Y173039D01*
X58909Y174056D01*
Y174083D01*
X54909D01*
Y175083D01*
X58909D01*
Y175109D01*
X58637Y176127D01*
X58110Y177039D01*
X57366Y177784D01*
X56453Y178310D01*
X56136Y178395D01*
X56104Y178452D01*
X56029Y178942D01*
X56571Y179484D01*
X56922Y180331D01*
D02*
G37*
G36*
X80174Y178024D02*
X78307D01*
Y176157D01*
X79154Y176508D01*
X79823Y177177D01*
X80174Y178024D01*
D02*
G37*
G36*
X77307D02*
X75440D01*
X75791Y177177D01*
X76460Y176508D01*
X77307Y176157D01*
Y178024D01*
D02*
G37*
G36*
X50472Y178583D02*
X50446D01*
X49428Y178310D01*
X48516Y177784D01*
X47772Y177039D01*
X47245Y176127D01*
X46972Y175109D01*
Y175083D01*
X50472D01*
Y178583D01*
D02*
G37*
G36*
X113339Y160764D02*
Y158898D01*
X115205D01*
X114855Y159745D01*
X114186Y160414D01*
X113339Y160764D01*
D02*
G37*
G36*
X112339D02*
X111492Y160414D01*
X110823Y159745D01*
X110472Y158898D01*
X112339D01*
Y160764D01*
D02*
G37*
G36*
X151287Y159847D02*
Y157980D01*
X153154D01*
X152803Y158827D01*
X152134Y159496D01*
X151287Y159847D01*
D02*
G37*
G36*
X150287D02*
X149440Y159496D01*
X148772Y158827D01*
X148421Y157980D01*
X150287D01*
Y159847D01*
D02*
G37*
G36*
X115205Y157898D02*
X113339D01*
Y156031D01*
X114186Y156382D01*
X114855Y157051D01*
X115205Y157898D01*
D02*
G37*
G36*
X112339D02*
X110472D01*
X110823Y157051D01*
X111492Y156382D01*
X112339Y156031D01*
Y157898D01*
D02*
G37*
G36*
X153154Y156980D02*
X151287D01*
Y155113D01*
X152134Y155464D01*
X152803Y156133D01*
X153154Y156980D01*
D02*
G37*
G36*
X150287D02*
X148421D01*
X148772Y156133D01*
X149440Y155464D01*
X150287Y155113D01*
Y156980D01*
D02*
G37*
G36*
X135119Y159858D02*
X134173D01*
X133299Y159496D01*
X132630Y158827D01*
X132268Y157953D01*
Y157007D01*
X132630Y156133D01*
X133299Y155464D01*
X134173Y155102D01*
X135119D01*
X135993Y155464D01*
X136662Y156133D01*
X137024Y157007D01*
Y157953D01*
X136662Y158827D01*
X135993Y159496D01*
X135119Y159858D01*
D02*
G37*
G36*
X128820D02*
X127874D01*
X126999Y159496D01*
X126330Y158827D01*
X125969Y157953D01*
Y157007D01*
X126330Y156133D01*
X126999Y155464D01*
X127874Y155102D01*
X128820D01*
X129693Y155464D01*
X130362Y156133D01*
X130724Y157007D01*
Y157953D01*
X130362Y158827D01*
X129693Y159496D01*
X128820Y159858D01*
D02*
G37*
G36*
X131618Y147249D02*
Y145382D01*
X133485D01*
X133134Y146229D01*
X132465Y146898D01*
X131618Y147249D01*
D02*
G37*
G36*
X130618D02*
X129771Y146898D01*
X129102Y146229D01*
X128751Y145382D01*
X130618D01*
Y147249D01*
D02*
G37*
G36*
X133485Y144382D02*
X131618D01*
Y142515D01*
X132465Y142866D01*
X133134Y143535D01*
X133485Y144382D01*
D02*
G37*
G36*
X130618D02*
X128751D01*
X129102Y143535D01*
X129771Y142866D01*
X130618Y142515D01*
Y144382D01*
D02*
G37*
G36*
X56406Y138194D02*
Y136327D01*
X58272D01*
X57921Y137174D01*
X57253Y137843D01*
X56406Y138194D01*
D02*
G37*
G36*
X55405D02*
X54558Y137843D01*
X53890Y137174D01*
X53539Y136327D01*
X55405D01*
Y138194D01*
D02*
G37*
G36*
X48981Y137427D02*
X47082D01*
Y134227D01*
X48981D01*
Y137427D01*
D02*
G37*
G36*
X58272Y135327D02*
X56406D01*
Y133460D01*
X57253Y133811D01*
X57921Y134480D01*
X58272Y135327D01*
D02*
G37*
G36*
X55405D02*
X53539D01*
X53890Y134480D01*
X54558Y133811D01*
X55405Y133460D01*
Y135327D01*
D02*
G37*
G36*
X37355Y136614D02*
X36409D01*
X35535Y136252D01*
X34866Y135583D01*
X34504Y134709D01*
Y133763D01*
X34866Y132889D01*
X35535Y132220D01*
X36409Y131858D01*
X37355D01*
X38229Y132220D01*
X38898Y132889D01*
X39260Y133763D01*
Y134709D01*
X38898Y135583D01*
X38229Y136252D01*
X37355Y136614D01*
D02*
G37*
G36*
X53525Y128055D02*
X50325D01*
Y125355D01*
X53525D01*
Y128055D01*
D02*
G37*
G36*
X45328Y127921D02*
X42128D01*
Y125221D01*
X45328D01*
Y127921D01*
D02*
G37*
G36*
X31209Y118902D02*
Y117035D01*
X33075D01*
X32725Y117882D01*
X32056Y118551D01*
X31209Y118902D01*
D02*
G37*
G36*
X30209D02*
X29362Y118551D01*
X28693Y117882D01*
X28342Y117035D01*
X30209D01*
Y118902D01*
D02*
G37*
G36*
X39056Y119701D02*
X38110D01*
X37236Y119339D01*
X36567Y118670D01*
X36205Y117796D01*
Y116850D01*
X36567Y115976D01*
X37236Y115307D01*
X38110Y114945D01*
X39056D01*
X39930Y115307D01*
X40599Y115976D01*
X40961Y116850D01*
Y117796D01*
X40599Y118670D01*
X39930Y119339D01*
X39056Y119701D01*
D02*
G37*
G36*
X33075Y116035D02*
X31209D01*
Y114169D01*
X32056Y114520D01*
X32725Y115188D01*
X33075Y116035D01*
D02*
G37*
G36*
X30209D02*
X28342D01*
X28693Y115188D01*
X29362Y114520D01*
X30209Y114169D01*
Y116035D01*
D02*
G37*
G36*
X19398Y112209D02*
Y110343D01*
X21264D01*
X20914Y111189D01*
X20245Y111858D01*
X19398Y112209D01*
D02*
G37*
G36*
X18398D02*
X17551Y111858D01*
X16882Y111189D01*
X16531Y110343D01*
X18398D01*
Y112209D01*
D02*
G37*
G36*
X145776Y110241D02*
Y108374D01*
X147642D01*
X147292Y109221D01*
X146623Y109890D01*
X145776Y110241D01*
D02*
G37*
G36*
X144776D02*
X143929Y109890D01*
X143260Y109221D01*
X142909Y108374D01*
X144776D01*
Y110241D01*
D02*
G37*
G36*
X21264Y109343D02*
X19398D01*
Y107476D01*
X20245Y107827D01*
X20914Y108495D01*
X21264Y109343D01*
D02*
G37*
G36*
X18398D02*
X16531D01*
X16882Y108495D01*
X17551Y107827D01*
X18398Y107476D01*
Y109343D01*
D02*
G37*
G36*
X31521Y108437D02*
X28321D01*
Y105737D01*
X31521D01*
Y108437D01*
D02*
G37*
G36*
X147642Y107374D02*
X145776D01*
Y105507D01*
X146623Y105858D01*
X147292Y106527D01*
X147642Y107374D01*
D02*
G37*
G36*
X144776D02*
X142909D01*
X143260Y106527D01*
X143929Y105858D01*
X144776Y105507D01*
Y107374D01*
D02*
G37*
G36*
X119764Y108283D02*
X118818D01*
X117944Y107921D01*
X117275Y107253D01*
X116913Y106378D01*
Y105432D01*
X117275Y104559D01*
X117944Y103890D01*
X118818Y103528D01*
X119764D01*
X120638Y103890D01*
X121307Y104559D01*
X121669Y105432D01*
Y106378D01*
X121307Y107253D01*
X120638Y107921D01*
X119764Y108283D01*
D02*
G37*
G36*
X22941Y104729D02*
Y102862D01*
X24808D01*
X24457Y103709D01*
X23788Y104378D01*
X22941Y104729D01*
D02*
G37*
G36*
X21941D02*
X21094Y104378D01*
X20425Y103709D01*
X20074Y102862D01*
X21941D01*
Y104729D01*
D02*
G37*
G36*
X14279D02*
Y102862D01*
X16146D01*
X15796Y103709D01*
X15126Y104378D01*
X14279Y104729D01*
D02*
G37*
G36*
X13280D02*
X12432Y104378D01*
X11764Y103709D01*
X11413Y102862D01*
X13280D01*
Y104729D01*
D02*
G37*
G36*
X41351Y107776D02*
X40405D01*
X39531Y107414D01*
X38862Y106745D01*
X38500Y105871D01*
Y104925D01*
X38862Y104051D01*
X39531Y103382D01*
X40405Y103020D01*
X41351D01*
X42225Y103382D01*
X42272Y103428D01*
X42772Y103221D01*
Y102787D01*
X43134Y101913D01*
X43803Y101244D01*
X44677Y100882D01*
X45623D01*
X46497Y101244D01*
X47166Y101913D01*
X47528Y102787D01*
Y103733D01*
X47166Y104607D01*
X46497Y105276D01*
X45623Y105638D01*
X44677D01*
X43803Y105276D01*
X43756Y105229D01*
X43256Y105436D01*
Y105871D01*
X42894Y106745D01*
X42225Y107414D01*
X41351Y107776D01*
D02*
G37*
G36*
X24808Y101862D02*
X22941D01*
Y99995D01*
X23788Y100346D01*
X24457Y101015D01*
X24808Y101862D01*
D02*
G37*
G36*
X21941D02*
X20074D01*
X20425Y101015D01*
X21094Y100346D01*
X21941Y99995D01*
Y101862D01*
D02*
G37*
G36*
X16146D02*
X14279D01*
Y99995D01*
X15126Y100346D01*
X15796Y101015D01*
X16146Y101862D01*
D02*
G37*
G36*
X13280D02*
X11413D01*
X11764Y101015D01*
X12432Y100346D01*
X13280Y99995D01*
Y101862D01*
D02*
G37*
G36*
X136300Y106709D02*
X135354D01*
X134480Y106347D01*
X133811Y105678D01*
X133449Y104804D01*
Y103858D01*
X133811Y102984D01*
X134480Y102315D01*
X135354Y101953D01*
X136300D01*
X136886Y102196D01*
X137386Y101874D01*
Y101496D01*
X137748Y100621D01*
X138417Y99953D01*
X139291Y99590D01*
X140237D01*
X141111Y99953D01*
X141780Y100621D01*
X142142Y101496D01*
Y102442D01*
X141780Y103315D01*
X141111Y103984D01*
X140237Y104347D01*
X139291D01*
X138705Y104104D01*
X138205Y104426D01*
Y104804D01*
X137843Y105678D01*
X137174Y106347D01*
X136300Y106709D01*
D02*
G37*
G36*
X129240Y98168D02*
Y97154D01*
X130255D01*
X130089Y97554D01*
X129641Y98002D01*
X129240Y98168D01*
D02*
G37*
G36*
X128240D02*
X127839Y98002D01*
X127392Y97554D01*
X127226Y97154D01*
X128240D01*
Y98168D01*
D02*
G37*
G36*
X40736Y98245D02*
Y96378D01*
X42603D01*
X42252Y97225D01*
X41583Y97894D01*
X40736Y98245D01*
D02*
G37*
G36*
X39736D02*
X38889Y97894D01*
X38220Y97225D01*
X37870Y96378D01*
X39736D01*
Y98245D01*
D02*
G37*
G36*
X26878Y97249D02*
Y95382D01*
X28745D01*
X28394Y96229D01*
X27725Y96898D01*
X26878Y97249D01*
D02*
G37*
G36*
X25878D02*
X25031Y96898D01*
X24362Y96229D01*
X24011Y95382D01*
X25878D01*
Y97249D01*
D02*
G37*
G36*
X130255Y96153D02*
X129240D01*
Y95139D01*
X129641Y95305D01*
X130089Y95753D01*
X130255Y96153D01*
D02*
G37*
G36*
X128240D02*
X127226D01*
X127392Y95753D01*
X127839Y95305D01*
X128240Y95139D01*
Y96153D01*
D02*
G37*
G36*
X17823Y96855D02*
Y94988D01*
X19690D01*
X19339Y95835D01*
X18670Y96504D01*
X17823Y96855D01*
D02*
G37*
G36*
X16823D02*
X15976Y96504D01*
X15307Y95835D01*
X14956Y94988D01*
X16823D01*
Y96855D01*
D02*
G37*
G36*
X47386Y99311D02*
X46440D01*
X45566Y98949D01*
X44897Y98280D01*
X44535Y97406D01*
Y96460D01*
X44897Y95586D01*
X45566Y94917D01*
X46440Y94555D01*
X47386D01*
X48260Y94917D01*
X48929Y95586D01*
X49291Y96460D01*
Y97406D01*
X48929Y98280D01*
X48260Y98949D01*
X47386Y99311D01*
D02*
G37*
G36*
X42603Y95378D02*
X40736D01*
Y93511D01*
X41583Y93862D01*
X42252Y94531D01*
X42603Y95378D01*
D02*
G37*
G36*
X39736D02*
X37870D01*
X38220Y94531D01*
X38889Y93862D01*
X39736Y93511D01*
Y95378D01*
D02*
G37*
G36*
X28745Y94382D02*
X26878D01*
Y92515D01*
X27725Y92866D01*
X28394Y93535D01*
X28745Y94382D01*
D02*
G37*
G36*
X25878D02*
X24011D01*
X24362Y93535D01*
X25031Y92866D01*
X25878Y92515D01*
Y94382D01*
D02*
G37*
G36*
X107166Y97260D02*
X106220D01*
X105346Y96898D01*
X104677Y96229D01*
X104315Y95355D01*
Y94409D01*
X104677Y93535D01*
X105346Y92866D01*
X106220Y92504D01*
X107166D01*
X108040Y92866D01*
X108709Y93535D01*
X109071Y94409D01*
Y95355D01*
X108709Y96229D01*
X108040Y96898D01*
X107166Y97260D01*
D02*
G37*
G36*
X133349Y93281D02*
Y92266D01*
X134363D01*
X134197Y92668D01*
X133750Y93115D01*
X133349Y93281D01*
D02*
G37*
G36*
X132349D02*
X131948Y93115D01*
X131500Y92668D01*
X131334Y92266D01*
X132349D01*
Y93281D01*
D02*
G37*
G36*
X125106Y93247D02*
Y92232D01*
X126121D01*
X125955Y92633D01*
X125507Y93081D01*
X125106Y93247D01*
D02*
G37*
G36*
X124106D02*
X123705Y93081D01*
X123258Y92633D01*
X123092Y92232D01*
X124106D01*
Y93247D01*
D02*
G37*
G36*
X19690Y93988D02*
X17823D01*
Y92121D01*
X18670Y92472D01*
X19339Y93141D01*
X19690Y93988D01*
D02*
G37*
G36*
X16823D02*
X14956D01*
X15307Y93141D01*
X15976Y92472D01*
X16823Y92121D01*
Y93988D01*
D02*
G37*
G36*
X96142Y96866D02*
X95196D01*
X94322Y96504D01*
X93653Y95835D01*
X93291Y94961D01*
Y94015D01*
X93653Y93141D01*
X94322Y92472D01*
X95196Y92110D01*
X96142D01*
X97016Y92472D01*
X97685Y93141D01*
X98047Y94015D01*
Y94961D01*
X97685Y95835D01*
X97016Y96504D01*
X96142Y96866D01*
D02*
G37*
G36*
X134363Y91267D02*
X133349D01*
Y90252D01*
X133750Y90418D01*
X134197Y90865D01*
X134363Y91267D01*
D02*
G37*
G36*
X132349D02*
X131334D01*
X131500Y90865D01*
X131948Y90418D01*
X132349Y90252D01*
Y91267D01*
D02*
G37*
G36*
X126121Y91232D02*
X125106D01*
Y90218D01*
X125507Y90384D01*
X125955Y90831D01*
X126121Y91232D01*
D02*
G37*
G36*
X124106D02*
X123092D01*
X123258Y90831D01*
X123705Y90384D01*
X124106Y90218D01*
Y91232D01*
D02*
G37*
G36*
X116615Y94898D02*
X115669D01*
X114795Y94536D01*
X114126Y93867D01*
X113764Y92993D01*
Y92047D01*
X114126Y91173D01*
X114795Y90504D01*
X115669Y90142D01*
X116615D01*
X117489Y90504D01*
X118158Y91173D01*
X118520Y92047D01*
Y92993D01*
X118158Y93867D01*
X117489Y94536D01*
X116615Y94898D01*
D02*
G37*
G36*
X112311Y90162D02*
Y88295D01*
X114178D01*
X113827Y89142D01*
X113158Y89811D01*
X112311Y90162D01*
D02*
G37*
G36*
X111311D02*
X110464Y89811D01*
X109795Y89142D01*
X109444Y88295D01*
X111311D01*
Y90162D01*
D02*
G37*
G36*
X129240Y88326D02*
Y87311D01*
X130255D01*
X130089Y87712D01*
X129641Y88159D01*
X129240Y88326D01*
D02*
G37*
G36*
X128240D02*
X127839Y88159D01*
X127392Y87712D01*
X127226Y87311D01*
X128240D01*
Y88326D01*
D02*
G37*
G36*
X89540Y91807D02*
X88594D01*
X87720Y91445D01*
X87051Y90776D01*
X86689Y89902D01*
Y88956D01*
X87051Y88082D01*
X87720Y87413D01*
X88594Y87051D01*
X89540D01*
X90414Y87413D01*
X91083Y88082D01*
X91445Y88956D01*
Y89902D01*
X91083Y90776D01*
X90414Y91445D01*
X89540Y91807D01*
D02*
G37*
G36*
X114178Y87295D02*
X112311D01*
Y85429D01*
X113158Y85779D01*
X113827Y86448D01*
X114178Y87295D01*
D02*
G37*
G36*
X111311D02*
X109444D01*
X109795Y86448D01*
X110464Y85779D01*
X111311Y85429D01*
Y87295D01*
D02*
G37*
G36*
X130255Y86311D02*
X129240D01*
Y85296D01*
X129641Y85463D01*
X130089Y85910D01*
X130255Y86311D01*
D02*
G37*
G36*
X128240D02*
X127226D01*
X127392Y85910D01*
X127839Y85463D01*
X128240Y85296D01*
Y86311D01*
D02*
G37*
G36*
X117429Y84650D02*
Y82784D01*
X119296D01*
X118945Y83631D01*
X118276Y84299D01*
X117429Y84650D01*
D02*
G37*
G36*
X116429D02*
X115582Y84299D01*
X114913Y83631D01*
X114562Y82784D01*
X116429D01*
Y84650D01*
D02*
G37*
G36*
X72627Y86287D02*
X71680D01*
X70806Y85925D01*
X70138Y85256D01*
X69776Y84382D01*
Y83437D01*
X70138Y82563D01*
X70806Y81893D01*
X71680Y81532D01*
X72627D01*
X73501Y81893D01*
X74169Y82563D01*
X74532Y83437D01*
Y84382D01*
X74169Y85256D01*
X73501Y85925D01*
X72627Y86287D01*
D02*
G37*
G36*
X37240Y82363D02*
Y80496D01*
X39107D01*
X38756Y81343D01*
X38087Y82012D01*
X37240Y82363D01*
D02*
G37*
G36*
X36240D02*
X35393Y82012D01*
X34724Y81343D01*
X34373Y80496D01*
X36240D01*
Y82363D01*
D02*
G37*
G36*
X119296Y81783D02*
X117429D01*
Y79917D01*
X118276Y80268D01*
X118945Y80936D01*
X119296Y81783D01*
D02*
G37*
G36*
X116429D02*
X114562D01*
X114913Y80936D01*
X115582Y80268D01*
X116429Y79917D01*
Y81783D01*
D02*
G37*
G36*
X56799Y81501D02*
Y79634D01*
X58666D01*
X58315Y80481D01*
X57646Y81150D01*
X56799Y81501D01*
D02*
G37*
G36*
X55799D02*
X54952Y81150D01*
X54283Y80481D01*
X53932Y79634D01*
X55799D01*
Y81501D01*
D02*
G37*
G36*
X92993Y82693D02*
X92047D01*
X91173Y82331D01*
X90504Y81662D01*
X90142Y80788D01*
Y79842D01*
X90504Y78968D01*
X91173Y78299D01*
X92047Y77937D01*
X92993D01*
X93867Y78299D01*
X94536Y78968D01*
X94898Y79842D01*
Y80788D01*
X94536Y81662D01*
X93867Y82331D01*
X92993Y82693D01*
D02*
G37*
G36*
X140657Y79532D02*
Y77665D01*
X142524D01*
X142173Y78512D01*
X141505Y79181D01*
X140657Y79532D01*
D02*
G37*
G36*
X139657D02*
X138811Y79181D01*
X138142Y78512D01*
X137791Y77665D01*
X139657D01*
Y79532D01*
D02*
G37*
G36*
X39107Y79496D02*
X37240D01*
Y77629D01*
X38087Y77980D01*
X38756Y78649D01*
X39107Y79496D01*
D02*
G37*
G36*
X36240D02*
X34373D01*
X34724Y78649D01*
X35393Y77980D01*
X36240Y77629D01*
Y79496D01*
D02*
G37*
G36*
X77819Y78745D02*
Y76878D01*
X79686D01*
X79335Y77725D01*
X78666Y78394D01*
X77819Y78745D01*
D02*
G37*
G36*
X76819D02*
X75972Y78394D01*
X75303Y77725D01*
X74952Y76878D01*
X76819D01*
Y78745D01*
D02*
G37*
G36*
X147039Y77016D02*
Y75150D01*
X148906D01*
X148555Y75997D01*
X147886Y76666D01*
X147039Y77016D01*
D02*
G37*
G36*
X146039D02*
X145192Y76666D01*
X144523Y75997D01*
X144173Y75150D01*
X146039D01*
Y77016D01*
D02*
G37*
G36*
X142524Y76665D02*
X140657D01*
Y74799D01*
X141505Y75149D01*
X142173Y75818D01*
X142524Y76665D01*
D02*
G37*
G36*
X139657D02*
X137791D01*
X138142Y75818D01*
X138811Y75149D01*
X139657Y74799D01*
Y76665D01*
D02*
G37*
G36*
X79686Y75878D02*
X77819D01*
Y74011D01*
X78666Y74362D01*
X79335Y75031D01*
X79686Y75878D01*
D02*
G37*
G36*
X76819D02*
X74952D01*
X75303Y75031D01*
X75972Y74362D01*
X76819Y74011D01*
Y75878D01*
D02*
G37*
G36*
X58666Y78634D02*
X53932D01*
X54283Y77787D01*
X54952Y77118D01*
X55826Y76756D01*
X56137Y76403D01*
X56137Y76256D01*
Y73203D01*
X58037D01*
Y76403D01*
X57227D01*
X57128Y76903D01*
X57646Y77118D01*
X58315Y77787D01*
X58666Y78634D01*
D02*
G37*
G36*
X148906Y74150D02*
X147039D01*
Y72283D01*
X147886Y72634D01*
X148555Y73303D01*
X148906Y74150D01*
D02*
G37*
G36*
X146039D02*
X144173D01*
X144523Y73303D01*
X145192Y72634D01*
X146039Y72283D01*
Y74150D01*
D02*
G37*
G36*
X47567Y76287D02*
X46622D01*
X45748Y75925D01*
X45079Y75256D01*
X44717Y74382D01*
Y73436D01*
X45079Y72562D01*
X45748Y71894D01*
X46622Y71531D01*
X47567D01*
X48441Y71894D01*
X49110Y72562D01*
X49472Y73436D01*
Y74382D01*
X49110Y75256D01*
X48441Y75925D01*
X47567Y76287D01*
D02*
G37*
G36*
X32847Y77787D02*
X31901D01*
X31027Y77425D01*
X30358Y76756D01*
X29996Y75882D01*
Y74936D01*
X30358Y74063D01*
X31027Y73393D01*
X31200Y73322D01*
Y72822D01*
X31145Y72799D01*
X30476Y72131D01*
X30114Y71257D01*
Y70310D01*
X30476Y69437D01*
X31145Y68767D01*
X32019Y68405D01*
X32965D01*
X33839Y68767D01*
X34508Y69437D01*
X34870Y70310D01*
Y71257D01*
X34508Y72131D01*
X33839Y72799D01*
X33666Y72871D01*
Y73371D01*
X33721Y73393D01*
X34390Y74063D01*
X34752Y74936D01*
Y75882D01*
X34390Y76756D01*
X33721Y77425D01*
X32847Y77787D01*
D02*
G37*
G36*
X47693Y67677D02*
X46747D01*
X45873Y67315D01*
X45204Y66646D01*
X44842Y65772D01*
Y64826D01*
X45204Y63952D01*
X45873Y63283D01*
X46747Y62921D01*
X47693D01*
X48568Y63283D01*
X49236Y63952D01*
X49598Y64826D01*
Y65772D01*
X49236Y66646D01*
X48568Y67315D01*
X47693Y67677D01*
D02*
G37*
G36*
X89445Y61480D02*
X88499D01*
X87625Y61118D01*
X86957Y60449D01*
X86744Y59937D01*
X86605Y59882D01*
X86172Y59861D01*
X85611Y60421D01*
X84737Y60783D01*
X83791D01*
X82917Y60421D01*
X82248Y59753D01*
X81886Y58878D01*
Y57933D01*
X82248Y57059D01*
X82917Y56390D01*
X83791Y56028D01*
X84737D01*
X85611Y56390D01*
X86280Y57059D01*
X86492Y57571D01*
X86631Y57626D01*
X87065Y57647D01*
X87625Y57086D01*
X88499Y56724D01*
X89445D01*
X90319Y57086D01*
X90988Y57755D01*
X91350Y58629D01*
Y59575D01*
X90988Y60449D01*
X90319Y61118D01*
X89445Y61480D01*
D02*
G37*
G36*
X98682Y67158D02*
X97736D01*
X96862Y66795D01*
X96193Y66127D01*
X95831Y65253D01*
Y64306D01*
X96193Y63433D01*
X96411Y63214D01*
X96411Y62508D01*
X96094Y62191D01*
X95732Y61317D01*
Y60371D01*
X96094Y59497D01*
X96763Y58828D01*
X97636Y58466D01*
X98583D01*
X99457Y58828D01*
X100125Y59497D01*
X100487Y60371D01*
Y61317D01*
X100125Y62191D01*
X99907Y62409D01*
X99907Y63115D01*
X100225Y63433D01*
X100587Y64306D01*
Y65253D01*
X100225Y66127D01*
X99556Y66795D01*
X98682Y67158D01*
D02*
G37*
G36*
X151287Y58272D02*
Y56406D01*
X153154D01*
X152803Y57253D01*
X152134Y57921D01*
X151287Y58272D01*
D02*
G37*
G36*
X150287D02*
X149440Y57921D01*
X148772Y57253D01*
X148421Y56406D01*
X150287D01*
Y58272D01*
D02*
G37*
G36*
X153154Y55405D02*
X151287D01*
Y53539D01*
X152134Y53890D01*
X152803Y54558D01*
X153154Y55405D01*
D02*
G37*
G36*
X150287D02*
X148421D01*
X148772Y54558D01*
X149440Y53890D01*
X150287Y53539D01*
Y55405D01*
D02*
G37*
G36*
X33177Y54569D02*
Y52702D01*
X35044D01*
X34693Y53549D01*
X34024Y54218D01*
X33177Y54569D01*
D02*
G37*
G36*
X32177D02*
X31330Y54218D01*
X30661Y53549D01*
X30310Y52702D01*
X32177D01*
Y54569D01*
D02*
G37*
G36*
X22153D02*
Y52702D01*
X24020D01*
X23670Y53549D01*
X23000Y54218D01*
X22153Y54569D01*
D02*
G37*
G36*
X21154D02*
X20306Y54218D01*
X19638Y53549D01*
X19287Y52702D01*
X21154D01*
Y54569D01*
D02*
G37*
G36*
X11524D02*
Y52702D01*
X13390D01*
X13039Y53549D01*
X12371Y54218D01*
X11524Y54569D01*
D02*
G37*
G36*
X10524D02*
X9677Y54218D01*
X9008Y53549D01*
X8657Y52702D01*
X10524D01*
Y54569D01*
D02*
G37*
G36*
X35044Y51702D02*
X33177D01*
Y49835D01*
X34024Y50186D01*
X34693Y50855D01*
X35044Y51702D01*
D02*
G37*
G36*
X32177D02*
X30310D01*
X30661Y50855D01*
X31330Y50186D01*
X32177Y49835D01*
Y51702D01*
D02*
G37*
G36*
X24020D02*
X22153D01*
Y49835D01*
X23000Y50186D01*
X23670Y50855D01*
X24020Y51702D01*
D02*
G37*
G36*
X21154D02*
X19287D01*
X19638Y50855D01*
X20306Y50186D01*
X21154Y49835D01*
Y51702D01*
D02*
G37*
G36*
X13390D02*
X11524D01*
Y49835D01*
X12371Y50186D01*
X13039Y50855D01*
X13390Y51702D01*
D02*
G37*
G36*
X10524D02*
X8657D01*
X9008Y50855D01*
X9677Y50186D01*
X10524Y49835D01*
Y51702D01*
D02*
G37*
G36*
X120158Y55248D02*
X119212D01*
X118338Y54886D01*
X117669Y54217D01*
X117307Y53343D01*
Y52397D01*
X117669Y51523D01*
X118338Y50854D01*
X119212Y50492D01*
X120158D01*
X120242Y50527D01*
X120622Y50143D01*
Y49291D01*
X120984Y48417D01*
X121653Y47748D01*
X122527Y47386D01*
X123473D01*
X124347Y47748D01*
X125016Y48417D01*
X125378Y49291D01*
Y50237D01*
X125016Y51111D01*
X124347Y51780D01*
X123473Y52142D01*
X122527D01*
X122443Y52107D01*
X122063Y52491D01*
Y53343D01*
X121701Y54217D01*
X121032Y54886D01*
X120158Y55248D01*
D02*
G37*
G36*
X46957Y47249D02*
Y45382D01*
X48823D01*
X48473Y46229D01*
X47804Y46898D01*
X46957Y47249D01*
D02*
G37*
G36*
X45957D02*
X45110Y46898D01*
X44441Y46229D01*
X44090Y45382D01*
X45957D01*
Y47249D01*
D02*
G37*
G36*
X138870Y44748D02*
X138844D01*
X137826Y44475D01*
X137402Y44230D01*
X136977Y44475D01*
X135960Y44748D01*
X135933D01*
Y40748D01*
X135433D01*
Y40248D01*
X131433D01*
Y40221D01*
X131706Y39204D01*
X131894Y38878D01*
X131706Y38552D01*
X131433Y37534D01*
Y37508D01*
X135433D01*
Y36508D01*
X131433D01*
Y36481D01*
X131706Y35464D01*
X131894Y35138D01*
X131706Y34812D01*
X131433Y33794D01*
Y33768D01*
X135433D01*
Y33268D01*
X135933D01*
Y29268D01*
X135960D01*
X136977Y29540D01*
X137402Y29785D01*
X137826Y29540D01*
X138844Y29268D01*
X138870D01*
Y33268D01*
X139370D01*
Y33768D01*
X143370D01*
Y33794D01*
X143097Y34812D01*
X142909Y35138D01*
X143097Y35464D01*
X143370Y36481D01*
Y36508D01*
X139370D01*
Y37508D01*
X143370D01*
Y37534D01*
X143097Y38552D01*
X142909Y38878D01*
X143097Y39204D01*
X143370Y40221D01*
Y40248D01*
X139370D01*
Y40748D01*
X138870D01*
Y44748D01*
D02*
G37*
G36*
X22547Y45514D02*
Y43647D01*
X24414D01*
X24063Y44494D01*
X23394Y45163D01*
X22547Y45514D01*
D02*
G37*
G36*
X21547D02*
X20700Y45163D01*
X20031Y44494D01*
X19681Y43647D01*
X21547D01*
Y45514D01*
D02*
G37*
G36*
X11524D02*
Y43647D01*
X13390D01*
X13039Y44494D01*
X12371Y45163D01*
X11524Y45514D01*
D02*
G37*
G36*
X10524D02*
X9677Y45163D01*
X9008Y44494D01*
X8657Y43647D01*
X10524D01*
Y45514D01*
D02*
G37*
G36*
X80863Y47677D02*
X79917D01*
X79043Y47315D01*
X78374Y46646D01*
X78012Y45772D01*
Y44826D01*
X78374Y43952D01*
X79043Y43283D01*
X79917Y42921D01*
X80863D01*
X81737Y43283D01*
X82406Y43952D01*
X82768Y44826D01*
Y45772D01*
X82406Y46646D01*
X81737Y47315D01*
X80863Y47677D01*
D02*
G37*
G36*
X48823Y44382D02*
X46957D01*
Y42515D01*
X47804Y42866D01*
X48473Y43535D01*
X48823Y44382D01*
D02*
G37*
G36*
X45957D02*
X44090D01*
X44441Y43535D01*
X45110Y42866D01*
X45957Y42515D01*
Y44382D01*
D02*
G37*
G36*
X139897Y44748D02*
X139870D01*
Y41248D01*
X143370D01*
Y41275D01*
X143097Y42292D01*
X142571Y43204D01*
X141826Y43949D01*
X140914Y44475D01*
X139897Y44748D01*
D02*
G37*
G36*
X134933D02*
X134906D01*
X133889Y44475D01*
X132977Y43949D01*
X132232Y43204D01*
X131706Y42292D01*
X131433Y41275D01*
Y41248D01*
X134933D01*
Y44748D01*
D02*
G37*
G36*
X24414Y42647D02*
X22547D01*
Y40780D01*
X23394Y41131D01*
X24063Y41800D01*
X24414Y42647D01*
D02*
G37*
G36*
X21547D02*
X19681D01*
X20031Y41800D01*
X20700Y41131D01*
X21547Y40780D01*
Y42647D01*
D02*
G37*
G36*
X13390D02*
X11524D01*
Y40780D01*
X12371Y41131D01*
X13039Y41800D01*
X13390Y42647D01*
D02*
G37*
G36*
X10524D02*
X8657D01*
X9008Y41800D01*
X9677Y41131D01*
X10524Y40780D01*
Y42647D01*
D02*
G37*
G36*
X57249Y42939D02*
X55349D01*
Y39739D01*
X57249D01*
Y42939D01*
D02*
G37*
G36*
X104996Y41119D02*
Y39252D01*
X106863D01*
X106512Y40099D01*
X105843Y40768D01*
X104996Y41119D01*
D02*
G37*
G36*
X103996D02*
X103149Y40768D01*
X102480Y40099D01*
X102129Y39252D01*
X103996D01*
Y41119D01*
D02*
G37*
G36*
X125276Y44110D02*
X124330D01*
X123456Y43748D01*
X122787Y43079D01*
X122425Y42205D01*
Y41259D01*
X122787Y40385D01*
X123456Y39716D01*
X124281Y39375D01*
X124387Y39147D01*
X124468Y38854D01*
X123968Y38355D01*
X123617Y37508D01*
X128351D01*
X128000Y38355D01*
X127331Y39024D01*
X126506Y39366D01*
X126400Y39593D01*
X126320Y39886D01*
X126819Y40385D01*
X127181Y41259D01*
Y42205D01*
X126819Y43079D01*
X126150Y43748D01*
X125276Y44110D01*
D02*
G37*
G36*
X106863Y38252D02*
X104996D01*
Y36385D01*
X105843Y36736D01*
X106512Y37405D01*
X106863Y38252D01*
D02*
G37*
G36*
X103996D02*
X102129D01*
X102480Y37405D01*
X103149Y36736D01*
X103996Y36385D01*
Y38252D01*
D02*
G37*
G36*
X33571Y36852D02*
Y34986D01*
X35438D01*
X35087Y35833D01*
X34418Y36502D01*
X33571Y36852D01*
D02*
G37*
G36*
X32571D02*
X31724Y36502D01*
X31055Y35833D01*
X30704Y34986D01*
X32571D01*
Y36852D01*
D02*
G37*
G36*
X22941D02*
Y34986D01*
X24808D01*
X24457Y35833D01*
X23788Y36502D01*
X22941Y36852D01*
D02*
G37*
G36*
X21941D02*
X21094Y36502D01*
X20425Y35833D01*
X20074Y34986D01*
X21941D01*
Y36852D01*
D02*
G37*
G36*
X11917D02*
Y34986D01*
X13784D01*
X13433Y35833D01*
X12764Y36502D01*
X11917Y36852D01*
D02*
G37*
G36*
X10917D02*
X10070Y36502D01*
X9401Y35833D01*
X9050Y34986D01*
X10917D01*
Y36852D01*
D02*
G37*
G36*
X128351Y36508D02*
X126484D01*
Y34641D01*
X127331Y34992D01*
X128000Y35661D01*
X128351Y36508D01*
D02*
G37*
G36*
X125484D02*
X123617D01*
X123968Y35661D01*
X124637Y34992D01*
X125484Y34641D01*
Y36508D01*
D02*
G37*
G36*
X35438Y33986D02*
X33571D01*
Y32119D01*
X34418Y32470D01*
X35087Y33138D01*
X35438Y33986D01*
D02*
G37*
G36*
X32571D02*
X30704D01*
X31055Y33138D01*
X31724Y32470D01*
X32571Y32119D01*
Y33986D01*
D02*
G37*
G36*
X24808D02*
X22941D01*
Y32119D01*
X23788Y32470D01*
X24457Y33138D01*
X24808Y33986D01*
D02*
G37*
G36*
X21941D02*
X20074D01*
X20425Y33138D01*
X21094Y32470D01*
X21941Y32119D01*
Y33986D01*
D02*
G37*
G36*
X13784D02*
X11917D01*
Y32119D01*
X12764Y32470D01*
X13433Y33138D01*
X13784Y33986D01*
D02*
G37*
G36*
X10917D02*
X9050D01*
X9401Y33138D01*
X10070Y32470D01*
X10917Y32119D01*
Y33986D01*
D02*
G37*
G36*
X143370Y32768D02*
X139870D01*
Y29268D01*
X139897D01*
X140914Y29540D01*
X141826Y30067D01*
X142571Y30812D01*
X143097Y31724D01*
X143370Y32741D01*
Y32768D01*
D02*
G37*
G36*
X134933D02*
X131433D01*
Y32741D01*
X131706Y31724D01*
X132232Y30812D01*
X132977Y30067D01*
X133889Y29540D01*
X134906Y29268D01*
X134933D01*
Y32768D01*
D02*
G37*
G36*
X33965Y28191D02*
Y26324D01*
X35831D01*
X35480Y27171D01*
X34812Y27840D01*
X33965Y28191D01*
D02*
G37*
G36*
X32965D02*
X32118Y27840D01*
X31449Y27171D01*
X31098Y26324D01*
X32965D01*
Y28191D01*
D02*
G37*
G36*
X23335Y27797D02*
Y25930D01*
X25201D01*
X24851Y26777D01*
X24182Y27446D01*
X23335Y27797D01*
D02*
G37*
G36*
X22335D02*
X21488Y27446D01*
X20819Y26777D01*
X20468Y25930D01*
X22335D01*
Y27797D01*
D02*
G37*
G36*
X12311D02*
Y25930D01*
X14178D01*
X13827Y26777D01*
X13158Y27446D01*
X12311Y27797D01*
D02*
G37*
G36*
X11311D02*
X10464Y27446D01*
X9795Y26777D01*
X9444Y25930D01*
X11311D01*
Y27797D01*
D02*
G37*
G36*
X114107Y29169D02*
X113161D01*
X112287Y28807D01*
X111618Y28138D01*
X111256Y27264D01*
Y26318D01*
X111618Y25444D01*
X112287Y24775D01*
X113161Y24413D01*
X114107D01*
X114981Y24775D01*
X115650Y25444D01*
X116012Y26318D01*
Y27264D01*
X115650Y28138D01*
X114981Y28807D01*
X114107Y29169D01*
D02*
G37*
G36*
X53256Y25398D02*
Y23531D01*
X55123D01*
X54772Y24378D01*
X54103Y25047D01*
X53256Y25398D01*
D02*
G37*
G36*
X52256D02*
X51409Y25047D01*
X50740Y24378D01*
X50389Y23531D01*
X52256D01*
Y25398D01*
D02*
G37*
G36*
X35831Y25324D02*
X33965D01*
Y23457D01*
X34812Y23808D01*
X35480Y24477D01*
X35831Y25324D01*
D02*
G37*
G36*
X32965D02*
X31098D01*
X31449Y24477D01*
X32118Y23808D01*
X32965Y23457D01*
Y25324D01*
D02*
G37*
G36*
X25201Y24930D02*
X23335D01*
Y23064D01*
X24182Y23415D01*
X24851Y24083D01*
X25201Y24930D01*
D02*
G37*
G36*
X22335D02*
X20468D01*
X20819Y24083D01*
X21488Y23415D01*
X22335Y23064D01*
Y24930D01*
D02*
G37*
G36*
X14178D02*
X12311D01*
Y23064D01*
X13158Y23415D01*
X13827Y24083D01*
X14178Y24930D01*
D02*
G37*
G36*
X11311D02*
X9444D01*
X9795Y24083D01*
X10464Y23415D01*
X11311Y23064D01*
Y24930D01*
D02*
G37*
G36*
X55123Y22532D02*
X53256D01*
Y20665D01*
X54103Y21016D01*
X54772Y21685D01*
X55123Y22532D01*
D02*
G37*
G36*
X52256D02*
X50389D01*
X50740Y21685D01*
X51409Y21016D01*
X52256Y20665D01*
Y22532D01*
D02*
G37*
G36*
X128909Y22466D02*
X126209D01*
Y19266D01*
X128909D01*
Y22466D01*
D02*
G37*
G36*
X112678Y23244D02*
X111732D01*
X110858Y22882D01*
X110189Y22213D01*
X109827Y21339D01*
Y20393D01*
X110189Y19519D01*
X110858Y18850D01*
X111732Y18488D01*
X112678D01*
X113552Y18850D01*
X114221Y19519D01*
X114583Y20393D01*
Y21339D01*
X114221Y22213D01*
X113552Y22882D01*
X112678Y23244D01*
D02*
G37*
G36*
X128909Y16167D02*
X126209D01*
Y12967D01*
X128909D01*
Y16167D01*
D02*
G37*
G36*
X59839Y17123D02*
X55121D01*
Y12798D01*
X59839D01*
Y17123D01*
D02*
G37*
G36*
X47241D02*
X42523D01*
Y12798D01*
X47241D01*
Y17123D01*
D02*
G37*
G36*
X141051Y12997D02*
Y11130D01*
X142918D01*
X142567Y11977D01*
X141898Y12646D01*
X141051Y12997D01*
D02*
G37*
G36*
X140051D02*
X139204Y12646D01*
X138535Y11977D01*
X138184Y11130D01*
X140051D01*
Y12997D01*
D02*
G37*
G36*
X142918Y10130D02*
X141051D01*
Y8263D01*
X141898Y8614D01*
X142567Y9283D01*
X142918Y10130D01*
D02*
G37*
G36*
X140051D02*
X138184D01*
X138535Y9283D01*
X139204Y8614D01*
X140051Y8263D01*
Y10130D01*
D02*
G37*
G36*
X99686Y13008D02*
X98740D01*
X97866Y12646D01*
X97197Y11977D01*
X96835Y11103D01*
Y10157D01*
X97197Y9283D01*
X97866Y8614D01*
X98740Y8252D01*
X99686D01*
X100560Y8614D01*
X101228Y9283D01*
X101591Y10157D01*
Y11103D01*
X101228Y11977D01*
X100560Y12646D01*
X99686Y13008D01*
D02*
G37*
G36*
X65040D02*
X64094D01*
X63220Y12646D01*
X62551Y11977D01*
X62189Y11103D01*
Y10157D01*
X62551Y9283D01*
X63220Y8614D01*
X64094Y8252D01*
X65040D01*
X65914Y8614D01*
X66583Y9283D01*
X66945Y10157D01*
Y11103D01*
X66583Y11977D01*
X65914Y12646D01*
X65040Y13008D01*
D02*
G37*
%LPD*%
D66*
X132849Y91767D02*
D03*
X124606Y91732D02*
D03*
X128740Y86811D02*
D03*
Y96653D02*
D03*
D71*
X165685Y99547D02*
X168085D01*
X218435D02*
X220681D01*
X218377Y95646D02*
X218435Y99547D01*
X218377Y95646D02*
X220342Y88087D01*
X224204Y81281D01*
X229707Y75696D01*
X236481Y71717D01*
X244069Y69624D01*
X251956Y69566D01*
X259603Y71555D01*
X266489Y75463D01*
X272139Y81031D01*
X276164Y87885D01*
X278281Y95561D01*
X278339Y103540D01*
X276326Y111276D02*
X278339Y103540D01*
X272372Y118241D02*
X276326Y111276D01*
X266739Y123957D02*
X272372Y118241D01*
X259806Y128027D02*
X266739Y123957D01*
X252040Y130168D02*
X259806Y128027D01*
X243970Y130226D02*
X252040Y130168D01*
X236144Y128190D02*
X243970Y130226D01*
X229100Y124189D02*
X236144Y128190D01*
X223319Y118491D02*
X229100Y124189D01*
X219203Y111478D02*
X223319Y118491D01*
X217038Y103624D02*
X219203Y111478D01*
X216980Y95462D02*
X217038Y103624D01*
X216980Y95462D02*
X219040Y87548D01*
X223086Y80423D01*
X228849Y74578D01*
X235942Y70416D01*
X243885Y68227D01*
X252140Y68169D01*
X260143Y70253D01*
X267347Y74345D01*
X273257Y80173D01*
X277465Y87345D01*
X279678Y95377D01*
X279736Y103724D01*
X277628Y111815D02*
X279736Y103724D01*
X273490Y119099D02*
X277628Y111815D01*
X267597Y125075D02*
X273490Y119099D01*
X260345Y129329D02*
X267597Y125075D01*
X252224Y131565D02*
X260345Y129329D01*
X243786Y131623D02*
X252224Y131565D01*
X235605Y129491D02*
X243786Y131623D01*
X228242Y125307D02*
X235605Y129491D01*
X222201Y119349D02*
X228242Y125307D01*
X217901Y112018D02*
X222201Y119349D01*
X215641Y103808D02*
X217901Y112018D01*
X215583Y95278D02*
X215641Y103808D01*
X215583Y95278D02*
X217739Y87008D01*
X221969Y79565D01*
X227992Y73460D01*
X235403Y69114D01*
X243702Y66830D01*
X252324Y66772D01*
X260682Y68951D01*
X268204Y73227D01*
X274375Y79315D01*
X278767Y86806D01*
X281075Y95193D01*
X281133Y103908D01*
X278930Y112355D02*
X281133Y103908D01*
X274608Y119957D02*
X278930Y112355D01*
X268455Y126192D02*
X274608Y119957D01*
X260884Y130631D02*
X268455Y126192D01*
X252408Y132962D02*
X260884Y130631D01*
X243602Y133020D02*
X252408Y132962D01*
X235066Y130793D02*
X243602Y133020D01*
X227384Y126425D02*
X235066Y130793D01*
X221084Y120207D02*
X227384Y126425D01*
X216599Y112557D02*
X221084Y120207D01*
X214244Y103992D02*
X216599Y112557D01*
X214186Y95094D02*
X214244Y103992D01*
X214186Y95094D02*
X216437Y86469D01*
X220851Y78707D01*
X227134Y72342D01*
X234864Y67812D01*
X243518Y65433D01*
X252508Y65375D01*
X261221Y67649D01*
X269062Y72109D01*
X275493Y78457D01*
X280069Y86267D01*
X282472Y95009D01*
X282530Y104092D01*
X280232Y112894D02*
X282530Y104092D01*
X275726Y120815D02*
X280232Y112894D01*
X269313Y127310D02*
X275726Y120815D01*
X261423Y131932D02*
X269313Y127310D01*
X252592Y134359D02*
X261423Y131932D01*
X243418Y134417D02*
X252592Y134359D01*
X234527Y132095D02*
X243418Y134417D01*
X226526Y127543D02*
X234527Y132095D01*
X219966Y121065D02*
X226526Y127543D01*
X215298Y113096D02*
X219966Y121065D01*
X212847Y104176D02*
X215298Y113096D01*
X212789Y94910D02*
X212847Y104176D01*
X212789Y94910D02*
X215135Y85930D01*
X219733Y77850D01*
X226276Y71224D01*
X234325Y66510D01*
X243334Y64036D01*
X252692Y63978D01*
X261760Y66347D01*
X269920Y70991D01*
X276611Y77600D01*
X281371Y85728D01*
X283869Y94826D01*
X283927Y104275D01*
X281533Y113433D02*
X283927Y104275D01*
X276844Y121672D02*
X281533Y113433D01*
X270170Y128428D02*
X276844Y121672D01*
X261963Y133234D02*
X270170Y128428D01*
X252776Y135756D02*
X261963Y133234D01*
X243234Y135814D02*
X252776Y135756D01*
X233987Y133397D02*
X243234Y135814D01*
X225669Y128661D02*
X233987Y133397D01*
X218848Y121923D02*
X225669Y128661D01*
X213996Y113635D02*
X218848Y121923D01*
X211450Y104360D02*
X213996Y113635D01*
X211392Y94726D02*
X211450Y104360D01*
X211392Y94726D02*
X213833Y85391D01*
X218615Y76992D01*
X225418Y70106D01*
X233785Y65208D01*
X243150Y62639D01*
X252875Y62581D01*
X262299Y65046D01*
X270778Y69873D01*
X277729Y76742D01*
X282673Y85189D01*
X285266Y94642D01*
X285324Y104459D01*
X282835Y113972D02*
X285324Y104459D01*
X277961Y122530D02*
X282835Y113972D01*
X271028Y129546D02*
X277961Y122530D01*
X262502Y134536D02*
X271028Y129546D01*
X252960Y137153D02*
X262502Y134536D01*
X243050Y137211D02*
X252960Y137153D01*
X233448Y134699D02*
X243050Y137211D01*
X224811Y129779D02*
X233448Y134699D01*
X217730Y122780D02*
X224811Y129779D01*
X212694Y114174D02*
X217730Y122780D01*
X210053Y104544D02*
X212694Y114174D01*
X209995Y94542D02*
X210053Y104544D01*
X209995Y94542D02*
X212531Y84851D01*
X217497Y76134D01*
X224560Y68988D01*
X233246Y63907D01*
X242966Y61242D01*
X253059Y61184D01*
X262839Y63744D01*
X271636Y68756D01*
X278847Y75884D01*
X283974Y84649D01*
X286663Y94458D01*
X286721Y104643D01*
X284137Y114512D02*
X286721Y104643D01*
X279079Y123388D02*
X284137Y114512D01*
X271886Y130664D02*
X279079Y123388D01*
X263041Y135838D02*
X271886Y130664D01*
X253144Y138550D02*
X263041Y135838D01*
X242866Y138608D02*
X253144Y138550D01*
X232909Y136000D02*
X242866Y138608D01*
X223953Y130897D02*
X232909Y136000D01*
X216612Y123638D02*
X223953Y130897D01*
X211392Y114714D02*
X216612Y123638D01*
X208656Y104727D02*
X211392Y114714D01*
X208598Y94358D02*
X208656Y104727D01*
X208598Y94358D02*
X211229Y84312D01*
X216379Y75276D01*
X223703Y67870D01*
X232707Y62605D01*
X242782Y59845D01*
X253243Y59787D01*
X263378Y62442D01*
X272493Y67638D01*
X279964Y75026D01*
X285276Y84110D01*
X288060Y94274D01*
X288118Y104827D01*
X285439Y115051D02*
X288118Y104827D01*
X280197Y124246D02*
X285439Y115051D01*
X272744Y131782D02*
X280197Y124246D01*
X263580Y137139D02*
X272744Y131782D01*
X253327Y139947D02*
X263580Y137139D01*
X242682Y140005D02*
X253327Y139947D01*
X232370Y137302D02*
X242682Y140005D01*
X223095Y132015D02*
X232370Y137302D01*
X215494Y124496D02*
X223095Y132015D01*
X210090Y115253D02*
X215494Y124496D01*
X207259Y104911D02*
X210090Y115253D01*
X207201Y94174D02*
X207259Y104911D01*
X207201Y94174D02*
X209928Y83773D01*
X215261Y74419D01*
X222845Y66753D01*
X232168Y61303D01*
X242598Y58448D01*
X253427Y58390D01*
X263917Y61140D01*
X273351Y66520D01*
X281082Y74168D01*
X286578Y83571D01*
X289457Y94090D01*
X289515Y105011D01*
X286741Y115590D02*
X289515Y105011D01*
X281315Y125104D02*
X286741Y115590D01*
X273601Y132900D02*
X281315Y125104D01*
X264119Y138441D02*
X273601Y132900D01*
X253512Y141344D02*
X264119Y138441D01*
X242498Y141402D02*
X253512Y141344D01*
X231831Y138604D02*
X242498Y141402D01*
X222237Y133133D02*
X231831Y138604D01*
X214376Y125354D02*
X222237Y133133D01*
X208789Y115792D02*
X214376Y125354D01*
X205862Y105095D02*
X208789Y115792D01*
X205804Y93990D02*
X205862Y105095D01*
X205804Y93990D02*
X208626Y83234D01*
X214143Y73561D01*
X221987Y65635D01*
X231628Y60001D01*
X242414Y57051D01*
X253611Y56993D01*
X264456Y59838D01*
X274209Y65402D01*
X282200Y73311D01*
X287880Y83032D01*
X290854Y93906D01*
X290912Y105195D01*
X288042Y116129D02*
X290912Y105195D01*
X282433Y125961D02*
X288042Y116129D01*
X274459Y134018D02*
X282433Y125961D01*
X264659Y139743D02*
X274459Y134018D01*
X253695Y142741D02*
X264659Y139743D01*
X242314Y142799D02*
X253695Y142741D01*
X231291Y139906D02*
X242314Y142799D01*
X221380Y134250D02*
X231291Y139906D01*
X213258Y126212D02*
X221380Y134250D01*
X207487Y116331D02*
X213258Y126212D01*
X204465Y105279D02*
X207487Y116331D01*
X204407Y93806D02*
X204465Y105279D01*
X204407Y93806D02*
X207324Y82695D01*
X213025Y72703D01*
X221129Y64517D01*
X231089Y58699D01*
X242230Y55654D01*
X253795Y55596D01*
X264996Y58537D01*
X275067Y64284D01*
X283318Y72453D01*
X289181Y82492D01*
X292251Y93722D01*
X292309Y105379D01*
X289344Y116668D02*
X292309Y105379D01*
X283551Y126819D02*
X289344Y116668D01*
X275317Y135135D02*
X283551Y126819D01*
X265198Y141045D02*
X275317Y135135D01*
X253879Y144138D02*
X265198Y141045D01*
X242130Y144196D02*
X253879Y144138D01*
X230752Y141208D02*
X242130Y144196D01*
X220522Y135368D02*
X230752Y141208D01*
X212140Y127069D02*
X220522Y135368D01*
X206185Y116871D02*
X212140Y127069D01*
X203068Y105463D02*
X206185Y116871D01*
X203010Y93622D02*
X203068Y105463D01*
X203010Y93622D02*
X206022Y82155D01*
X211908Y71845D01*
X220272Y63399D01*
X230550Y57398D01*
X242046Y54257D01*
X253979Y54199D01*
X265535Y57235D01*
X275924Y63166D01*
X284436Y71595D01*
X290483Y81953D01*
X293648Y93538D01*
X293706Y105563D01*
X290646Y117208D02*
X293706Y105563D01*
X284669Y127677D02*
X290646Y117208D01*
X276175Y136253D02*
X284669Y127677D01*
X265737Y142347D02*
X276175Y136253D01*
X254063Y145535D02*
X265737Y142347D01*
X241947Y145593D02*
X254063Y145535D01*
X230213Y142509D02*
X241947Y145593D01*
X219664Y136486D02*
X230213Y142509D01*
X211023Y127927D02*
X219664Y136486D01*
X204883Y117410D02*
X211023Y127927D01*
X201671Y105647D02*
X204883Y117410D01*
X201613Y93439D02*
X201671Y105647D01*
X201613Y93439D02*
X204721Y81616D01*
X210790Y70987D01*
X219414Y62281D01*
X230011Y56096D01*
X241862Y52860D01*
X254163Y52802D01*
X266074Y55933D01*
X276782Y62048D01*
X285554Y70737D01*
X291785Y81414D01*
X295045Y93354D01*
X295103Y105747D01*
X291948Y117747D02*
X295103Y105747D01*
X285787Y128535D02*
X291948Y117747D01*
X277032Y137371D02*
X285787Y128535D01*
X266276Y143649D02*
X277032Y137371D01*
X254247Y146932D02*
X266276Y143649D01*
X241763Y146990D02*
X254247Y146932D01*
X229674Y143811D02*
X241763Y146990D01*
X218806Y137604D02*
X229674Y143811D01*
X209905Y128785D02*
X218806Y137604D01*
X203582Y117949D02*
X209905Y128785D01*
X200274Y105831D02*
X203582Y117949D01*
X200216Y93255D02*
X200274Y105831D01*
X200216Y93255D02*
X203419Y81077D01*
X209672Y70130D01*
X218556Y61163D01*
X229472Y54794D01*
X241678Y51463D01*
X254347Y51405D01*
X266613Y54631D01*
X277640Y60930D01*
X286672Y69880D01*
X293087Y80875D01*
X296442Y93170D01*
X296500Y105931D01*
X293250Y118286D02*
X296500Y105931D01*
X286905Y129393D02*
X293250Y118286D01*
X277890Y138489D02*
X286905Y129393D01*
X266815Y144950D02*
X277890Y138489D01*
X254431Y148329D02*
X266815Y144950D01*
X241579Y148387D02*
X254431Y148329D01*
X229134Y145113D02*
X241579Y148387D01*
X217949Y138722D02*
X229134Y145113D01*
X208787Y129643D02*
X217949Y138722D01*
X202280Y118488D02*
X208787Y129643D01*
X198877Y106015D02*
X202280Y118488D01*
X198819Y93071D02*
X198877Y106015D01*
X198819Y93071D02*
X202117Y80538D01*
X208554Y69272D01*
X217698Y60045D01*
X228932Y53492D01*
X241494Y50066D01*
X254531Y50008D01*
X267153Y53329D01*
X278498Y59812D01*
X287790Y69022D01*
X294389Y80335D01*
X297839Y92986D01*
X297897Y106115D01*
X294551Y118825D02*
X297897Y106115D01*
X288022Y130250D02*
X294551Y118825D01*
X278748Y139607D02*
X288022Y130250D01*
X267355Y146252D02*
X278748Y139607D01*
X254615Y149726D02*
X267355Y146252D01*
X241395Y149784D02*
X254615Y149726D01*
X228595Y146415D02*
X241395Y149784D01*
X217091Y139840D02*
X228595Y146415D01*
X207669Y130500D02*
X217091Y139840D01*
X200978Y119027D02*
X207669Y130500D01*
X197480Y106199D02*
X200978Y119027D01*
X197422Y92887D02*
X197480Y106199D01*
X197422Y92887D02*
X200815Y79998D01*
X207436Y68414D01*
X216841Y58928D01*
X228393Y52190D01*
X241311Y48669D01*
X254715Y48611D01*
X267692Y52028D01*
X279356Y58695D01*
X288907Y68164D01*
X295690Y79796D01*
X299236Y92803D01*
X299294Y106298D01*
X295853Y119365D02*
X299294Y106298D01*
X289140Y131108D02*
X295853Y119365D01*
X279606Y140725D02*
X289140Y131108D01*
X267894Y147554D02*
X279606Y140725D01*
X254799Y151123D02*
X267894Y147554D01*
X241211Y151181D02*
X254799Y151123D01*
X228056Y147717D02*
X241211Y151181D01*
X216233Y140958D02*
X228056Y147717D01*
X206551Y131358D02*
X216233Y140958D01*
X199676Y119567D02*
X206551Y131358D01*
X196083Y106383D02*
X199676Y119567D01*
X196025Y92703D02*
X196083Y106383D01*
X196025Y92703D02*
X199513Y79459D01*
X206318Y67556D01*
X215983Y57810D01*
X227854Y50889D01*
X241127Y47272D01*
X254899Y47214D01*
X268231Y50726D01*
X280213Y57577D01*
X290025Y67306D01*
X296992Y79257D01*
X300633Y92619D01*
X300691Y106482D01*
X297155Y119904D02*
X300691Y106482D01*
X290258Y131966D02*
X297155Y119904D01*
X280464Y141843D02*
X290258Y131966D01*
X268433Y148856D02*
X280464Y141843D01*
X254983Y152520D02*
X268433Y148856D01*
X241027Y152578D02*
X254983Y152520D01*
X227517Y149018D02*
X241027Y152578D01*
X215375Y142076D02*
X227517Y149018D01*
X205433Y132216D02*
X215375Y142076D01*
X198374Y120106D02*
X205433Y132216D01*
X194686Y106567D02*
X198374Y120106D01*
X194628Y92519D02*
X194686Y106567D01*
X194628Y92519D02*
X198212Y78920D01*
X205200Y66699D01*
X215125Y56692D01*
X227315Y49587D01*
X240943Y45875D01*
X255082Y45817D01*
X268770Y49424D01*
X281071Y56459D01*
X291143Y66448D01*
X298294Y78718D01*
X302030Y92435D01*
X302088Y106666D01*
X298457Y120443D02*
X302088Y106666D01*
X291376Y132824D02*
X298457Y120443D01*
X281321Y142961D02*
X291376Y132824D01*
X268972Y150157D02*
X281321Y142961D01*
X255167Y153917D02*
X268972Y150157D01*
X240843Y153975D02*
X255167Y153917D01*
X226978Y150320D02*
X240843Y153975D01*
X214517Y143193D02*
X226978Y150320D01*
X204315Y133074D02*
X214517Y143193D01*
X197073Y120645D02*
X204315Y133074D01*
X193289Y106751D02*
X197073Y120645D01*
X193231Y92335D02*
X193289Y106751D01*
X193231Y92335D02*
X196910Y78381D01*
X204082Y65841D01*
X214267Y55574D01*
X226776Y48285D01*
X240759Y44478D01*
X255266Y44420D01*
X269309Y48122D01*
X281929Y55341D01*
X292261Y65591D01*
X299596Y78179D01*
X303427Y92251D01*
X303485Y106850D01*
X299759Y120982D02*
X303485Y106850D01*
X292494Y133681D02*
X299759Y120982D01*
X282179Y144078D02*
X292494Y133681D01*
X269512Y151459D02*
X282179Y144078D01*
X255351Y155314D02*
X269512Y151459D01*
X240659Y155372D02*
X255351Y155314D01*
X226438Y151622D02*
X240659Y155372D01*
X213660Y144311D02*
X226438Y151622D01*
X203198Y133932D02*
X213660Y144311D01*
X195771Y121184D02*
X203198Y133932D01*
X191892Y106934D02*
X195771Y121184D01*
X191834Y92151D02*
X191892Y106934D01*
X191834Y92151D02*
X195608Y77842D01*
X202965Y64983D01*
X213409Y54456D01*
X226236Y46983D01*
X240575Y43081D01*
X255450Y43023D01*
X269849Y46821D01*
X282787Y54223D01*
X293379Y64733D01*
X300898Y77639D01*
X304824Y92067D01*
X304882Y107034D01*
X301060Y121521D02*
X304882Y107034D01*
X293612Y134539D02*
X301060Y121521D01*
X283037Y145196D02*
X293612Y134539D01*
X270051Y152761D02*
X283037Y145196D01*
X255535Y156711D02*
X270051Y152761D01*
X240475Y156769D02*
X255535Y156711D01*
X225899Y152924D02*
X240475Y156769D01*
X212802Y145429D02*
X225899Y152924D01*
X202080Y134789D02*
X212802Y145429D01*
X194469Y121724D02*
X202080Y134789D01*
X190495Y107118D02*
X194469Y121724D01*
X190437Y91967D02*
X190495Y107118D01*
X190437Y91967D02*
X194306Y77302D01*
X201847Y64125D01*
X212552Y53338D01*
X225697Y45681D01*
X240391Y41684D01*
X255634Y41626D01*
X270388Y45519D01*
X283645Y53105D01*
X294497Y63875D01*
X302200Y77100D01*
X306221Y91883D01*
X306279Y107218D01*
X302362Y122061D02*
X306279Y107218D01*
X294730Y135397D02*
X302362Y122061D01*
X283895Y146314D02*
X294730Y135397D01*
X270590Y154063D02*
X283895Y146314D01*
X255718Y158108D02*
X270590Y154063D01*
X240291Y158166D02*
X255718Y158108D01*
X225360Y154226D02*
X240291Y158166D01*
X211944Y146547D02*
X225360Y154226D01*
X200962Y135647D02*
X211944Y146547D01*
X193167Y122263D02*
X200962Y135647D01*
X189098Y107302D02*
X193167Y122263D01*
X189040Y91783D02*
X189098Y107302D01*
X189040Y91783D02*
X193004Y76763D01*
X200729Y63267D01*
X211694Y52220D01*
X225158Y44380D01*
X240207Y40287D01*
X255818Y40229D01*
X270927Y44217D01*
X284502Y51987D01*
X295615Y63017D01*
X303501Y76561D01*
X307618Y91699D01*
X307676Y107402D01*
X303664Y122600D02*
X307676Y107402D01*
X295848Y136255D02*
X303664Y122600D01*
X284752Y147432D02*
X295848Y136255D01*
X271129Y155365D02*
X284752Y147432D01*
X255902Y159505D02*
X271129Y155365D01*
X240107Y159563D02*
X255902Y159505D01*
X224821Y155527D02*
X240107Y159563D01*
X211086Y147665D02*
X224821Y155527D01*
X199844Y136505D02*
X211086Y147665D01*
X191865Y122802D02*
X199844Y136505D01*
X187701Y107486D02*
X191865Y122802D01*
X187643Y91599D02*
X187701Y107486D01*
X187643Y91599D02*
X191703Y76224D01*
X199611Y62410D01*
X210836Y51102D01*
X224619Y43078D01*
X240023Y38890D01*
X256002Y38832D01*
X271466Y42915D01*
X285360Y50869D01*
X296732Y62160D01*
X304803Y76022D01*
X309015Y91515D01*
X309073Y107586D01*
X304966Y123139D02*
X309073Y107586D01*
X296965Y137112D02*
X304966Y123139D01*
X285610Y148550D02*
X296965Y137112D01*
X271669Y156666D02*
X285610Y148550D01*
X256086Y160902D02*
X271669Y156666D01*
X239924Y160960D02*
X256086Y160902D01*
X224282Y156829D02*
X239924Y160960D01*
X210228Y148783D02*
X224282Y156829D01*
X198726Y137363D02*
X210228Y148783D01*
X190563Y123341D02*
X198726Y137363D01*
X186304Y107670D02*
X190563Y123341D01*
X186246Y91415D02*
X186304Y107670D01*
X186246Y91415D02*
X190401Y75685D01*
X198493Y61552D01*
X209978Y49984D01*
X224079Y41776D01*
X239839Y37493D01*
X256186Y37435D01*
X272006Y41613D01*
X286218Y49751D01*
X297850Y61302D01*
X306105Y75482D01*
X310412Y91331D01*
X310470Y107770D01*
X306268Y123678D02*
X310470Y107770D01*
X298083Y137970D02*
X306268Y123678D01*
X286468Y149668D02*
X298083Y137970D01*
X272208Y157968D02*
X286468Y149668D01*
X256270Y162299D02*
X272208Y157968D01*
X239740Y162357D02*
X256270Y162299D01*
X223742Y158131D02*
X239740Y162357D01*
X209371Y149901D02*
X223742Y158131D01*
X197608Y138220D02*
X209371Y149901D01*
X189262Y123881D02*
X197608Y138220D01*
X184907Y107854D02*
X189262Y123881D01*
X184849Y91232D02*
X184907Y107854D01*
X184849Y91232D02*
X189099Y75146D01*
X197375Y60694D01*
X209120Y48867D01*
X223540Y40474D01*
X239655Y36096D01*
X256370Y36038D01*
X272545Y40312D01*
X287076Y48634D01*
X298968Y60444D01*
X307407Y74943D01*
X311809Y91147D01*
X311867Y107954D01*
X307569Y124217D02*
X311867Y107954D01*
X299201Y138828D02*
X307569Y124217D01*
X287326Y150786D02*
X299201Y138828D01*
X272747Y159270D02*
X287326Y150786D01*
X256454Y163696D02*
X272747Y159270D01*
X239556Y163754D02*
X256454Y163696D01*
X223203Y159433D02*
X239556Y163754D01*
X208513Y151019D02*
X223203Y159433D01*
X196490Y139078D02*
X208513Y151019D01*
X187960Y124420D02*
X196490Y139078D01*
X183510Y108038D02*
X187960Y124420D01*
X183452Y91048D02*
X183510Y108038D01*
X183452Y91048D02*
X187797Y74606D01*
X196257Y59836D01*
X208263Y47749D01*
X223001Y39172D01*
X239471Y34699D01*
X256554Y34641D01*
X273084Y39010D01*
X287933Y47516D01*
X300086Y59586D01*
X308708Y74404D01*
X313206Y90963D01*
X313264Y108138D01*
X308871Y124757D02*
X313264Y108138D01*
X300319Y139686D02*
X308871Y124757D01*
X288184Y151904D02*
X300319Y139686D01*
X273286Y160572D02*
X288184Y151904D01*
X256638Y165093D02*
X273286Y160572D01*
X239372Y165151D02*
X256638Y165093D01*
X222664Y160735D02*
X239372Y165151D01*
X207655Y152137D02*
X222664Y160735D01*
X195372Y139936D02*
X207655Y152137D01*
X186658Y124959D02*
X195372Y139936D01*
X182113Y108222D02*
X186658Y124959D01*
X182055Y90864D02*
X182113Y108222D01*
X182055Y90864D02*
X186495Y74067D01*
X195140Y58979D01*
X207405Y46631D01*
X222462Y37871D01*
X239287Y33302D01*
X256738Y33244D01*
X273623Y37708D01*
X288791Y46398D01*
X301204Y58728D01*
X310010Y73865D01*
X314603Y90779D01*
X314661Y108322D01*
X310173Y125296D02*
X314661Y108322D01*
X301437Y140544D02*
X310173Y125296D01*
X289041Y153022D02*
X301437Y140544D01*
X273825Y161874D02*
X289041Y153022D01*
X256822Y166490D02*
X273825Y161874D01*
X239188Y166548D02*
X256822Y166490D01*
X222125Y162036D02*
X239188Y166548D01*
X206797Y153254D02*
X222125Y162036D01*
X194255Y140794D02*
X206797Y153254D01*
X185356Y125498D02*
X194255Y140794D01*
X180716Y108406D02*
X185356Y125498D01*
X180658Y90680D02*
X180716Y108406D01*
X180658Y90680D02*
X185194Y73528D01*
X194022Y58121D01*
X206547Y45513D01*
X221922Y36569D01*
X239104Y31905D01*
X256922Y31847D01*
X274162Y36406D01*
X289649Y45280D01*
X302322Y57871D01*
X311312Y73326D01*
X316000Y90596D01*
X316058Y108505D01*
X311475Y125835D02*
X316058Y108505D01*
X302555Y141401D02*
X311475Y125835D01*
X289899Y154139D02*
X302555Y141401D01*
X274365Y163175D02*
X289899Y154139D01*
X257006Y167887D02*
X274365Y163175D01*
X239004Y167945D02*
X257006Y167887D01*
X221585Y163338D02*
X239004Y167945D01*
X205940Y154372D02*
X221585Y163338D01*
X193137Y141651D02*
X205940Y154372D01*
X184055Y126037D02*
X193137Y141651D01*
X179319Y108590D02*
X184055Y126037D01*
X179261Y90496D02*
X179319Y108590D01*
X179261Y90496D02*
X183892Y72989D01*
X192904Y57263D01*
X205689Y44395D01*
X221383Y35267D01*
X238920Y30508D01*
X257105Y30450D01*
X274702Y35104D01*
X290507Y44162D01*
X303440Y57013D01*
X312614Y72786D01*
X317397Y90412D01*
X317455Y108689D01*
X312777Y126374D02*
X317455Y108689D01*
X303673Y142259D02*
X312777Y126374D01*
X290757Y155257D02*
X303673Y142259D01*
X274904Y164477D02*
X290757Y155257D01*
X257190Y169284D02*
X274904Y164477D01*
X238820Y169342D02*
X257190Y169284D01*
X221046Y164640D02*
X238820Y169342D01*
X205082Y155490D02*
X221046Y164640D01*
X192019Y142509D02*
X205082Y155490D01*
X182753Y126577D02*
X192019Y142509D01*
X177922Y108774D02*
X182753Y126577D01*
X177864Y90312D02*
X177922Y108774D01*
X177864Y90312D02*
X182590Y72449D01*
X191786Y56405D01*
X204832Y43277D01*
X220844Y33965D01*
X238736Y29111D01*
X257289Y29053D01*
X275241Y33803D01*
X291365Y43044D01*
X304558Y56155D01*
X313916Y72247D01*
X318794Y90228D01*
X318852Y108873D01*
X314078Y126914D02*
X318852Y108873D01*
X304791Y143117D02*
X314078Y126914D01*
X291615Y156375D02*
X304791Y143117D01*
X275443Y165779D02*
X291615Y156375D01*
X257374Y170681D02*
X275443Y165779D01*
X238636Y170739D02*
X257374Y170681D01*
X220507Y165942D02*
X238636Y170739D01*
X204224Y156608D02*
X220507Y165942D01*
X190901Y143367D02*
X204224Y156608D01*
X181451Y127116D02*
X190901Y143367D01*
X176525Y108958D02*
X181451Y127116D01*
X176467Y90128D02*
X176525Y108958D01*
X176467Y90128D02*
X181288Y71910D01*
X190668Y55547D01*
X203974Y42159D01*
X220305Y32663D01*
X238552Y27714D01*
X257473Y27656D01*
X275780Y32501D01*
X292222Y41926D01*
X305676Y55297D01*
X315217Y71708D01*
X320191Y90044D01*
X320249Y109057D01*
X315380Y127453D02*
X320249Y109057D01*
X305908Y143975D02*
X315380Y127453D01*
X292473Y157493D02*
X305908Y143975D01*
X275982Y167081D02*
X292473Y157493D01*
X257558Y172078D02*
X275982Y167081D01*
X238452Y172136D02*
X257558Y172078D01*
X219968Y167244D02*
X238452Y172136D01*
X203366Y157726D02*
X219968Y167244D01*
X189783Y144225D02*
X203366Y157726D01*
X180149Y127655D02*
X189783Y144225D01*
X175128Y109142D02*
X180149Y127655D01*
X175070Y89944D02*
X175128Y109142D01*
X175070Y89944D02*
X179986Y71371D01*
X189550Y54690D01*
X203116Y41041D01*
X219766Y31362D01*
X238368Y26317D01*
X257657Y26259D01*
X276319Y31199D01*
X293080Y40808D01*
X306793Y54440D01*
X316519Y71169D01*
X321588Y89860D01*
X321646Y109241D01*
X316682Y127992D02*
X321646Y109241D01*
X307026Y144833D02*
X316682Y127992D01*
X293330Y158611D02*
X307026Y144833D01*
X276521Y168383D02*
X293330Y158611D01*
X257742Y173475D02*
X276521Y168383D01*
X238268Y173533D02*
X257742Y173475D01*
X219428Y168545D02*
X238268Y173533D01*
X202508Y158844D02*
X219428Y168545D01*
X188665Y145083D02*
X202508Y158844D01*
X178847Y128194D02*
X188665Y145083D01*
X173731Y109326D02*
X178847Y128194D01*
X173673Y89760D02*
X173731Y109326D01*
X173673Y89760D02*
X178685Y70832D01*
X188432Y53832D01*
X202258Y39924D01*
X219226Y30060D01*
X238184Y24920D01*
X257841Y24862D01*
X276858Y29897D01*
X293938Y39691D01*
X307911Y53582D01*
X317821Y70630D01*
X322985Y89676D01*
X323043Y109425D01*
X317984Y128531D02*
X323043Y109425D01*
X308144Y145690D02*
X317984Y128531D01*
X294188Y159729D02*
X308144Y145690D01*
X277061Y169684D02*
X294188Y159729D01*
X257926Y174872D02*
X277061Y169684D01*
X238084Y174930D02*
X257926Y174872D01*
X218889Y169847D02*
X238084Y174930D01*
X201651Y159962D02*
X218889Y169847D01*
X187547Y145940D02*
X201651Y159962D01*
X177545Y128734D02*
X187547Y145940D01*
X172334Y109509D02*
X177545Y128734D01*
X172276Y89576D02*
X172334Y109509D01*
X172276Y89576D02*
X177383Y70292D01*
X187314Y52974D01*
X201400Y38806D01*
X218687Y28758D01*
X238000Y23523D01*
X258025Y23465D01*
X277398Y28595D01*
X294796Y38573D01*
X309029Y52724D01*
X319123Y70090D01*
X324382Y89492D01*
X324440Y109609D01*
X319286Y129070D02*
X324440Y109609D01*
X309262Y146548D02*
X319286Y129070D01*
X295046Y160847D02*
X309262Y146548D01*
X277600Y170986D02*
X295046Y160847D01*
X258109Y176269D02*
X277600Y170986D01*
X237900Y176327D02*
X258109Y176269D01*
X218350Y171149D02*
X237900Y176327D01*
X200793Y161080D02*
X218350Y171149D01*
X186429Y146798D02*
X200793Y161080D01*
X176244Y129273D02*
X186429Y146798D01*
X170937Y109693D02*
X176244Y129273D01*
X170879Y89392D02*
X170937Y109693D01*
X170879Y89392D02*
X176081Y69753D01*
X186196Y52116D01*
X200543Y37688D01*
X218148Y27456D01*
X237816Y22126D01*
X258209Y22068D01*
X277937Y27294D01*
X295653Y37455D01*
X310147Y51866D01*
X320425Y69551D01*
X325779Y89308D01*
X325837Y109793D01*
X320587Y129610D02*
X325837Y109793D01*
X310380Y147406D02*
X320587Y129610D01*
X295904Y161964D02*
X310380Y147406D01*
X278139Y172288D02*
X295904Y161964D01*
X258293Y177666D02*
X278139Y172288D01*
X237717Y177724D02*
X258293Y177666D01*
X217811Y172451D02*
X237717Y177724D01*
X199935Y162197D02*
X217811Y172451D01*
X185311Y147656D02*
X199935Y162197D01*
X174942Y129812D02*
X185311Y147656D01*
X169540Y109877D02*
X174942Y129812D01*
X169482Y89208D02*
X169540Y109877D01*
X169482Y89208D02*
X174779Y69214D01*
X185079Y51259D01*
X199685Y36570D01*
X217609Y26154D01*
X237632Y20729D01*
X258393Y20671D01*
X278476Y25992D01*
X296511Y36337D01*
X311265Y51008D01*
X321726Y69012D01*
X327176Y89124D01*
X327234Y109977D01*
X321889Y130149D02*
X327234Y109977D01*
X311498Y148264D02*
X321889Y130149D01*
X296761Y163082D02*
X311498Y148264D01*
X278678Y173590D02*
X296761Y163082D01*
X258477Y179063D02*
X278678Y173590D01*
X237533Y179121D02*
X258477Y179063D01*
X217272Y173752D02*
X237533Y179121D01*
X199077Y163315D02*
X217272Y173752D01*
X184194Y148514D02*
X199077Y163315D01*
X173640Y130351D02*
X184194Y148514D01*
X168143Y110061D02*
X173640Y130351D01*
X168085Y99547D02*
X168143Y110061D01*
D72*
X163285Y99547D02*
X165685D01*
X220681D02*
X222927Y96547D01*
D75*
X52941Y177043D02*
D03*
D76*
X150787Y55905D02*
D03*
X140551Y10630D02*
D03*
X150787Y157480D02*
D03*
X145276Y107874D02*
D03*
X134646Y157480D02*
D03*
X128347D02*
D03*
X139764Y101969D02*
D03*
X119291Y105905D02*
D03*
X135827Y104331D02*
D03*
X140157Y77165D02*
D03*
X146539Y74650D02*
D03*
X119685Y52870D02*
D03*
X124803Y41732D02*
D03*
X92520Y80315D02*
D03*
X125984Y37008D02*
D03*
X116929Y82284D02*
D03*
X116142Y92520D02*
D03*
X111811Y87795D02*
D03*
X131118Y144882D02*
D03*
X106693Y94882D02*
D03*
X95669Y94488D02*
D03*
X56299Y79134D02*
D03*
X46457Y44882D02*
D03*
X47095Y73909D02*
D03*
X52756Y23031D02*
D03*
X99213Y10630D02*
D03*
X64567D02*
D03*
X112205Y20866D02*
D03*
X36882Y134236D02*
D03*
X11024Y43147D02*
D03*
X22047D02*
D03*
X30709Y116535D02*
D03*
X18898Y109843D02*
D03*
X26378Y94882D02*
D03*
X17323Y94488D02*
D03*
X22441Y102362D02*
D03*
X13780D02*
D03*
X33465Y25824D02*
D03*
X22835Y25430D02*
D03*
X11811D02*
D03*
X33071Y34486D02*
D03*
X22441D02*
D03*
X11417D02*
D03*
X32677Y52202D02*
D03*
X21654D02*
D03*
X11024D02*
D03*
X55905Y135827D02*
D03*
X38583Y117323D02*
D03*
X54555Y180831D02*
D03*
X26992Y181264D02*
D03*
X62051Y189366D02*
D03*
X77807Y178524D02*
D03*
X104496Y38752D02*
D03*
X77319Y76378D02*
D03*
X36740Y79996D02*
D03*
X40236Y95878D02*
D03*
X112839Y158398D02*
D03*
X32374Y75410D02*
D03*
X40878Y105398D02*
D03*
X32492Y70784D02*
D03*
X46913Y96933D02*
D03*
X45150Y103260D02*
D03*
X80390Y45299D02*
D03*
X123000Y49764D02*
D03*
X47221Y65299D02*
D03*
X72154Y83909D02*
D03*
X84264Y58406D02*
D03*
X89067Y89429D02*
D03*
X88972Y59102D02*
D03*
X98209Y64780D02*
D03*
X98110Y60844D02*
D03*
X113634Y26791D02*
D03*
D77*
X222919Y96500D02*
D03*
X163319Y99500D02*
D03*
X222919Y102500D02*
D03*
X163319Y107500D02*
D03*
D78*
X52941Y172122D02*
D03*
X50972Y174583D02*
D03*
X54909D02*
D03*
X135433Y37008D02*
D03*
X139370D02*
D03*
X135433Y40748D02*
D03*
X139370D02*
D03*
X135433Y33268D02*
D03*
X139370D02*
D03*
M02*
