G04*
G04 #@! TF.GenerationSoftware,Altium Limited,Altium Designer,23.7.1 (13)*
G04*
G04 Layer_Color=16711935*
%FSLAX25Y25*%
%MOIN*%
G70*
G04*
G04 #@! TF.SameCoordinates,E761BF88-05AE-44ED-84BE-F3DD1BAF6ADF*
G04*
G04*
G04 #@! TF.FilePolarity,Negative*
G04*
G01*
G75*
%ADD56C,0.02368*%
%ADD57C,0.00299*%
%ADD58C,0.03055*%
%ADD59C,0.04299*%
%ADD60C,0.01480*%
D56*
X52941Y172122D02*
D03*
Y177043D02*
D03*
X50972Y174583D02*
D03*
X54909D02*
D03*
X135433Y37008D02*
D03*
X139370D02*
D03*
X135433Y40748D02*
D03*
X139370D02*
D03*
X135433Y33268D02*
D03*
X139370D02*
D03*
D57*
X161319Y187441D02*
D03*
X331319Y17441D02*
D03*
Y187441D02*
D03*
X161319Y17441D02*
D03*
D58*
X150787Y55905D02*
D03*
X140551Y10630D02*
D03*
X150787Y157480D02*
D03*
X145276Y107874D02*
D03*
X134646Y157480D02*
D03*
X128347D02*
D03*
X139764Y101969D02*
D03*
X119291Y105905D02*
D03*
X135827Y104331D02*
D03*
X140157Y77165D02*
D03*
X146539Y74650D02*
D03*
X119685Y52870D02*
D03*
X124803Y41732D02*
D03*
X92520Y80315D02*
D03*
X125984Y37008D02*
D03*
X116929Y82284D02*
D03*
X116142Y92520D02*
D03*
X111811Y87795D02*
D03*
X131118Y144882D02*
D03*
X106693Y94882D02*
D03*
X95669Y94488D02*
D03*
X56299Y79134D02*
D03*
X46457Y44882D02*
D03*
X47095Y73909D02*
D03*
X52756Y23031D02*
D03*
X99213Y10630D02*
D03*
X64567D02*
D03*
X112205Y20866D02*
D03*
X36882Y134236D02*
D03*
X11024Y43147D02*
D03*
X22047D02*
D03*
X30709Y116535D02*
D03*
X18898Y109843D02*
D03*
X26378Y94882D02*
D03*
X17323Y94488D02*
D03*
X22441Y102362D02*
D03*
X13780D02*
D03*
X33465Y25824D02*
D03*
X22835Y25430D02*
D03*
X11811D02*
D03*
X33071Y34486D02*
D03*
X22441D02*
D03*
X11417D02*
D03*
X32677Y52202D02*
D03*
X21654D02*
D03*
X11024D02*
D03*
X55905Y135827D02*
D03*
X38583Y117323D02*
D03*
X54555Y180831D02*
D03*
X26992Y181264D02*
D03*
X62051Y189366D02*
D03*
X77807Y178524D02*
D03*
X104496Y38752D02*
D03*
X77319Y76378D02*
D03*
X36740Y79996D02*
D03*
X40236Y95878D02*
D03*
X112839Y158398D02*
D03*
X32374Y75410D02*
D03*
X40878Y105398D02*
D03*
X32492Y70784D02*
D03*
X46913Y96933D02*
D03*
X45150Y103260D02*
D03*
X80390Y45299D02*
D03*
X123000Y49764D02*
D03*
X47221Y65299D02*
D03*
X72154Y83909D02*
D03*
X84264Y58406D02*
D03*
X89067Y89429D02*
D03*
X88972Y59102D02*
D03*
X98209Y64780D02*
D03*
X98110Y60844D02*
D03*
X113634Y26791D02*
D03*
D59*
X222919Y96500D02*
D03*
X163319Y99500D02*
D03*
X222919Y102500D02*
D03*
X163319Y107500D02*
D03*
D60*
X132849Y91767D02*
D03*
X124606Y91732D02*
D03*
X128740Y86811D02*
D03*
Y96653D02*
D03*
M02*
