G04 #@! TF.GenerationSoftware,KiCad,Pcbnew,9.0.7*
G04 #@! TF.CreationDate,2026-03-31T12:37:49-04:00*
G04 #@! TF.ProjectId,Off_board_Inductor,4f66665f-626f-4617-9264-5f496e647563,rev?*
G04 #@! TF.SameCoordinates,Original*
G04 #@! TF.FileFunction,Copper,L3,Inr*
G04 #@! TF.FilePolarity,Positive*
%FSLAX46Y46*%
G04 Gerber Fmt 4.6, Leading zero omitted, Abs format (unit mm)*
G04 Created by KiCad (PCBNEW 9.0.7) date 2026-03-31 12:37:49*
%MOMM*%
%LPD*%
G01*
G04 APERTURE LIST*
G04 #@! TA.AperFunction,EtchedComponent*
%ADD10C,0.355600*%
G04 #@! TD*
G04 #@! TA.AperFunction,EtchedComponent*
%ADD11C,0.202950*%
G04 #@! TD*
G04 #@! TA.AperFunction,ViaPad*
%ADD12C,1.016000*%
G04 #@! TD*
G04 APERTURE END LIST*
D10*
G04 #@! TO.C,L1*
X130425490Y-106068750D02*
X131035090Y-106068750D01*
D11*
X131035090Y-106068750D02*
X131644690Y-106068750D01*
X131644690Y-106068750D02*
X131659480Y-103398060D01*
X131659480Y-103398060D02*
X133055700Y-98244410D01*
X131999530Y-108694660D02*
X132014310Y-103444780D01*
X131999530Y-108694660D02*
X133345020Y-113773240D01*
X132014310Y-103444780D02*
X133386360Y-98381370D01*
X132354370Y-108647950D02*
X132369150Y-103491490D01*
X132354370Y-108647950D02*
X133675680Y-113636280D01*
X132369150Y-103491490D02*
X133717010Y-98518330D01*
X132709200Y-108601230D02*
X132723990Y-103538210D01*
X132709200Y-108601230D02*
X134006340Y-113499320D01*
X132723990Y-103538210D02*
X134047670Y-98655300D01*
X133055700Y-98244410D02*
X135736260Y-93631100D01*
X133064040Y-108554510D02*
X133078830Y-103584930D01*
X133064040Y-108554510D02*
X134336990Y-113362350D01*
X133078830Y-103584930D02*
X134378320Y-98792260D01*
X133345020Y-113773240D02*
X135961050Y-118333900D01*
X133386360Y-98381370D02*
X136020210Y-93848980D01*
X133418880Y-108507800D02*
X133433670Y-103631640D01*
X133418880Y-108507800D02*
X134667650Y-113225390D01*
X133433670Y-103631640D02*
X134708980Y-98929220D01*
X133675680Y-113636280D02*
X136244990Y-118116030D01*
X133717010Y-98518330D02*
X136304150Y-94066850D01*
X133773720Y-108461080D02*
X133788500Y-103678360D01*
X133773720Y-108461080D02*
X134998310Y-113088430D01*
X133788500Y-103678360D02*
X135039640Y-99066180D01*
X134006340Y-113499320D02*
X136528940Y-117898160D01*
X134047670Y-98655300D02*
X136588090Y-94284730D01*
X134128560Y-108414370D02*
X134143340Y-103725070D01*
X134128560Y-108414370D02*
X135328960Y-112951470D01*
X134143340Y-103725070D02*
X135370290Y-99203150D01*
X134336990Y-113362350D02*
X136812880Y-117680280D01*
X134378320Y-98792260D02*
X136872030Y-94502600D01*
X134483390Y-108367650D02*
X134498180Y-103771790D01*
X134483390Y-108367650D02*
X135659620Y-112814510D01*
X134498180Y-103771790D02*
X135700950Y-99340110D01*
X134667650Y-113225390D02*
X137096820Y-117462400D01*
X134708980Y-98929220D02*
X137155970Y-94720480D01*
X134838230Y-108320940D02*
X134853020Y-103818500D01*
X134838230Y-108320940D02*
X135990270Y-112677540D01*
X134853020Y-103818500D02*
X136031610Y-99477070D01*
X134998310Y-113088430D02*
X137380760Y-117244530D01*
X135039640Y-99066180D02*
X137439910Y-94938360D01*
X135193070Y-108274220D02*
X135207860Y-103865220D01*
X135193070Y-108274220D02*
X136320930Y-112540580D01*
X135207860Y-103865220D02*
X136362260Y-99614030D01*
X135328960Y-112951470D02*
X137664700Y-117026650D01*
X135370290Y-99203150D02*
X137723850Y-95156230D01*
X135547910Y-108227510D02*
X135562690Y-103911930D01*
X135547910Y-108227510D02*
X136651590Y-112403620D01*
X135562690Y-103911930D02*
X136692920Y-99751000D01*
X135659620Y-112814510D02*
X137948640Y-116808780D01*
X135700950Y-99340110D02*
X138007790Y-95374110D01*
X135736260Y-93631100D02*
X139516750Y-89871520D01*
X135902750Y-108180790D02*
X135917530Y-103958650D01*
X135902750Y-108180790D02*
X136982240Y-112266660D01*
X135917530Y-103958650D02*
X137023570Y-99887960D01*
X135961050Y-118333900D02*
X139671080Y-122064840D01*
X135990270Y-112677540D02*
X138232580Y-116590900D01*
X136020210Y-93848980D02*
X139734630Y-90155460D01*
X136031610Y-99477070D02*
X138291740Y-95591980D01*
X136244990Y-118116030D02*
X139888960Y-121780900D01*
X136257580Y-108134080D02*
X136272370Y-104005360D01*
X136257580Y-108134080D02*
X137312900Y-112129690D01*
X136272370Y-104005360D02*
X137354230Y-100024920D01*
X136304150Y-94066850D02*
X139952500Y-90439410D01*
X136320930Y-112540580D02*
X138516520Y-116373020D01*
X136362260Y-99614030D02*
X138575680Y-95809860D01*
X136528940Y-117898160D02*
X140106830Y-121496960D01*
X136588090Y-94284730D02*
X140170380Y-90723350D01*
X136612420Y-108087360D02*
X136627210Y-104052080D01*
X136612420Y-108087360D02*
X137643560Y-111992730D01*
X136627210Y-104052080D02*
X137684890Y-100161880D01*
X136651590Y-112403620D02*
X138800460Y-116155150D01*
X136692920Y-99751000D02*
X138859620Y-96027730D01*
X136812880Y-117680280D02*
X140324710Y-121213020D01*
X136872030Y-94502600D02*
X140388260Y-91007290D01*
X136967260Y-108040640D02*
X136982050Y-104098790D01*
X136967260Y-108040640D02*
X137974210Y-111855770D01*
X136982050Y-104098790D02*
X138015540Y-100298850D01*
X136982240Y-112266660D02*
X139084400Y-115937270D01*
X137023570Y-99887960D02*
X139143560Y-96245610D01*
X137096820Y-117462400D02*
X140542580Y-120929080D01*
X137155970Y-94720480D02*
X140606130Y-91291230D01*
X137312900Y-112129690D02*
X139368350Y-115719400D01*
X137322100Y-107993930D02*
X137336880Y-104145510D01*
X137322100Y-107993930D02*
X138304870Y-111718810D01*
X137336880Y-104145510D02*
X138346200Y-100435810D01*
X137354230Y-100024920D02*
X139427500Y-96463490D01*
X137380760Y-117244530D02*
X140760460Y-120645140D01*
X137439910Y-94938360D02*
X140824010Y-91575170D01*
X137643560Y-111992730D02*
X139652290Y-115501520D01*
X137664700Y-117026650D02*
X140978330Y-120361200D01*
X137676940Y-107947220D02*
X137691720Y-104192220D01*
X137676940Y-107947220D02*
X138635520Y-111581840D01*
X137684890Y-100161880D02*
X139711440Y-96681360D01*
X137691720Y-104192220D02*
X138676860Y-100572770D01*
X137723850Y-95156230D02*
X141041880Y-91859110D01*
X137948640Y-116808780D02*
X141196210Y-120077260D01*
X137974210Y-111855770D02*
X139936230Y-115283650D01*
X138007790Y-95374110D02*
X141259760Y-92143050D01*
X138015540Y-100298850D02*
X139995380Y-96899240D01*
X138031770Y-107900500D02*
X138046560Y-104238940D01*
X138031770Y-107900500D02*
X138966180Y-111444880D01*
X138046560Y-104238940D02*
X139007510Y-100709730D01*
X138232580Y-116590900D02*
X141414090Y-119793320D01*
X138291740Y-95591980D02*
X141477640Y-92426990D01*
X138304870Y-111718810D02*
X140220170Y-115065770D01*
X138346200Y-100435810D02*
X140279320Y-97117110D01*
X138386610Y-107853780D02*
X138401400Y-104285660D01*
X138386610Y-107853780D02*
X139296840Y-111307920D01*
X138401400Y-104285660D02*
X139338170Y-100846690D01*
X138516520Y-116373020D02*
X141631960Y-119509370D01*
X138575680Y-95809860D02*
X141695510Y-92710930D01*
X138635520Y-111581840D02*
X140504110Y-114847890D01*
X138676860Y-100572770D02*
X140563260Y-97334990D01*
X138741450Y-107807070D02*
X138756240Y-104332370D01*
X138741450Y-107807070D02*
X139627490Y-111170960D01*
X138756240Y-104332370D02*
X139668830Y-100983660D01*
X138800460Y-116155150D02*
X141849840Y-119225430D01*
X138859620Y-96027730D02*
X141913380Y-92994880D01*
X138966180Y-111444880D02*
X140788050Y-114630020D01*
X139007510Y-100709730D02*
X140847200Y-97552860D01*
X139084400Y-115937270D02*
X142067720Y-118941490D01*
X139096290Y-107760350D02*
X139111070Y-104379090D01*
X139096290Y-107760350D02*
X139958150Y-111033990D01*
X139111070Y-104379090D02*
X139999480Y-101120620D01*
X139143560Y-96245610D02*
X142131260Y-93278820D01*
X139296840Y-111307920D02*
X141071990Y-114412140D01*
X139338170Y-100846690D02*
X141131150Y-97770740D01*
X139368350Y-115719400D02*
X142285590Y-118657550D01*
X139427500Y-96463490D02*
X142349140Y-93562760D01*
X139451130Y-107713640D02*
X139465910Y-104425800D01*
X139451130Y-107713640D02*
X140288810Y-110897030D01*
X139465910Y-104425800D02*
X140330140Y-101257580D01*
X139516750Y-89871520D02*
X144138100Y-87220460D01*
X139627490Y-111170960D02*
X141355930Y-114194270D01*
X139652290Y-115501520D02*
X142503460Y-118373610D01*
X139668830Y-100983660D02*
X141415090Y-97988610D01*
X139671080Y-122064840D02*
X144223710Y-124710370D01*
X139711440Y-96681360D02*
X142567010Y-93846700D01*
X139734630Y-90155460D02*
X144275060Y-87551110D01*
X139805960Y-107666920D02*
X139820750Y-104472520D01*
X139805960Y-107666920D02*
X140619460Y-110760070D01*
X139820750Y-104472520D02*
X140660800Y-101394540D01*
X139888960Y-121780900D02*
X144360670Y-124379720D01*
X139936230Y-115283650D02*
X142721340Y-118089670D01*
X139952500Y-90439410D02*
X144412030Y-87881770D01*
X139958150Y-111033990D02*
X141639870Y-113976390D01*
X139995380Y-96899240D02*
X142784890Y-94130640D01*
X139999480Y-101120620D02*
X141699030Y-98206490D01*
X140106830Y-121496960D02*
X144497630Y-124049060D01*
X140160800Y-107620210D02*
X140175590Y-104519230D01*
X140160800Y-107620210D02*
X140950120Y-110623110D01*
X140170380Y-90723350D02*
X144548990Y-88212430D01*
X140175590Y-104519230D02*
X140991450Y-101531510D01*
X140220170Y-115065770D02*
X142939220Y-117805730D01*
X140279320Y-97117110D02*
X143002760Y-94414580D01*
X140288810Y-110897030D02*
X141923810Y-113758520D01*
X140324710Y-121213020D02*
X144634590Y-123718410D01*
X140330140Y-101257580D02*
X141982970Y-98424370D01*
X140388260Y-91007290D02*
X144685950Y-88543080D01*
X140504110Y-114847890D02*
X143157090Y-117521790D01*
X140515640Y-107573490D02*
X140530430Y-104565950D01*
X140515640Y-107573490D02*
X141280780Y-110486140D01*
X140530430Y-104565950D02*
X141322110Y-101668470D01*
X140542580Y-120929080D02*
X144771550Y-123387750D01*
X140563260Y-97334990D02*
X143220640Y-94698520D01*
X140606130Y-91291230D02*
X144822910Y-88873740D01*
X140619460Y-110760070D02*
X142207760Y-113540640D01*
X140660800Y-101394540D02*
X142266910Y-98642240D01*
X140760460Y-120645140D02*
X144908520Y-123057090D01*
X140788050Y-114630020D02*
X143374970Y-117237850D01*
X140824010Y-91575170D02*
X144959880Y-89204400D01*
X140847200Y-97552860D02*
X143438520Y-94982460D01*
X140870480Y-107526780D02*
X140885260Y-104612660D01*
X140870480Y-107526780D02*
X141611430Y-110349180D01*
X140885260Y-104612660D02*
X141652770Y-101805430D01*
X140950120Y-110623110D02*
X142491700Y-113322770D01*
X140978330Y-120361200D02*
X145045480Y-122726440D01*
X140991450Y-101531510D02*
X142550850Y-98860120D01*
X141041880Y-91859110D02*
X145096840Y-89535050D01*
X141071990Y-114412140D02*
X143592840Y-116953910D01*
X141131150Y-97770740D02*
X143656390Y-95266400D01*
X141196210Y-120077260D02*
X145182440Y-122395780D01*
X141225320Y-107480060D02*
X141240100Y-104659380D01*
X141225320Y-107480060D02*
X141942090Y-110212220D01*
X141240100Y-104659380D02*
X141983420Y-101942390D01*
X141259760Y-92143050D02*
X145233800Y-89865710D01*
X141280780Y-110486140D02*
X142775640Y-113104890D01*
X141322110Y-101668470D02*
X142834790Y-99077990D01*
X141355930Y-114194270D02*
X143810720Y-116669960D01*
X141414090Y-119793320D02*
X145319400Y-122065120D01*
X141415090Y-97988610D02*
X143874270Y-95550340D01*
X141477640Y-92426990D02*
X145370760Y-90196370D01*
X141580150Y-107433350D02*
X141594940Y-104706090D01*
X141580150Y-107433350D02*
X142272750Y-110075260D01*
X141594940Y-104706090D02*
X142314080Y-102079360D01*
X141611430Y-110349180D02*
X143059580Y-112887010D01*
X141631960Y-119509370D02*
X145456360Y-121734470D01*
X141639870Y-113976390D02*
X144028600Y-116386020D01*
X141652770Y-101805430D02*
X143118730Y-99295870D01*
X141695510Y-92710930D02*
X145507730Y-90527020D01*
X141699030Y-98206490D02*
X144092140Y-95834290D01*
X141849840Y-119225430D02*
X145593330Y-121403810D01*
X141913380Y-92994880D02*
X145644690Y-90857680D01*
X141923810Y-113758520D02*
X144246470Y-116102080D01*
X141934990Y-107386630D02*
X141949780Y-104752810D01*
X141934990Y-107386630D02*
X142603400Y-109938300D01*
X141942090Y-110212220D02*
X143343520Y-112669140D01*
X141949780Y-104752810D02*
X142644730Y-102216320D01*
X141982970Y-98424370D02*
X144310020Y-96118230D01*
X141983420Y-101942390D02*
X143402680Y-99513740D01*
X142067720Y-118941490D02*
X145730290Y-121073150D01*
X142131260Y-93278820D02*
X145781650Y-91188340D01*
X142207760Y-113540640D02*
X144464340Y-115818140D01*
X142266910Y-98642240D02*
X144527890Y-96402170D01*
X142272750Y-110075260D02*
X143627460Y-112451260D01*
X142285590Y-118657550D02*
X145867250Y-120742500D01*
X142289830Y-107339920D02*
X142304620Y-104799520D01*
X142289830Y-107339920D02*
X142934060Y-109801330D01*
X142304620Y-104799520D02*
X142975390Y-102353280D01*
X142314080Y-102079360D02*
X143686610Y-99731620D01*
X142349140Y-93562760D02*
X145918610Y-91518990D01*
X142491700Y-113322770D02*
X144682220Y-115534200D01*
X142503460Y-118373610D02*
X146004210Y-120411840D01*
X142550850Y-98860120D02*
X144745770Y-96686110D01*
X142567010Y-93846700D02*
X146055580Y-91849650D01*
X142603400Y-109938300D02*
X143911400Y-112233390D01*
X142644670Y-107293200D02*
X142659450Y-104846240D01*
X142644670Y-107293200D02*
X143264720Y-109664370D01*
X142644730Y-102216320D02*
X143970560Y-99949500D01*
X142659450Y-104846240D02*
X143306050Y-102490240D01*
X142721340Y-118089670D02*
X146141180Y-120081180D01*
X142775640Y-113104890D02*
X144900100Y-115250260D01*
X142784890Y-94130640D02*
X146192540Y-92180300D01*
X142834790Y-99077990D02*
X144963650Y-96970050D01*
X142934060Y-109801330D02*
X144195340Y-112015510D01*
X142939220Y-117805730D02*
X146278140Y-119750530D01*
X142975390Y-102353280D02*
X144254500Y-100167370D01*
X142999510Y-107246480D02*
X143014290Y-104892950D01*
X142999510Y-107246480D02*
X143595370Y-109527410D01*
X143002760Y-94414580D02*
X146329500Y-92510960D01*
X143014290Y-104892950D02*
X143636700Y-102627210D01*
X143059580Y-112887010D02*
X145117970Y-114966320D01*
X143118730Y-99295870D02*
X145181520Y-97253990D01*
X143157090Y-117521790D02*
X146415100Y-119419870D01*
X143220640Y-94698520D02*
X146466460Y-92841620D01*
X143264720Y-109664370D02*
X144479290Y-111797640D01*
X143306050Y-102490240D02*
X144538440Y-100385250D01*
X143343520Y-112669140D02*
X145335850Y-114682380D01*
X143354340Y-107199770D02*
X143369130Y-104939670D01*
X143354340Y-107199770D02*
X143926030Y-109390450D01*
X143369130Y-104939670D02*
X143967360Y-102764170D01*
X143374970Y-117237850D02*
X146552060Y-119089210D01*
X143402680Y-99513740D02*
X145399400Y-97537930D01*
X143438520Y-94982460D02*
X146603430Y-93172270D01*
X143592840Y-116953910D02*
X146689030Y-118758560D01*
X143595370Y-109527410D02*
X144763230Y-111579760D01*
X143627460Y-112451260D02*
X145553730Y-114398430D01*
X143636700Y-102627210D02*
X144822380Y-100603120D01*
X143656390Y-95266400D02*
X146740390Y-93502930D01*
X143686610Y-99731620D02*
X145617270Y-97821870D01*
X143709180Y-107153050D02*
X143723970Y-104986390D01*
X143709180Y-107153050D02*
X144256680Y-109253480D01*
X143723970Y-104986390D02*
X144298020Y-102901130D01*
X143810720Y-116669960D02*
X146825990Y-118427900D01*
X143874270Y-95550340D02*
X146877350Y-93833590D01*
X143911400Y-112233390D02*
X145771600Y-114114500D01*
X143926030Y-109390450D02*
X145047170Y-111361880D01*
X143967360Y-102764170D02*
X145106320Y-100821000D01*
X143970560Y-99949500D02*
X145835150Y-98105810D01*
X144028600Y-116386020D02*
X146962950Y-118097250D01*
X144064020Y-107106340D02*
X144078810Y-105033100D01*
X144064020Y-107106340D02*
X144587340Y-109116520D01*
X144078810Y-105033100D02*
X144628670Y-103038090D01*
X144092140Y-95834290D02*
X147014310Y-94164240D01*
X144138100Y-87220460D02*
X149284370Y-85856830D01*
X144195340Y-112015510D02*
X145989480Y-113830550D01*
X144223710Y-124710370D02*
X149309670Y-126088460D01*
X144246470Y-116102080D02*
X147099910Y-117766590D01*
X144254500Y-100167370D02*
X146053020Y-98389760D01*
X144256680Y-109253480D02*
X145331110Y-111144010D01*
X144275060Y-87551110D02*
X149331080Y-86211670D01*
X144298020Y-102901130D02*
X145390260Y-101038870D01*
X144310020Y-96118230D02*
X147151270Y-94494900D01*
X144360670Y-124379720D02*
X149356390Y-125733620D01*
X144412030Y-87881770D02*
X149377800Y-86566500D01*
X144418860Y-107059620D02*
X144433640Y-106068750D01*
X144418860Y-107059620D02*
X144918000Y-108979560D01*
X144433640Y-106068750D02*
X145004160Y-106068750D01*
X144464340Y-115818140D02*
X147236880Y-117435930D01*
X144479290Y-111797640D02*
X146207350Y-113546610D01*
X144497630Y-124049060D02*
X149403110Y-125378790D01*
X144527890Y-96402170D02*
X147288240Y-94825550D01*
X144538440Y-100385250D02*
X146270900Y-98673700D01*
X144548990Y-88212430D02*
X149424520Y-86921340D01*
X144587340Y-109116520D02*
X145615050Y-110926130D01*
X144628670Y-103038090D02*
X145674200Y-101256750D01*
X144634590Y-123718410D02*
X149449820Y-125023950D01*
X144682220Y-115534200D02*
X147373840Y-117105280D01*
X144685950Y-88543080D02*
X149471230Y-87276180D01*
X144745770Y-96686110D02*
X147425200Y-95156210D01*
X144763230Y-111579760D02*
X146425230Y-113262670D01*
X144771550Y-123387750D02*
X149496530Y-124669110D01*
X144822380Y-100603120D02*
X146488770Y-98957640D01*
X144822910Y-88873740D02*
X149517950Y-87631020D01*
X144900100Y-115250260D02*
X147510800Y-116774620D01*
X144908520Y-123057090D02*
X149543250Y-124314270D01*
X144918000Y-108979560D02*
X145898990Y-110708260D01*
X144959880Y-89204400D02*
X149564660Y-87985860D01*
X144963650Y-96970050D02*
X147562160Y-95486870D01*
D10*
X145004160Y-106068750D02*
X145574670Y-106830750D01*
D11*
X145045480Y-122726440D02*
X149589970Y-123959430D01*
X145047170Y-111361880D02*
X146643100Y-112978730D01*
X145096840Y-89535050D02*
X149611380Y-88340690D01*
X145106320Y-100821000D02*
X146706650Y-99241580D01*
X145117970Y-114966320D02*
X147647760Y-116443960D01*
X145181520Y-97253990D02*
X147699120Y-95817520D01*
X145182440Y-122395780D02*
X149636680Y-123604600D01*
X145233800Y-89865710D02*
X149658090Y-88695530D01*
X145319400Y-122065120D02*
X149683400Y-123249760D01*
X145331110Y-111144010D02*
X146860980Y-112694790D01*
X145335850Y-114682380D02*
X147784730Y-116113310D01*
X145370760Y-90196370D02*
X149704810Y-89050370D01*
X145390260Y-101038870D02*
X146924530Y-99525520D01*
X145399400Y-97537930D02*
X147836090Y-96148180D01*
X145456360Y-121734470D02*
X149730110Y-122894920D01*
X145507730Y-90527020D02*
X149751520Y-89405210D01*
X145553730Y-114398430D02*
X147921690Y-115782650D01*
X145593330Y-121403810D02*
X149776830Y-122540080D01*
X145615050Y-110926130D02*
X147078850Y-112410850D01*
X145617270Y-97821870D02*
X147973050Y-96478840D01*
X145644690Y-90857680D02*
X149798240Y-89760050D01*
X145674200Y-101256750D02*
X147142400Y-99809460D01*
X145730290Y-121073150D02*
X149823540Y-122185240D01*
X145771600Y-114114500D02*
X148058650Y-115452000D01*
X145781650Y-91188340D02*
X149844950Y-90114880D01*
X145835150Y-98105810D02*
X148110010Y-96809490D01*
X145867250Y-120742500D02*
X149870260Y-121830410D01*
X145898990Y-110708260D02*
X147296730Y-112126910D01*
X145918610Y-91518990D02*
X149891670Y-90469720D01*
X145989480Y-113830550D02*
X148195610Y-115121340D01*
X146004210Y-120411840D02*
X149916970Y-121475570D01*
X146053020Y-98389760D02*
X148246970Y-97140150D01*
X146055580Y-91849650D02*
X149938390Y-90824560D01*
X146141180Y-120081180D02*
X149963690Y-121120730D01*
X146192540Y-92180300D02*
X149985100Y-91179400D01*
X146207350Y-113546610D02*
X148332570Y-114790680D01*
X146270900Y-98673700D02*
X148383940Y-97470800D01*
X146278140Y-119750530D02*
X150010400Y-120765890D01*
X146329500Y-92510960D02*
X150031810Y-91534240D01*
X146415100Y-119419870D02*
X150057120Y-120411050D01*
X146425230Y-113262670D02*
X148469540Y-114460030D01*
X146466460Y-92841620D02*
X150078530Y-91889070D01*
X146488770Y-98957640D02*
X148520900Y-97801460D01*
X146552060Y-119089210D02*
X150103830Y-120056220D01*
X146603430Y-93172270D02*
X150125250Y-92243910D01*
X146643100Y-112978730D02*
X148606500Y-114129370D01*
X146689030Y-118758560D02*
X150150550Y-119701380D01*
X146706650Y-99241580D02*
X148657860Y-98132120D01*
X146740390Y-93502930D02*
X150171960Y-92598750D01*
X146825990Y-118427900D02*
X150197260Y-119346540D01*
X146860980Y-112694790D02*
X148743460Y-113798710D01*
X146877350Y-93833590D02*
X150218680Y-92953590D01*
X146924530Y-99525520D02*
X148794820Y-98462770D01*
X146962950Y-118097250D02*
X150243980Y-118991700D01*
X147014310Y-94164240D02*
X150265390Y-93308430D01*
X147078850Y-112410850D02*
X148880420Y-113468060D01*
X147099910Y-117766590D02*
X150290700Y-118636860D01*
X147142400Y-99809460D02*
X148931790Y-98793430D01*
X147151270Y-94494900D02*
X150312110Y-93663260D01*
X147236880Y-117435930D02*
X150337410Y-118282030D01*
X147288240Y-94825550D02*
X150358820Y-94018100D01*
X147296730Y-112126910D02*
X149017390Y-113137400D01*
X147373840Y-117105280D02*
X150384120Y-117927190D01*
X147425200Y-95156210D02*
X150405540Y-94372940D01*
X147510800Y-116774620D02*
X150430840Y-117572350D01*
X147562160Y-95486870D02*
X150452250Y-94727780D01*
X147647760Y-116443960D02*
X150477560Y-117217510D01*
X147699120Y-95817520D02*
X150498970Y-95082620D01*
X147784730Y-116113310D02*
X150524270Y-116862670D01*
X147836090Y-96148180D02*
X150545680Y-95437450D01*
X147921690Y-115782650D02*
X150570990Y-116507840D01*
X147973050Y-96478840D02*
X150592400Y-95792290D01*
X148058650Y-115452000D02*
X150617700Y-116153000D01*
X148110010Y-96809490D02*
X150639110Y-96147130D01*
X148195610Y-115121340D02*
X150664420Y-115798160D01*
X148246970Y-97140150D02*
X150685830Y-96501970D01*
X148332570Y-114790680D02*
X150711130Y-115443320D01*
X148383940Y-97470800D02*
X150732540Y-96856810D01*
X148469540Y-114460030D02*
X150757850Y-115088480D01*
X148520900Y-97801460D02*
X150779260Y-97211640D01*
X148606500Y-114129370D02*
X150804560Y-114733650D01*
X148657860Y-98132120D02*
X150825980Y-97566480D01*
X148743460Y-113798710D02*
X150851280Y-114378810D01*
X148794820Y-98462770D02*
X150872690Y-97921320D01*
X148880420Y-113468060D02*
X150897990Y-114023970D01*
X148931790Y-98793430D02*
X150919400Y-98276160D01*
X149017390Y-113137400D02*
X150944710Y-113669130D01*
X149284370Y-85856830D02*
X154604320Y-85871610D01*
X149309670Y-126088460D02*
X154582910Y-126103250D01*
X149331080Y-86211670D02*
X154557610Y-86226450D01*
X149356390Y-125733620D02*
X154536200Y-125748410D01*
X149377800Y-86566500D02*
X154510890Y-86581290D01*
X149403110Y-125378790D02*
X154489480Y-125393570D01*
X149424520Y-86921340D02*
X154464180Y-86936130D01*
X149449820Y-125023950D02*
X154442770Y-125038730D01*
X149471230Y-87276180D02*
X154417460Y-87290960D01*
X149496530Y-124669110D02*
X154396050Y-124683890D01*
X149517950Y-87631020D02*
X154370750Y-87645800D01*
X149543250Y-124314270D02*
X154349330Y-124329060D01*
X149564660Y-87985860D02*
X154324030Y-88000640D01*
X149589970Y-123959430D02*
X154302620Y-123974220D01*
X149611380Y-88340690D02*
X154277310Y-88355480D01*
X149636680Y-123604600D02*
X154255910Y-123619380D01*
X149658090Y-88695530D02*
X154230600Y-88710320D01*
X149683400Y-123249760D02*
X154209190Y-123264540D01*
X149704810Y-89050370D02*
X154183890Y-89065150D01*
X149730110Y-122894920D02*
X154162470Y-122909700D01*
X149751520Y-89405210D02*
X154137170Y-89419990D01*
X149776830Y-122540080D02*
X154115760Y-122554870D01*
X149798240Y-89760050D02*
X154090450Y-89774830D01*
X149823540Y-122185240D02*
X154069040Y-122200030D01*
X149844950Y-90114880D02*
X154043740Y-90129670D01*
X149870260Y-121830410D02*
X154022330Y-121845190D01*
X149891670Y-90469720D02*
X153997020Y-90484510D01*
X149916970Y-121475570D02*
X153975610Y-121490350D01*
X149938390Y-90824560D02*
X153950310Y-90839340D01*
X149963690Y-121120730D02*
X153928900Y-121135510D01*
X149985100Y-91179400D02*
X153903590Y-91194180D01*
X150010400Y-120765890D02*
X153882180Y-120780680D01*
X150031810Y-91534240D02*
X153856880Y-91549020D01*
X150057120Y-120411050D02*
X153835470Y-120425840D01*
X150078530Y-91889070D02*
X153810160Y-91903860D01*
X150103830Y-120056220D02*
X153788750Y-120071000D01*
X150125250Y-92243910D02*
X153763450Y-92258700D01*
X150150550Y-119701380D02*
X153742040Y-119716160D01*
X150171960Y-92598750D02*
X153716730Y-92613530D01*
X150197260Y-119346540D02*
X153695320Y-119361320D01*
X150218680Y-92953590D02*
X153670020Y-92968370D01*
X150243980Y-118991700D02*
X153648610Y-119006490D01*
X150265390Y-93308430D02*
X153623300Y-93323210D01*
X150290700Y-118636860D02*
X153601890Y-118651650D01*
X150312110Y-93663260D02*
X153576580Y-93678050D01*
X150337410Y-118282030D02*
X153555180Y-118296810D01*
X150358820Y-94018100D02*
X153529870Y-94032890D01*
X150384120Y-117927190D02*
X153508460Y-117941970D01*
X150405540Y-94372940D02*
X153483160Y-94387720D01*
X150430840Y-117572350D02*
X153461740Y-117587130D01*
X150452250Y-94727780D02*
X153436440Y-94742560D01*
X150477560Y-117217510D02*
X153415030Y-117232300D01*
X150498970Y-95082620D02*
X153389720Y-95097400D01*
X150524270Y-116862670D02*
X153368310Y-116877460D01*
X150545680Y-95437450D02*
X153343010Y-95452240D01*
X150570990Y-116507840D02*
X153321600Y-116522620D01*
X150592400Y-95792290D02*
X153296290Y-95807080D01*
X150617700Y-116153000D02*
X153274880Y-116167780D01*
X150639110Y-96147130D02*
X153249580Y-96161910D01*
X150664420Y-115798160D02*
X153228170Y-115812940D01*
X150685830Y-96501970D02*
X153202860Y-96516750D01*
X150711130Y-115443320D02*
X153181450Y-115458110D01*
X150732540Y-96856810D02*
X153156150Y-96871590D01*
X150757850Y-115088480D02*
X153134740Y-115103270D01*
X150779260Y-97211640D02*
X153109430Y-97226430D01*
X150804560Y-114733650D02*
X153088020Y-114748430D01*
X150825980Y-97566480D02*
X153062720Y-97581270D01*
X150851280Y-114378810D02*
X153041310Y-114393590D01*
X150872690Y-97921320D02*
X153016000Y-97936100D01*
X150897990Y-114023970D02*
X152994590Y-114038750D01*
X150919400Y-98276160D02*
X152969290Y-98290940D01*
X150944710Y-113669130D02*
X152947880Y-113683920D01*
X152947880Y-113683920D02*
X154890370Y-113178730D01*
X152969290Y-98290940D02*
X154941730Y-98834760D01*
X152994590Y-114038750D02*
X155027330Y-113509390D01*
X153016000Y-97936100D02*
X155078690Y-98504110D01*
X153041310Y-114393590D02*
X155164300Y-113840050D01*
X153062720Y-97581270D02*
X155215660Y-98173450D01*
X153088020Y-114748430D02*
X155301260Y-114170700D01*
X153109430Y-97226430D02*
X155352620Y-97842800D01*
X153134740Y-115103270D02*
X155438220Y-114501360D01*
X153156150Y-96871590D02*
X155489580Y-97512140D01*
X153181450Y-115458110D02*
X155575180Y-114832010D01*
X153202860Y-96516750D02*
X155626550Y-97181480D01*
X153228170Y-115812940D02*
X155712150Y-115162670D01*
X153249580Y-96161910D02*
X155763510Y-96850830D01*
X153274880Y-116167780D02*
X155849110Y-115493330D01*
X153296290Y-95807080D02*
X155900470Y-96520170D01*
X153321600Y-116522620D02*
X155986070Y-115823980D01*
X153343010Y-95452240D02*
X156037430Y-96189510D01*
X153368310Y-116877460D02*
X156123030Y-116154640D01*
X153389720Y-95097400D02*
X156174400Y-95858860D01*
X153415030Y-117232300D02*
X156260000Y-116485300D01*
X153436440Y-94742560D02*
X156311360Y-95528200D01*
X153461740Y-117587130D02*
X156396960Y-116815950D01*
X153483160Y-94387720D02*
X156448320Y-95197540D01*
X153508460Y-117941970D02*
X156533920Y-117146610D01*
X153529870Y-94032890D02*
X156585280Y-94866890D01*
X153555180Y-118296810D02*
X156670880Y-117477260D01*
X153576580Y-93678050D02*
X156722240Y-94536230D01*
X153601890Y-118651650D02*
X156807850Y-117807920D01*
X153623300Y-93323210D02*
X156859210Y-94205570D01*
X153648610Y-119006490D02*
X156944810Y-118138580D01*
X153670020Y-92968370D02*
X156996170Y-93874920D01*
X153695320Y-119361320D02*
X157081770Y-118469230D01*
X153716730Y-92613530D02*
X157133130Y-93544260D01*
X153742040Y-119716160D02*
X157218730Y-118799890D01*
X153763450Y-92258700D02*
X157270090Y-93213600D01*
X153788750Y-120071000D02*
X157355700Y-119130550D01*
X153810160Y-91903860D02*
X157407050Y-92882950D01*
X153835470Y-120425840D02*
X157492660Y-119461200D01*
X153856880Y-91549020D02*
X157544020Y-92552290D01*
X153882180Y-120780680D02*
X157629620Y-119791860D01*
X153903590Y-91194180D02*
X157680980Y-92221640D01*
X153928900Y-121135510D02*
X157766580Y-120122520D01*
X153950310Y-90839340D02*
X157817940Y-91890980D01*
X153975610Y-121490350D02*
X157903540Y-120453170D01*
X153997020Y-90484510D02*
X157954900Y-91560320D01*
X154022330Y-121845190D02*
X158040510Y-120783830D01*
X154043740Y-90129670D02*
X158091870Y-91229670D01*
X154069040Y-122200030D02*
X158177470Y-121114490D01*
X154090450Y-89774830D02*
X158228830Y-90899010D01*
X154115760Y-122554870D02*
X158314430Y-121445140D01*
X154137170Y-89419990D02*
X158365790Y-90568350D01*
X154162470Y-122909700D02*
X158451390Y-121775800D01*
X154183890Y-89065150D02*
X158502750Y-90237700D01*
X154209190Y-123264540D02*
X158588360Y-122106460D01*
X154230600Y-88710320D02*
X158639720Y-89907040D01*
X154255910Y-123619380D02*
X158725320Y-122437110D01*
X154277310Y-88355480D02*
X158776680Y-89576390D01*
X154302620Y-123974220D02*
X158862280Y-122767770D01*
X154324030Y-88000640D02*
X158913640Y-89245730D01*
X154349330Y-124329060D02*
X158999240Y-123098420D01*
X154370750Y-87645800D02*
X159050600Y-88915070D01*
X154396050Y-124683890D02*
X159136210Y-123429080D01*
X154417460Y-87290960D02*
X159187570Y-88584420D01*
X154442770Y-125038730D02*
X159273170Y-123759740D01*
X154464180Y-86936130D02*
X159324530Y-88253760D01*
X154489480Y-125393570D02*
X159410130Y-124090390D01*
X154510890Y-86581290D02*
X159461490Y-87923100D01*
X154536200Y-125748410D02*
X159547090Y-124421050D01*
X154557610Y-86226450D02*
X159598450Y-87592450D01*
X154582910Y-126103250D02*
X159684060Y-124751710D01*
X154604320Y-85871610D02*
X159735420Y-87261790D01*
X154890370Y-113178730D02*
X156639300Y-112186060D01*
X154941730Y-98834760D02*
X156702850Y-99868620D01*
X155027330Y-113509390D02*
X156857180Y-112470000D01*
X155078690Y-98504110D02*
X156920720Y-99584670D01*
X155164300Y-113840050D02*
X157075050Y-112753940D01*
X155215660Y-98173450D02*
X157138600Y-99300730D01*
X155301260Y-114170700D02*
X157292930Y-113037880D01*
X155352620Y-97842800D02*
X157356470Y-99016790D01*
X155438220Y-114501360D02*
X157510800Y-113321820D01*
X155489580Y-97512140D02*
X157574350Y-98732850D01*
X155575180Y-114832010D02*
X157728680Y-113605770D01*
X155626550Y-97181480D02*
X157792230Y-98448910D01*
X155712150Y-115162670D02*
X157946550Y-113889710D01*
X155763510Y-96850830D02*
X158010100Y-98164970D01*
X155849110Y-115493330D02*
X158164430Y-114173650D01*
X155900470Y-96520170D02*
X158227980Y-97881030D01*
X155986070Y-115823980D02*
X158382310Y-114457590D01*
X156037430Y-96189510D02*
X158445850Y-97597090D01*
X156123030Y-116154640D02*
X158600180Y-114741530D01*
X156174400Y-95858860D02*
X158663730Y-97313150D01*
X156260000Y-116485300D02*
X158818060Y-115025470D01*
X156311360Y-95528200D02*
X158881600Y-97029210D01*
X156396960Y-116815950D02*
X159035930Y-115309410D01*
X156448320Y-95197540D02*
X159099480Y-96745260D01*
X156533920Y-117146610D02*
X159253810Y-115593350D01*
X156585280Y-94866890D02*
X159317360Y-96461320D01*
X156639300Y-112186060D02*
X158074460Y-110771800D01*
X156670880Y-117477260D02*
X159471680Y-115877300D01*
X156702850Y-99868620D02*
X158133620Y-101320300D01*
X156722240Y-94536230D02*
X159535230Y-96177380D01*
X156807850Y-117807920D02*
X159689560Y-116161230D01*
X156857180Y-112470000D02*
X158358410Y-110989680D01*
X156859210Y-94205570D02*
X159753110Y-95893440D01*
X156920720Y-99584670D02*
X158417560Y-101102420D01*
X156944810Y-118138580D02*
X159907440Y-116445180D01*
X156996170Y-93874920D02*
X159970980Y-95609500D01*
X157075050Y-112753940D02*
X158642350Y-111207560D01*
X157081770Y-118469230D02*
X160125310Y-116729120D01*
X157133130Y-93544260D02*
X160188860Y-95325560D01*
X157138600Y-99300730D02*
X158701500Y-100884540D01*
X157218730Y-118799890D02*
X160343190Y-117013060D01*
X157270090Y-93213600D02*
X160406730Y-95041620D01*
X157292930Y-113037880D02*
X158926290Y-111425430D01*
X157355700Y-119130550D02*
X160561060Y-117297000D01*
X157356470Y-99016790D02*
X158985440Y-100666670D01*
X157407050Y-92882950D02*
X160624610Y-94757680D01*
X157492660Y-119461200D02*
X160778940Y-117580940D01*
X157510800Y-113321820D02*
X159210230Y-111643310D01*
X157544020Y-92552290D02*
X160842480Y-94473730D01*
X157574350Y-98732850D02*
X159269380Y-100448790D01*
X157629620Y-119791860D02*
X160996810Y-117864880D01*
X157680980Y-92221640D02*
X161060360Y-94189790D01*
X157728680Y-113605770D02*
X159494170Y-111861180D01*
X157766580Y-120122520D02*
X161214690Y-118148820D01*
X157792230Y-98448910D02*
X159553320Y-100230920D01*
X157817940Y-91890980D02*
X161278240Y-93905850D01*
X157903540Y-120453170D02*
X161432560Y-118432760D01*
X157946550Y-113889710D02*
X159778110Y-112079060D01*
X157954900Y-91560320D02*
X161496110Y-93621910D01*
X158010100Y-98164970D02*
X159837270Y-100013040D01*
X158040510Y-120783830D02*
X161650440Y-118716710D01*
X158074460Y-110771800D02*
X159096640Y-109030920D01*
X158091870Y-91229670D02*
X161713990Y-93337970D01*
X158133620Y-101320300D02*
X159137970Y-103089450D01*
X158164430Y-114173650D02*
X160062050Y-112296930D01*
X158177470Y-121114490D02*
X161868320Y-119000650D01*
X158227980Y-97881030D02*
X160121210Y-99795170D01*
X158228830Y-90899010D02*
X161931860Y-93054030D01*
X158314430Y-121445140D02*
X162086190Y-119284590D01*
X158358410Y-110989680D02*
X159427290Y-109167880D01*
X158365790Y-90568350D02*
X162149740Y-92770090D01*
X158382310Y-114457590D02*
X160345990Y-112514810D01*
X158417560Y-101102420D02*
X159468630Y-102952490D01*
X158445850Y-97597090D02*
X160405150Y-99577290D01*
X158451390Y-121775800D02*
X162304070Y-119568530D01*
X158502750Y-90237700D02*
X162367610Y-92486150D01*
X158588360Y-122106460D02*
X162521940Y-119852470D01*
X158600180Y-114741530D02*
X160629930Y-112732690D01*
X158639720Y-89907040D02*
X162585490Y-92202210D01*
X158642350Y-111207560D02*
X159757950Y-109304850D01*
X158663730Y-97313150D02*
X160689090Y-99359420D01*
X158701500Y-100884540D02*
X159799280Y-102815530D01*
X158725320Y-122437110D02*
X162739820Y-120136410D01*
X158776680Y-89576390D02*
X162803370Y-91918270D01*
X158818060Y-115025470D02*
X160913880Y-112950560D01*
X158862280Y-122767770D02*
X162957690Y-120420350D01*
X158881600Y-97029210D02*
X160973030Y-99141540D01*
X158913640Y-89245730D02*
X163021240Y-91634320D01*
X158926290Y-111425430D02*
X160088610Y-109441810D01*
X158985440Y-100666670D02*
X160129940Y-102678570D01*
X158999240Y-123098420D02*
X163175570Y-120704290D01*
X159035930Y-115309410D02*
X161197820Y-113168440D01*
X159050600Y-88915070D02*
X163239120Y-91350380D01*
X159096640Y-109030920D02*
X159634410Y-107081030D01*
X159099480Y-96745260D02*
X161256970Y-98923660D01*
X159136210Y-123429080D02*
X163393450Y-120988230D01*
X159137970Y-103089450D02*
X159649200Y-105054510D01*
X159187570Y-88584420D02*
X163456990Y-91066440D01*
X159210230Y-111643310D02*
X160419260Y-109578770D01*
X159253810Y-115593350D02*
X161481760Y-113386310D01*
X159269380Y-100448790D02*
X160460600Y-102541600D01*
X159273170Y-123759740D02*
X163611320Y-121272170D01*
X159317360Y-96461320D02*
X161540910Y-98705790D01*
X159324530Y-88253760D02*
X163674870Y-90782500D01*
X159410130Y-124090390D02*
X163829200Y-121556120D01*
X159427290Y-109167880D02*
X159989250Y-107127750D01*
X159461490Y-87923100D02*
X163892740Y-90498560D01*
X159468630Y-102952490D02*
X160004040Y-105007790D01*
X159471680Y-115877300D02*
X161765700Y-113604190D01*
X159494170Y-111861180D02*
X160749920Y-109715730D01*
X159535230Y-96177380D02*
X161824850Y-98487910D01*
X159547090Y-124421050D02*
X164047070Y-121840060D01*
X159553320Y-100230920D02*
X160791250Y-102404640D01*
X159598450Y-87592450D02*
X164110620Y-90214620D01*
X159634410Y-107081030D02*
X159649200Y-105054510D01*
X159684060Y-124751710D02*
X164264950Y-122124000D01*
X159689560Y-116161230D02*
X162049640Y-113822060D01*
X159735420Y-87261790D02*
X164328490Y-89930680D01*
X159753110Y-95893440D02*
X162108800Y-98270040D01*
X159757950Y-109304850D02*
X160344090Y-107174470D01*
X159778110Y-112079060D02*
X161080580Y-109852690D01*
X159799280Y-102815530D02*
X160358870Y-104961080D01*
X159837270Y-100013040D02*
X161121910Y-102267680D01*
X159907440Y-116445180D02*
X162333580Y-114039940D01*
X159970980Y-95609500D02*
X162392730Y-98052160D01*
X159989250Y-107127750D02*
X160004040Y-105007790D01*
X160062050Y-112296930D02*
X161411230Y-109989660D01*
X160088610Y-109441810D02*
X160698930Y-107221180D01*
X160121210Y-99795170D02*
X161452570Y-102130720D01*
X160125310Y-116729120D02*
X162617520Y-114257810D01*
X160129940Y-102678570D02*
X160713710Y-104914370D01*
X160188860Y-95325560D02*
X162676680Y-97834290D01*
X160343190Y-117013060D02*
X162901460Y-114475690D01*
X160344090Y-107174470D02*
X160358870Y-104961080D01*
X160345990Y-112514810D02*
X161741890Y-110126620D01*
X160405150Y-99577290D02*
X161783220Y-101993750D01*
X160406730Y-95041620D02*
X162960620Y-97616410D01*
X160419260Y-109578770D02*
X161053770Y-107267900D01*
X160460600Y-102541600D02*
X161068550Y-104867650D01*
X160561060Y-117297000D02*
X163185400Y-114693570D01*
X160624610Y-94757680D02*
X163244560Y-97398530D01*
X160629930Y-112732690D02*
X162072540Y-110263580D01*
X160689090Y-99359420D02*
X162113880Y-101856790D01*
X160698930Y-107221180D02*
X160713710Y-104914370D01*
X160749920Y-109715730D02*
X161408600Y-107314610D01*
X160778940Y-117580940D02*
X163469350Y-114911440D01*
X160791250Y-102404640D02*
X161423390Y-104820930D01*
X160842480Y-94473730D02*
X163528500Y-97180660D01*
X160913880Y-112950560D02*
X162403200Y-110400540D01*
X160973030Y-99141540D02*
X162444530Y-101719830D01*
X160996810Y-117864880D02*
X163753290Y-115129320D01*
X161053770Y-107267900D02*
X161068550Y-104867650D01*
X161060360Y-94189790D02*
X163812440Y-96962780D01*
X161080580Y-109852690D02*
X161763440Y-107361330D01*
X161121910Y-102267680D02*
X161778230Y-104774220D01*
X161197820Y-113168440D02*
X162733860Y-110537500D01*
X161214690Y-118148820D02*
X164037230Y-115347190D01*
X161256970Y-98923660D02*
X162775190Y-101582870D01*
X161278240Y-93905850D02*
X164096380Y-96744910D01*
X161408600Y-107314610D02*
X161423390Y-104820930D01*
X161411230Y-109989660D02*
X162118280Y-107408040D01*
X161432560Y-118432760D02*
X164321170Y-115565070D01*
X161452570Y-102130720D02*
X162133060Y-104727500D01*
X161481760Y-113386310D02*
X163064510Y-110674470D01*
X161496110Y-93621910D02*
X164380320Y-96527030D01*
X161540910Y-98705790D02*
X163105850Y-101445900D01*
X161650440Y-118716710D02*
X164605110Y-115782940D01*
X161713990Y-93337970D02*
X164664260Y-96309160D01*
X161741890Y-110126620D02*
X162473120Y-107454760D01*
X161763440Y-107361330D02*
X161778230Y-104774220D01*
X161765700Y-113604190D02*
X163395170Y-110811430D01*
X161783220Y-101993750D02*
X162487900Y-104680790D01*
X161824850Y-98487910D02*
X163436500Y-101308940D01*
X161868320Y-119000650D02*
X164889050Y-116000820D01*
X161931860Y-93054030D02*
X164948210Y-96091280D01*
X162049640Y-113822060D02*
X163725830Y-110948390D01*
X162072540Y-110263580D02*
X162827960Y-107501470D01*
X162086190Y-119284590D02*
X165172990Y-116218700D01*
X162108800Y-98270040D02*
X163767160Y-101171980D01*
X162113880Y-101856790D02*
X162842740Y-104634070D01*
X162118280Y-107408040D02*
X162133060Y-104727500D01*
X162149740Y-92770090D02*
X165232150Y-95873410D01*
X162304070Y-119568530D02*
X165456930Y-116436570D01*
X162333580Y-114039940D02*
X164056480Y-111085350D01*
X162367610Y-92486150D02*
X165516090Y-95655530D01*
X162392730Y-98052160D02*
X164097820Y-101035020D01*
X162403200Y-110400540D02*
X163182790Y-107548190D01*
X162444530Y-101719830D02*
X163197580Y-104587360D01*
X162473120Y-107454760D02*
X162487900Y-104680790D01*
X162521940Y-119852470D02*
X165740870Y-116654450D01*
X162585490Y-92202210D02*
X165800030Y-95437650D01*
X162617520Y-114257810D02*
X164387140Y-111222320D01*
X162676680Y-97834290D02*
X164428470Y-100898050D01*
X162733860Y-110537500D02*
X163537630Y-107594900D01*
X162739820Y-120136410D02*
X166024810Y-116872320D01*
X162775190Y-101582870D02*
X163552420Y-104540640D01*
X162803370Y-91918270D02*
X166083970Y-95219780D01*
X162827960Y-107501470D02*
X162842740Y-104634070D01*
X162901460Y-114475690D02*
X164717800Y-111359280D01*
X162957690Y-120420350D02*
X166308760Y-117090200D01*
X162960620Y-97616410D02*
X164759130Y-100761090D01*
X163021240Y-91634320D02*
X166367910Y-95001900D01*
X163064510Y-110674470D02*
X163892470Y-107641620D01*
X163105850Y-101445900D02*
X163907250Y-104493930D01*
X163175570Y-120704290D02*
X166592700Y-117308080D01*
X163182790Y-107548190D02*
X163197580Y-104587360D01*
X163185400Y-114693570D02*
X165048450Y-111496240D01*
X163239120Y-91350380D02*
X166651850Y-94784030D01*
X163244560Y-97398530D02*
X165089780Y-100624130D01*
X163393450Y-120988230D02*
X166876640Y-117525950D01*
X163395170Y-110811430D02*
X164247310Y-107688330D01*
X163436500Y-101308940D02*
X164262090Y-104447210D01*
X163456990Y-91066440D02*
X166935790Y-94566150D01*
X163469350Y-114911440D02*
X165379110Y-111633200D01*
X163528500Y-97180660D02*
X165420440Y-100487170D01*
X163537630Y-107594900D02*
X163552420Y-104540640D01*
X163611320Y-121272170D02*
X167160580Y-117743820D01*
X163674870Y-90782500D02*
X167219730Y-94348280D01*
X163725830Y-110948390D02*
X164602150Y-107735050D01*
X163753290Y-115129320D02*
X165709770Y-111770170D01*
X163767160Y-101171980D02*
X164616930Y-104400500D01*
X163812440Y-96962780D02*
X165751100Y-100350200D01*
X163829200Y-121556120D02*
X167444520Y-117961700D01*
X163892470Y-107641620D02*
X163907250Y-104493930D01*
X163892740Y-90498560D02*
X167503670Y-94130400D01*
X164037230Y-115347190D02*
X166040420Y-111907130D01*
X164047070Y-121840060D02*
X167728460Y-118179580D01*
X164056480Y-111085350D02*
X164956980Y-107781760D01*
X164096380Y-96744910D02*
X166081750Y-100213240D01*
X164097820Y-101035020D02*
X164971770Y-104353780D01*
X164110620Y-90214620D02*
X167787620Y-93912520D01*
X164247310Y-107688330D02*
X164262090Y-104447210D01*
X164264950Y-122124000D02*
X168012400Y-118397450D01*
X164321170Y-115565070D02*
X166371080Y-112044090D01*
X164328490Y-89930680D02*
X168071560Y-93694650D01*
X164380320Y-96527030D02*
X166412410Y-100076280D01*
X164387140Y-111222320D02*
X165311820Y-107828480D01*
X164428470Y-100898050D02*
X165326610Y-104307070D01*
X164602150Y-107735050D02*
X164616930Y-104400500D01*
X164605110Y-115782940D02*
X166701730Y-112181050D01*
X164664260Y-96309160D02*
X166743070Y-99939320D01*
X164717800Y-111359280D02*
X165666660Y-107875200D01*
X164759130Y-100761090D02*
X165681440Y-104260350D01*
X164889050Y-116000820D02*
X167032390Y-112318020D01*
X164948210Y-96091280D02*
X167073720Y-99802360D01*
X164956980Y-107781760D02*
X164971770Y-104353780D01*
X165048450Y-111496240D02*
X166021500Y-107921910D01*
X165089780Y-100624130D02*
X166036280Y-104213640D01*
X165172990Y-116218700D02*
X167363050Y-112454980D01*
X165232150Y-95873410D02*
X167404380Y-99665390D01*
X165311820Y-107828480D02*
X165326610Y-104307070D01*
X165379110Y-111633200D02*
X166376340Y-107968620D01*
X165420440Y-100487170D02*
X166391120Y-104166920D01*
X165456930Y-116436570D02*
X167693700Y-112591940D01*
X165516090Y-95655530D02*
X167735030Y-99528430D01*
X165666660Y-107875200D02*
X165681440Y-104260350D01*
X165709770Y-111770170D02*
X166731170Y-108015340D01*
X165740870Y-116654450D02*
X168024360Y-112728900D01*
X165751100Y-100350200D02*
X166745960Y-104120200D01*
X165800030Y-95437650D02*
X168065690Y-99391470D01*
X166021500Y-107921910D02*
X166036280Y-104213640D01*
X166024810Y-116872320D02*
X168355020Y-112865860D01*
X166040420Y-111907130D02*
X167086010Y-108062060D01*
X166081750Y-100213240D02*
X167100800Y-104073490D01*
X166083970Y-95219780D02*
X168396350Y-99254510D01*
X166308760Y-117090200D02*
X168685670Y-113002830D01*
X166367910Y-95001900D02*
X168727000Y-99117550D01*
X166371080Y-112044090D02*
X167440850Y-108108770D01*
X166376340Y-107968620D02*
X166391120Y-104166920D01*
X166412410Y-100076280D02*
X167455630Y-104026770D01*
X166592700Y-117308080D02*
X169016330Y-113139790D01*
X166651850Y-94784030D02*
X169057660Y-98980580D01*
X166701730Y-112181050D02*
X167795690Y-108155490D01*
X166731170Y-108015340D02*
X166745960Y-104120200D01*
X166743070Y-99939320D02*
X167810470Y-103980060D01*
X166876640Y-117525950D02*
X169346980Y-113276750D01*
X166935790Y-94566150D02*
X169388320Y-98843620D01*
X167032390Y-112318020D02*
X168150530Y-108202200D01*
X167073720Y-99802360D02*
X168165310Y-103933340D01*
X167086010Y-108062060D02*
X167100800Y-104073490D01*
X167160580Y-117743820D02*
X169677640Y-113413710D01*
X167219730Y-94348280D02*
X169718970Y-98706660D01*
X167363050Y-112454980D02*
X168505360Y-108248920D01*
X167404380Y-99665390D02*
X168520150Y-103886630D01*
X167440850Y-108108770D02*
X167455630Y-104026770D01*
X167444520Y-117961700D02*
X170008300Y-113550680D01*
X167503670Y-94130400D02*
X170049630Y-98569700D01*
X167693700Y-112591940D02*
X168860200Y-108295630D01*
X167728460Y-118179580D02*
X170338950Y-113687640D01*
X167735030Y-99528430D02*
X168874990Y-103839910D01*
X167787620Y-93912520D02*
X170380290Y-98432730D01*
X167795690Y-108155490D02*
X167810470Y-103980060D01*
X168012400Y-118397450D02*
X170669610Y-113824600D01*
X168024360Y-112728900D02*
X169215040Y-108342350D01*
X168065690Y-99391470D02*
X169229820Y-103793200D01*
X168071560Y-93694650D02*
X170710940Y-98295770D01*
X168150530Y-108202200D02*
X168165310Y-103933340D01*
X168355020Y-112865860D02*
X169569880Y-108389060D01*
X168396350Y-99254510D02*
X169584660Y-103746480D01*
X168505360Y-108248920D02*
X168520150Y-103886630D01*
X168685670Y-113002830D02*
X169924720Y-108435780D01*
X168727000Y-99117550D02*
X169939500Y-103699770D01*
X168860200Y-108295630D02*
X168874990Y-103839910D01*
X169016330Y-113139790D02*
X170279550Y-108482490D01*
X169057660Y-98980580D02*
X170294340Y-103653050D01*
X169215040Y-108342350D02*
X169229820Y-103793200D01*
X169346980Y-113276750D02*
X170634390Y-108529210D01*
X169388320Y-98843620D02*
X170649180Y-103606340D01*
X169569880Y-108389060D02*
X169584660Y-103746480D01*
X169677640Y-113413710D02*
X170989230Y-108575920D01*
X169718970Y-98706660D02*
X171004010Y-103559620D01*
X169924720Y-108435780D02*
X169939500Y-103699770D01*
X170008300Y-113550680D02*
X171344070Y-108622640D01*
X170049630Y-98569700D02*
X171358850Y-103512910D01*
X170279550Y-108482490D02*
X170294340Y-103653050D01*
X170338950Y-113687640D02*
X171698910Y-108669350D01*
X170380290Y-98432730D02*
X171713690Y-103466190D01*
X170634390Y-108529210D02*
X170649180Y-103606340D01*
X170669610Y-113824600D02*
X172053740Y-108716070D01*
X170710940Y-98295770D02*
X172068530Y-103419470D01*
X170989230Y-108575920D02*
X171004010Y-103559620D01*
X171344070Y-108622640D02*
X171358850Y-103512910D01*
X171698910Y-108669350D02*
X171713690Y-103466190D01*
X172053740Y-108716070D02*
X172068530Y-103419470D01*
G04 #@! TD*
D12*
G04 #@! TO.N,*
X130434100Y-106080600D03*
X145572500Y-106842600D03*
X130434100Y-104048600D03*
G04 #@! TO.N,/Off_board_inductor/Board_connection/Sense_coil_1*
X145572500Y-105318600D03*
G04 #@! TD*
M02*
