G04 #@! TF.GenerationSoftware,KiCad,Pcbnew,9.0.7*
G04 #@! TF.CreationDate,2026-03-31T12:37:49-04:00*
G04 #@! TF.ProjectId,Off_board_Inductor,4f66665f-626f-4617-9264-5f496e647563,rev?*
G04 #@! TF.SameCoordinates,Original*
G04 #@! TF.FileFunction,Legend,Top*
G04 #@! TF.FilePolarity,Positive*
%FSLAX46Y46*%
G04 Gerber Fmt 4.6, Leading zero omitted, Abs format (unit mm)*
G04 Created by KiCad (PCBNEW 9.0.7) date 2026-03-31 12:37:49*
%MOMM*%
%LPD*%
G01*
G04 APERTURE LIST*
%ADD10C,0.025400*%
%ADD11C,0.150000*%
%ADD12C,0.254000*%
%ADD13C,0.100000*%
%ADD14C,0.152400*%
%ADD15C,0.508000*%
G04 APERTURE END LIST*
D10*
X136291070Y-83792219D02*
X136813585Y-83792219D01*
X136552327Y-84706619D02*
X136552327Y-83792219D01*
X137510271Y-84097019D02*
X137510271Y-84706619D01*
X137118385Y-84097019D02*
X137118385Y-84575991D01*
X137118385Y-84575991D02*
X137161928Y-84663077D01*
X137161928Y-84663077D02*
X137249013Y-84706619D01*
X137249013Y-84706619D02*
X137379642Y-84706619D01*
X137379642Y-84706619D02*
X137466728Y-84663077D01*
X137466728Y-84663077D02*
X137510271Y-84619534D01*
X137945699Y-84706619D02*
X137945699Y-84097019D01*
X137945699Y-84271191D02*
X137989242Y-84184105D01*
X137989242Y-84184105D02*
X138032785Y-84140562D01*
X138032785Y-84140562D02*
X138119870Y-84097019D01*
X138119870Y-84097019D02*
X138206956Y-84097019D01*
X138511756Y-84097019D02*
X138511756Y-84706619D01*
X138511756Y-84184105D02*
X138555299Y-84140562D01*
X138555299Y-84140562D02*
X138642384Y-84097019D01*
X138642384Y-84097019D02*
X138773013Y-84097019D01*
X138773013Y-84097019D02*
X138860099Y-84140562D01*
X138860099Y-84140562D02*
X138903642Y-84227648D01*
X138903642Y-84227648D02*
X138903642Y-84706619D01*
X139295527Y-84663077D02*
X139382613Y-84706619D01*
X139382613Y-84706619D02*
X139556784Y-84706619D01*
X139556784Y-84706619D02*
X139643870Y-84663077D01*
X139643870Y-84663077D02*
X139687413Y-84575991D01*
X139687413Y-84575991D02*
X139687413Y-84532448D01*
X139687413Y-84532448D02*
X139643870Y-84445362D01*
X139643870Y-84445362D02*
X139556784Y-84401819D01*
X139556784Y-84401819D02*
X139426156Y-84401819D01*
X139426156Y-84401819D02*
X139339070Y-84358277D01*
X139339070Y-84358277D02*
X139295527Y-84271191D01*
X139295527Y-84271191D02*
X139295527Y-84227648D01*
X139295527Y-84227648D02*
X139339070Y-84140562D01*
X139339070Y-84140562D02*
X139426156Y-84097019D01*
X139426156Y-84097019D02*
X139556784Y-84097019D01*
X139556784Y-84097019D02*
X139643870Y-84140562D01*
X140775985Y-84227648D02*
X141472671Y-84227648D01*
X141472671Y-84488905D02*
X140775985Y-84488905D01*
X142517699Y-83792219D02*
X143083756Y-83792219D01*
X143083756Y-83792219D02*
X142778956Y-84140562D01*
X142778956Y-84140562D02*
X142909585Y-84140562D01*
X142909585Y-84140562D02*
X142996671Y-84184105D01*
X142996671Y-84184105D02*
X143040213Y-84227648D01*
X143040213Y-84227648D02*
X143083756Y-84314734D01*
X143083756Y-84314734D02*
X143083756Y-84532448D01*
X143083756Y-84532448D02*
X143040213Y-84619534D01*
X143040213Y-84619534D02*
X142996671Y-84663077D01*
X142996671Y-84663077D02*
X142909585Y-84706619D01*
X142909585Y-84706619D02*
X142648328Y-84706619D01*
X142648328Y-84706619D02*
X142561242Y-84663077D01*
X142561242Y-84663077D02*
X142517699Y-84619534D01*
X143867528Y-83792219D02*
X143693356Y-83792219D01*
X143693356Y-83792219D02*
X143606270Y-83835762D01*
X143606270Y-83835762D02*
X143562728Y-83879305D01*
X143562728Y-83879305D02*
X143475642Y-84009934D01*
X143475642Y-84009934D02*
X143432099Y-84184105D01*
X143432099Y-84184105D02*
X143432099Y-84532448D01*
X143432099Y-84532448D02*
X143475642Y-84619534D01*
X143475642Y-84619534D02*
X143519185Y-84663077D01*
X143519185Y-84663077D02*
X143606270Y-84706619D01*
X143606270Y-84706619D02*
X143780442Y-84706619D01*
X143780442Y-84706619D02*
X143867528Y-84663077D01*
X143867528Y-84663077D02*
X143911070Y-84619534D01*
X143911070Y-84619534D02*
X143954613Y-84532448D01*
X143954613Y-84532448D02*
X143954613Y-84314734D01*
X143954613Y-84314734D02*
X143911070Y-84227648D01*
X143911070Y-84227648D02*
X143867528Y-84184105D01*
X143867528Y-84184105D02*
X143780442Y-84140562D01*
X143780442Y-84140562D02*
X143606270Y-84140562D01*
X143606270Y-84140562D02*
X143519185Y-84184105D01*
X143519185Y-84184105D02*
X143475642Y-84227648D01*
X143475642Y-84227648D02*
X143432099Y-84314734D01*
X134287511Y-81970677D02*
X134984197Y-81970677D01*
X135419625Y-81970677D02*
X136116311Y-81970677D01*
X136551739Y-81970677D02*
X137248425Y-81970677D01*
X137683853Y-81970677D02*
X138380539Y-81970677D01*
X138815967Y-81970677D02*
X139512653Y-81970677D01*
X139948081Y-81970677D02*
X140644767Y-81970677D01*
X141080195Y-81970677D02*
X141776881Y-81970677D01*
X142212309Y-81970677D02*
X142908995Y-81970677D01*
X143344423Y-81970677D02*
X144041109Y-81970677D01*
X144476537Y-81970677D02*
X145173223Y-81970677D01*
X145608651Y-81970677D02*
X146305337Y-81970677D01*
X146740765Y-81970677D02*
X147437451Y-81970677D01*
X147872879Y-81970677D02*
X148569565Y-81970677D01*
X149004993Y-81970677D02*
X149701679Y-81970677D01*
X137355756Y-86154419D02*
X137878271Y-86154419D01*
X137617013Y-87068819D02*
X137617013Y-86154419D01*
X138183071Y-87068819D02*
X138183071Y-86459219D01*
X138183071Y-86633391D02*
X138226614Y-86546305D01*
X138226614Y-86546305D02*
X138270157Y-86502762D01*
X138270157Y-86502762D02*
X138357242Y-86459219D01*
X138357242Y-86459219D02*
X138444328Y-86459219D01*
X139141014Y-87068819D02*
X139141014Y-86589848D01*
X139141014Y-86589848D02*
X139097471Y-86502762D01*
X139097471Y-86502762D02*
X139010385Y-86459219D01*
X139010385Y-86459219D02*
X138836214Y-86459219D01*
X138836214Y-86459219D02*
X138749128Y-86502762D01*
X139141014Y-87025277D02*
X139053928Y-87068819D01*
X139053928Y-87068819D02*
X138836214Y-87068819D01*
X138836214Y-87068819D02*
X138749128Y-87025277D01*
X138749128Y-87025277D02*
X138705585Y-86938191D01*
X138705585Y-86938191D02*
X138705585Y-86851105D01*
X138705585Y-86851105D02*
X138749128Y-86764019D01*
X138749128Y-86764019D02*
X138836214Y-86720477D01*
X138836214Y-86720477D02*
X139053928Y-86720477D01*
X139053928Y-86720477D02*
X139141014Y-86676934D01*
X139968328Y-87025277D02*
X139881242Y-87068819D01*
X139881242Y-87068819D02*
X139707070Y-87068819D01*
X139707070Y-87068819D02*
X139619985Y-87025277D01*
X139619985Y-87025277D02*
X139576442Y-86981734D01*
X139576442Y-86981734D02*
X139532899Y-86894648D01*
X139532899Y-86894648D02*
X139532899Y-86633391D01*
X139532899Y-86633391D02*
X139576442Y-86546305D01*
X139576442Y-86546305D02*
X139619985Y-86502762D01*
X139619985Y-86502762D02*
X139707070Y-86459219D01*
X139707070Y-86459219D02*
X139881242Y-86459219D01*
X139881242Y-86459219D02*
X139968328Y-86502762D01*
X140708556Y-87025277D02*
X140621470Y-87068819D01*
X140621470Y-87068819D02*
X140447299Y-87068819D01*
X140447299Y-87068819D02*
X140360213Y-87025277D01*
X140360213Y-87025277D02*
X140316670Y-86938191D01*
X140316670Y-86938191D02*
X140316670Y-86589848D01*
X140316670Y-86589848D02*
X140360213Y-86502762D01*
X140360213Y-86502762D02*
X140447299Y-86459219D01*
X140447299Y-86459219D02*
X140621470Y-86459219D01*
X140621470Y-86459219D02*
X140708556Y-86502762D01*
X140708556Y-86502762D02*
X140752099Y-86589848D01*
X140752099Y-86589848D02*
X140752099Y-86676934D01*
X140752099Y-86676934D02*
X140316670Y-86764019D01*
X141797127Y-87025277D02*
X141927756Y-87068819D01*
X141927756Y-87068819D02*
X142145470Y-87068819D01*
X142145470Y-87068819D02*
X142232556Y-87025277D01*
X142232556Y-87025277D02*
X142276098Y-86981734D01*
X142276098Y-86981734D02*
X142319641Y-86894648D01*
X142319641Y-86894648D02*
X142319641Y-86807562D01*
X142319641Y-86807562D02*
X142276098Y-86720477D01*
X142276098Y-86720477D02*
X142232556Y-86676934D01*
X142232556Y-86676934D02*
X142145470Y-86633391D01*
X142145470Y-86633391D02*
X141971298Y-86589848D01*
X141971298Y-86589848D02*
X141884213Y-86546305D01*
X141884213Y-86546305D02*
X141840670Y-86502762D01*
X141840670Y-86502762D02*
X141797127Y-86415677D01*
X141797127Y-86415677D02*
X141797127Y-86328591D01*
X141797127Y-86328591D02*
X141840670Y-86241505D01*
X141840670Y-86241505D02*
X141884213Y-86197962D01*
X141884213Y-86197962D02*
X141971298Y-86154419D01*
X141971298Y-86154419D02*
X142189013Y-86154419D01*
X142189013Y-86154419D02*
X142319641Y-86197962D01*
X142711527Y-86459219D02*
X142711527Y-87373619D01*
X142711527Y-86502762D02*
X142798613Y-86459219D01*
X142798613Y-86459219D02*
X142972784Y-86459219D01*
X142972784Y-86459219D02*
X143059870Y-86502762D01*
X143059870Y-86502762D02*
X143103413Y-86546305D01*
X143103413Y-86546305D02*
X143146955Y-86633391D01*
X143146955Y-86633391D02*
X143146955Y-86894648D01*
X143146955Y-86894648D02*
X143103413Y-86981734D01*
X143103413Y-86981734D02*
X143059870Y-87025277D01*
X143059870Y-87025277D02*
X142972784Y-87068819D01*
X142972784Y-87068819D02*
X142798613Y-87068819D01*
X142798613Y-87068819D02*
X142711527Y-87025277D01*
X143930727Y-87068819D02*
X143930727Y-86589848D01*
X143930727Y-86589848D02*
X143887184Y-86502762D01*
X143887184Y-86502762D02*
X143800098Y-86459219D01*
X143800098Y-86459219D02*
X143625927Y-86459219D01*
X143625927Y-86459219D02*
X143538841Y-86502762D01*
X143930727Y-87025277D02*
X143843641Y-87068819D01*
X143843641Y-87068819D02*
X143625927Y-87068819D01*
X143625927Y-87068819D02*
X143538841Y-87025277D01*
X143538841Y-87025277D02*
X143495298Y-86938191D01*
X143495298Y-86938191D02*
X143495298Y-86851105D01*
X143495298Y-86851105D02*
X143538841Y-86764019D01*
X143538841Y-86764019D02*
X143625927Y-86720477D01*
X143625927Y-86720477D02*
X143843641Y-86720477D01*
X143843641Y-86720477D02*
X143930727Y-86676934D01*
X144758041Y-87025277D02*
X144670955Y-87068819D01*
X144670955Y-87068819D02*
X144496783Y-87068819D01*
X144496783Y-87068819D02*
X144409698Y-87025277D01*
X144409698Y-87025277D02*
X144366155Y-86981734D01*
X144366155Y-86981734D02*
X144322612Y-86894648D01*
X144322612Y-86894648D02*
X144322612Y-86633391D01*
X144322612Y-86633391D02*
X144366155Y-86546305D01*
X144366155Y-86546305D02*
X144409698Y-86502762D01*
X144409698Y-86502762D02*
X144496783Y-86459219D01*
X144496783Y-86459219D02*
X144670955Y-86459219D01*
X144670955Y-86459219D02*
X144758041Y-86502762D01*
X145149926Y-87068819D02*
X145149926Y-86459219D01*
X145149926Y-86154419D02*
X145106383Y-86197962D01*
X145106383Y-86197962D02*
X145149926Y-86241505D01*
X145149926Y-86241505D02*
X145193469Y-86197962D01*
X145193469Y-86197962D02*
X145149926Y-86154419D01*
X145149926Y-86154419D02*
X145149926Y-86241505D01*
X145585355Y-86459219D02*
X145585355Y-87068819D01*
X145585355Y-86546305D02*
X145628898Y-86502762D01*
X145628898Y-86502762D02*
X145715983Y-86459219D01*
X145715983Y-86459219D02*
X145846612Y-86459219D01*
X145846612Y-86459219D02*
X145933698Y-86502762D01*
X145933698Y-86502762D02*
X145977241Y-86589848D01*
X145977241Y-86589848D02*
X145977241Y-87068819D01*
X146804555Y-86459219D02*
X146804555Y-87199448D01*
X146804555Y-87199448D02*
X146761012Y-87286534D01*
X146761012Y-87286534D02*
X146717469Y-87330077D01*
X146717469Y-87330077D02*
X146630383Y-87373619D01*
X146630383Y-87373619D02*
X146499755Y-87373619D01*
X146499755Y-87373619D02*
X146412669Y-87330077D01*
X146804555Y-87025277D02*
X146717469Y-87068819D01*
X146717469Y-87068819D02*
X146543297Y-87068819D01*
X146543297Y-87068819D02*
X146456212Y-87025277D01*
X146456212Y-87025277D02*
X146412669Y-86981734D01*
X146412669Y-86981734D02*
X146369126Y-86894648D01*
X146369126Y-86894648D02*
X146369126Y-86633391D01*
X146369126Y-86633391D02*
X146412669Y-86546305D01*
X146412669Y-86546305D02*
X146456212Y-86502762D01*
X146456212Y-86502762D02*
X146543297Y-86459219D01*
X146543297Y-86459219D02*
X146717469Y-86459219D01*
X146717469Y-86459219D02*
X146804555Y-86502762D01*
X147936669Y-86589848D02*
X148633355Y-86589848D01*
X148633355Y-86851105D02*
X147936669Y-86851105D01*
X150200897Y-86154419D02*
X149765469Y-86154419D01*
X149765469Y-86154419D02*
X149721926Y-86589848D01*
X149721926Y-86589848D02*
X149765469Y-86546305D01*
X149765469Y-86546305D02*
X149852555Y-86502762D01*
X149852555Y-86502762D02*
X150070269Y-86502762D01*
X150070269Y-86502762D02*
X150157355Y-86546305D01*
X150157355Y-86546305D02*
X150200897Y-86589848D01*
X150200897Y-86589848D02*
X150244440Y-86676934D01*
X150244440Y-86676934D02*
X150244440Y-86894648D01*
X150244440Y-86894648D02*
X150200897Y-86981734D01*
X150200897Y-86981734D02*
X150157355Y-87025277D01*
X150157355Y-87025277D02*
X150070269Y-87068819D01*
X150070269Y-87068819D02*
X149852555Y-87068819D01*
X149852555Y-87068819D02*
X149765469Y-87025277D01*
X149765469Y-87025277D02*
X149721926Y-86981734D01*
X150636326Y-86981734D02*
X150679869Y-87025277D01*
X150679869Y-87025277D02*
X150636326Y-87068819D01*
X150636326Y-87068819D02*
X150592783Y-87025277D01*
X150592783Y-87025277D02*
X150636326Y-86981734D01*
X150636326Y-86981734D02*
X150636326Y-87068819D01*
X151115298Y-87068819D02*
X151289469Y-87068819D01*
X151289469Y-87068819D02*
X151376555Y-87025277D01*
X151376555Y-87025277D02*
X151420098Y-86981734D01*
X151420098Y-86981734D02*
X151507183Y-86851105D01*
X151507183Y-86851105D02*
X151550726Y-86676934D01*
X151550726Y-86676934D02*
X151550726Y-86328591D01*
X151550726Y-86328591D02*
X151507183Y-86241505D01*
X151507183Y-86241505D02*
X151463641Y-86197962D01*
X151463641Y-86197962D02*
X151376555Y-86154419D01*
X151376555Y-86154419D02*
X151202383Y-86154419D01*
X151202383Y-86154419D02*
X151115298Y-86197962D01*
X151115298Y-86197962D02*
X151071755Y-86241505D01*
X151071755Y-86241505D02*
X151028212Y-86328591D01*
X151028212Y-86328591D02*
X151028212Y-86546305D01*
X151028212Y-86546305D02*
X151071755Y-86633391D01*
X151071755Y-86633391D02*
X151115298Y-86676934D01*
X151115298Y-86676934D02*
X151202383Y-86720477D01*
X151202383Y-86720477D02*
X151376555Y-86720477D01*
X151376555Y-86720477D02*
X151463641Y-86676934D01*
X151463641Y-86676934D02*
X151507183Y-86633391D01*
X151507183Y-86633391D02*
X151550726Y-86546305D01*
X152073240Y-86546305D02*
X151986155Y-86502762D01*
X151986155Y-86502762D02*
X151942612Y-86459219D01*
X151942612Y-86459219D02*
X151899069Y-86372134D01*
X151899069Y-86372134D02*
X151899069Y-86328591D01*
X151899069Y-86328591D02*
X151942612Y-86241505D01*
X151942612Y-86241505D02*
X151986155Y-86197962D01*
X151986155Y-86197962D02*
X152073240Y-86154419D01*
X152073240Y-86154419D02*
X152247412Y-86154419D01*
X152247412Y-86154419D02*
X152334498Y-86197962D01*
X152334498Y-86197962D02*
X152378040Y-86241505D01*
X152378040Y-86241505D02*
X152421583Y-86328591D01*
X152421583Y-86328591D02*
X152421583Y-86372134D01*
X152421583Y-86372134D02*
X152378040Y-86459219D01*
X152378040Y-86459219D02*
X152334498Y-86502762D01*
X152334498Y-86502762D02*
X152247412Y-86546305D01*
X152247412Y-86546305D02*
X152073240Y-86546305D01*
X152073240Y-86546305D02*
X151986155Y-86589848D01*
X151986155Y-86589848D02*
X151942612Y-86633391D01*
X151942612Y-86633391D02*
X151899069Y-86720477D01*
X151899069Y-86720477D02*
X151899069Y-86894648D01*
X151899069Y-86894648D02*
X151942612Y-86981734D01*
X151942612Y-86981734D02*
X151986155Y-87025277D01*
X151986155Y-87025277D02*
X152073240Y-87068819D01*
X152073240Y-87068819D02*
X152247412Y-87068819D01*
X152247412Y-87068819D02*
X152334498Y-87025277D01*
X152334498Y-87025277D02*
X152378040Y-86981734D01*
X152378040Y-86981734D02*
X152421583Y-86894648D01*
X152421583Y-86894648D02*
X152421583Y-86720477D01*
X152421583Y-86720477D02*
X152378040Y-86633391D01*
X152378040Y-86633391D02*
X152334498Y-86589848D01*
X152334498Y-86589848D02*
X152247412Y-86546305D01*
X153510155Y-87068819D02*
X153510155Y-86459219D01*
X153510155Y-86546305D02*
X153553698Y-86502762D01*
X153553698Y-86502762D02*
X153640783Y-86459219D01*
X153640783Y-86459219D02*
X153771412Y-86459219D01*
X153771412Y-86459219D02*
X153858498Y-86502762D01*
X153858498Y-86502762D02*
X153902041Y-86589848D01*
X153902041Y-86589848D02*
X153902041Y-87068819D01*
X153902041Y-86589848D02*
X153945583Y-86502762D01*
X153945583Y-86502762D02*
X154032669Y-86459219D01*
X154032669Y-86459219D02*
X154163298Y-86459219D01*
X154163298Y-86459219D02*
X154250383Y-86502762D01*
X154250383Y-86502762D02*
X154293926Y-86589848D01*
X154293926Y-86589848D02*
X154293926Y-87068819D01*
X154729355Y-87068819D02*
X154729355Y-86459219D01*
X154729355Y-86154419D02*
X154685812Y-86197962D01*
X154685812Y-86197962D02*
X154729355Y-86241505D01*
X154729355Y-86241505D02*
X154772898Y-86197962D01*
X154772898Y-86197962D02*
X154729355Y-86154419D01*
X154729355Y-86154419D02*
X154729355Y-86241505D01*
X155295412Y-87068819D02*
X155208327Y-87025277D01*
X155208327Y-87025277D02*
X155164784Y-86938191D01*
X155164784Y-86938191D02*
X155164784Y-86154419D01*
X155600212Y-87025277D02*
X155687298Y-87068819D01*
X155687298Y-87068819D02*
X155861469Y-87068819D01*
X155861469Y-87068819D02*
X155948555Y-87025277D01*
X155948555Y-87025277D02*
X155992098Y-86938191D01*
X155992098Y-86938191D02*
X155992098Y-86894648D01*
X155992098Y-86894648D02*
X155948555Y-86807562D01*
X155948555Y-86807562D02*
X155861469Y-86764019D01*
X155861469Y-86764019D02*
X155730841Y-86764019D01*
X155730841Y-86764019D02*
X155643755Y-86720477D01*
X155643755Y-86720477D02*
X155600212Y-86633391D01*
X155600212Y-86633391D02*
X155600212Y-86589848D01*
X155600212Y-86589848D02*
X155643755Y-86502762D01*
X155643755Y-86502762D02*
X155730841Y-86459219D01*
X155730841Y-86459219D02*
X155861469Y-86459219D01*
X155861469Y-86459219D02*
X155948555Y-86502762D01*
X138214378Y-88262619D02*
X138214378Y-87348219D01*
X138649807Y-87653019D02*
X138649807Y-88262619D01*
X138649807Y-87740105D02*
X138693350Y-87696562D01*
X138693350Y-87696562D02*
X138780435Y-87653019D01*
X138780435Y-87653019D02*
X138911064Y-87653019D01*
X138911064Y-87653019D02*
X138998150Y-87696562D01*
X138998150Y-87696562D02*
X139041693Y-87783648D01*
X139041693Y-87783648D02*
X139041693Y-88262619D01*
X139477121Y-87653019D02*
X139477121Y-88262619D01*
X139477121Y-87740105D02*
X139520664Y-87696562D01*
X139520664Y-87696562D02*
X139607749Y-87653019D01*
X139607749Y-87653019D02*
X139738378Y-87653019D01*
X139738378Y-87653019D02*
X139825464Y-87696562D01*
X139825464Y-87696562D02*
X139869007Y-87783648D01*
X139869007Y-87783648D02*
X139869007Y-88262619D01*
X140652778Y-88219077D02*
X140565692Y-88262619D01*
X140565692Y-88262619D02*
X140391521Y-88262619D01*
X140391521Y-88262619D02*
X140304435Y-88219077D01*
X140304435Y-88219077D02*
X140260892Y-88131991D01*
X140260892Y-88131991D02*
X140260892Y-87783648D01*
X140260892Y-87783648D02*
X140304435Y-87696562D01*
X140304435Y-87696562D02*
X140391521Y-87653019D01*
X140391521Y-87653019D02*
X140565692Y-87653019D01*
X140565692Y-87653019D02*
X140652778Y-87696562D01*
X140652778Y-87696562D02*
X140696321Y-87783648D01*
X140696321Y-87783648D02*
X140696321Y-87870734D01*
X140696321Y-87870734D02*
X140260892Y-87957819D01*
X141088206Y-88262619D02*
X141088206Y-87653019D01*
X141088206Y-87827191D02*
X141131749Y-87740105D01*
X141131749Y-87740105D02*
X141175292Y-87696562D01*
X141175292Y-87696562D02*
X141262377Y-87653019D01*
X141262377Y-87653019D02*
X141349463Y-87653019D01*
X142350949Y-88262619D02*
X142350949Y-87348219D01*
X142350949Y-87348219D02*
X142568663Y-87348219D01*
X142568663Y-87348219D02*
X142699292Y-87391762D01*
X142699292Y-87391762D02*
X142786377Y-87478848D01*
X142786377Y-87478848D02*
X142829920Y-87565934D01*
X142829920Y-87565934D02*
X142873463Y-87740105D01*
X142873463Y-87740105D02*
X142873463Y-87870734D01*
X142873463Y-87870734D02*
X142829920Y-88044905D01*
X142829920Y-88044905D02*
X142786377Y-88131991D01*
X142786377Y-88131991D02*
X142699292Y-88219077D01*
X142699292Y-88219077D02*
X142568663Y-88262619D01*
X142568663Y-88262619D02*
X142350949Y-88262619D01*
X143265349Y-88262619D02*
X143265349Y-87653019D01*
X143265349Y-87348219D02*
X143221806Y-87391762D01*
X143221806Y-87391762D02*
X143265349Y-87435305D01*
X143265349Y-87435305D02*
X143308892Y-87391762D01*
X143308892Y-87391762D02*
X143265349Y-87348219D01*
X143265349Y-87348219D02*
X143265349Y-87435305D01*
X144092664Y-88262619D02*
X144092664Y-87783648D01*
X144092664Y-87783648D02*
X144049121Y-87696562D01*
X144049121Y-87696562D02*
X143962035Y-87653019D01*
X143962035Y-87653019D02*
X143787864Y-87653019D01*
X143787864Y-87653019D02*
X143700778Y-87696562D01*
X144092664Y-88219077D02*
X144005578Y-88262619D01*
X144005578Y-88262619D02*
X143787864Y-88262619D01*
X143787864Y-88262619D02*
X143700778Y-88219077D01*
X143700778Y-88219077D02*
X143657235Y-88131991D01*
X143657235Y-88131991D02*
X143657235Y-88044905D01*
X143657235Y-88044905D02*
X143700778Y-87957819D01*
X143700778Y-87957819D02*
X143787864Y-87914277D01*
X143787864Y-87914277D02*
X144005578Y-87914277D01*
X144005578Y-87914277D02*
X144092664Y-87870734D01*
X144528092Y-88262619D02*
X144528092Y-87653019D01*
X144528092Y-87740105D02*
X144571635Y-87696562D01*
X144571635Y-87696562D02*
X144658720Y-87653019D01*
X144658720Y-87653019D02*
X144789349Y-87653019D01*
X144789349Y-87653019D02*
X144876435Y-87696562D01*
X144876435Y-87696562D02*
X144919978Y-87783648D01*
X144919978Y-87783648D02*
X144919978Y-88262619D01*
X144919978Y-87783648D02*
X144963520Y-87696562D01*
X144963520Y-87696562D02*
X145050606Y-87653019D01*
X145050606Y-87653019D02*
X145181235Y-87653019D01*
X145181235Y-87653019D02*
X145268320Y-87696562D01*
X145268320Y-87696562D02*
X145311863Y-87783648D01*
X145311863Y-87783648D02*
X145311863Y-88262619D01*
X146095635Y-88219077D02*
X146008549Y-88262619D01*
X146008549Y-88262619D02*
X145834378Y-88262619D01*
X145834378Y-88262619D02*
X145747292Y-88219077D01*
X145747292Y-88219077D02*
X145703749Y-88131991D01*
X145703749Y-88131991D02*
X145703749Y-87783648D01*
X145703749Y-87783648D02*
X145747292Y-87696562D01*
X145747292Y-87696562D02*
X145834378Y-87653019D01*
X145834378Y-87653019D02*
X146008549Y-87653019D01*
X146008549Y-87653019D02*
X146095635Y-87696562D01*
X146095635Y-87696562D02*
X146139178Y-87783648D01*
X146139178Y-87783648D02*
X146139178Y-87870734D01*
X146139178Y-87870734D02*
X145703749Y-87957819D01*
X146400434Y-87653019D02*
X146748777Y-87653019D01*
X146531063Y-87348219D02*
X146531063Y-88131991D01*
X146531063Y-88131991D02*
X146574606Y-88219077D01*
X146574606Y-88219077D02*
X146661691Y-88262619D01*
X146661691Y-88262619D02*
X146748777Y-88262619D01*
X147401920Y-88219077D02*
X147314834Y-88262619D01*
X147314834Y-88262619D02*
X147140663Y-88262619D01*
X147140663Y-88262619D02*
X147053577Y-88219077D01*
X147053577Y-88219077D02*
X147010034Y-88131991D01*
X147010034Y-88131991D02*
X147010034Y-87783648D01*
X147010034Y-87783648D02*
X147053577Y-87696562D01*
X147053577Y-87696562D02*
X147140663Y-87653019D01*
X147140663Y-87653019D02*
X147314834Y-87653019D01*
X147314834Y-87653019D02*
X147401920Y-87696562D01*
X147401920Y-87696562D02*
X147445463Y-87783648D01*
X147445463Y-87783648D02*
X147445463Y-87870734D01*
X147445463Y-87870734D02*
X147010034Y-87957819D01*
X147837348Y-88262619D02*
X147837348Y-87653019D01*
X147837348Y-87827191D02*
X147880891Y-87740105D01*
X147880891Y-87740105D02*
X147924434Y-87696562D01*
X147924434Y-87696562D02*
X148011519Y-87653019D01*
X148011519Y-87653019D02*
X148098605Y-87653019D01*
X149100091Y-87783648D02*
X149796777Y-87783648D01*
X149796777Y-88044905D02*
X149100091Y-88044905D01*
X151364319Y-87348219D02*
X150928891Y-87348219D01*
X150928891Y-87348219D02*
X150885348Y-87783648D01*
X150885348Y-87783648D02*
X150928891Y-87740105D01*
X150928891Y-87740105D02*
X151015977Y-87696562D01*
X151015977Y-87696562D02*
X151233691Y-87696562D01*
X151233691Y-87696562D02*
X151320777Y-87740105D01*
X151320777Y-87740105D02*
X151364319Y-87783648D01*
X151364319Y-87783648D02*
X151407862Y-87870734D01*
X151407862Y-87870734D02*
X151407862Y-88088448D01*
X151407862Y-88088448D02*
X151364319Y-88175534D01*
X151364319Y-88175534D02*
X151320777Y-88219077D01*
X151320777Y-88219077D02*
X151233691Y-88262619D01*
X151233691Y-88262619D02*
X151015977Y-88262619D01*
X151015977Y-88262619D02*
X150928891Y-88219077D01*
X150928891Y-88219077D02*
X150885348Y-88175534D01*
X151843291Y-88262619D02*
X152017462Y-88262619D01*
X152017462Y-88262619D02*
X152104548Y-88219077D01*
X152104548Y-88219077D02*
X152148091Y-88175534D01*
X152148091Y-88175534D02*
X152235176Y-88044905D01*
X152235176Y-88044905D02*
X152278719Y-87870734D01*
X152278719Y-87870734D02*
X152278719Y-87522391D01*
X152278719Y-87522391D02*
X152235176Y-87435305D01*
X152235176Y-87435305D02*
X152191634Y-87391762D01*
X152191634Y-87391762D02*
X152104548Y-87348219D01*
X152104548Y-87348219D02*
X151930376Y-87348219D01*
X151930376Y-87348219D02*
X151843291Y-87391762D01*
X151843291Y-87391762D02*
X151799748Y-87435305D01*
X151799748Y-87435305D02*
X151756205Y-87522391D01*
X151756205Y-87522391D02*
X151756205Y-87740105D01*
X151756205Y-87740105D02*
X151799748Y-87827191D01*
X151799748Y-87827191D02*
X151843291Y-87870734D01*
X151843291Y-87870734D02*
X151930376Y-87914277D01*
X151930376Y-87914277D02*
X152104548Y-87914277D01*
X152104548Y-87914277D02*
X152191634Y-87870734D01*
X152191634Y-87870734D02*
X152235176Y-87827191D01*
X152235176Y-87827191D02*
X152278719Y-87740105D01*
X152627062Y-87435305D02*
X152670605Y-87391762D01*
X152670605Y-87391762D02*
X152757691Y-87348219D01*
X152757691Y-87348219D02*
X152975405Y-87348219D01*
X152975405Y-87348219D02*
X153062491Y-87391762D01*
X153062491Y-87391762D02*
X153106033Y-87435305D01*
X153106033Y-87435305D02*
X153149576Y-87522391D01*
X153149576Y-87522391D02*
X153149576Y-87609477D01*
X153149576Y-87609477D02*
X153106033Y-87740105D01*
X153106033Y-87740105D02*
X152583519Y-88262619D01*
X152583519Y-88262619D02*
X153149576Y-88262619D01*
X154238148Y-88262619D02*
X154238148Y-87653019D01*
X154238148Y-87740105D02*
X154281691Y-87696562D01*
X154281691Y-87696562D02*
X154368776Y-87653019D01*
X154368776Y-87653019D02*
X154499405Y-87653019D01*
X154499405Y-87653019D02*
X154586491Y-87696562D01*
X154586491Y-87696562D02*
X154630034Y-87783648D01*
X154630034Y-87783648D02*
X154630034Y-88262619D01*
X154630034Y-87783648D02*
X154673576Y-87696562D01*
X154673576Y-87696562D02*
X154760662Y-87653019D01*
X154760662Y-87653019D02*
X154891291Y-87653019D01*
X154891291Y-87653019D02*
X154978376Y-87696562D01*
X154978376Y-87696562D02*
X155021919Y-87783648D01*
X155021919Y-87783648D02*
X155021919Y-88262619D01*
X155457348Y-88262619D02*
X155457348Y-87653019D01*
X155457348Y-87348219D02*
X155413805Y-87391762D01*
X155413805Y-87391762D02*
X155457348Y-87435305D01*
X155457348Y-87435305D02*
X155500891Y-87391762D01*
X155500891Y-87391762D02*
X155457348Y-87348219D01*
X155457348Y-87348219D02*
X155457348Y-87435305D01*
X156023405Y-88262619D02*
X155936320Y-88219077D01*
X155936320Y-88219077D02*
X155892777Y-88131991D01*
X155892777Y-88131991D02*
X155892777Y-87348219D01*
X156328205Y-88219077D02*
X156415291Y-88262619D01*
X156415291Y-88262619D02*
X156589462Y-88262619D01*
X156589462Y-88262619D02*
X156676548Y-88219077D01*
X156676548Y-88219077D02*
X156720091Y-88131991D01*
X156720091Y-88131991D02*
X156720091Y-88088448D01*
X156720091Y-88088448D02*
X156676548Y-88001362D01*
X156676548Y-88001362D02*
X156589462Y-87957819D01*
X156589462Y-87957819D02*
X156458834Y-87957819D01*
X156458834Y-87957819D02*
X156371748Y-87914277D01*
X156371748Y-87914277D02*
X156328205Y-87827191D01*
X156328205Y-87827191D02*
X156328205Y-87783648D01*
X156328205Y-87783648D02*
X156371748Y-87696562D01*
X156371748Y-87696562D02*
X156458834Y-87653019D01*
X156458834Y-87653019D02*
X156589462Y-87653019D01*
X156589462Y-87653019D02*
X156676548Y-87696562D01*
X158069920Y-88610962D02*
X158026377Y-88567419D01*
X158026377Y-88567419D02*
X157939291Y-88436791D01*
X157939291Y-88436791D02*
X157895749Y-88349705D01*
X157895749Y-88349705D02*
X157852206Y-88219077D01*
X157852206Y-88219077D02*
X157808663Y-88001362D01*
X157808663Y-88001362D02*
X157808663Y-87827191D01*
X157808663Y-87827191D02*
X157852206Y-87609477D01*
X157852206Y-87609477D02*
X157895749Y-87478848D01*
X157895749Y-87478848D02*
X157939291Y-87391762D01*
X157939291Y-87391762D02*
X158026377Y-87261134D01*
X158026377Y-87261134D02*
X158069920Y-87217591D01*
X158374720Y-88001362D02*
X158810149Y-88001362D01*
X158287634Y-88262619D02*
X158592434Y-87348219D01*
X158592434Y-87348219D02*
X158897234Y-88262619D01*
X159202034Y-87653019D02*
X159202034Y-88567419D01*
X159202034Y-87696562D02*
X159289120Y-87653019D01*
X159289120Y-87653019D02*
X159463291Y-87653019D01*
X159463291Y-87653019D02*
X159550377Y-87696562D01*
X159550377Y-87696562D02*
X159593920Y-87740105D01*
X159593920Y-87740105D02*
X159637462Y-87827191D01*
X159637462Y-87827191D02*
X159637462Y-88088448D01*
X159637462Y-88088448D02*
X159593920Y-88175534D01*
X159593920Y-88175534D02*
X159550377Y-88219077D01*
X159550377Y-88219077D02*
X159463291Y-88262619D01*
X159463291Y-88262619D02*
X159289120Y-88262619D01*
X159289120Y-88262619D02*
X159202034Y-88219077D01*
X160029348Y-87653019D02*
X160029348Y-88567419D01*
X160029348Y-87696562D02*
X160116434Y-87653019D01*
X160116434Y-87653019D02*
X160290605Y-87653019D01*
X160290605Y-87653019D02*
X160377691Y-87696562D01*
X160377691Y-87696562D02*
X160421234Y-87740105D01*
X160421234Y-87740105D02*
X160464776Y-87827191D01*
X160464776Y-87827191D02*
X160464776Y-88088448D01*
X160464776Y-88088448D02*
X160421234Y-88175534D01*
X160421234Y-88175534D02*
X160377691Y-88219077D01*
X160377691Y-88219077D02*
X160290605Y-88262619D01*
X160290605Y-88262619D02*
X160116434Y-88262619D01*
X160116434Y-88262619D02*
X160029348Y-88219077D01*
X160856662Y-88262619D02*
X160856662Y-87653019D01*
X160856662Y-87827191D02*
X160900205Y-87740105D01*
X160900205Y-87740105D02*
X160943748Y-87696562D01*
X160943748Y-87696562D02*
X161030833Y-87653019D01*
X161030833Y-87653019D02*
X161117919Y-87653019D01*
X161553347Y-88262619D02*
X161466262Y-88219077D01*
X161466262Y-88219077D02*
X161422719Y-88175534D01*
X161422719Y-88175534D02*
X161379176Y-88088448D01*
X161379176Y-88088448D02*
X161379176Y-87827191D01*
X161379176Y-87827191D02*
X161422719Y-87740105D01*
X161422719Y-87740105D02*
X161466262Y-87696562D01*
X161466262Y-87696562D02*
X161553347Y-87653019D01*
X161553347Y-87653019D02*
X161683976Y-87653019D01*
X161683976Y-87653019D02*
X161771062Y-87696562D01*
X161771062Y-87696562D02*
X161814605Y-87740105D01*
X161814605Y-87740105D02*
X161858147Y-87827191D01*
X161858147Y-87827191D02*
X161858147Y-88088448D01*
X161858147Y-88088448D02*
X161814605Y-88175534D01*
X161814605Y-88175534D02*
X161771062Y-88219077D01*
X161771062Y-88219077D02*
X161683976Y-88262619D01*
X161683976Y-88262619D02*
X161553347Y-88262619D01*
X162162947Y-88262619D02*
X162641919Y-87653019D01*
X162162947Y-87653019D02*
X162641919Y-88262619D01*
X162990262Y-88175534D02*
X163033805Y-88219077D01*
X163033805Y-88219077D02*
X162990262Y-88262619D01*
X162990262Y-88262619D02*
X162946719Y-88219077D01*
X162946719Y-88219077D02*
X162990262Y-88175534D01*
X162990262Y-88175534D02*
X162990262Y-88262619D01*
X163338605Y-88610962D02*
X163382148Y-88567419D01*
X163382148Y-88567419D02*
X163469234Y-88436791D01*
X163469234Y-88436791D02*
X163512777Y-88349705D01*
X163512777Y-88349705D02*
X163556319Y-88219077D01*
X163556319Y-88219077D02*
X163599862Y-88001362D01*
X163599862Y-88001362D02*
X163599862Y-87827191D01*
X163599862Y-87827191D02*
X163556319Y-87609477D01*
X163556319Y-87609477D02*
X163512777Y-87478848D01*
X163512777Y-87478848D02*
X163469234Y-87391762D01*
X163469234Y-87391762D02*
X163382148Y-87261134D01*
X163382148Y-87261134D02*
X163338605Y-87217591D01*
X137411635Y-81038134D02*
X137368092Y-81081677D01*
X137368092Y-81081677D02*
X137237464Y-81125219D01*
X137237464Y-81125219D02*
X137150378Y-81125219D01*
X137150378Y-81125219D02*
X137019749Y-81081677D01*
X137019749Y-81081677D02*
X136932664Y-80994591D01*
X136932664Y-80994591D02*
X136889121Y-80907505D01*
X136889121Y-80907505D02*
X136845578Y-80733334D01*
X136845578Y-80733334D02*
X136845578Y-80602705D01*
X136845578Y-80602705D02*
X136889121Y-80428534D01*
X136889121Y-80428534D02*
X136932664Y-80341448D01*
X136932664Y-80341448D02*
X137019749Y-80254362D01*
X137019749Y-80254362D02*
X137150378Y-80210819D01*
X137150378Y-80210819D02*
X137237464Y-80210819D01*
X137237464Y-80210819D02*
X137368092Y-80254362D01*
X137368092Y-80254362D02*
X137411635Y-80297905D01*
X137934149Y-81125219D02*
X137847064Y-81081677D01*
X137847064Y-81081677D02*
X137803521Y-81038134D01*
X137803521Y-81038134D02*
X137759978Y-80951048D01*
X137759978Y-80951048D02*
X137759978Y-80689791D01*
X137759978Y-80689791D02*
X137803521Y-80602705D01*
X137803521Y-80602705D02*
X137847064Y-80559162D01*
X137847064Y-80559162D02*
X137934149Y-80515619D01*
X137934149Y-80515619D02*
X138064778Y-80515619D01*
X138064778Y-80515619D02*
X138151864Y-80559162D01*
X138151864Y-80559162D02*
X138195407Y-80602705D01*
X138195407Y-80602705D02*
X138238949Y-80689791D01*
X138238949Y-80689791D02*
X138238949Y-80951048D01*
X138238949Y-80951048D02*
X138195407Y-81038134D01*
X138195407Y-81038134D02*
X138151864Y-81081677D01*
X138151864Y-81081677D02*
X138064778Y-81125219D01*
X138064778Y-81125219D02*
X137934149Y-81125219D01*
X138630835Y-81125219D02*
X138630835Y-80515619D01*
X138630835Y-80210819D02*
X138587292Y-80254362D01*
X138587292Y-80254362D02*
X138630835Y-80297905D01*
X138630835Y-80297905D02*
X138674378Y-80254362D01*
X138674378Y-80254362D02*
X138630835Y-80210819D01*
X138630835Y-80210819D02*
X138630835Y-80297905D01*
X139196892Y-81125219D02*
X139109807Y-81081677D01*
X139109807Y-81081677D02*
X139066264Y-80994591D01*
X139066264Y-80994591D02*
X139066264Y-80210819D01*
X140241921Y-81125219D02*
X140241921Y-80210819D01*
X140241921Y-80210819D02*
X140590264Y-80210819D01*
X140590264Y-80210819D02*
X140677349Y-80254362D01*
X140677349Y-80254362D02*
X140720892Y-80297905D01*
X140720892Y-80297905D02*
X140764435Y-80384991D01*
X140764435Y-80384991D02*
X140764435Y-80515619D01*
X140764435Y-80515619D02*
X140720892Y-80602705D01*
X140720892Y-80602705D02*
X140677349Y-80646248D01*
X140677349Y-80646248D02*
X140590264Y-80689791D01*
X140590264Y-80689791D02*
X140241921Y-80689791D01*
X141548207Y-81125219D02*
X141548207Y-80646248D01*
X141548207Y-80646248D02*
X141504664Y-80559162D01*
X141504664Y-80559162D02*
X141417578Y-80515619D01*
X141417578Y-80515619D02*
X141243407Y-80515619D01*
X141243407Y-80515619D02*
X141156321Y-80559162D01*
X141548207Y-81081677D02*
X141461121Y-81125219D01*
X141461121Y-81125219D02*
X141243407Y-81125219D01*
X141243407Y-81125219D02*
X141156321Y-81081677D01*
X141156321Y-81081677D02*
X141112778Y-80994591D01*
X141112778Y-80994591D02*
X141112778Y-80907505D01*
X141112778Y-80907505D02*
X141156321Y-80820419D01*
X141156321Y-80820419D02*
X141243407Y-80776877D01*
X141243407Y-80776877D02*
X141461121Y-80776877D01*
X141461121Y-80776877D02*
X141548207Y-80733334D01*
X141983635Y-81125219D02*
X141983635Y-80515619D01*
X141983635Y-80689791D02*
X142027178Y-80602705D01*
X142027178Y-80602705D02*
X142070721Y-80559162D01*
X142070721Y-80559162D02*
X142157806Y-80515619D01*
X142157806Y-80515619D02*
X142244892Y-80515619D01*
X142941578Y-81125219D02*
X142941578Y-80646248D01*
X142941578Y-80646248D02*
X142898035Y-80559162D01*
X142898035Y-80559162D02*
X142810949Y-80515619D01*
X142810949Y-80515619D02*
X142636778Y-80515619D01*
X142636778Y-80515619D02*
X142549692Y-80559162D01*
X142941578Y-81081677D02*
X142854492Y-81125219D01*
X142854492Y-81125219D02*
X142636778Y-81125219D01*
X142636778Y-81125219D02*
X142549692Y-81081677D01*
X142549692Y-81081677D02*
X142506149Y-80994591D01*
X142506149Y-80994591D02*
X142506149Y-80907505D01*
X142506149Y-80907505D02*
X142549692Y-80820419D01*
X142549692Y-80820419D02*
X142636778Y-80776877D01*
X142636778Y-80776877D02*
X142854492Y-80776877D01*
X142854492Y-80776877D02*
X142941578Y-80733334D01*
X143377006Y-81125219D02*
X143377006Y-80515619D01*
X143377006Y-80602705D02*
X143420549Y-80559162D01*
X143420549Y-80559162D02*
X143507634Y-80515619D01*
X143507634Y-80515619D02*
X143638263Y-80515619D01*
X143638263Y-80515619D02*
X143725349Y-80559162D01*
X143725349Y-80559162D02*
X143768892Y-80646248D01*
X143768892Y-80646248D02*
X143768892Y-81125219D01*
X143768892Y-80646248D02*
X143812434Y-80559162D01*
X143812434Y-80559162D02*
X143899520Y-80515619D01*
X143899520Y-80515619D02*
X144030149Y-80515619D01*
X144030149Y-80515619D02*
X144117234Y-80559162D01*
X144117234Y-80559162D02*
X144160777Y-80646248D01*
X144160777Y-80646248D02*
X144160777Y-81125219D01*
X144944549Y-81081677D02*
X144857463Y-81125219D01*
X144857463Y-81125219D02*
X144683292Y-81125219D01*
X144683292Y-81125219D02*
X144596206Y-81081677D01*
X144596206Y-81081677D02*
X144552663Y-80994591D01*
X144552663Y-80994591D02*
X144552663Y-80646248D01*
X144552663Y-80646248D02*
X144596206Y-80559162D01*
X144596206Y-80559162D02*
X144683292Y-80515619D01*
X144683292Y-80515619D02*
X144857463Y-80515619D01*
X144857463Y-80515619D02*
X144944549Y-80559162D01*
X144944549Y-80559162D02*
X144988092Y-80646248D01*
X144988092Y-80646248D02*
X144988092Y-80733334D01*
X144988092Y-80733334D02*
X144552663Y-80820419D01*
X145249348Y-80515619D02*
X145597691Y-80515619D01*
X145379977Y-80210819D02*
X145379977Y-80994591D01*
X145379977Y-80994591D02*
X145423520Y-81081677D01*
X145423520Y-81081677D02*
X145510605Y-81125219D01*
X145510605Y-81125219D02*
X145597691Y-81125219D01*
X146250834Y-81081677D02*
X146163748Y-81125219D01*
X146163748Y-81125219D02*
X145989577Y-81125219D01*
X145989577Y-81125219D02*
X145902491Y-81081677D01*
X145902491Y-81081677D02*
X145858948Y-80994591D01*
X145858948Y-80994591D02*
X145858948Y-80646248D01*
X145858948Y-80646248D02*
X145902491Y-80559162D01*
X145902491Y-80559162D02*
X145989577Y-80515619D01*
X145989577Y-80515619D02*
X146163748Y-80515619D01*
X146163748Y-80515619D02*
X146250834Y-80559162D01*
X146250834Y-80559162D02*
X146294377Y-80646248D01*
X146294377Y-80646248D02*
X146294377Y-80733334D01*
X146294377Y-80733334D02*
X145858948Y-80820419D01*
X146686262Y-81125219D02*
X146686262Y-80515619D01*
X146686262Y-80689791D02*
X146729805Y-80602705D01*
X146729805Y-80602705D02*
X146773348Y-80559162D01*
X146773348Y-80559162D02*
X146860433Y-80515619D01*
X146860433Y-80515619D02*
X146947519Y-80515619D01*
X147208776Y-81081677D02*
X147295862Y-81125219D01*
X147295862Y-81125219D02*
X147470033Y-81125219D01*
X147470033Y-81125219D02*
X147557119Y-81081677D01*
X147557119Y-81081677D02*
X147600662Y-80994591D01*
X147600662Y-80994591D02*
X147600662Y-80951048D01*
X147600662Y-80951048D02*
X147557119Y-80863962D01*
X147557119Y-80863962D02*
X147470033Y-80820419D01*
X147470033Y-80820419D02*
X147339405Y-80820419D01*
X147339405Y-80820419D02*
X147252319Y-80776877D01*
X147252319Y-80776877D02*
X147208776Y-80689791D01*
X147208776Y-80689791D02*
X147208776Y-80646248D01*
X147208776Y-80646248D02*
X147252319Y-80559162D01*
X147252319Y-80559162D02*
X147339405Y-80515619D01*
X147339405Y-80515619D02*
X147470033Y-80515619D01*
X147470033Y-80515619D02*
X147557119Y-80559162D01*
X136944213Y-83512819D02*
X136508785Y-83512819D01*
X136508785Y-83512819D02*
X136508785Y-82598419D01*
X137640900Y-83512819D02*
X137640900Y-83033848D01*
X137640900Y-83033848D02*
X137597357Y-82946762D01*
X137597357Y-82946762D02*
X137510271Y-82903219D01*
X137510271Y-82903219D02*
X137336100Y-82903219D01*
X137336100Y-82903219D02*
X137249014Y-82946762D01*
X137640900Y-83469277D02*
X137553814Y-83512819D01*
X137553814Y-83512819D02*
X137336100Y-83512819D01*
X137336100Y-83512819D02*
X137249014Y-83469277D01*
X137249014Y-83469277D02*
X137205471Y-83382191D01*
X137205471Y-83382191D02*
X137205471Y-83295105D01*
X137205471Y-83295105D02*
X137249014Y-83208019D01*
X137249014Y-83208019D02*
X137336100Y-83164477D01*
X137336100Y-83164477D02*
X137553814Y-83164477D01*
X137553814Y-83164477D02*
X137640900Y-83120934D01*
X137989242Y-82903219D02*
X138206956Y-83512819D01*
X138424671Y-82903219D02*
X138206956Y-83512819D01*
X138206956Y-83512819D02*
X138119871Y-83730534D01*
X138119871Y-83730534D02*
X138076328Y-83774077D01*
X138076328Y-83774077D02*
X137989242Y-83817619D01*
X139121357Y-83469277D02*
X139034271Y-83512819D01*
X139034271Y-83512819D02*
X138860100Y-83512819D01*
X138860100Y-83512819D02*
X138773014Y-83469277D01*
X138773014Y-83469277D02*
X138729471Y-83382191D01*
X138729471Y-83382191D02*
X138729471Y-83033848D01*
X138729471Y-83033848D02*
X138773014Y-82946762D01*
X138773014Y-82946762D02*
X138860100Y-82903219D01*
X138860100Y-82903219D02*
X139034271Y-82903219D01*
X139034271Y-82903219D02*
X139121357Y-82946762D01*
X139121357Y-82946762D02*
X139164900Y-83033848D01*
X139164900Y-83033848D02*
X139164900Y-83120934D01*
X139164900Y-83120934D02*
X138729471Y-83208019D01*
X139556785Y-83512819D02*
X139556785Y-82903219D01*
X139556785Y-83077391D02*
X139600328Y-82990305D01*
X139600328Y-82990305D02*
X139643871Y-82946762D01*
X139643871Y-82946762D02*
X139730956Y-82903219D01*
X139730956Y-82903219D02*
X139818042Y-82903219D01*
X140079299Y-83469277D02*
X140166385Y-83512819D01*
X140166385Y-83512819D02*
X140340556Y-83512819D01*
X140340556Y-83512819D02*
X140427642Y-83469277D01*
X140427642Y-83469277D02*
X140471185Y-83382191D01*
X140471185Y-83382191D02*
X140471185Y-83338648D01*
X140471185Y-83338648D02*
X140427642Y-83251562D01*
X140427642Y-83251562D02*
X140340556Y-83208019D01*
X140340556Y-83208019D02*
X140209928Y-83208019D01*
X140209928Y-83208019D02*
X140122842Y-83164477D01*
X140122842Y-83164477D02*
X140079299Y-83077391D01*
X140079299Y-83077391D02*
X140079299Y-83033848D01*
X140079299Y-83033848D02*
X140122842Y-82946762D01*
X140122842Y-82946762D02*
X140209928Y-82903219D01*
X140209928Y-82903219D02*
X140340556Y-82903219D01*
X140340556Y-82903219D02*
X140427642Y-82946762D01*
X141559757Y-83033848D02*
X142256443Y-83033848D01*
X142256443Y-83295105D02*
X141559757Y-83295105D01*
X143780443Y-82903219D02*
X143780443Y-83512819D01*
X143562728Y-82554877D02*
X143345014Y-83208019D01*
X143345014Y-83208019D02*
X143911071Y-83208019D01*
X138225143Y-88542019D02*
X138399315Y-88542019D01*
X138399315Y-88542019D02*
X138486400Y-88585562D01*
X138486400Y-88585562D02*
X138573486Y-88672648D01*
X138573486Y-88672648D02*
X138617029Y-88846819D01*
X138617029Y-88846819D02*
X138617029Y-89151619D01*
X138617029Y-89151619D02*
X138573486Y-89325791D01*
X138573486Y-89325791D02*
X138486400Y-89412877D01*
X138486400Y-89412877D02*
X138399315Y-89456419D01*
X138399315Y-89456419D02*
X138225143Y-89456419D01*
X138225143Y-89456419D02*
X138138058Y-89412877D01*
X138138058Y-89412877D02*
X138050972Y-89325791D01*
X138050972Y-89325791D02*
X138007429Y-89151619D01*
X138007429Y-89151619D02*
X138007429Y-88846819D01*
X138007429Y-88846819D02*
X138050972Y-88672648D01*
X138050972Y-88672648D02*
X138138058Y-88585562D01*
X138138058Y-88585562D02*
X138225143Y-88542019D01*
X139400801Y-88846819D02*
X139400801Y-89456419D01*
X139008915Y-88846819D02*
X139008915Y-89325791D01*
X139008915Y-89325791D02*
X139052458Y-89412877D01*
X139052458Y-89412877D02*
X139139543Y-89456419D01*
X139139543Y-89456419D02*
X139270172Y-89456419D01*
X139270172Y-89456419D02*
X139357258Y-89412877D01*
X139357258Y-89412877D02*
X139400801Y-89369334D01*
X139705600Y-88846819D02*
X140053943Y-88846819D01*
X139836229Y-88542019D02*
X139836229Y-89325791D01*
X139836229Y-89325791D02*
X139879772Y-89412877D01*
X139879772Y-89412877D02*
X139966857Y-89456419D01*
X139966857Y-89456419D02*
X140053943Y-89456419D01*
X140707086Y-89412877D02*
X140620000Y-89456419D01*
X140620000Y-89456419D02*
X140445829Y-89456419D01*
X140445829Y-89456419D02*
X140358743Y-89412877D01*
X140358743Y-89412877D02*
X140315200Y-89325791D01*
X140315200Y-89325791D02*
X140315200Y-88977448D01*
X140315200Y-88977448D02*
X140358743Y-88890362D01*
X140358743Y-88890362D02*
X140445829Y-88846819D01*
X140445829Y-88846819D02*
X140620000Y-88846819D01*
X140620000Y-88846819D02*
X140707086Y-88890362D01*
X140707086Y-88890362D02*
X140750629Y-88977448D01*
X140750629Y-88977448D02*
X140750629Y-89064534D01*
X140750629Y-89064534D02*
X140315200Y-89151619D01*
X141142514Y-89456419D02*
X141142514Y-88846819D01*
X141142514Y-89020991D02*
X141186057Y-88933905D01*
X141186057Y-88933905D02*
X141229600Y-88890362D01*
X141229600Y-88890362D02*
X141316685Y-88846819D01*
X141316685Y-88846819D02*
X141403771Y-88846819D01*
X142405257Y-89456419D02*
X142405257Y-88542019D01*
X142405257Y-88542019D02*
X142622971Y-88542019D01*
X142622971Y-88542019D02*
X142753600Y-88585562D01*
X142753600Y-88585562D02*
X142840685Y-88672648D01*
X142840685Y-88672648D02*
X142884228Y-88759734D01*
X142884228Y-88759734D02*
X142927771Y-88933905D01*
X142927771Y-88933905D02*
X142927771Y-89064534D01*
X142927771Y-89064534D02*
X142884228Y-89238705D01*
X142884228Y-89238705D02*
X142840685Y-89325791D01*
X142840685Y-89325791D02*
X142753600Y-89412877D01*
X142753600Y-89412877D02*
X142622971Y-89456419D01*
X142622971Y-89456419D02*
X142405257Y-89456419D01*
X143319657Y-89456419D02*
X143319657Y-88846819D01*
X143319657Y-88542019D02*
X143276114Y-88585562D01*
X143276114Y-88585562D02*
X143319657Y-88629105D01*
X143319657Y-88629105D02*
X143363200Y-88585562D01*
X143363200Y-88585562D02*
X143319657Y-88542019D01*
X143319657Y-88542019D02*
X143319657Y-88629105D01*
X144146972Y-89456419D02*
X144146972Y-88977448D01*
X144146972Y-88977448D02*
X144103429Y-88890362D01*
X144103429Y-88890362D02*
X144016343Y-88846819D01*
X144016343Y-88846819D02*
X143842172Y-88846819D01*
X143842172Y-88846819D02*
X143755086Y-88890362D01*
X144146972Y-89412877D02*
X144059886Y-89456419D01*
X144059886Y-89456419D02*
X143842172Y-89456419D01*
X143842172Y-89456419D02*
X143755086Y-89412877D01*
X143755086Y-89412877D02*
X143711543Y-89325791D01*
X143711543Y-89325791D02*
X143711543Y-89238705D01*
X143711543Y-89238705D02*
X143755086Y-89151619D01*
X143755086Y-89151619D02*
X143842172Y-89108077D01*
X143842172Y-89108077D02*
X144059886Y-89108077D01*
X144059886Y-89108077D02*
X144146972Y-89064534D01*
X144582400Y-89456419D02*
X144582400Y-88846819D01*
X144582400Y-88933905D02*
X144625943Y-88890362D01*
X144625943Y-88890362D02*
X144713028Y-88846819D01*
X144713028Y-88846819D02*
X144843657Y-88846819D01*
X144843657Y-88846819D02*
X144930743Y-88890362D01*
X144930743Y-88890362D02*
X144974286Y-88977448D01*
X144974286Y-88977448D02*
X144974286Y-89456419D01*
X144974286Y-88977448D02*
X145017828Y-88890362D01*
X145017828Y-88890362D02*
X145104914Y-88846819D01*
X145104914Y-88846819D02*
X145235543Y-88846819D01*
X145235543Y-88846819D02*
X145322628Y-88890362D01*
X145322628Y-88890362D02*
X145366171Y-88977448D01*
X145366171Y-88977448D02*
X145366171Y-89456419D01*
X146149943Y-89412877D02*
X146062857Y-89456419D01*
X146062857Y-89456419D02*
X145888686Y-89456419D01*
X145888686Y-89456419D02*
X145801600Y-89412877D01*
X145801600Y-89412877D02*
X145758057Y-89325791D01*
X145758057Y-89325791D02*
X145758057Y-88977448D01*
X145758057Y-88977448D02*
X145801600Y-88890362D01*
X145801600Y-88890362D02*
X145888686Y-88846819D01*
X145888686Y-88846819D02*
X146062857Y-88846819D01*
X146062857Y-88846819D02*
X146149943Y-88890362D01*
X146149943Y-88890362D02*
X146193486Y-88977448D01*
X146193486Y-88977448D02*
X146193486Y-89064534D01*
X146193486Y-89064534D02*
X145758057Y-89151619D01*
X146454742Y-88846819D02*
X146803085Y-88846819D01*
X146585371Y-88542019D02*
X146585371Y-89325791D01*
X146585371Y-89325791D02*
X146628914Y-89412877D01*
X146628914Y-89412877D02*
X146715999Y-89456419D01*
X146715999Y-89456419D02*
X146803085Y-89456419D01*
X147456228Y-89412877D02*
X147369142Y-89456419D01*
X147369142Y-89456419D02*
X147194971Y-89456419D01*
X147194971Y-89456419D02*
X147107885Y-89412877D01*
X147107885Y-89412877D02*
X147064342Y-89325791D01*
X147064342Y-89325791D02*
X147064342Y-88977448D01*
X147064342Y-88977448D02*
X147107885Y-88890362D01*
X147107885Y-88890362D02*
X147194971Y-88846819D01*
X147194971Y-88846819D02*
X147369142Y-88846819D01*
X147369142Y-88846819D02*
X147456228Y-88890362D01*
X147456228Y-88890362D02*
X147499771Y-88977448D01*
X147499771Y-88977448D02*
X147499771Y-89064534D01*
X147499771Y-89064534D02*
X147064342Y-89151619D01*
X147891656Y-89456419D02*
X147891656Y-88846819D01*
X147891656Y-89020991D02*
X147935199Y-88933905D01*
X147935199Y-88933905D02*
X147978742Y-88890362D01*
X147978742Y-88890362D02*
X148065827Y-88846819D01*
X148065827Y-88846819D02*
X148152913Y-88846819D01*
X149154399Y-88977448D02*
X149851085Y-88977448D01*
X149851085Y-89238705D02*
X149154399Y-89238705D01*
X151462170Y-89456419D02*
X150939656Y-89456419D01*
X151200913Y-89456419D02*
X151200913Y-88542019D01*
X151200913Y-88542019D02*
X151113827Y-88672648D01*
X151113827Y-88672648D02*
X151026742Y-88759734D01*
X151026742Y-88759734D02*
X150939656Y-88803277D01*
X152245942Y-88542019D02*
X152071770Y-88542019D01*
X152071770Y-88542019D02*
X151984684Y-88585562D01*
X151984684Y-88585562D02*
X151941142Y-88629105D01*
X151941142Y-88629105D02*
X151854056Y-88759734D01*
X151854056Y-88759734D02*
X151810513Y-88933905D01*
X151810513Y-88933905D02*
X151810513Y-89282248D01*
X151810513Y-89282248D02*
X151854056Y-89369334D01*
X151854056Y-89369334D02*
X151897599Y-89412877D01*
X151897599Y-89412877D02*
X151984684Y-89456419D01*
X151984684Y-89456419D02*
X152158856Y-89456419D01*
X152158856Y-89456419D02*
X152245942Y-89412877D01*
X152245942Y-89412877D02*
X152289484Y-89369334D01*
X152289484Y-89369334D02*
X152333027Y-89282248D01*
X152333027Y-89282248D02*
X152333027Y-89064534D01*
X152333027Y-89064534D02*
X152289484Y-88977448D01*
X152289484Y-88977448D02*
X152245942Y-88933905D01*
X152245942Y-88933905D02*
X152158856Y-88890362D01*
X152158856Y-88890362D02*
X151984684Y-88890362D01*
X151984684Y-88890362D02*
X151897599Y-88933905D01*
X151897599Y-88933905D02*
X151854056Y-88977448D01*
X151854056Y-88977448D02*
X151810513Y-89064534D01*
X152899084Y-88542019D02*
X152986170Y-88542019D01*
X152986170Y-88542019D02*
X153073256Y-88585562D01*
X153073256Y-88585562D02*
X153116799Y-88629105D01*
X153116799Y-88629105D02*
X153160341Y-88716191D01*
X153160341Y-88716191D02*
X153203884Y-88890362D01*
X153203884Y-88890362D02*
X153203884Y-89108077D01*
X153203884Y-89108077D02*
X153160341Y-89282248D01*
X153160341Y-89282248D02*
X153116799Y-89369334D01*
X153116799Y-89369334D02*
X153073256Y-89412877D01*
X153073256Y-89412877D02*
X152986170Y-89456419D01*
X152986170Y-89456419D02*
X152899084Y-89456419D01*
X152899084Y-89456419D02*
X152811999Y-89412877D01*
X152811999Y-89412877D02*
X152768456Y-89369334D01*
X152768456Y-89369334D02*
X152724913Y-89282248D01*
X152724913Y-89282248D02*
X152681370Y-89108077D01*
X152681370Y-89108077D02*
X152681370Y-88890362D01*
X152681370Y-88890362D02*
X152724913Y-88716191D01*
X152724913Y-88716191D02*
X152768456Y-88629105D01*
X152768456Y-88629105D02*
X152811999Y-88585562D01*
X152811999Y-88585562D02*
X152899084Y-88542019D01*
X153769941Y-88542019D02*
X153857027Y-88542019D01*
X153857027Y-88542019D02*
X153944113Y-88585562D01*
X153944113Y-88585562D02*
X153987656Y-88629105D01*
X153987656Y-88629105D02*
X154031198Y-88716191D01*
X154031198Y-88716191D02*
X154074741Y-88890362D01*
X154074741Y-88890362D02*
X154074741Y-89108077D01*
X154074741Y-89108077D02*
X154031198Y-89282248D01*
X154031198Y-89282248D02*
X153987656Y-89369334D01*
X153987656Y-89369334D02*
X153944113Y-89412877D01*
X153944113Y-89412877D02*
X153857027Y-89456419D01*
X153857027Y-89456419D02*
X153769941Y-89456419D01*
X153769941Y-89456419D02*
X153682856Y-89412877D01*
X153682856Y-89412877D02*
X153639313Y-89369334D01*
X153639313Y-89369334D02*
X153595770Y-89282248D01*
X153595770Y-89282248D02*
X153552227Y-89108077D01*
X153552227Y-89108077D02*
X153552227Y-88890362D01*
X153552227Y-88890362D02*
X153595770Y-88716191D01*
X153595770Y-88716191D02*
X153639313Y-88629105D01*
X153639313Y-88629105D02*
X153682856Y-88585562D01*
X153682856Y-88585562D02*
X153769941Y-88542019D01*
X155163313Y-89456419D02*
X155163313Y-88846819D01*
X155163313Y-88933905D02*
X155206856Y-88890362D01*
X155206856Y-88890362D02*
X155293941Y-88846819D01*
X155293941Y-88846819D02*
X155424570Y-88846819D01*
X155424570Y-88846819D02*
X155511656Y-88890362D01*
X155511656Y-88890362D02*
X155555199Y-88977448D01*
X155555199Y-88977448D02*
X155555199Y-89456419D01*
X155555199Y-88977448D02*
X155598741Y-88890362D01*
X155598741Y-88890362D02*
X155685827Y-88846819D01*
X155685827Y-88846819D02*
X155816456Y-88846819D01*
X155816456Y-88846819D02*
X155903541Y-88890362D01*
X155903541Y-88890362D02*
X155947084Y-88977448D01*
X155947084Y-88977448D02*
X155947084Y-89456419D01*
X156382513Y-89456419D02*
X156382513Y-88846819D01*
X156382513Y-88542019D02*
X156338970Y-88585562D01*
X156338970Y-88585562D02*
X156382513Y-88629105D01*
X156382513Y-88629105D02*
X156426056Y-88585562D01*
X156426056Y-88585562D02*
X156382513Y-88542019D01*
X156382513Y-88542019D02*
X156382513Y-88629105D01*
X156948570Y-89456419D02*
X156861485Y-89412877D01*
X156861485Y-89412877D02*
X156817942Y-89325791D01*
X156817942Y-89325791D02*
X156817942Y-88542019D01*
X157253370Y-89412877D02*
X157340456Y-89456419D01*
X157340456Y-89456419D02*
X157514627Y-89456419D01*
X157514627Y-89456419D02*
X157601713Y-89412877D01*
X157601713Y-89412877D02*
X157645256Y-89325791D01*
X157645256Y-89325791D02*
X157645256Y-89282248D01*
X157645256Y-89282248D02*
X157601713Y-89195162D01*
X157601713Y-89195162D02*
X157514627Y-89151619D01*
X157514627Y-89151619D02*
X157383999Y-89151619D01*
X157383999Y-89151619D02*
X157296913Y-89108077D01*
X157296913Y-89108077D02*
X157253370Y-89020991D01*
X157253370Y-89020991D02*
X157253370Y-88977448D01*
X157253370Y-88977448D02*
X157296913Y-88890362D01*
X157296913Y-88890362D02*
X157383999Y-88846819D01*
X157383999Y-88846819D02*
X157514627Y-88846819D01*
X157514627Y-88846819D02*
X157601713Y-88890362D01*
X158995085Y-89804762D02*
X158951542Y-89761219D01*
X158951542Y-89761219D02*
X158864456Y-89630591D01*
X158864456Y-89630591D02*
X158820914Y-89543505D01*
X158820914Y-89543505D02*
X158777371Y-89412877D01*
X158777371Y-89412877D02*
X158733828Y-89195162D01*
X158733828Y-89195162D02*
X158733828Y-89020991D01*
X158733828Y-89020991D02*
X158777371Y-88803277D01*
X158777371Y-88803277D02*
X158820914Y-88672648D01*
X158820914Y-88672648D02*
X158864456Y-88585562D01*
X158864456Y-88585562D02*
X158951542Y-88454934D01*
X158951542Y-88454934D02*
X158995085Y-88411391D01*
X159299885Y-89195162D02*
X159735314Y-89195162D01*
X159212799Y-89456419D02*
X159517599Y-88542019D01*
X159517599Y-88542019D02*
X159822399Y-89456419D01*
X160127199Y-88846819D02*
X160127199Y-89761219D01*
X160127199Y-88890362D02*
X160214285Y-88846819D01*
X160214285Y-88846819D02*
X160388456Y-88846819D01*
X160388456Y-88846819D02*
X160475542Y-88890362D01*
X160475542Y-88890362D02*
X160519085Y-88933905D01*
X160519085Y-88933905D02*
X160562627Y-89020991D01*
X160562627Y-89020991D02*
X160562627Y-89282248D01*
X160562627Y-89282248D02*
X160519085Y-89369334D01*
X160519085Y-89369334D02*
X160475542Y-89412877D01*
X160475542Y-89412877D02*
X160388456Y-89456419D01*
X160388456Y-89456419D02*
X160214285Y-89456419D01*
X160214285Y-89456419D02*
X160127199Y-89412877D01*
X160954513Y-88846819D02*
X160954513Y-89761219D01*
X160954513Y-88890362D02*
X161041599Y-88846819D01*
X161041599Y-88846819D02*
X161215770Y-88846819D01*
X161215770Y-88846819D02*
X161302856Y-88890362D01*
X161302856Y-88890362D02*
X161346399Y-88933905D01*
X161346399Y-88933905D02*
X161389941Y-89020991D01*
X161389941Y-89020991D02*
X161389941Y-89282248D01*
X161389941Y-89282248D02*
X161346399Y-89369334D01*
X161346399Y-89369334D02*
X161302856Y-89412877D01*
X161302856Y-89412877D02*
X161215770Y-89456419D01*
X161215770Y-89456419D02*
X161041599Y-89456419D01*
X161041599Y-89456419D02*
X160954513Y-89412877D01*
X161781827Y-89456419D02*
X161781827Y-88846819D01*
X161781827Y-89020991D02*
X161825370Y-88933905D01*
X161825370Y-88933905D02*
X161868913Y-88890362D01*
X161868913Y-88890362D02*
X161955998Y-88846819D01*
X161955998Y-88846819D02*
X162043084Y-88846819D01*
X162478512Y-89456419D02*
X162391427Y-89412877D01*
X162391427Y-89412877D02*
X162347884Y-89369334D01*
X162347884Y-89369334D02*
X162304341Y-89282248D01*
X162304341Y-89282248D02*
X162304341Y-89020991D01*
X162304341Y-89020991D02*
X162347884Y-88933905D01*
X162347884Y-88933905D02*
X162391427Y-88890362D01*
X162391427Y-88890362D02*
X162478512Y-88846819D01*
X162478512Y-88846819D02*
X162609141Y-88846819D01*
X162609141Y-88846819D02*
X162696227Y-88890362D01*
X162696227Y-88890362D02*
X162739770Y-88933905D01*
X162739770Y-88933905D02*
X162783312Y-89020991D01*
X162783312Y-89020991D02*
X162783312Y-89282248D01*
X162783312Y-89282248D02*
X162739770Y-89369334D01*
X162739770Y-89369334D02*
X162696227Y-89412877D01*
X162696227Y-89412877D02*
X162609141Y-89456419D01*
X162609141Y-89456419D02*
X162478512Y-89456419D01*
X163088112Y-89456419D02*
X163567084Y-88846819D01*
X163088112Y-88846819D02*
X163567084Y-89456419D01*
X163915427Y-89369334D02*
X163958970Y-89412877D01*
X163958970Y-89412877D02*
X163915427Y-89456419D01*
X163915427Y-89456419D02*
X163871884Y-89412877D01*
X163871884Y-89412877D02*
X163915427Y-89369334D01*
X163915427Y-89369334D02*
X163915427Y-89456419D01*
X164263770Y-89804762D02*
X164307313Y-89761219D01*
X164307313Y-89761219D02*
X164394399Y-89630591D01*
X164394399Y-89630591D02*
X164437942Y-89543505D01*
X164437942Y-89543505D02*
X164481484Y-89412877D01*
X164481484Y-89412877D02*
X164525027Y-89195162D01*
X164525027Y-89195162D02*
X164525027Y-89020991D01*
X164525027Y-89020991D02*
X164481484Y-88803277D01*
X164481484Y-88803277D02*
X164437942Y-88672648D01*
X164437942Y-88672648D02*
X164394399Y-88585562D01*
X164394399Y-88585562D02*
X164307313Y-88454934D01*
X164307313Y-88454934D02*
X164263770Y-88411391D01*
X137236332Y-84986019D02*
X137758847Y-84986019D01*
X137497589Y-85900419D02*
X137497589Y-84986019D01*
X138063647Y-85900419D02*
X138063647Y-85290819D01*
X138063647Y-85464991D02*
X138107190Y-85377905D01*
X138107190Y-85377905D02*
X138150733Y-85334362D01*
X138150733Y-85334362D02*
X138237818Y-85290819D01*
X138237818Y-85290819D02*
X138324904Y-85290819D01*
X139021590Y-85900419D02*
X139021590Y-85421448D01*
X139021590Y-85421448D02*
X138978047Y-85334362D01*
X138978047Y-85334362D02*
X138890961Y-85290819D01*
X138890961Y-85290819D02*
X138716790Y-85290819D01*
X138716790Y-85290819D02*
X138629704Y-85334362D01*
X139021590Y-85856877D02*
X138934504Y-85900419D01*
X138934504Y-85900419D02*
X138716790Y-85900419D01*
X138716790Y-85900419D02*
X138629704Y-85856877D01*
X138629704Y-85856877D02*
X138586161Y-85769791D01*
X138586161Y-85769791D02*
X138586161Y-85682705D01*
X138586161Y-85682705D02*
X138629704Y-85595619D01*
X138629704Y-85595619D02*
X138716790Y-85552077D01*
X138716790Y-85552077D02*
X138934504Y-85552077D01*
X138934504Y-85552077D02*
X139021590Y-85508534D01*
X139848904Y-85856877D02*
X139761818Y-85900419D01*
X139761818Y-85900419D02*
X139587646Y-85900419D01*
X139587646Y-85900419D02*
X139500561Y-85856877D01*
X139500561Y-85856877D02*
X139457018Y-85813334D01*
X139457018Y-85813334D02*
X139413475Y-85726248D01*
X139413475Y-85726248D02*
X139413475Y-85464991D01*
X139413475Y-85464991D02*
X139457018Y-85377905D01*
X139457018Y-85377905D02*
X139500561Y-85334362D01*
X139500561Y-85334362D02*
X139587646Y-85290819D01*
X139587646Y-85290819D02*
X139761818Y-85290819D01*
X139761818Y-85290819D02*
X139848904Y-85334362D01*
X140589132Y-85856877D02*
X140502046Y-85900419D01*
X140502046Y-85900419D02*
X140327875Y-85900419D01*
X140327875Y-85900419D02*
X140240789Y-85856877D01*
X140240789Y-85856877D02*
X140197246Y-85769791D01*
X140197246Y-85769791D02*
X140197246Y-85421448D01*
X140197246Y-85421448D02*
X140240789Y-85334362D01*
X140240789Y-85334362D02*
X140327875Y-85290819D01*
X140327875Y-85290819D02*
X140502046Y-85290819D01*
X140502046Y-85290819D02*
X140589132Y-85334362D01*
X140589132Y-85334362D02*
X140632675Y-85421448D01*
X140632675Y-85421448D02*
X140632675Y-85508534D01*
X140632675Y-85508534D02*
X140197246Y-85595619D01*
X141634160Y-84986019D02*
X141851874Y-85900419D01*
X141851874Y-85900419D02*
X142026046Y-85247277D01*
X142026046Y-85247277D02*
X142200217Y-85900419D01*
X142200217Y-85900419D02*
X142417932Y-84986019D01*
X142766275Y-85900419D02*
X142766275Y-85290819D01*
X142766275Y-84986019D02*
X142722732Y-85029562D01*
X142722732Y-85029562D02*
X142766275Y-85073105D01*
X142766275Y-85073105D02*
X142809818Y-85029562D01*
X142809818Y-85029562D02*
X142766275Y-84986019D01*
X142766275Y-84986019D02*
X142766275Y-85073105D01*
X143593590Y-85900419D02*
X143593590Y-84986019D01*
X143593590Y-85856877D02*
X143506504Y-85900419D01*
X143506504Y-85900419D02*
X143332332Y-85900419D01*
X143332332Y-85900419D02*
X143245247Y-85856877D01*
X143245247Y-85856877D02*
X143201704Y-85813334D01*
X143201704Y-85813334D02*
X143158161Y-85726248D01*
X143158161Y-85726248D02*
X143158161Y-85464991D01*
X143158161Y-85464991D02*
X143201704Y-85377905D01*
X143201704Y-85377905D02*
X143245247Y-85334362D01*
X143245247Y-85334362D02*
X143332332Y-85290819D01*
X143332332Y-85290819D02*
X143506504Y-85290819D01*
X143506504Y-85290819D02*
X143593590Y-85334362D01*
X143898389Y-85290819D02*
X144246732Y-85290819D01*
X144029018Y-84986019D02*
X144029018Y-85769791D01*
X144029018Y-85769791D02*
X144072561Y-85856877D01*
X144072561Y-85856877D02*
X144159646Y-85900419D01*
X144159646Y-85900419D02*
X144246732Y-85900419D01*
X144551532Y-85900419D02*
X144551532Y-84986019D01*
X144943418Y-85900419D02*
X144943418Y-85421448D01*
X144943418Y-85421448D02*
X144899875Y-85334362D01*
X144899875Y-85334362D02*
X144812789Y-85290819D01*
X144812789Y-85290819D02*
X144682160Y-85290819D01*
X144682160Y-85290819D02*
X144595075Y-85334362D01*
X144595075Y-85334362D02*
X144551532Y-85377905D01*
X146075532Y-85421448D02*
X146772218Y-85421448D01*
X146772218Y-85682705D02*
X146075532Y-85682705D01*
X147817246Y-84986019D02*
X148426846Y-84986019D01*
X148426846Y-84986019D02*
X148034960Y-85900419D01*
X148775189Y-85813334D02*
X148818732Y-85856877D01*
X148818732Y-85856877D02*
X148775189Y-85900419D01*
X148775189Y-85900419D02*
X148731646Y-85856877D01*
X148731646Y-85856877D02*
X148775189Y-85813334D01*
X148775189Y-85813334D02*
X148775189Y-85900419D01*
X149254161Y-85900419D02*
X149428332Y-85900419D01*
X149428332Y-85900419D02*
X149515418Y-85856877D01*
X149515418Y-85856877D02*
X149558961Y-85813334D01*
X149558961Y-85813334D02*
X149646046Y-85682705D01*
X149646046Y-85682705D02*
X149689589Y-85508534D01*
X149689589Y-85508534D02*
X149689589Y-85160191D01*
X149689589Y-85160191D02*
X149646046Y-85073105D01*
X149646046Y-85073105D02*
X149602504Y-85029562D01*
X149602504Y-85029562D02*
X149515418Y-84986019D01*
X149515418Y-84986019D02*
X149341246Y-84986019D01*
X149341246Y-84986019D02*
X149254161Y-85029562D01*
X149254161Y-85029562D02*
X149210618Y-85073105D01*
X149210618Y-85073105D02*
X149167075Y-85160191D01*
X149167075Y-85160191D02*
X149167075Y-85377905D01*
X149167075Y-85377905D02*
X149210618Y-85464991D01*
X149210618Y-85464991D02*
X149254161Y-85508534D01*
X149254161Y-85508534D02*
X149341246Y-85552077D01*
X149341246Y-85552077D02*
X149515418Y-85552077D01*
X149515418Y-85552077D02*
X149602504Y-85508534D01*
X149602504Y-85508534D02*
X149646046Y-85464991D01*
X149646046Y-85464991D02*
X149689589Y-85377905D01*
X150125018Y-85900419D02*
X150299189Y-85900419D01*
X150299189Y-85900419D02*
X150386275Y-85856877D01*
X150386275Y-85856877D02*
X150429818Y-85813334D01*
X150429818Y-85813334D02*
X150516903Y-85682705D01*
X150516903Y-85682705D02*
X150560446Y-85508534D01*
X150560446Y-85508534D02*
X150560446Y-85160191D01*
X150560446Y-85160191D02*
X150516903Y-85073105D01*
X150516903Y-85073105D02*
X150473361Y-85029562D01*
X150473361Y-85029562D02*
X150386275Y-84986019D01*
X150386275Y-84986019D02*
X150212103Y-84986019D01*
X150212103Y-84986019D02*
X150125018Y-85029562D01*
X150125018Y-85029562D02*
X150081475Y-85073105D01*
X150081475Y-85073105D02*
X150037932Y-85160191D01*
X150037932Y-85160191D02*
X150037932Y-85377905D01*
X150037932Y-85377905D02*
X150081475Y-85464991D01*
X150081475Y-85464991D02*
X150125018Y-85508534D01*
X150125018Y-85508534D02*
X150212103Y-85552077D01*
X150212103Y-85552077D02*
X150386275Y-85552077D01*
X150386275Y-85552077D02*
X150473361Y-85508534D01*
X150473361Y-85508534D02*
X150516903Y-85464991D01*
X150516903Y-85464991D02*
X150560446Y-85377905D01*
X151649018Y-85900419D02*
X151649018Y-85290819D01*
X151649018Y-85377905D02*
X151692561Y-85334362D01*
X151692561Y-85334362D02*
X151779646Y-85290819D01*
X151779646Y-85290819D02*
X151910275Y-85290819D01*
X151910275Y-85290819D02*
X151997361Y-85334362D01*
X151997361Y-85334362D02*
X152040904Y-85421448D01*
X152040904Y-85421448D02*
X152040904Y-85900419D01*
X152040904Y-85421448D02*
X152084446Y-85334362D01*
X152084446Y-85334362D02*
X152171532Y-85290819D01*
X152171532Y-85290819D02*
X152302161Y-85290819D01*
X152302161Y-85290819D02*
X152389246Y-85334362D01*
X152389246Y-85334362D02*
X152432789Y-85421448D01*
X152432789Y-85421448D02*
X152432789Y-85900419D01*
X152868218Y-85900419D02*
X152868218Y-85290819D01*
X152868218Y-84986019D02*
X152824675Y-85029562D01*
X152824675Y-85029562D02*
X152868218Y-85073105D01*
X152868218Y-85073105D02*
X152911761Y-85029562D01*
X152911761Y-85029562D02*
X152868218Y-84986019D01*
X152868218Y-84986019D02*
X152868218Y-85073105D01*
X153434275Y-85900419D02*
X153347190Y-85856877D01*
X153347190Y-85856877D02*
X153303647Y-85769791D01*
X153303647Y-85769791D02*
X153303647Y-84986019D01*
X153739075Y-85856877D02*
X153826161Y-85900419D01*
X153826161Y-85900419D02*
X154000332Y-85900419D01*
X154000332Y-85900419D02*
X154087418Y-85856877D01*
X154087418Y-85856877D02*
X154130961Y-85769791D01*
X154130961Y-85769791D02*
X154130961Y-85726248D01*
X154130961Y-85726248D02*
X154087418Y-85639162D01*
X154087418Y-85639162D02*
X154000332Y-85595619D01*
X154000332Y-85595619D02*
X153869704Y-85595619D01*
X153869704Y-85595619D02*
X153782618Y-85552077D01*
X153782618Y-85552077D02*
X153739075Y-85464991D01*
X153739075Y-85464991D02*
X153739075Y-85421448D01*
X153739075Y-85421448D02*
X153782618Y-85334362D01*
X153782618Y-85334362D02*
X153869704Y-85290819D01*
X153869704Y-85290819D02*
X154000332Y-85290819D01*
X154000332Y-85290819D02*
X154087418Y-85334362D01*
D11*
X129164225Y-80048409D02*
X129164225Y-79048409D01*
X129164225Y-79524599D02*
X129735653Y-79524599D01*
X129735653Y-80048409D02*
X129735653Y-79048409D01*
X130735653Y-80048409D02*
X130164225Y-80048409D01*
X130449939Y-80048409D02*
X130449939Y-79048409D01*
X130449939Y-79048409D02*
X130354701Y-79191266D01*
X130354701Y-79191266D02*
X130259463Y-79286504D01*
X130259463Y-79286504D02*
X130164225Y-79334123D01*
D12*
X131597100Y-94645423D02*
X130871386Y-94645423D01*
X130871386Y-94645423D02*
X130871386Y-93121423D01*
X132903385Y-94645423D02*
X132032528Y-94645423D01*
X132467957Y-94645423D02*
X132467957Y-93121423D01*
X132467957Y-93121423D02*
X132322814Y-93339137D01*
X132322814Y-93339137D02*
X132177671Y-93484280D01*
X132177671Y-93484280D02*
X132032528Y-93556852D01*
D11*
X129164225Y-123228409D02*
X129164225Y-122228409D01*
X129164225Y-122704599D02*
X129735653Y-122704599D01*
X129735653Y-123228409D02*
X129735653Y-122228409D01*
X130640415Y-122561742D02*
X130640415Y-123228409D01*
X130402320Y-122180790D02*
X130164225Y-122895075D01*
X130164225Y-122895075D02*
X130783272Y-122895075D01*
X172344225Y-80048409D02*
X172344225Y-79048409D01*
X172344225Y-79524599D02*
X172915653Y-79524599D01*
X172915653Y-80048409D02*
X172915653Y-79048409D01*
X173344225Y-79143647D02*
X173391844Y-79096028D01*
X173391844Y-79096028D02*
X173487082Y-79048409D01*
X173487082Y-79048409D02*
X173725177Y-79048409D01*
X173725177Y-79048409D02*
X173820415Y-79096028D01*
X173820415Y-79096028D02*
X173868034Y-79143647D01*
X173868034Y-79143647D02*
X173915653Y-79238885D01*
X173915653Y-79238885D02*
X173915653Y-79334123D01*
X173915653Y-79334123D02*
X173868034Y-79476980D01*
X173868034Y-79476980D02*
X173296606Y-80048409D01*
X173296606Y-80048409D02*
X173915653Y-80048409D01*
X120945920Y-106546934D02*
X121660205Y-106546934D01*
X121660205Y-106546934D02*
X121803062Y-106594553D01*
X121803062Y-106594553D02*
X121898301Y-106689791D01*
X121898301Y-106689791D02*
X121945920Y-106832648D01*
X121945920Y-106832648D02*
X121945920Y-106927886D01*
X121945920Y-105546934D02*
X121945920Y-106118362D01*
X121945920Y-105832648D02*
X120945920Y-105832648D01*
X120945920Y-105832648D02*
X121088777Y-105927886D01*
X121088777Y-105927886D02*
X121184015Y-106023124D01*
X121184015Y-106023124D02*
X121231634Y-106118362D01*
D13*
X127297393Y-103087604D02*
X127264060Y-103054271D01*
X127264060Y-103054271D02*
X127230726Y-102954271D01*
X127230726Y-102954271D02*
X127230726Y-102887604D01*
X127230726Y-102887604D02*
X127264060Y-102787604D01*
X127264060Y-102787604D02*
X127330726Y-102720938D01*
X127330726Y-102720938D02*
X127397393Y-102687604D01*
X127397393Y-102687604D02*
X127530726Y-102654271D01*
X127530726Y-102654271D02*
X127630726Y-102654271D01*
X127630726Y-102654271D02*
X127764060Y-102687604D01*
X127764060Y-102687604D02*
X127830726Y-102720938D01*
X127830726Y-102720938D02*
X127897393Y-102787604D01*
X127897393Y-102787604D02*
X127930726Y-102887604D01*
X127930726Y-102887604D02*
X127930726Y-102954271D01*
X127930726Y-102954271D02*
X127897393Y-103054271D01*
X127897393Y-103054271D02*
X127864060Y-103087604D01*
X127864060Y-103354271D02*
X127897393Y-103387604D01*
X127897393Y-103387604D02*
X127930726Y-103454271D01*
X127930726Y-103454271D02*
X127930726Y-103620938D01*
X127930726Y-103620938D02*
X127897393Y-103687604D01*
X127897393Y-103687604D02*
X127864060Y-103720938D01*
X127864060Y-103720938D02*
X127797393Y-103754271D01*
X127797393Y-103754271D02*
X127730726Y-103754271D01*
X127730726Y-103754271D02*
X127630726Y-103720938D01*
X127630726Y-103720938D02*
X127230726Y-103320938D01*
X127230726Y-103320938D02*
X127230726Y-103754271D01*
X127930726Y-104187605D02*
X127930726Y-104254271D01*
X127930726Y-104254271D02*
X127897393Y-104320938D01*
X127897393Y-104320938D02*
X127864060Y-104354271D01*
X127864060Y-104354271D02*
X127797393Y-104387605D01*
X127797393Y-104387605D02*
X127664060Y-104420938D01*
X127664060Y-104420938D02*
X127497393Y-104420938D01*
X127497393Y-104420938D02*
X127364060Y-104387605D01*
X127364060Y-104387605D02*
X127297393Y-104354271D01*
X127297393Y-104354271D02*
X127264060Y-104320938D01*
X127264060Y-104320938D02*
X127230726Y-104254271D01*
X127230726Y-104254271D02*
X127230726Y-104187605D01*
X127230726Y-104187605D02*
X127264060Y-104120938D01*
X127264060Y-104120938D02*
X127297393Y-104087605D01*
X127297393Y-104087605D02*
X127364060Y-104054271D01*
X127364060Y-104054271D02*
X127497393Y-104020938D01*
X127497393Y-104020938D02*
X127664060Y-104020938D01*
X127664060Y-104020938D02*
X127797393Y-104054271D01*
X127797393Y-104054271D02*
X127864060Y-104087605D01*
X127864060Y-104087605D02*
X127897393Y-104120938D01*
X127897393Y-104120938D02*
X127930726Y-104187605D01*
D11*
X172344225Y-123228409D02*
X172344225Y-122228409D01*
X172344225Y-122704599D02*
X172915653Y-122704599D01*
X172915653Y-123228409D02*
X172915653Y-122228409D01*
X173296606Y-122228409D02*
X173915653Y-122228409D01*
X173915653Y-122228409D02*
X173582320Y-122609361D01*
X173582320Y-122609361D02*
X173725177Y-122609361D01*
X173725177Y-122609361D02*
X173820415Y-122656980D01*
X173820415Y-122656980D02*
X173868034Y-122704599D01*
X173868034Y-122704599D02*
X173915653Y-122799837D01*
X173915653Y-122799837D02*
X173915653Y-123037932D01*
X173915653Y-123037932D02*
X173868034Y-123133170D01*
X173868034Y-123133170D02*
X173820415Y-123180790D01*
X173820415Y-123180790D02*
X173725177Y-123228409D01*
X173725177Y-123228409D02*
X173439463Y-123228409D01*
X173439463Y-123228409D02*
X173344225Y-123180790D01*
X173344225Y-123180790D02*
X173296606Y-123133170D01*
D14*
G04 #@! TO.C,J1*
X111414101Y-102086101D02*
X111414101Y-110341101D01*
X111414101Y-110341101D02*
X114752560Y-110341101D01*
X114752560Y-102086101D02*
X111414101Y-102086101D01*
X119329640Y-110341101D02*
X121472501Y-110341101D01*
X121472501Y-102086101D02*
X119329640Y-102086101D01*
X121472501Y-104385560D02*
X121472501Y-102086101D01*
X121472501Y-106385562D02*
X121472501Y-106041640D01*
X121472501Y-110341101D02*
X121472501Y-108041642D01*
D15*
X121872101Y-100895100D02*
G75*
G02*
X121110101Y-100895100I-381000J0D01*
G01*
X121110101Y-100895100D02*
G75*
G02*
X121872101Y-100895100I381000J0D01*
G01*
D13*
G04 #@! TO.C,C20*
X126561100Y-104553600D02*
X126561100Y-107753600D01*
X126561100Y-104553600D02*
X128361100Y-104553600D01*
X126561100Y-107753600D02*
X128361100Y-107753600D01*
X128361100Y-104553600D02*
X128361100Y-107753600D01*
G04 #@! TD*
M02*
