G04 #@! TF.GenerationSoftware,KiCad,Pcbnew,9.0.7*
G04 #@! TF.CreationDate,2026-03-31T12:37:49-04:00*
G04 #@! TF.ProjectId,Off_board_Inductor,4f66665f-626f-4617-9264-5f496e647563,rev?*
G04 #@! TF.SameCoordinates,Original*
G04 #@! TF.FileFunction,Copper,L4,Bot*
G04 #@! TF.FilePolarity,Positive*
%FSLAX46Y46*%
G04 Gerber Fmt 4.6, Leading zero omitted, Abs format (unit mm)*
G04 Created by KiCad (PCBNEW 9.0.7) date 2026-03-31 12:37:49*
%MOMM*%
%LPD*%
G01*
G04 APERTURE LIST*
G04 #@! TA.AperFunction,EtchedComponent*
%ADD10C,0.355600*%
G04 #@! TD*
G04 #@! TA.AperFunction,EtchedComponent*
%ADD11C,0.202950*%
G04 #@! TD*
G04 #@! TA.AperFunction,ViaPad*
%ADD12C,1.016000*%
G04 #@! TD*
G04 APERTURE END LIST*
D10*
G04 #@! TO.C,L1*
X130425490Y-104036750D02*
X131035090Y-104036750D01*
D11*
X131035090Y-104036750D02*
X131644690Y-105052750D01*
X131644690Y-106068750D02*
X131644690Y-105052750D01*
X131644690Y-106068750D02*
X131659480Y-108739430D01*
X131659480Y-108739430D02*
X133055700Y-113893080D01*
X131999530Y-103442830D02*
X132014310Y-108692710D01*
X131999530Y-103442830D02*
X133345020Y-98364250D01*
X132014310Y-108692710D02*
X133386360Y-113756120D01*
X132354370Y-103489550D02*
X132369150Y-108646000D01*
X132354370Y-103489550D02*
X133675680Y-98501210D01*
X132369150Y-108646000D02*
X133717010Y-113619160D01*
X132709200Y-103536260D02*
X132723990Y-108599280D01*
X132709200Y-103536260D02*
X134006340Y-98638180D01*
X132723990Y-108599280D02*
X134047670Y-113482200D01*
X133055700Y-113893080D02*
X135736260Y-118506390D01*
X133064040Y-103582980D02*
X133078830Y-108552570D01*
X133064040Y-103582980D02*
X134336990Y-98775140D01*
X133078830Y-108552570D02*
X134378320Y-113345230D01*
X133345020Y-98364250D02*
X135961050Y-93803590D01*
X133386360Y-113756120D02*
X136020210Y-118288520D01*
X133418880Y-103629700D02*
X133433670Y-108505850D01*
X133418880Y-103629700D02*
X134667650Y-98912100D01*
X133433670Y-108505850D02*
X134708980Y-113208270D01*
X133675680Y-98501210D02*
X136244990Y-94021460D01*
X133717010Y-113619160D02*
X136304150Y-118070640D01*
X133773720Y-103676410D02*
X133788500Y-108459140D01*
X133773720Y-103676410D02*
X134998310Y-99049060D01*
X133788500Y-108459140D02*
X135039640Y-113071310D01*
X134006340Y-98638180D02*
X136528940Y-94239340D01*
X134047670Y-113482200D02*
X136588090Y-117852760D01*
X134128560Y-103723120D02*
X134143340Y-108412420D01*
X134128560Y-103723120D02*
X135328960Y-99186030D01*
X134143340Y-108412420D02*
X135370290Y-112934350D01*
X134336990Y-98775140D02*
X136812880Y-94457210D01*
X134378320Y-113345230D02*
X136872030Y-117634890D01*
X134483390Y-103769840D02*
X134498180Y-108365710D01*
X134483390Y-103769840D02*
X135659620Y-99322990D01*
X134498180Y-108365710D02*
X135700950Y-112797380D01*
X134667650Y-98912100D02*
X137096820Y-94675090D01*
X134708980Y-113208270D02*
X137155970Y-117417010D01*
X134838230Y-103816560D02*
X134853020Y-108318990D01*
X134838230Y-103816560D02*
X135990270Y-99459950D01*
X134853020Y-108318990D02*
X136031610Y-112660420D01*
X134998310Y-99049060D02*
X137380760Y-94892970D01*
X135039640Y-113071310D02*
X137439910Y-117199140D01*
X135193070Y-103863270D02*
X135207860Y-108272270D01*
X135193070Y-103863270D02*
X136320930Y-99596910D01*
X135207860Y-108272270D02*
X136362260Y-112523460D01*
X135328960Y-99186030D02*
X137664700Y-95110840D01*
X135370290Y-112934350D02*
X137723850Y-116981260D01*
X135547910Y-103909990D02*
X135562690Y-108225560D01*
X135547910Y-103909990D02*
X136651590Y-99733880D01*
X135562690Y-108225560D02*
X136692920Y-112386500D01*
X135659620Y-99322990D02*
X137948640Y-95328720D01*
X135700950Y-112797380D02*
X138007790Y-116763380D01*
X135736260Y-118506390D02*
X139516750Y-122265970D01*
X135902750Y-103956700D02*
X135917530Y-108178850D01*
X135902750Y-103956700D02*
X136982240Y-99870840D01*
X135917530Y-108178850D02*
X137023570Y-112249540D01*
X135961050Y-93803590D02*
X139671080Y-90072650D01*
X135990270Y-99459950D02*
X138232580Y-95546590D01*
X136020210Y-118288520D02*
X139734630Y-121982030D01*
X136031610Y-112660420D02*
X138291740Y-116545510D01*
X136244990Y-94021460D02*
X139888960Y-90356590D01*
X136257580Y-104003420D02*
X136272370Y-108132130D01*
X136257580Y-104003420D02*
X137312900Y-100007800D01*
X136272370Y-108132130D02*
X137354230Y-112112570D01*
X136304150Y-118070640D02*
X139952500Y-121698090D01*
X136320930Y-99596910D02*
X138516520Y-95764470D01*
X136362260Y-112523460D02*
X138575680Y-116327640D01*
X136528940Y-94239340D02*
X140106830Y-90640530D01*
X136588090Y-117852760D02*
X140170380Y-121414150D01*
X136612420Y-104050130D02*
X136627210Y-108085410D01*
X136612420Y-104050130D02*
X137643560Y-100144760D01*
X136627210Y-108085410D02*
X137684890Y-111975610D01*
X136651590Y-99733880D02*
X138800460Y-95982340D01*
X136692920Y-112386500D02*
X138859620Y-116109760D01*
X136812880Y-94457210D02*
X140324710Y-90924470D01*
X136872030Y-117634890D02*
X140388260Y-121130200D01*
X136967260Y-104096850D02*
X136982050Y-108038700D01*
X136967260Y-104096850D02*
X137974210Y-100281720D01*
X136982050Y-108038700D02*
X138015540Y-111838650D01*
X136982240Y-99870840D02*
X139084400Y-96200220D01*
X137023570Y-112249540D02*
X139143560Y-115891880D01*
X137096820Y-94675090D02*
X140542580Y-91208410D01*
X137155970Y-117417010D02*
X140606130Y-120846260D01*
X137312900Y-100007800D02*
X139368350Y-96418090D01*
X137322100Y-104143560D02*
X137336880Y-107991980D01*
X137322100Y-104143560D02*
X138304870Y-100418690D01*
X137336880Y-107991980D02*
X138346200Y-111701690D01*
X137354230Y-112112570D02*
X139427500Y-115674010D01*
X137380760Y-94892970D02*
X140760460Y-91492350D01*
X137439910Y-117199140D02*
X140824010Y-120562320D01*
X137643560Y-100144760D02*
X139652290Y-96635970D01*
X137664700Y-95110840D02*
X140978330Y-91776290D01*
X137676940Y-104190280D02*
X137691720Y-107945270D01*
X137676940Y-104190280D02*
X138635520Y-100555650D01*
X137684890Y-111975610D02*
X139711440Y-115456130D01*
X137691720Y-107945270D02*
X138676860Y-111564720D01*
X137723850Y-116981260D02*
X141041880Y-120278380D01*
X137948640Y-95328720D02*
X141196210Y-92060240D01*
X137974210Y-100281720D02*
X139936230Y-96853850D01*
X138007790Y-116763380D02*
X141259760Y-119994440D01*
X138015540Y-111838650D02*
X139995380Y-115238250D01*
X138031770Y-104236990D02*
X138046560Y-107898550D01*
X138031770Y-104236990D02*
X138966180Y-100692610D01*
X138046560Y-107898550D02*
X139007510Y-111427760D01*
X138232580Y-95546590D02*
X141414090Y-92344180D01*
X138291740Y-116545510D02*
X141477640Y-119710500D01*
X138304870Y-100418690D02*
X140220170Y-97071720D01*
X138346200Y-111701690D02*
X140279320Y-115020380D01*
X138386610Y-104283710D02*
X138401400Y-107851840D01*
X138386610Y-104283710D02*
X139296840Y-100829570D01*
X138401400Y-107851840D02*
X139338170Y-111290800D01*
X138516520Y-95764470D02*
X141631960Y-92628120D01*
X138575680Y-116327640D02*
X141695510Y-119426560D01*
X138635520Y-100555650D02*
X140504110Y-97289600D01*
X138676860Y-111564720D02*
X140563260Y-114802500D01*
X138741450Y-104330420D02*
X138756240Y-107805120D01*
X138741450Y-104330420D02*
X139627490Y-100966540D01*
X138756240Y-107805120D02*
X139668830Y-111153840D01*
X138800460Y-95982340D02*
X141849840Y-92912060D01*
X138859620Y-116109760D02*
X141913380Y-119142620D01*
X138966180Y-100692610D02*
X140788050Y-97507470D01*
X139007510Y-111427760D02*
X140847200Y-114584630D01*
X139084400Y-96200220D02*
X142067720Y-93196000D01*
X139096290Y-104377140D02*
X139111070Y-107758410D01*
X139096290Y-104377140D02*
X139958150Y-101103500D01*
X139111070Y-107758410D02*
X139999480Y-111016870D01*
X139143560Y-115891880D02*
X142131260Y-118858680D01*
X139296840Y-100829570D02*
X141071990Y-97725350D01*
X139338170Y-111290800D02*
X141131150Y-114366750D01*
X139368350Y-96418090D02*
X142285590Y-93479940D01*
X139427500Y-115674010D02*
X142349140Y-118574740D01*
X139451130Y-104423850D02*
X139465910Y-107711690D01*
X139451130Y-104423850D02*
X140288810Y-101240460D01*
X139465910Y-107711690D02*
X140330140Y-110879910D01*
X139516750Y-122265970D02*
X144138100Y-124917030D01*
X139627490Y-100966540D02*
X141355930Y-97943220D01*
X139652290Y-96635970D02*
X142503460Y-93763880D01*
X139668830Y-111153840D02*
X141415090Y-114148880D01*
X139671080Y-90072650D02*
X144223710Y-87427120D01*
X139711440Y-115456130D02*
X142567010Y-118290790D01*
X139734630Y-121982030D02*
X144275060Y-124586380D01*
X139805960Y-104470570D02*
X139820750Y-107664980D01*
X139805960Y-104470570D02*
X140619460Y-101377420D01*
X139820750Y-107664980D02*
X140660800Y-110742950D01*
X139888960Y-90356590D02*
X144360670Y-87757780D01*
X139936230Y-96853850D02*
X142721340Y-94047820D01*
X139952500Y-121698090D02*
X144412030Y-124255720D01*
X139958150Y-101103500D02*
X141639870Y-98161100D01*
X139995380Y-115238250D02*
X142784890Y-118006850D01*
X139999480Y-111016870D02*
X141699030Y-113931000D01*
X140106830Y-90640530D02*
X144497630Y-88088430D01*
X140160800Y-104517290D02*
X140175590Y-107618260D01*
X140160800Y-104517290D02*
X140950120Y-101514390D01*
X140170380Y-121414150D02*
X144548990Y-123925060D01*
X140175590Y-107618260D02*
X140991450Y-110605990D01*
X140220170Y-97071720D02*
X142939220Y-94331760D01*
X140279320Y-115020380D02*
X143002760Y-117722910D01*
X140288810Y-101240460D02*
X141923810Y-98378980D01*
X140324710Y-90924470D02*
X144634590Y-88419090D01*
X140330140Y-110879910D02*
X141982970Y-113713130D01*
X140388260Y-121130200D02*
X144685950Y-123594410D01*
X140504110Y-97289600D02*
X143157090Y-94615700D01*
X140515640Y-104564000D02*
X140530430Y-107571550D01*
X140515640Y-104564000D02*
X141280780Y-101651350D01*
X140530430Y-107571550D02*
X141322110Y-110469020D01*
X140542580Y-91208410D02*
X144771550Y-88749750D01*
X140563260Y-114802500D02*
X143220640Y-117438970D01*
X140606130Y-120846260D02*
X144822910Y-123263750D01*
X140619460Y-101377420D02*
X142207760Y-98596850D01*
X140660800Y-110742950D02*
X142266910Y-113495250D01*
X140760460Y-91492350D02*
X144908520Y-89080400D01*
X140788050Y-97507470D02*
X143374970Y-94899650D01*
X140824010Y-120562320D02*
X144959880Y-122933100D01*
X140847200Y-114584630D02*
X143438520Y-117155030D01*
X140870480Y-104610720D02*
X140885260Y-107524830D01*
X140870480Y-104610720D02*
X141611430Y-101788310D01*
X140885260Y-107524830D02*
X141652770Y-110332060D01*
X140950120Y-101514390D02*
X142491700Y-98814730D01*
X140978330Y-91776290D02*
X145045480Y-89411060D01*
X140991450Y-110605990D02*
X142550850Y-113277370D01*
X141041880Y-120278380D02*
X145096840Y-122602440D01*
X141071990Y-97725350D02*
X143592840Y-95183590D01*
X141131150Y-114366750D02*
X143656390Y-116871090D01*
X141196210Y-92060240D02*
X145182440Y-89741710D01*
X141225320Y-104657430D02*
X141240100Y-107478120D01*
X141225320Y-104657430D02*
X141942090Y-101925270D01*
X141240100Y-107478120D02*
X141983420Y-110195100D01*
X141259760Y-119994440D02*
X145233800Y-122271780D01*
X141280780Y-101651350D02*
X142775640Y-99032600D01*
X141322110Y-110469020D02*
X142834790Y-113059500D01*
X141355930Y-97943220D02*
X143810720Y-95467530D01*
X141414090Y-92344180D02*
X145319400Y-90072370D01*
X141415090Y-114148880D02*
X143874270Y-116587150D01*
X141477640Y-119710500D02*
X145370760Y-121941130D01*
X141580150Y-104704150D02*
X141594940Y-107431400D01*
X141580150Y-104704150D02*
X142272750Y-102062240D01*
X141594940Y-107431400D02*
X142314080Y-110058140D01*
X141611430Y-101788310D02*
X143059580Y-99250480D01*
X141631960Y-92628120D02*
X145456360Y-90403030D01*
X141639870Y-98161100D02*
X144028600Y-95751470D01*
X141652770Y-110332060D02*
X143118730Y-112841620D01*
X141695510Y-119426560D02*
X145507730Y-121610470D01*
X141699030Y-113931000D02*
X144092140Y-116303210D01*
X141849840Y-92912060D02*
X145593330Y-90733680D01*
X141913380Y-119142620D02*
X145644690Y-121279810D01*
X141923810Y-98378980D02*
X144246470Y-96035410D01*
X141934990Y-104750860D02*
X141949780Y-107384680D01*
X141934990Y-104750860D02*
X142603400Y-102199200D01*
X141942090Y-101925270D02*
X143343520Y-99468350D01*
X141949780Y-107384680D02*
X142644730Y-109921170D01*
X141982970Y-113713130D02*
X144310020Y-116019270D01*
X141983420Y-110195100D02*
X143402680Y-112623750D01*
X142067720Y-93196000D02*
X145730290Y-91064340D01*
X142131260Y-118858680D02*
X145781650Y-120949160D01*
X142207760Y-98596850D02*
X144464340Y-96319350D01*
X142266910Y-113495250D02*
X144527890Y-115735320D01*
X142272750Y-102062240D02*
X143627460Y-99686230D01*
X142285590Y-93479940D02*
X145867250Y-91395000D01*
X142289830Y-104797580D02*
X142304620Y-107337970D01*
X142289830Y-104797580D02*
X142934060Y-102336160D01*
X142304620Y-107337970D02*
X142975390Y-109784210D01*
X142314080Y-110058140D02*
X143686610Y-112405870D01*
X142349140Y-118574740D02*
X145918610Y-120618500D01*
X142491700Y-98814730D02*
X144682220Y-96603290D01*
X142503460Y-93763880D02*
X146004210Y-91725650D01*
X142550850Y-113277370D02*
X144745770Y-115451380D01*
X142567010Y-118290790D02*
X146055580Y-120287850D01*
X142603400Y-102199200D02*
X143911400Y-99904100D01*
X142644670Y-104844290D02*
X142659450Y-107291250D01*
X142644670Y-104844290D02*
X143264720Y-102473120D01*
X142644730Y-109921170D02*
X143970560Y-112188000D01*
X142659450Y-107291250D02*
X143306050Y-109647250D01*
X142721340Y-94047820D02*
X146141180Y-92056310D01*
X142775640Y-99032600D02*
X144900100Y-96887230D01*
X142784890Y-118006850D02*
X146192540Y-119957190D01*
X142834790Y-113059500D02*
X144963650Y-115167440D01*
X142934060Y-102336160D02*
X144195340Y-100121980D01*
X142939220Y-94331760D02*
X146278140Y-92386960D01*
X142975390Y-109784210D02*
X144254500Y-111970120D01*
X142999510Y-104891010D02*
X143014290Y-107244540D01*
X142999510Y-104891010D02*
X143595370Y-102610080D01*
X143002760Y-117722910D02*
X146329500Y-119626530D01*
X143014290Y-107244540D02*
X143636700Y-109510290D01*
X143059580Y-99250480D02*
X145117970Y-97171180D01*
X143118730Y-112841620D02*
X145181520Y-114883500D01*
X143157090Y-94615700D02*
X146415100Y-92717620D01*
X143220640Y-117438970D02*
X146466460Y-119295880D01*
X143264720Y-102473120D02*
X144479290Y-100339860D01*
X143306050Y-109647250D02*
X144538440Y-111752240D01*
X143343520Y-99468350D02*
X145335850Y-97455120D01*
X143354340Y-104937720D02*
X143369130Y-107197820D01*
X143354340Y-104937720D02*
X143926030Y-102747050D01*
X143369130Y-107197820D02*
X143967360Y-109373330D01*
X143374970Y-94899650D02*
X146552060Y-93048280D01*
X143402680Y-112623750D02*
X145399400Y-114599560D01*
X143438520Y-117155030D02*
X146603430Y-118965220D01*
X143592840Y-95183590D02*
X146689030Y-93378930D01*
X143595370Y-102610080D02*
X144763230Y-100557730D01*
X143627460Y-99686230D02*
X145553730Y-97739060D01*
X143636700Y-109510290D02*
X144822380Y-111534370D01*
X143656390Y-116871090D02*
X146740390Y-118634560D01*
X143686610Y-112405870D02*
X145617270Y-114315620D01*
X143709180Y-104984440D02*
X143723970Y-107151110D01*
X143709180Y-104984440D02*
X144256680Y-102884010D01*
X143723970Y-107151110D02*
X144298020Y-109236360D01*
X143810720Y-95467530D02*
X146825990Y-93709590D01*
X143874270Y-116587150D02*
X146877350Y-118303910D01*
X143911400Y-99904100D02*
X145771600Y-98023000D01*
X143926030Y-102747050D02*
X145047170Y-100775610D01*
X143967360Y-109373330D02*
X145106320Y-111316490D01*
X143970560Y-112188000D02*
X145835150Y-114031680D01*
X144028600Y-95751470D02*
X146962950Y-94040250D01*
X144064020Y-105031150D02*
X144078810Y-107104390D01*
X144064020Y-105031150D02*
X144587340Y-103020970D01*
X144078810Y-107104390D02*
X144628670Y-109099400D01*
X144092140Y-116303210D02*
X147014310Y-117973250D01*
X144138100Y-124917030D02*
X149284370Y-126280670D01*
X144195340Y-100121980D02*
X145989480Y-98306940D01*
X144223710Y-87427120D02*
X149309670Y-86049030D01*
X144246470Y-96035410D02*
X147099910Y-94370900D01*
X144254500Y-111970120D02*
X146053020Y-113747740D01*
X144256680Y-102884010D02*
X145331110Y-100993480D01*
X144275060Y-124586380D02*
X149331080Y-125925830D01*
X144298020Y-109236360D02*
X145390260Y-111098620D01*
X144310020Y-116019270D02*
X147151270Y-117642590D01*
X144360670Y-87757780D02*
X149356390Y-86403870D01*
X144412030Y-124255720D02*
X149377800Y-125570990D01*
X144418860Y-105077870D02*
X144433640Y-106068750D01*
X144418860Y-105077870D02*
X144918000Y-103157930D01*
X144433640Y-106068750D02*
X145004160Y-106068750D01*
X144464340Y-96319350D02*
X147236880Y-94701560D01*
X144479290Y-100339860D02*
X146207350Y-98590880D01*
X144497630Y-88088430D02*
X149403110Y-86758710D01*
X144527890Y-115735320D02*
X147288240Y-117311940D01*
X144538440Y-111752240D02*
X146270900Y-113463800D01*
X144548990Y-123925060D02*
X149424520Y-125216150D01*
X144587340Y-103020970D02*
X145615050Y-101211360D01*
X144628670Y-109099400D02*
X145674200Y-110880740D01*
X144634590Y-88419090D02*
X149449820Y-87113550D01*
X144682220Y-96603290D02*
X147373840Y-95032210D01*
X144685950Y-123594410D02*
X149471230Y-124861310D01*
X144745770Y-115451380D02*
X147425200Y-116981280D01*
X144763230Y-100557730D02*
X146425230Y-98874820D01*
X144771550Y-88749750D02*
X149496530Y-87468380D01*
X144822380Y-111534370D02*
X146488770Y-113179850D01*
X144822910Y-123263750D02*
X149517950Y-124506480D01*
X144900100Y-96887230D02*
X147510800Y-95362870D01*
X144908520Y-89080400D02*
X149543250Y-87823220D01*
X144918000Y-103157930D02*
X145898990Y-101429230D01*
X144959880Y-122933100D02*
X149564660Y-124151640D01*
X144963650Y-115167440D02*
X147562160Y-116650620D01*
D10*
X145004160Y-106068750D02*
X145574670Y-106830750D01*
D11*
X145045480Y-89411060D02*
X149589970Y-88178060D01*
X145047170Y-100775610D02*
X146643100Y-99158760D01*
X145096840Y-122602440D02*
X149611380Y-123796800D01*
X145106320Y-111316490D02*
X146706650Y-112895910D01*
X145117970Y-97171180D02*
X147647760Y-95693530D01*
X145181520Y-114883500D02*
X147699120Y-116319970D01*
X145182440Y-89741710D02*
X149636680Y-88532900D01*
X145233800Y-122271780D02*
X149658090Y-123441960D01*
X145319400Y-90072370D02*
X149683400Y-88887740D01*
X145331110Y-100993480D02*
X146860980Y-99442700D01*
X145335850Y-97455120D02*
X147784730Y-96024180D01*
X145370760Y-121941130D02*
X149704810Y-123087120D01*
X145390260Y-111098620D02*
X146924530Y-112611970D01*
X145399400Y-114599560D02*
X147836090Y-115989310D01*
X145456360Y-90403030D02*
X149730110Y-89242570D01*
X145507730Y-121610470D02*
X149751520Y-122732290D01*
X145553730Y-97739060D02*
X147921690Y-96354840D01*
X145593330Y-90733680D02*
X149776830Y-89597410D01*
X145615050Y-101211360D02*
X147078850Y-99726640D01*
X145617270Y-114315620D02*
X147973050Y-115658660D01*
X145644690Y-121279810D02*
X149798240Y-122377450D01*
X145674200Y-110880740D02*
X147142400Y-112328030D01*
X145730290Y-91064340D02*
X149823540Y-89952250D01*
X145771600Y-98023000D02*
X148058650Y-96685500D01*
X145781650Y-120949160D02*
X149844950Y-122022610D01*
X145835150Y-114031680D02*
X148110010Y-115328000D01*
X145867250Y-91395000D02*
X149870260Y-90307090D01*
X145898990Y-101429230D02*
X147296730Y-100010590D01*
X145918610Y-120618500D02*
X149891670Y-121667770D01*
X145989480Y-98306940D02*
X148195610Y-97016150D01*
X146004210Y-91725650D02*
X149916970Y-90661930D01*
X146053020Y-113747740D02*
X148246970Y-114997340D01*
X146055580Y-120287850D02*
X149938390Y-121312930D01*
X146141180Y-92056310D02*
X149963690Y-91016760D01*
X146192540Y-119957190D02*
X149985100Y-120958100D01*
X146207350Y-98590880D02*
X148332570Y-97346810D01*
X146270900Y-113463800D02*
X148383940Y-114666690D01*
X146278140Y-92386960D02*
X150010400Y-91371600D01*
X146329500Y-119626530D02*
X150031810Y-120603260D01*
X146415100Y-92717620D02*
X150057120Y-91726440D01*
X146425230Y-98874820D02*
X148469540Y-97677470D01*
X146466460Y-119295880D02*
X150078530Y-120248420D01*
X146488770Y-113179850D02*
X148520900Y-114336030D01*
X146552060Y-93048280D02*
X150103830Y-92081280D01*
X146603430Y-118965220D02*
X150125250Y-119893580D01*
X146643100Y-99158760D02*
X148606500Y-98008120D01*
X146689030Y-93378930D02*
X150150550Y-92436120D01*
X146706650Y-112895910D02*
X148657860Y-114005370D01*
X146740390Y-118634560D02*
X150171960Y-119538740D01*
X146825990Y-93709590D02*
X150197260Y-92790950D01*
X146860980Y-99442700D02*
X148743460Y-98338780D01*
X146877350Y-118303910D02*
X150218680Y-119183910D01*
X146924530Y-112611970D02*
X148794820Y-113674720D01*
X146962950Y-94040250D02*
X150243980Y-93145790D01*
X147014310Y-117973250D02*
X150265390Y-118829070D01*
X147078850Y-99726640D02*
X148880420Y-98669440D01*
X147099910Y-94370900D02*
X150290700Y-93500630D01*
X147142400Y-112328030D02*
X148931790Y-113344060D01*
X147151270Y-117642590D02*
X150312110Y-118474230D01*
X147236880Y-94701560D02*
X150337410Y-93855470D01*
X147288240Y-117311940D02*
X150358820Y-118119390D01*
X147296730Y-100010590D02*
X149017390Y-99000090D01*
X147373840Y-95032210D02*
X150384120Y-94210310D01*
X147425200Y-116981280D02*
X150405540Y-117764550D01*
X147510800Y-95362870D02*
X150430840Y-94565140D01*
X147562160Y-116650620D02*
X150452250Y-117409720D01*
X147647760Y-95693530D02*
X150477560Y-94919980D01*
X147699120Y-116319970D02*
X150498970Y-117054880D01*
X147784730Y-96024180D02*
X150524270Y-95274820D01*
X147836090Y-115989310D02*
X150545680Y-116700040D01*
X147921690Y-96354840D02*
X150570990Y-95629660D01*
X147973050Y-115658660D02*
X150592400Y-116345200D01*
X148058650Y-96685500D02*
X150617700Y-95984500D01*
X148110010Y-115328000D02*
X150639110Y-115990360D01*
X148195610Y-97016150D02*
X150664420Y-96339330D01*
X148246970Y-114997340D02*
X150685830Y-115635530D01*
X148332570Y-97346810D02*
X150711130Y-96694170D01*
X148383940Y-114666690D02*
X150732540Y-115280690D01*
X148469540Y-97677470D02*
X150757850Y-97049010D01*
X148520900Y-114336030D02*
X150779260Y-114925850D01*
X148606500Y-98008120D02*
X150804560Y-97403850D01*
X148657860Y-114005370D02*
X150825980Y-114571010D01*
X148743460Y-98338780D02*
X150851280Y-97758690D01*
X148794820Y-113674720D02*
X150872690Y-114216170D01*
X148880420Y-98669440D02*
X150897990Y-98113520D01*
X148931790Y-113344060D02*
X150919400Y-113861340D01*
X149017390Y-99000090D02*
X150944710Y-98468360D01*
X149284370Y-126280670D02*
X154604320Y-126265880D01*
X149309670Y-86049030D02*
X154582910Y-86034250D01*
X149331080Y-125925830D02*
X154557610Y-125911040D01*
X149356390Y-86403870D02*
X154536200Y-86389080D01*
X149377800Y-125570990D02*
X154510890Y-125556200D01*
X149403110Y-86758710D02*
X154489480Y-86743920D01*
X149424520Y-125216150D02*
X154464180Y-125201370D01*
X149449820Y-87113550D02*
X154442770Y-87098760D01*
X149471230Y-124861310D02*
X154417460Y-124846530D01*
X149496530Y-87468380D02*
X154396050Y-87453600D01*
X149517950Y-124506480D02*
X154370750Y-124491690D01*
X149543250Y-87823220D02*
X154349330Y-87808440D01*
X149564660Y-124151640D02*
X154324030Y-124136850D01*
X149589970Y-88178060D02*
X154302620Y-88163270D01*
X149611380Y-123796800D02*
X154277310Y-123782010D01*
X149636680Y-88532900D02*
X154255910Y-88518110D01*
X149658090Y-123441960D02*
X154230600Y-123427180D01*
X149683400Y-88887740D02*
X154209190Y-88872950D01*
X149704810Y-123087120D02*
X154183890Y-123072340D01*
X149730110Y-89242570D02*
X154162470Y-89227790D01*
X149751520Y-122732290D02*
X154137170Y-122717500D01*
X149776830Y-89597410D02*
X154115760Y-89582630D01*
X149798240Y-122377450D02*
X154090450Y-122362660D01*
X149823540Y-89952250D02*
X154069040Y-89937460D01*
X149844950Y-122022610D02*
X154043740Y-122007820D01*
X149870260Y-90307090D02*
X154022330Y-90292300D01*
X149891670Y-121667770D02*
X153997020Y-121652990D01*
X149916970Y-90661930D02*
X153975610Y-90647140D01*
X149938390Y-121312930D02*
X153950310Y-121298150D01*
X149963690Y-91016760D02*
X153928900Y-91001980D01*
X149985100Y-120958100D02*
X153903590Y-120943310D01*
X150010400Y-91371600D02*
X153882180Y-91356820D01*
X150031810Y-120603260D02*
X153856880Y-120588470D01*
X150057120Y-91726440D02*
X153835470Y-91711650D01*
X150078530Y-120248420D02*
X153810160Y-120233630D01*
X150103830Y-92081280D02*
X153788750Y-92066490D01*
X150125250Y-119893580D02*
X153763450Y-119878800D01*
X150150550Y-92436120D02*
X153742040Y-92421330D01*
X150171960Y-119538740D02*
X153716730Y-119523960D01*
X150197260Y-92790950D02*
X153695320Y-92776170D01*
X150218680Y-119183910D02*
X153670020Y-119169120D01*
X150243980Y-93145790D02*
X153648610Y-93131010D01*
X150265390Y-118829070D02*
X153623300Y-118814280D01*
X150290700Y-93500630D02*
X153601890Y-93485840D01*
X150312110Y-118474230D02*
X153576580Y-118459440D01*
X150337410Y-93855470D02*
X153555180Y-93840680D01*
X150358820Y-118119390D02*
X153529870Y-118104610D01*
X150384120Y-94210310D02*
X153508460Y-94195520D01*
X150405540Y-117764550D02*
X153483160Y-117749770D01*
X150430840Y-94565140D02*
X153461740Y-94550360D01*
X150452250Y-117409720D02*
X153436440Y-117394930D01*
X150477560Y-94919980D02*
X153415030Y-94905200D01*
X150498970Y-117054880D02*
X153389720Y-117040090D01*
X150524270Y-95274820D02*
X153368310Y-95260030D01*
X150545680Y-116700040D02*
X153343010Y-116685250D01*
X150570990Y-95629660D02*
X153321600Y-95614870D01*
X150592400Y-116345200D02*
X153296290Y-116330420D01*
X150617700Y-95984500D02*
X153274880Y-95969710D01*
X150639110Y-115990360D02*
X153249580Y-115975580D01*
X150664420Y-96339330D02*
X153228170Y-96324550D01*
X150685830Y-115635530D02*
X153202860Y-115620740D01*
X150711130Y-96694170D02*
X153181450Y-96679390D01*
X150732540Y-115280690D02*
X153156150Y-115265900D01*
X150757850Y-97049010D02*
X153134740Y-97034220D01*
X150779260Y-114925850D02*
X153109430Y-114911060D01*
X150804560Y-97403850D02*
X153088020Y-97389060D01*
X150825980Y-114571010D02*
X153062720Y-114556230D01*
X150851280Y-97758690D02*
X153041310Y-97743900D01*
X150872690Y-114216170D02*
X153016000Y-114201390D01*
X150897990Y-98113520D02*
X152994590Y-98098740D01*
X150919400Y-113861340D02*
X152969290Y-113846550D01*
X150944710Y-98468360D02*
X152947880Y-98453580D01*
X152947880Y-98453580D02*
X154890370Y-98958760D01*
X152969290Y-113846550D02*
X154941730Y-113302730D01*
X152994590Y-98098740D02*
X155027330Y-98628100D01*
X153016000Y-114201390D02*
X155078690Y-113633390D01*
X153041310Y-97743900D02*
X155164300Y-98297450D01*
X153062720Y-114556230D02*
X155215660Y-113964040D01*
X153088020Y-97389060D02*
X155301260Y-97966790D01*
X153109430Y-114911060D02*
X155352620Y-114294700D01*
X153134740Y-97034220D02*
X155438220Y-97636130D01*
X153156150Y-115265900D02*
X155489580Y-114625360D01*
X153181450Y-96679390D02*
X155575180Y-97305480D01*
X153202860Y-115620740D02*
X155626550Y-114956010D01*
X153228170Y-96324550D02*
X155712150Y-96974820D01*
X153249580Y-115975580D02*
X155763510Y-115286670D01*
X153274880Y-95969710D02*
X155849110Y-96644160D01*
X153296290Y-116330420D02*
X155900470Y-115617320D01*
X153321600Y-95614870D02*
X155986070Y-96313510D01*
X153343010Y-116685250D02*
X156037430Y-115947980D01*
X153368310Y-95260030D02*
X156123030Y-95982850D01*
X153389720Y-117040090D02*
X156174400Y-116278640D01*
X153415030Y-94905200D02*
X156260000Y-95652200D01*
X153436440Y-117394930D02*
X156311360Y-116609290D01*
X153461740Y-94550360D02*
X156396960Y-95321540D01*
X153483160Y-117749770D02*
X156448320Y-116939950D01*
X153508460Y-94195520D02*
X156533920Y-94990880D01*
X153529870Y-118104610D02*
X156585280Y-117270610D01*
X153555180Y-93840680D02*
X156670880Y-94660230D01*
X153576580Y-118459440D02*
X156722240Y-117601260D01*
X153601890Y-93485840D02*
X156807850Y-94329570D01*
X153623300Y-118814280D02*
X156859210Y-117931920D01*
X153648610Y-93131010D02*
X156944810Y-93998910D01*
X153670020Y-119169120D02*
X156996170Y-118262570D01*
X153695320Y-92776170D02*
X157081770Y-93668260D01*
X153716730Y-119523960D02*
X157133130Y-118593230D01*
X153742040Y-92421330D02*
X157218730Y-93337600D01*
X153763450Y-119878800D02*
X157270090Y-118923890D01*
X153788750Y-92066490D02*
X157355700Y-93006950D01*
X153810160Y-120233630D02*
X157407050Y-119254540D01*
X153835470Y-91711650D02*
X157492660Y-92676290D01*
X153856880Y-120588470D02*
X157544020Y-119585200D01*
X153882180Y-91356820D02*
X157629620Y-92345630D01*
X153903590Y-120943310D02*
X157680980Y-119915860D01*
X153928900Y-91001980D02*
X157766580Y-92014980D01*
X153950310Y-121298150D02*
X157817940Y-120246510D01*
X153975610Y-90647140D02*
X157903540Y-91684320D01*
X153997020Y-121652990D02*
X157954900Y-120577170D01*
X154022330Y-90292300D02*
X158040510Y-91353660D01*
X154043740Y-122007820D02*
X158091870Y-120907830D01*
X154069040Y-89937460D02*
X158177470Y-91023010D01*
X154090450Y-122362660D02*
X158228830Y-121238480D01*
X154115760Y-89582630D02*
X158314430Y-90692350D01*
X154137170Y-122717500D02*
X158365790Y-121569140D01*
X154162470Y-89227790D02*
X158451390Y-90361690D01*
X154183890Y-123072340D02*
X158502750Y-121899800D01*
X154209190Y-88872950D02*
X158588360Y-90031040D01*
X154230600Y-123427180D02*
X158639720Y-122230450D01*
X154255910Y-88518110D02*
X158725320Y-89700380D01*
X154277310Y-123782010D02*
X158776680Y-122561110D01*
X154302620Y-88163270D02*
X158862280Y-89369720D01*
X154324030Y-124136850D02*
X158913640Y-122891760D01*
X154349330Y-87808440D02*
X158999240Y-89039070D01*
X154370750Y-124491690D02*
X159050600Y-123222420D01*
X154396050Y-87453600D02*
X159136210Y-88708410D01*
X154417460Y-124846530D02*
X159187570Y-123553080D01*
X154442770Y-87098760D02*
X159273170Y-88377750D01*
X154464180Y-125201370D02*
X159324530Y-123883730D01*
X154489480Y-86743920D02*
X159410130Y-88047100D01*
X154510890Y-125556200D02*
X159461490Y-124214390D01*
X154536200Y-86389080D02*
X159547090Y-87716440D01*
X154557610Y-125911040D02*
X159598450Y-124545050D01*
X154582910Y-86034250D02*
X159684060Y-87385790D01*
X154604320Y-126265880D02*
X159735420Y-124875700D01*
X154890370Y-98958760D02*
X156639300Y-99951430D01*
X154941730Y-113302730D02*
X156702850Y-112268880D01*
X155027330Y-98628100D02*
X156857180Y-99667490D01*
X155078690Y-113633390D02*
X156920720Y-112552820D01*
X155164300Y-98297450D02*
X157075050Y-99383550D01*
X155215660Y-113964040D02*
X157138600Y-112836760D01*
X155301260Y-97966790D02*
X157292930Y-99099610D01*
X155352620Y-114294700D02*
X157356470Y-113120700D01*
X155438220Y-97636130D02*
X157510800Y-98815670D01*
X155489580Y-114625360D02*
X157574350Y-113404640D01*
X155575180Y-97305480D02*
X157728680Y-98531730D01*
X155626550Y-114956010D02*
X157792230Y-113688580D01*
X155712150Y-96974820D02*
X157946550Y-98247790D01*
X155763510Y-115286670D02*
X158010100Y-113972520D01*
X155849110Y-96644160D02*
X158164430Y-97963840D01*
X155900470Y-115617320D02*
X158227980Y-114256470D01*
X155986070Y-96313510D02*
X158382310Y-97679900D01*
X156037430Y-115947980D02*
X158445850Y-114540400D01*
X156123030Y-95982850D02*
X158600180Y-97395960D01*
X156174400Y-116278640D02*
X158663730Y-114824350D01*
X156260000Y-95652200D02*
X158818060Y-97112020D01*
X156311360Y-116609290D02*
X158881600Y-115108290D01*
X156396960Y-95321540D02*
X159035930Y-96828080D01*
X156448320Y-116939950D02*
X159099480Y-115392230D01*
X156533920Y-94990880D02*
X159253810Y-96544140D01*
X156585280Y-117270610D02*
X159317360Y-115676170D01*
X156639300Y-99951430D02*
X158074460Y-101365690D01*
X156670880Y-94660230D02*
X159471680Y-96260200D01*
X156702850Y-112268880D02*
X158133620Y-110817200D01*
X156722240Y-117601260D02*
X159535230Y-115960110D01*
X156807850Y-94329570D02*
X159689560Y-95976260D01*
X156857180Y-99667490D02*
X158358410Y-101147810D01*
X156859210Y-117931920D02*
X159753110Y-116244050D01*
X156920720Y-112552820D02*
X158417560Y-111035070D01*
X156944810Y-93998910D02*
X159907440Y-95692310D01*
X156996170Y-118262570D02*
X159970980Y-116527990D01*
X157075050Y-99383550D02*
X158642350Y-100929940D01*
X157081770Y-93668260D02*
X160125310Y-95408380D01*
X157133130Y-118593230D02*
X160188860Y-116811930D01*
X157138600Y-112836760D02*
X158701500Y-111252950D01*
X157218730Y-93337600D02*
X160343190Y-95124430D01*
X157270090Y-118923890D02*
X160406730Y-117095880D01*
X157292930Y-99099610D02*
X158926290Y-100712060D01*
X157355700Y-93006950D02*
X160561060Y-94840490D01*
X157356470Y-113120700D02*
X158985440Y-111470820D01*
X157407050Y-119254540D02*
X160624610Y-117379820D01*
X157492660Y-92676290D02*
X160778940Y-94556550D01*
X157510800Y-98815670D02*
X159210230Y-100494180D01*
X157544020Y-119585200D02*
X160842480Y-117663760D01*
X157574350Y-113404640D02*
X159269380Y-111688700D01*
X157629620Y-92345630D02*
X160996810Y-94272610D01*
X157680980Y-119915860D02*
X161060360Y-117947700D01*
X157728680Y-98531730D02*
X159494170Y-100276310D01*
X157766580Y-92014980D02*
X161214690Y-93988670D01*
X157792230Y-113688580D02*
X159553320Y-111906570D01*
X157817940Y-120246510D02*
X161278240Y-118231640D01*
X157903540Y-91684320D02*
X161432560Y-93704730D01*
X157946550Y-98247790D02*
X159778110Y-100058430D01*
X157954900Y-120577170D02*
X161496110Y-118515580D01*
X158010100Y-113972520D02*
X159837270Y-112124450D01*
X158040510Y-91353660D02*
X161650440Y-93420790D01*
X158074460Y-101365690D02*
X159096640Y-103106570D01*
X158091870Y-120907830D02*
X161713990Y-118799520D01*
X158133620Y-110817200D02*
X159137970Y-109048040D01*
X158164430Y-97963840D02*
X160062050Y-99840560D01*
X158177470Y-91023010D02*
X161868320Y-93136850D01*
X158227980Y-114256470D02*
X160121210Y-112342320D01*
X158228830Y-121238480D02*
X161931860Y-119083460D01*
X158314430Y-90692350D02*
X162086190Y-92852900D01*
X158358410Y-101147810D02*
X159427290Y-102969610D01*
X158365790Y-121569140D02*
X162149740Y-119367400D01*
X158382310Y-97679900D02*
X160345990Y-99622680D01*
X158417560Y-111035070D02*
X159468630Y-109185000D01*
X158445850Y-114540400D02*
X160405150Y-112560200D01*
X158451390Y-90361690D02*
X162304070Y-92568960D01*
X158502750Y-121899800D02*
X162367610Y-119651340D01*
X158588360Y-90031040D02*
X162521940Y-92285020D01*
X158600180Y-97395960D02*
X160629930Y-99404810D01*
X158639720Y-122230450D02*
X162585490Y-119935290D01*
X158642350Y-100929940D02*
X159757950Y-102832650D01*
X158663730Y-114824350D02*
X160689090Y-112778080D01*
X158701500Y-111252950D02*
X159799280Y-109321960D01*
X158725320Y-89700380D02*
X162739820Y-92001080D01*
X158776680Y-122561110D02*
X162803370Y-120219230D01*
X158818060Y-97112020D02*
X160913880Y-99186930D01*
X158862280Y-89369720D02*
X162957690Y-91717140D01*
X158881600Y-115108290D02*
X160973030Y-112995950D01*
X158913640Y-122891760D02*
X163021240Y-120503170D01*
X158926290Y-100712060D02*
X160088610Y-102695690D01*
X158985440Y-111470820D02*
X160129940Y-109458930D01*
X158999240Y-89039070D02*
X163175570Y-91433200D01*
X159035930Y-96828080D02*
X161197820Y-98969050D01*
X159050600Y-123222420D02*
X163239120Y-120787110D01*
X159096640Y-103106570D02*
X159634410Y-105056460D01*
X159099480Y-115392230D02*
X161256970Y-113213830D01*
X159136210Y-88708410D02*
X163393450Y-91149260D01*
X159137970Y-109048040D02*
X159649200Y-107082980D01*
X159187570Y-123553080D02*
X163456990Y-121071050D01*
X159210230Y-100494180D02*
X160419260Y-102558720D01*
X159253810Y-96544140D02*
X161481760Y-98751180D01*
X159269380Y-111688700D02*
X160460600Y-109595890D01*
X159273170Y-88377750D02*
X163611320Y-90865320D01*
X159317360Y-115676170D02*
X161540910Y-113431700D01*
X159324530Y-123883730D02*
X163674870Y-121354990D01*
X159410130Y-88047100D02*
X163829200Y-90581380D01*
X159427290Y-102969610D02*
X159989250Y-105009740D01*
X159461490Y-124214390D02*
X163892740Y-121638930D01*
X159468630Y-109185000D02*
X160004040Y-107129700D01*
X159471680Y-96260200D02*
X161765700Y-98533300D01*
X159494170Y-100276310D02*
X160749920Y-102421760D01*
X159535230Y-115960110D02*
X161824850Y-113649580D01*
X159547090Y-87716440D02*
X164047070Y-90297440D01*
X159553320Y-111906570D02*
X160791250Y-109732850D01*
X159598450Y-124545050D02*
X164110620Y-121922870D01*
X159634410Y-105056460D02*
X159649200Y-107082980D01*
X159684060Y-87385790D02*
X164264950Y-90013490D01*
X159689560Y-95976260D02*
X162049640Y-98315430D01*
X159735420Y-124875700D02*
X164328490Y-122206810D01*
X159753110Y-116244050D02*
X162108800Y-113867450D01*
X159757950Y-102832650D02*
X160344090Y-104963030D01*
X159778110Y-100058430D02*
X161080580Y-102284800D01*
X159799280Y-109321960D02*
X160358870Y-107176410D01*
X159837270Y-112124450D02*
X161121910Y-109869810D01*
X159907440Y-95692310D02*
X162333580Y-98097550D01*
X159970980Y-116527990D02*
X162392730Y-114085330D01*
X159989250Y-105009740D02*
X160004040Y-107129700D01*
X160062050Y-99840560D02*
X161411230Y-102147840D01*
X160088610Y-102695690D02*
X160698930Y-104916310D01*
X160121210Y-112342320D02*
X161452570Y-110006780D01*
X160125310Y-95408380D02*
X162617520Y-97879680D01*
X160129940Y-109458930D02*
X160713710Y-107223130D01*
X160188860Y-116811930D02*
X162676680Y-114303210D01*
X160343190Y-95124430D02*
X162901460Y-97661800D01*
X160344090Y-104963030D02*
X160358870Y-107176410D01*
X160345990Y-99622680D02*
X161741890Y-102010870D01*
X160405150Y-112560200D02*
X161783220Y-110143740D01*
X160406730Y-117095880D02*
X162960620Y-114521080D01*
X160419260Y-102558720D02*
X161053770Y-104869600D01*
X160460600Y-109595890D02*
X161068550Y-107269840D01*
X160561060Y-94840490D02*
X163185400Y-97443930D01*
X160624610Y-117379820D02*
X163244560Y-114738960D01*
X160629930Y-99404810D02*
X162072540Y-101873910D01*
X160689090Y-112778080D02*
X162113880Y-110280700D01*
X160698930Y-104916310D02*
X160713710Y-107223130D01*
X160749920Y-102421760D02*
X161408600Y-104822880D01*
X160778940Y-94556550D02*
X163469350Y-97226050D01*
X160791250Y-109732850D02*
X161423390Y-107316560D01*
X160842480Y-117663760D02*
X163528500Y-114956830D01*
X160913880Y-99186930D02*
X162403200Y-101736950D01*
X160973030Y-112995950D02*
X162444530Y-110417660D01*
X160996810Y-94272610D02*
X163753290Y-97008170D01*
X161053770Y-104869600D02*
X161068550Y-107269840D01*
X161060360Y-117947700D02*
X163812440Y-115174710D01*
X161080580Y-102284800D02*
X161763440Y-104776160D01*
X161121910Y-109869810D02*
X161778230Y-107363270D01*
X161197820Y-98969050D02*
X162733860Y-101599990D01*
X161214690Y-93988670D02*
X164037230Y-96790300D01*
X161256970Y-113213830D02*
X162775190Y-110554630D01*
X161278240Y-118231640D02*
X164096380Y-115392580D01*
X161408600Y-104822880D02*
X161423390Y-107316560D01*
X161411230Y-102147840D02*
X162118280Y-104729450D01*
X161432560Y-93704730D02*
X164321170Y-96572420D01*
X161452570Y-110006780D02*
X162133060Y-107409990D01*
X161481760Y-98751180D02*
X163064510Y-101463020D01*
X161496110Y-118515580D02*
X164380320Y-115610460D01*
X161540910Y-113431700D02*
X163105850Y-110691590D01*
X161650440Y-93420790D02*
X164605110Y-96354550D01*
X161713990Y-118799520D02*
X164664260Y-115828330D01*
X161741890Y-102010870D02*
X162473120Y-104682740D01*
X161763440Y-104776160D02*
X161778230Y-107363270D01*
X161765700Y-98533300D02*
X163395170Y-101326060D01*
X161783220Y-110143740D02*
X162487900Y-107456700D01*
X161824850Y-113649580D02*
X163436500Y-110828550D01*
X161868320Y-93136850D02*
X164889050Y-96136670D01*
X161931860Y-119083460D02*
X164948210Y-116046210D01*
X162049640Y-98315430D02*
X163725830Y-101189100D01*
X162072540Y-101873910D02*
X162827960Y-104636020D01*
X162086190Y-92852900D02*
X165172990Y-95918800D01*
X162108800Y-113867450D02*
X163767160Y-110965510D01*
X162113880Y-110280700D02*
X162842740Y-107503420D01*
X162118280Y-104729450D02*
X162133060Y-107409990D01*
X162149740Y-119367400D02*
X165232150Y-116264090D01*
X162304070Y-92568960D02*
X165456930Y-95700920D01*
X162333580Y-98097550D02*
X164056480Y-101052140D01*
X162367610Y-119651340D02*
X165516090Y-116481960D01*
X162392730Y-114085330D02*
X164097820Y-111102470D01*
X162403200Y-101736950D02*
X163182790Y-104589300D01*
X162444530Y-110417660D02*
X163197580Y-107550130D01*
X162473120Y-104682740D02*
X162487900Y-107456700D01*
X162521940Y-92285020D02*
X165740870Y-95483040D01*
X162585490Y-119935290D02*
X165800030Y-116699840D01*
X162617520Y-97879680D02*
X164387140Y-100915170D01*
X162676680Y-114303210D02*
X164428470Y-111239440D01*
X162733860Y-101599990D02*
X163537630Y-104542590D01*
X162739820Y-92001080D02*
X166024810Y-95265170D01*
X162775190Y-110554630D02*
X163552420Y-107596850D01*
X162803370Y-120219230D02*
X166083970Y-116917710D01*
X162827960Y-104636020D02*
X162842740Y-107503420D01*
X162901460Y-97661800D02*
X164717800Y-100778210D01*
X162957690Y-91717140D02*
X166308760Y-95047290D01*
X162960620Y-114521080D02*
X164759130Y-111376400D01*
X163021240Y-120503170D02*
X166367910Y-117135590D01*
X163064510Y-101463020D02*
X163892470Y-104495870D01*
X163105850Y-110691590D02*
X163907250Y-107643570D01*
X163175570Y-91433200D02*
X166592700Y-94829420D01*
X163182790Y-104589300D02*
X163197580Y-107550130D01*
X163185400Y-97443930D02*
X165048450Y-100641250D01*
X163239120Y-120787110D02*
X166651850Y-117353460D01*
X163244560Y-114738960D02*
X165089780Y-111513360D01*
X163393450Y-91149260D02*
X166876640Y-94611540D01*
X163395170Y-101326060D02*
X164247310Y-104449160D01*
X163436500Y-110828550D02*
X164262090Y-107690280D01*
X163456990Y-121071050D02*
X166935790Y-117571340D01*
X163469350Y-97226050D02*
X165379110Y-100504290D01*
X163528500Y-114956830D02*
X165420440Y-111650320D01*
X163537630Y-104542590D02*
X163552420Y-107596850D01*
X163611320Y-90865320D02*
X167160580Y-94393670D01*
X163674870Y-121354990D02*
X167219730Y-117789220D01*
X163725830Y-101189100D02*
X164602150Y-104402440D01*
X163753290Y-97008170D02*
X165709770Y-100367330D01*
X163767160Y-110965510D02*
X164616930Y-107736990D01*
X163812440Y-115174710D02*
X165751100Y-111787290D01*
X163829200Y-90581380D02*
X167444520Y-94175790D01*
X163892470Y-104495870D02*
X163907250Y-107643570D01*
X163892740Y-121638930D02*
X167503670Y-118007090D01*
X164037230Y-96790300D02*
X166040420Y-100230360D01*
X164047070Y-90297440D02*
X167728460Y-93957920D01*
X164056480Y-101052140D02*
X164956980Y-104355730D01*
X164096380Y-115392580D02*
X166081750Y-111924250D01*
X164097820Y-111102470D02*
X164971770Y-107783710D01*
X164110620Y-121922870D02*
X167787620Y-118224970D01*
X164247310Y-104449160D02*
X164262090Y-107690280D01*
X164264950Y-90013490D02*
X168012400Y-93740040D01*
X164321170Y-96572420D02*
X166371080Y-100093400D01*
X164328490Y-122206810D02*
X168071560Y-118442840D01*
X164380320Y-115610460D02*
X166412410Y-112061210D01*
X164387140Y-100915170D02*
X165311820Y-104309010D01*
X164428470Y-111239440D02*
X165326610Y-107830430D01*
X164602150Y-104402440D02*
X164616930Y-107736990D01*
X164605110Y-96354550D02*
X166701730Y-99956440D01*
X164664260Y-115828330D02*
X166743070Y-112198170D01*
X164717800Y-100778210D02*
X165666660Y-104262300D01*
X164759130Y-111376400D02*
X165681440Y-107877140D01*
X164889050Y-96136670D02*
X167032390Y-99819480D01*
X164948210Y-116046210D02*
X167073720Y-112335140D01*
X164956980Y-104355730D02*
X164971770Y-107783710D01*
X165048450Y-100641250D02*
X166021500Y-104215580D01*
X165089780Y-111513360D02*
X166036280Y-107923860D01*
X165172990Y-95918800D02*
X167363050Y-99682510D01*
X165232150Y-116264090D02*
X167404380Y-112472100D01*
X165311820Y-104309010D02*
X165326610Y-107830430D01*
X165379110Y-100504290D02*
X166376340Y-104168870D01*
X165420440Y-111650320D02*
X166391120Y-107970570D01*
X165456930Y-95700920D02*
X167693700Y-99545550D01*
X165516090Y-116481960D02*
X167735030Y-112609060D01*
X165666660Y-104262300D02*
X165681440Y-107877140D01*
X165709770Y-100367330D02*
X166731170Y-104122150D01*
X165740870Y-95483040D02*
X168024360Y-99408590D01*
X165751100Y-111787290D02*
X166745960Y-108017290D01*
X165800030Y-116699840D02*
X168065690Y-112746020D01*
X166021500Y-104215580D02*
X166036280Y-107923860D01*
X166024810Y-95265170D02*
X168355020Y-99271630D01*
X166040420Y-100230360D02*
X167086010Y-104075440D01*
X166081750Y-111924250D02*
X167100800Y-108064000D01*
X166083970Y-116917710D02*
X168396350Y-112882990D01*
X166308760Y-95047290D02*
X168685670Y-99134660D01*
X166367910Y-117135590D02*
X168727000Y-113019950D01*
X166371080Y-100093400D02*
X167440850Y-104028720D01*
X166376340Y-104168870D02*
X166391120Y-107970570D01*
X166412410Y-112061210D02*
X167455630Y-108110720D01*
X166592700Y-94829420D02*
X169016330Y-98997700D01*
X166651850Y-117353460D02*
X169057660Y-113156910D01*
X166701730Y-99956440D02*
X167795690Y-103982010D01*
X166731170Y-104122150D02*
X166745960Y-108017290D01*
X166743070Y-112198170D02*
X167810470Y-108157430D01*
X166876640Y-94611540D02*
X169346980Y-98860740D01*
X166935790Y-117571340D02*
X169388320Y-113293870D01*
X167032390Y-99819480D02*
X168150530Y-103935290D01*
X167073720Y-112335140D02*
X168165310Y-108204150D01*
X167086010Y-104075440D02*
X167100800Y-108064000D01*
X167160580Y-94393670D02*
X169677640Y-98723780D01*
X167219730Y-117789220D02*
X169718970Y-113430830D01*
X167363050Y-99682510D02*
X168505360Y-103888570D01*
X167404380Y-112472100D02*
X168520150Y-108250860D01*
X167440850Y-104028720D02*
X167455630Y-108110720D01*
X167444520Y-94175790D02*
X170008300Y-98586810D01*
X167503670Y-118007090D02*
X170049630Y-113567800D01*
X167693700Y-99545550D02*
X168860200Y-103841860D01*
X167728460Y-93957920D02*
X170338950Y-98449850D01*
X167735030Y-112609060D02*
X168874990Y-108297580D01*
X167787620Y-118224970D02*
X170380290Y-113704760D01*
X167795690Y-103982010D02*
X167810470Y-108157430D01*
X168012400Y-93740040D02*
X170669610Y-98312890D01*
X168024360Y-99408590D02*
X169215040Y-103795140D01*
X168065690Y-112746020D02*
X169229820Y-108344300D01*
X168071560Y-118442840D02*
X170710940Y-113841720D01*
X168150530Y-103935290D02*
X168165310Y-108204150D01*
X168355020Y-99271630D02*
X169569880Y-103748430D01*
X168396350Y-112882990D02*
X169584660Y-108391010D01*
X168505360Y-103888570D02*
X168520150Y-108250860D01*
X168685670Y-99134660D02*
X169924720Y-103701710D01*
X168727000Y-113019950D02*
X169939500Y-108437720D01*
X168860200Y-103841860D02*
X168874990Y-108297580D01*
X169016330Y-98997700D02*
X170279550Y-103655000D01*
X169057660Y-113156910D02*
X170294340Y-108484440D01*
X169215040Y-103795140D02*
X169229820Y-108344300D01*
X169346980Y-98860740D02*
X170634390Y-103608280D01*
X169388320Y-113293870D02*
X170649180Y-108531160D01*
X169569880Y-103748430D02*
X169584660Y-108391010D01*
X169677640Y-98723780D02*
X170989230Y-103561570D01*
X169718970Y-113430830D02*
X171004010Y-108577870D01*
X169924720Y-103701710D02*
X169939500Y-108437720D01*
X170008300Y-98586810D02*
X171344070Y-103514850D01*
X170049630Y-113567800D02*
X171358850Y-108624590D01*
X170279550Y-103655000D02*
X170294340Y-108484440D01*
X170338950Y-98449850D02*
X171698910Y-103468140D01*
X170380290Y-113704760D02*
X171713690Y-108671300D01*
X170634390Y-103608280D02*
X170649180Y-108531160D01*
X170669610Y-98312890D02*
X172053740Y-103421420D01*
X170710940Y-113841720D02*
X172068530Y-108718020D01*
X170989230Y-103561570D02*
X171004010Y-108577870D01*
X171344070Y-103514850D02*
X171358850Y-108624590D01*
X171698910Y-103468140D02*
X171713690Y-108671300D01*
X172053740Y-103421420D02*
X172068530Y-108718020D01*
G04 #@! TD*
D12*
G04 #@! TO.N,*
X130434100Y-106080600D03*
X145572500Y-106842600D03*
X130434100Y-104048600D03*
G04 #@! TO.N,/Off_board_inductor/Board_connection/Sense_coil_1*
X145572500Y-105318600D03*
G04 #@! TD*
M02*
