G04*
G04 #@! TF.GenerationSoftware,Altium Limited,Altium Designer,23.7.1 (13)*
G04*
G04 Layer_Color=2752767*
%FSLAX25Y25*%
%MOIN*%
G70*
G04*
G04 #@! TF.SameCoordinates,FE150CF2-D92F-4AEA-AE3F-07D5F2836877*
G04*
G04*
G04 #@! TF.FilePolarity,Positive*
G04*
G01*
G75*
%ADD10C,0.01000*%
%ADD13C,0.00500*%
%ADD80C,0.01500*%
%ADD82C,0.01600*%
D10*
X13396Y267323D02*
G03*
X13396Y267323I-3333J0D01*
G01*
X6729Y293990D02*
X13396D01*
Y300657D01*
X6729D02*
X13396D01*
X6729Y293990D02*
Y300657D01*
X8396Y280657D02*
X10063Y278990D01*
X6729Y280657D02*
X8396D01*
X6729D02*
X8396Y282324D01*
X6729Y283990D02*
X8396Y282324D01*
X6729Y283990D02*
X8396D01*
X10063Y285657D01*
X11729Y283990D01*
X13396D01*
X11729Y282324D02*
X13396Y283990D01*
X11729Y282324D02*
X13396Y280657D01*
X11729D02*
X13396D01*
X10063Y278990D02*
X11729Y280657D01*
X6729Y250657D02*
X8396D01*
X6729D02*
Y253990D01*
X8396D01*
Y255657D01*
X11729D01*
Y253990D02*
Y255657D01*
Y253990D02*
X13396D01*
Y250657D02*
Y253990D01*
X11729Y250657D02*
X13396D01*
X11729Y248990D02*
Y250657D01*
X8396Y248990D02*
X11729D01*
X8396D02*
Y250657D01*
X636777Y297989D02*
X638777Y293990D01*
X640776Y297989D01*
X642776Y293990D02*
X644775D01*
X643775D01*
Y299988D01*
X642776Y298989D01*
X647774D02*
X648774Y299988D01*
X650773D01*
X651773Y298989D01*
Y294990D01*
X650773Y293990D01*
X648774D01*
X647774Y294990D01*
Y298989D01*
X657771Y293990D02*
X653772D01*
X657771Y297989D01*
Y298989D01*
X656771Y299988D01*
X654772D01*
X653772Y298989D01*
X659770Y299988D02*
Y293990D01*
Y296989D01*
X660770Y297989D01*
X662769D01*
X663769Y296989D01*
Y293990D01*
X665768Y298989D02*
X666768Y299988D01*
X668767D01*
X669767Y298989D01*
Y297989D01*
X668767Y296989D01*
X667767D01*
X668767D01*
X669767Y295989D01*
Y294990D01*
X668767Y293990D01*
X666768D01*
X665768Y294990D01*
X675765Y299988D02*
X673766Y298989D01*
X671766Y296989D01*
Y294990D01*
X672766Y293990D01*
X674765D01*
X675765Y294990D01*
Y295989D01*
X674765Y296989D01*
X671766D01*
X640776Y282989D02*
X637777D01*
X636777Y281989D01*
Y279990D01*
X637777Y278990D01*
X640776D01*
X642776Y283988D02*
X643775Y284988D01*
X645775D01*
X646774Y283988D01*
Y279990D01*
X645775Y278990D01*
X643775D01*
X642776Y279990D01*
Y283988D01*
X648774Y284988D02*
Y278990D01*
Y281989D01*
X649773Y282989D01*
X651773D01*
X652772Y281989D01*
Y278990D01*
X654772D02*
Y282989D01*
X657771D01*
X658770Y281989D01*
Y278990D01*
X660770Y283988D02*
X661769Y284988D01*
X663769D01*
X664769Y283988D01*
Y282989D01*
X663769Y281989D01*
X662769D01*
X663769D01*
X664769Y280990D01*
Y279990D01*
X663769Y278990D01*
X661769D01*
X660770Y279990D01*
X666768Y284988D02*
X670766D01*
Y283988D01*
X666768Y279990D01*
Y278990D01*
X672766Y283988D02*
X673766Y284988D01*
X675765D01*
X676765Y283988D01*
Y279990D01*
X675765Y278990D01*
X673766D01*
X672766Y279990D01*
Y283988D01*
X678764Y276991D02*
Y282989D01*
X681763D01*
X682763Y281989D01*
Y279990D01*
X681763Y278990D01*
X678764D01*
X684762Y281989D02*
X688761D01*
X690760Y278990D02*
X692759D01*
X691760D01*
Y284988D01*
X690760Y283988D01*
X638777Y263990D02*
X636777Y265989D01*
Y267989D01*
X638777Y269988D01*
X641776Y263990D02*
Y269988D01*
X643775Y267989D01*
X645775Y269988D01*
Y263990D01*
X647774D02*
X649773D01*
X648774D01*
Y267989D01*
X647774D01*
X652772D02*
X656771Y263990D01*
X654772Y265989D01*
X656771Y267989D01*
X652772Y263990D01*
X661769D02*
X659770D01*
X658770Y264990D01*
Y266989D01*
X659770Y267989D01*
X661769D01*
X662769Y266989D01*
Y265989D01*
X658770D01*
X668767Y269988D02*
Y263990D01*
X665768D01*
X664769Y264990D01*
Y266989D01*
X665768Y267989D01*
X668767D01*
X670766Y263990D02*
X672766Y265989D01*
Y267989D01*
X670766Y269988D01*
X636777Y252989D02*
X638777Y248990D01*
X640776Y252989D01*
X642776Y254988D02*
X646774D01*
Y253989D01*
X642776Y249990D01*
Y248990D01*
X648774Y253989D02*
X649773Y254988D01*
X651773D01*
X652772Y253989D01*
Y249990D01*
X651773Y248990D01*
X649773D01*
X648774Y249990D01*
Y253989D01*
X654772Y254988D02*
Y248990D01*
Y251989D01*
X655771Y252989D01*
X657771D01*
X658770Y251989D01*
Y248990D01*
X660770Y253989D02*
X661769Y254988D01*
X663769D01*
X664769Y253989D01*
Y252989D01*
X663769Y251989D01*
X662769D01*
X663769D01*
X664769Y250990D01*
Y249990D01*
X663769Y248990D01*
X661769D01*
X660770Y249990D01*
X666768Y253989D02*
X667767Y254988D01*
X669767D01*
X670766Y253989D01*
Y249990D01*
X669767Y248990D01*
X667767D01*
X666768Y249990D01*
Y253989D01*
X562198Y293990D02*
Y299988D01*
X565197D01*
X566196Y298989D01*
Y296989D01*
X565197Y295989D01*
X562198D01*
X564197D02*
X566196Y293990D01*
X569195D02*
X571195D01*
X572194Y294990D01*
Y296989D01*
X571195Y297989D01*
X569195D01*
X568196Y296989D01*
Y294990D01*
X569195Y293990D01*
X574194Y297989D02*
Y294990D01*
X575194Y293990D01*
X578193D01*
Y297989D01*
X580192Y293990D02*
Y297989D01*
X583191D01*
X584191Y296989D01*
Y293990D01*
X590189Y299988D02*
Y293990D01*
X587190D01*
X586190Y294990D01*
Y296989D01*
X587190Y297989D01*
X590189D01*
X595187Y293990D02*
X593188D01*
X592188Y294990D01*
Y296989D01*
X593188Y297989D01*
X595187D01*
X596187Y296989D01*
Y295989D01*
X592188D01*
X602185Y299988D02*
Y293990D01*
X599186D01*
X598186Y294990D01*
Y296989D01*
X599186Y297989D01*
X602185D01*
X562198Y278990D02*
Y284988D01*
X565197D01*
X566196Y283988D01*
Y281989D01*
X565197Y280990D01*
X562198D01*
X564197D02*
X566196Y278990D01*
X569195D02*
X571195D01*
X572194Y279990D01*
Y281989D01*
X571195Y282989D01*
X569195D01*
X568196Y281989D01*
Y279990D01*
X569195Y278990D01*
X574194Y282989D02*
Y279990D01*
X575194Y278990D01*
X578193D01*
Y282989D01*
X580192Y278990D02*
Y282989D01*
X583191D01*
X584191Y281989D01*
Y278990D01*
X590189Y284988D02*
Y278990D01*
X587190D01*
X586190Y279990D01*
Y281989D01*
X587190Y282989D01*
X590189D01*
X595187Y278990D02*
X593188D01*
X592188Y279990D01*
Y281989D01*
X593188Y282989D01*
X595187D01*
X596187Y281989D01*
Y280990D01*
X592188D01*
X602185Y284988D02*
Y278990D01*
X599186D01*
X598186Y279990D01*
Y281989D01*
X599186Y282989D01*
X602185D01*
X562198Y263990D02*
Y269988D01*
X565197D01*
X566196Y268988D01*
Y266989D01*
X565197Y265989D01*
X562198D01*
X564197D02*
X566196Y263990D01*
X569195D02*
X571195D01*
X572194Y264990D01*
Y266989D01*
X571195Y267989D01*
X569195D01*
X568196Y266989D01*
Y264990D01*
X569195Y263990D01*
X574194Y267989D02*
Y264990D01*
X575194Y263990D01*
X578193D01*
Y267989D01*
X580192Y263990D02*
Y267989D01*
X583191D01*
X584191Y266989D01*
Y263990D01*
X590189Y269988D02*
Y263990D01*
X587190D01*
X586190Y264990D01*
Y266989D01*
X587190Y267989D01*
X590189D01*
X595187Y263990D02*
X593188D01*
X592188Y264990D01*
Y266989D01*
X593188Y267989D01*
X595187D01*
X596187Y266989D01*
Y265989D01*
X592188D01*
X602185Y269988D02*
Y263990D01*
X599186D01*
X598186Y264990D01*
Y266989D01*
X599186Y267989D01*
X602185D01*
X562198Y248990D02*
Y254988D01*
X565197D01*
X566196Y253989D01*
Y251989D01*
X565197Y250990D01*
X562198D01*
X564197D02*
X566196Y248990D01*
X569195D02*
X571195D01*
X572194Y249990D01*
Y251989D01*
X571195Y252989D01*
X569195D01*
X568196Y251989D01*
Y249990D01*
X569195Y248990D01*
X574194Y252989D02*
Y249990D01*
X575194Y248990D01*
X578193D01*
Y252989D01*
X580192Y248990D02*
Y252989D01*
X583191D01*
X584191Y251989D01*
Y248990D01*
X590189Y254988D02*
Y248990D01*
X587190D01*
X586190Y249990D01*
Y251989D01*
X587190Y252989D01*
X590189D01*
X595187Y248990D02*
X593188D01*
X592188Y249990D01*
Y251989D01*
X593188Y252989D01*
X595187D01*
X596187Y251989D01*
Y250990D01*
X592188D01*
X602185Y254988D02*
Y248990D01*
X599186D01*
X598186Y249990D01*
Y251989D01*
X599186Y252989D01*
X602185D01*
X503213Y299988D02*
Y295989D01*
X505212Y293990D01*
X507211Y295989D01*
Y299988D01*
X509211Y293990D02*
X511210D01*
X510211D01*
Y297989D01*
X509211D01*
X515209D02*
X517208D01*
X518208Y296989D01*
Y293990D01*
X515209D01*
X514209Y294990D01*
X515209Y295989D01*
X518208D01*
X503213Y278990D02*
Y284988D01*
X506212D01*
X507211Y283988D01*
Y281989D01*
X506212Y280990D01*
X503213D01*
X510211Y282989D02*
X512210D01*
X513210Y281989D01*
Y278990D01*
X510211D01*
X509211Y279990D01*
X510211Y280990D01*
X513210D01*
X519208Y284988D02*
Y278990D01*
X516209D01*
X515209Y279990D01*
Y281989D01*
X516209Y282989D01*
X519208D01*
X505212Y263990D02*
X503213Y265989D01*
Y267989D01*
X505212Y269988D01*
X508211Y263990D02*
Y269988D01*
X510211Y267989D01*
X512210Y269988D01*
Y263990D01*
X514209D02*
X516209D01*
X515209D01*
Y267989D01*
X514209D01*
X519208D02*
X523206Y263990D01*
X521207Y265989D01*
X523206Y267989D01*
X519208Y263990D01*
X528205D02*
X526205D01*
X525206Y264990D01*
Y266989D01*
X526205Y267989D01*
X528205D01*
X529204Y266989D01*
Y265989D01*
X525206D01*
X535203Y269988D02*
Y263990D01*
X532203D01*
X531204Y264990D01*
Y266989D01*
X532203Y267989D01*
X535203D01*
X537202Y263990D02*
X539201Y265989D01*
Y267989D01*
X537202Y269988D01*
X503213Y254988D02*
Y250990D01*
X505212Y248990D01*
X507211Y250990D01*
Y254988D01*
X509211Y248990D02*
X511210D01*
X510211D01*
Y252989D01*
X509211D01*
X515209D02*
X517208D01*
X518208Y251989D01*
Y248990D01*
X515209D01*
X514209Y249990D01*
X515209Y250990D01*
X518208D01*
X353258Y299988D02*
X357257D01*
X355257D01*
Y293990D01*
X360256D02*
X362255D01*
X363255Y294990D01*
Y296989D01*
X362255Y297989D01*
X360256D01*
X359256Y296989D01*
Y294990D01*
X360256Y293990D01*
X365254Y291991D02*
Y297989D01*
X368253D01*
X369253Y296989D01*
Y294990D01*
X368253Y293990D01*
X365254D01*
X377250Y299988D02*
Y293990D01*
X381249D01*
X384248Y297989D02*
X386247D01*
X387247Y296989D01*
Y293990D01*
X384248D01*
X383248Y294990D01*
X384248Y295989D01*
X387247D01*
X389246Y297989D02*
Y294990D01*
X390246Y293990D01*
X393245D01*
Y292990D01*
X392245Y291991D01*
X391246D01*
X393245Y293990D02*
Y297989D01*
X398243Y293990D02*
X396244D01*
X395244Y294990D01*
Y296989D01*
X396244Y297989D01*
X398243D01*
X399243Y296989D01*
Y295989D01*
X395244D01*
X401242Y297989D02*
Y293990D01*
Y295989D01*
X402242Y296989D01*
X403242Y297989D01*
X404241D01*
X413238Y296989D02*
X417237D01*
X425235Y299988D02*
Y293990D01*
X428233D01*
X429233Y294990D01*
Y295989D01*
X428233Y296989D01*
X425235D01*
X428233D01*
X429233Y297989D01*
Y298989D01*
X428233Y299988D01*
X425235D01*
X432232Y293990D02*
X434232D01*
X435231Y294990D01*
Y296989D01*
X434232Y297989D01*
X432232D01*
X431233Y296989D01*
Y294990D01*
X432232Y293990D01*
X438230Y298989D02*
Y297989D01*
X437231D01*
X439230D01*
X438230D01*
Y294990D01*
X439230Y293990D01*
X443229Y298989D02*
Y297989D01*
X442229D01*
X444228D01*
X443229D01*
Y294990D01*
X444228Y293990D01*
X448227D02*
X450226D01*
X451226Y294990D01*
Y296989D01*
X450226Y297989D01*
X448227D01*
X447227Y296989D01*
Y294990D01*
X448227Y293990D01*
X453226D02*
Y297989D01*
X454225D01*
X455225Y296989D01*
Y293990D01*
Y296989D01*
X456224Y297989D01*
X457224Y296989D01*
Y293990D01*
X465222Y299988D02*
Y293990D01*
X469220D01*
X472219Y297989D02*
X474219D01*
X475218Y296989D01*
Y293990D01*
X472219D01*
X471220Y294990D01*
X472219Y295989D01*
X475218D01*
X477218Y297989D02*
Y294990D01*
X478217Y293990D01*
X481216D01*
Y292990D01*
X480217Y291991D01*
X479217D01*
X481216Y293990D02*
Y297989D01*
X486215Y293990D02*
X484215D01*
X483216Y294990D01*
Y296989D01*
X484215Y297989D01*
X486215D01*
X487215Y296989D01*
Y295989D01*
X483216D01*
X489214Y297989D02*
Y293990D01*
Y295989D01*
X490213Y296989D01*
X491213Y297989D01*
X492213D01*
X353258Y284988D02*
X357257D01*
X355257D01*
Y278990D01*
X360256D02*
X362255D01*
X363255Y279990D01*
Y281989D01*
X362255Y282989D01*
X360256D01*
X359256Y281989D01*
Y279990D01*
X360256Y278990D01*
X365254Y276991D02*
Y282989D01*
X368253D01*
X369253Y281989D01*
Y279990D01*
X368253Y278990D01*
X365254D01*
X377250Y284988D02*
Y278990D01*
X381249D01*
X384248Y282989D02*
X386247D01*
X387247Y281989D01*
Y278990D01*
X384248D01*
X383248Y279990D01*
X384248Y280990D01*
X387247D01*
X389246Y282989D02*
Y279990D01*
X390246Y278990D01*
X393245D01*
Y277991D01*
X392245Y276991D01*
X391246D01*
X393245Y278990D02*
Y282989D01*
X398243Y278990D02*
X396244D01*
X395244Y279990D01*
Y281989D01*
X396244Y282989D01*
X398243D01*
X399243Y281989D01*
Y280990D01*
X395244D01*
X401242Y282989D02*
Y278990D01*
Y280990D01*
X402242Y281989D01*
X403242Y282989D01*
X404241D01*
X413238Y281989D02*
X417237D01*
X425235Y284988D02*
Y278990D01*
X428233D01*
X429233Y279990D01*
Y280990D01*
X428233Y281989D01*
X425235D01*
X428233D01*
X429233Y282989D01*
Y283988D01*
X428233Y284988D01*
X425235D01*
X432232Y278990D02*
X434232D01*
X435231Y279990D01*
Y281989D01*
X434232Y282989D01*
X432232D01*
X431233Y281989D01*
Y279990D01*
X432232Y278990D01*
X438230Y283988D02*
Y282989D01*
X437231D01*
X439230D01*
X438230D01*
Y279990D01*
X439230Y278990D01*
X443229Y283988D02*
Y282989D01*
X442229D01*
X444228D01*
X443229D01*
Y279990D01*
X444228Y278990D01*
X448227D02*
X450226D01*
X451226Y279990D01*
Y281989D01*
X450226Y282989D01*
X448227D01*
X447227Y281989D01*
Y279990D01*
X448227Y278990D01*
X453226D02*
Y282989D01*
X454225D01*
X455225Y281989D01*
Y278990D01*
Y281989D01*
X456224Y282989D01*
X457224Y281989D01*
Y278990D01*
X465222Y284988D02*
Y278990D01*
X469220D01*
X472219Y282989D02*
X474219D01*
X475218Y281989D01*
Y278990D01*
X472219D01*
X471220Y279990D01*
X472219Y280990D01*
X475218D01*
X477218Y282989D02*
Y279990D01*
X478217Y278990D01*
X481216D01*
Y277991D01*
X480217Y276991D01*
X479217D01*
X481216Y278990D02*
Y282989D01*
X486215Y278990D02*
X484215D01*
X483216Y279990D01*
Y281989D01*
X484215Y282989D01*
X486215D01*
X487215Y281989D01*
Y280990D01*
X483216D01*
X489214Y282989D02*
Y278990D01*
Y280990D01*
X490213Y281989D01*
X491213Y282989D01*
X492213D01*
X353258Y269988D02*
X357257D01*
X355257D01*
Y263990D01*
X360256D02*
X362255D01*
X363255Y264990D01*
Y266989D01*
X362255Y267989D01*
X360256D01*
X359256Y266989D01*
Y264990D01*
X360256Y263990D01*
X365254Y261991D02*
Y267989D01*
X368253D01*
X369253Y266989D01*
Y264990D01*
X368253Y263990D01*
X365254D01*
X377250Y269988D02*
Y263990D01*
X381249D01*
X384248Y267989D02*
X386247D01*
X387247Y266989D01*
Y263990D01*
X384248D01*
X383248Y264990D01*
X384248Y265989D01*
X387247D01*
X389246Y267989D02*
Y264990D01*
X390246Y263990D01*
X393245D01*
Y262990D01*
X392245Y261991D01*
X391246D01*
X393245Y263990D02*
Y267989D01*
X398243Y263990D02*
X396244D01*
X395244Y264990D01*
Y266989D01*
X396244Y267989D01*
X398243D01*
X399243Y266989D01*
Y265989D01*
X395244D01*
X401242Y267989D02*
Y263990D01*
Y265989D01*
X402242Y266989D01*
X403242Y267989D01*
X404241D01*
X413238Y266989D02*
X417237D01*
X425235Y269988D02*
Y263990D01*
X428233D01*
X429233Y264990D01*
Y265989D01*
X428233Y266989D01*
X425235D01*
X428233D01*
X429233Y267989D01*
Y268988D01*
X428233Y269988D01*
X425235D01*
X432232Y263990D02*
X434232D01*
X435231Y264990D01*
Y266989D01*
X434232Y267989D01*
X432232D01*
X431233Y266989D01*
Y264990D01*
X432232Y263990D01*
X438230Y268988D02*
Y267989D01*
X437231D01*
X439230D01*
X438230D01*
Y264990D01*
X439230Y263990D01*
X443229Y268988D02*
Y267989D01*
X442229D01*
X444228D01*
X443229D01*
Y264990D01*
X444228Y263990D01*
X448227D02*
X450226D01*
X451226Y264990D01*
Y266989D01*
X450226Y267989D01*
X448227D01*
X447227Y266989D01*
Y264990D01*
X448227Y263990D01*
X453226D02*
Y267989D01*
X454225D01*
X455225Y266989D01*
Y263990D01*
Y266989D01*
X456224Y267989D01*
X457224Y266989D01*
Y263990D01*
X465222Y269988D02*
Y263990D01*
X469220D01*
X472219Y267989D02*
X474219D01*
X475218Y266989D01*
Y263990D01*
X472219D01*
X471220Y264990D01*
X472219Y265989D01*
X475218D01*
X477218Y267989D02*
Y264990D01*
X478217Y263990D01*
X481216D01*
Y262990D01*
X480217Y261991D01*
X479217D01*
X481216Y263990D02*
Y267989D01*
X486215Y263990D02*
X484215D01*
X483216Y264990D01*
Y266989D01*
X484215Y267989D01*
X486215D01*
X487215Y266989D01*
Y265989D01*
X483216D01*
X489214Y267989D02*
Y263990D01*
Y265989D01*
X490213Y266989D01*
X491213Y267989D01*
X492213D01*
X353258Y254988D02*
X357257D01*
X355257D01*
Y248990D01*
X360256D02*
X362255D01*
X363255Y249990D01*
Y251989D01*
X362255Y252989D01*
X360256D01*
X359256Y251989D01*
Y249990D01*
X360256Y248990D01*
X365254Y246991D02*
Y252989D01*
X368253D01*
X369253Y251989D01*
Y249990D01*
X368253Y248990D01*
X365254D01*
X377250Y254988D02*
Y248990D01*
X381249D01*
X384248Y252989D02*
X386247D01*
X387247Y251989D01*
Y248990D01*
X384248D01*
X383248Y249990D01*
X384248Y250990D01*
X387247D01*
X389246Y252989D02*
Y249990D01*
X390246Y248990D01*
X393245D01*
Y247990D01*
X392245Y246991D01*
X391246D01*
X393245Y248990D02*
Y252989D01*
X398243Y248990D02*
X396244D01*
X395244Y249990D01*
Y251989D01*
X396244Y252989D01*
X398243D01*
X399243Y251989D01*
Y250990D01*
X395244D01*
X401242Y252989D02*
Y248990D01*
Y250990D01*
X402242Y251989D01*
X403242Y252989D01*
X404241D01*
X413238Y251989D02*
X417237D01*
X425235Y254988D02*
Y248990D01*
X428233D01*
X429233Y249990D01*
Y250990D01*
X428233Y251989D01*
X425235D01*
X428233D01*
X429233Y252989D01*
Y253989D01*
X428233Y254988D01*
X425235D01*
X432232Y248990D02*
X434232D01*
X435231Y249990D01*
Y251989D01*
X434232Y252989D01*
X432232D01*
X431233Y251989D01*
Y249990D01*
X432232Y248990D01*
X438230Y253989D02*
Y252989D01*
X437231D01*
X439230D01*
X438230D01*
Y249990D01*
X439230Y248990D01*
X443229Y253989D02*
Y252989D01*
X442229D01*
X444228D01*
X443229D01*
Y249990D01*
X444228Y248990D01*
X448227D02*
X450226D01*
X451226Y249990D01*
Y251989D01*
X450226Y252989D01*
X448227D01*
X447227Y251989D01*
Y249990D01*
X448227Y248990D01*
X453226D02*
Y252989D01*
X454225D01*
X455225Y251989D01*
Y248990D01*
Y251989D01*
X456224Y252989D01*
X457224Y251989D01*
Y248990D01*
X465222Y254988D02*
Y248990D01*
X469220D01*
X472219Y252989D02*
X474219D01*
X475218Y251989D01*
Y248990D01*
X472219D01*
X471220Y249990D01*
X472219Y250990D01*
X475218D01*
X477218Y252989D02*
Y249990D01*
X478217Y248990D01*
X481216D01*
Y247990D01*
X480217Y246991D01*
X479217D01*
X481216Y248990D02*
Y252989D01*
X486215Y248990D02*
X484215D01*
X483216Y249990D01*
Y251989D01*
X484215Y252989D01*
X486215D01*
X487215Y251989D01*
Y250990D01*
X483216D01*
X489214Y252989D02*
Y248990D01*
Y250990D01*
X490213Y251989D01*
X491213Y252989D01*
X492213D01*
X279878Y293990D02*
Y299988D01*
X282877D01*
X283876Y298989D01*
Y296989D01*
X282877Y295989D01*
X279878D01*
X281877D02*
X283876Y293990D01*
X286875D02*
X288875D01*
X289874Y294990D01*
Y296989D01*
X288875Y297989D01*
X286875D01*
X285876Y296989D01*
Y294990D01*
X286875Y293990D01*
X291874Y297989D02*
Y294990D01*
X292873Y293990D01*
X295872D01*
Y297989D01*
X297872Y293990D02*
Y297989D01*
X300871D01*
X301870Y296989D01*
Y293990D01*
X307869Y299988D02*
Y293990D01*
X304870D01*
X303870Y294990D01*
Y296989D01*
X304870Y297989D01*
X307869D01*
X279878Y278990D02*
Y284988D01*
X282877D01*
X283876Y283988D01*
Y281989D01*
X282877Y280990D01*
X279878D01*
X281877D02*
X283876Y278990D01*
X286875D02*
X288875D01*
X289874Y279990D01*
Y281989D01*
X288875Y282989D01*
X286875D01*
X285876Y281989D01*
Y279990D01*
X286875Y278990D01*
X291874Y282989D02*
Y279990D01*
X292873Y278990D01*
X295872D01*
Y282989D01*
X297872Y278990D02*
Y282989D01*
X300871D01*
X301870Y281989D01*
Y278990D01*
X307869Y284988D02*
Y278990D01*
X304870D01*
X303870Y279990D01*
Y281989D01*
X304870Y282989D01*
X307869D01*
X279878Y263990D02*
Y269988D01*
X282877D01*
X283876Y268988D01*
Y266989D01*
X282877Y265989D01*
X279878D01*
X281877D02*
X283876Y263990D01*
X286875D02*
X288875D01*
X289874Y264990D01*
Y266989D01*
X288875Y267989D01*
X286875D01*
X285876Y266989D01*
Y264990D01*
X286875Y263990D01*
X291874Y267989D02*
Y264990D01*
X292873Y263990D01*
X295872D01*
Y267989D01*
X297872Y263990D02*
Y267989D01*
X300871D01*
X301870Y266989D01*
Y263990D01*
X307869Y269988D02*
Y263990D01*
X304870D01*
X303870Y264990D01*
Y266989D01*
X304870Y267989D01*
X307869D01*
X279878Y248990D02*
Y254988D01*
X282877D01*
X283876Y253989D01*
Y251989D01*
X282877Y250990D01*
X279878D01*
X281877D02*
X283876Y248990D01*
X286875D02*
X288875D01*
X289874Y249990D01*
Y251989D01*
X288875Y252989D01*
X286875D01*
X285876Y251989D01*
Y249990D01*
X286875Y248990D01*
X291874Y252989D02*
Y249990D01*
X292873Y248990D01*
X295872D01*
Y252989D01*
X297872Y248990D02*
Y252989D01*
X300871D01*
X301870Y251989D01*
Y248990D01*
X307869Y254988D02*
Y248990D01*
X304870D01*
X303870Y249990D01*
Y251989D01*
X304870Y252989D01*
X307869D01*
X229290Y293990D02*
Y299988D01*
X232289D01*
X233289Y298989D01*
Y296989D01*
X232289Y295989D01*
X229290D01*
X235288Y299988D02*
X239287D01*
X237287D01*
Y293990D01*
X241286Y299988D02*
Y293990D01*
Y296989D01*
X245285D01*
Y299988D01*
Y293990D01*
X229290Y278990D02*
Y284988D01*
X233289Y278990D01*
Y284988D01*
X235288Y278990D02*
Y284988D01*
X238287D01*
X239287Y283988D01*
Y281989D01*
X238287Y280990D01*
X235288D01*
X241286Y284988D02*
X245285D01*
X243285D01*
Y278990D01*
X247284Y284988D02*
Y278990D01*
Y281989D01*
X251283D01*
Y284988D01*
Y278990D01*
X229290Y263990D02*
Y269988D01*
X232289D01*
X233289Y268988D01*
Y266989D01*
X232289Y265989D01*
X229290D01*
X235288Y269988D02*
X239287D01*
X237287D01*
Y263990D01*
X241286Y269988D02*
Y263990D01*
Y266989D01*
X245285D01*
Y269988D01*
Y263990D01*
X229290Y248990D02*
Y254988D01*
X232289D01*
X233289Y253989D01*
Y251989D01*
X232289Y250990D01*
X229290D01*
X235288Y254988D02*
X239287D01*
X237287D01*
Y248990D01*
X241286Y254988D02*
Y248990D01*
Y251989D01*
X245285D01*
Y254988D01*
Y248990D01*
X114324Y298989D02*
X115323Y299988D01*
X117323D01*
X118322Y298989D01*
Y294990D01*
X117323Y293990D01*
X115323D01*
X114324Y294990D01*
Y298989D01*
X120322Y293990D02*
Y294990D01*
X121321D01*
Y293990D01*
X120322D01*
X125320Y298989D02*
X126320Y299988D01*
X128319D01*
X129319Y298989D01*
Y297989D01*
X128319Y296989D01*
X127320D01*
X128319D01*
X129319Y295989D01*
Y294990D01*
X128319Y293990D01*
X126320D01*
X125320Y294990D01*
X135317Y299988D02*
X131318D01*
Y296989D01*
X133317Y297989D01*
X134317D01*
X135317Y296989D01*
Y294990D01*
X134317Y293990D01*
X132318D01*
X131318Y294990D01*
X141315Y299988D02*
X139316Y298989D01*
X137316Y296989D01*
Y294990D01*
X138316Y293990D01*
X140315D01*
X141315Y294990D01*
Y295989D01*
X140315Y296989D01*
X137316D01*
X143314Y293990D02*
Y297989D01*
X144314D01*
X145314Y296989D01*
Y293990D01*
Y296989D01*
X146313Y297989D01*
X147313Y296989D01*
Y293990D01*
X149312D02*
Y297989D01*
X150312D01*
X151312Y296989D01*
Y293990D01*
Y296989D01*
X152311Y297989D01*
X153311Y296989D01*
Y293990D01*
X163308D02*
X161309Y295989D01*
Y297989D01*
X163308Y299988D01*
X166307Y293990D02*
X168306D01*
X167306D01*
Y299988D01*
X166307Y298989D01*
X174304Y293990D02*
Y299988D01*
X171305Y296989D01*
X175304D01*
X177303Y293990D02*
Y294990D01*
X178303D01*
Y293990D01*
X177303D01*
X182302Y298989D02*
X183301Y299988D01*
X185301D01*
X186300Y298989D01*
Y294990D01*
X185301Y293990D01*
X183301D01*
X182302Y294990D01*
Y298989D01*
X188300D02*
X189299Y299988D01*
X191299D01*
X192298Y298989D01*
Y294990D01*
X191299Y293990D01*
X189299D01*
X188300Y294990D01*
Y298989D01*
X194298Y293990D02*
Y297989D01*
X195298D01*
X196297Y296989D01*
Y293990D01*
Y296989D01*
X197297Y297989D01*
X198296Y296989D01*
Y293990D01*
X200296D02*
X202295D01*
X201295D01*
Y297989D01*
X200296D01*
X205294Y293990D02*
X207294D01*
X206294D01*
Y299988D01*
X205294D01*
X210293Y293990D02*
X212292Y295989D01*
Y297989D01*
X210293Y299988D01*
X114324Y283988D02*
X115323Y284988D01*
X117323D01*
X118322Y283988D01*
Y282989D01*
X117323Y281989D01*
X116323D01*
X117323D01*
X118322Y280990D01*
Y279990D01*
X117323Y278990D01*
X115323D01*
X114324Y279990D01*
X120322Y278990D02*
Y279990D01*
X121321D01*
Y278990D01*
X120322D01*
X125320Y284988D02*
X129319D01*
Y283988D01*
X125320Y279990D01*
Y278990D01*
X131318Y283988D02*
X132318Y284988D01*
X134317D01*
X135317Y283988D01*
Y279990D01*
X134317Y278990D01*
X132318D01*
X131318Y279990D01*
Y283988D01*
X137316D02*
X138316Y284988D01*
X140315D01*
X141315Y283988D01*
Y279990D01*
X140315Y278990D01*
X138316D01*
X137316Y279990D01*
Y283988D01*
X143314Y278990D02*
Y282989D01*
X144314D01*
X145314Y281989D01*
Y278990D01*
Y281989D01*
X146313Y282989D01*
X147313Y281989D01*
Y278990D01*
X149312D02*
Y282989D01*
X150312D01*
X151312Y281989D01*
Y278990D01*
Y281989D01*
X152311Y282989D01*
X153311Y281989D01*
Y278990D01*
X163308D02*
X161309Y280990D01*
Y282989D01*
X163308Y284988D01*
X166307Y278990D02*
X168306D01*
X167306D01*
Y284988D01*
X166307Y283988D01*
X174304Y278990D02*
Y284988D01*
X171305Y281989D01*
X175304D01*
X181302Y284988D02*
X177303D01*
Y281989D01*
X179303Y282989D01*
X180302D01*
X181302Y281989D01*
Y279990D01*
X180302Y278990D01*
X178303D01*
X177303Y279990D01*
X183301Y278990D02*
Y279990D01*
X184301D01*
Y278990D01*
X183301D01*
X192298Y284988D02*
X190299Y283988D01*
X188300Y281989D01*
Y279990D01*
X189299Y278990D01*
X191299D01*
X192298Y279990D01*
Y280990D01*
X191299Y281989D01*
X188300D01*
X194298Y284988D02*
X198296D01*
Y283988D01*
X194298Y279990D01*
Y278990D01*
X200296D02*
Y282989D01*
X201295D01*
X202295Y281989D01*
Y278990D01*
Y281989D01*
X203295Y282989D01*
X204295Y281989D01*
Y278990D01*
X206294D02*
X208293D01*
X207294D01*
Y282989D01*
X206294D01*
X211292Y278990D02*
X213292D01*
X212292D01*
Y284988D01*
X211292D01*
X216291Y278990D02*
X218290Y280990D01*
Y282989D01*
X216291Y284988D01*
X114324Y268988D02*
X115323Y269988D01*
X117323D01*
X118322Y268988D01*
Y264990D01*
X117323Y263990D01*
X115323D01*
X114324Y264990D01*
Y268988D01*
X120322Y263990D02*
Y264990D01*
X121321D01*
Y263990D01*
X120322D01*
X129319D02*
X125320D01*
X129319Y267989D01*
Y268988D01*
X128319Y269988D01*
X126320D01*
X125320Y268988D01*
X131318D02*
X132318Y269988D01*
X134317D01*
X135317Y268988D01*
Y264990D01*
X134317Y263990D01*
X132318D01*
X131318Y264990D01*
Y268988D01*
X137316D02*
X138316Y269988D01*
X140315D01*
X141315Y268988D01*
Y264990D01*
X140315Y263990D01*
X138316D01*
X137316Y264990D01*
Y268988D01*
X143314Y263990D02*
Y267989D01*
X144314D01*
X145314Y266989D01*
Y263990D01*
Y266989D01*
X146313Y267989D01*
X147313Y266989D01*
Y263990D01*
X149312D02*
Y267989D01*
X150312D01*
X151312Y266989D01*
Y263990D01*
Y266989D01*
X152311Y267989D01*
X153311Y266989D01*
Y263990D01*
X163308D02*
X161309Y265989D01*
Y267989D01*
X163308Y269988D01*
X166307D02*
X170306D01*
Y268988D01*
X166307Y264990D01*
Y263990D01*
X172305D02*
Y264990D01*
X173305D01*
Y263990D01*
X172305D01*
X177303Y268988D02*
X178303Y269988D01*
X180302D01*
X181302Y268988D01*
Y267989D01*
X180302Y266989D01*
X181302Y265989D01*
Y264990D01*
X180302Y263990D01*
X178303D01*
X177303Y264990D01*
Y265989D01*
X178303Y266989D01*
X177303Y267989D01*
Y268988D01*
X178303Y266989D02*
X180302D01*
X183301Y269988D02*
X187300D01*
Y268988D01*
X183301Y264990D01*
Y263990D01*
X189299D02*
Y267989D01*
X190299D01*
X191299Y266989D01*
Y263990D01*
Y266989D01*
X192298Y267989D01*
X193298Y266989D01*
Y263990D01*
X195298D02*
X197297D01*
X196297D01*
Y267989D01*
X195298D01*
X200296Y263990D02*
X202295D01*
X201295D01*
Y269988D01*
X200296D01*
X205294Y263990D02*
X207294Y265989D01*
Y267989D01*
X205294Y269988D01*
X114324Y253989D02*
X115323Y254988D01*
X117323D01*
X118322Y253989D01*
Y249990D01*
X117323Y248990D01*
X115323D01*
X114324Y249990D01*
Y253989D01*
X120322Y248990D02*
Y249990D01*
X121321D01*
Y248990D01*
X120322D01*
X125320Y253989D02*
X126320Y254988D01*
X128319D01*
X129319Y253989D01*
Y252989D01*
X128319Y251989D01*
X127320D01*
X128319D01*
X129319Y250990D01*
Y249990D01*
X128319Y248990D01*
X126320D01*
X125320Y249990D01*
X131318Y253989D02*
X132318Y254988D01*
X134317D01*
X135317Y253989D01*
Y249990D01*
X134317Y248990D01*
X132318D01*
X131318Y249990D01*
Y253989D01*
X137316D02*
X138316Y254988D01*
X140315D01*
X141315Y253989D01*
Y249990D01*
X140315Y248990D01*
X138316D01*
X137316Y249990D01*
Y253989D01*
X143314Y248990D02*
Y252989D01*
X144314D01*
X145314Y251989D01*
Y248990D01*
Y251989D01*
X146313Y252989D01*
X147313Y251989D01*
Y248990D01*
X149312D02*
Y252989D01*
X150312D01*
X151312Y251989D01*
Y248990D01*
Y251989D01*
X152311Y252989D01*
X153311Y251989D01*
Y248990D01*
X163308D02*
X161309Y250990D01*
Y252989D01*
X163308Y254988D01*
X166307Y248990D02*
X168306D01*
X167306D01*
Y254988D01*
X166307Y253989D01*
X171305Y248990D02*
X173305D01*
X172305D01*
Y254988D01*
X171305Y253989D01*
X176304Y248990D02*
Y249990D01*
X177303D01*
Y248990D01*
X176304D01*
X181302Y253989D02*
X182302Y254988D01*
X184301D01*
X185301Y253989D01*
Y252989D01*
X184301Y251989D01*
X185301Y250990D01*
Y249990D01*
X184301Y248990D01*
X182302D01*
X181302Y249990D01*
Y250990D01*
X182302Y251989D01*
X181302Y252989D01*
Y253989D01*
X182302Y251989D02*
X184301D01*
X187300Y248990D02*
X189299D01*
X188300D01*
Y254988D01*
X187300Y253989D01*
X192298Y248990D02*
Y252989D01*
X193298D01*
X194298Y251989D01*
Y248990D01*
Y251989D01*
X195298Y252989D01*
X196297Y251989D01*
Y248990D01*
X198296D02*
X200296D01*
X199296D01*
Y252989D01*
X198296D01*
X203295Y248990D02*
X205294D01*
X204294D01*
Y254988D01*
X203295D01*
X208293Y248990D02*
X210293Y250990D01*
Y252989D01*
X208293Y254988D01*
X60338Y234990D02*
X61337Y233990D01*
X63337D01*
X64336Y234990D01*
Y238988D01*
X63337Y239988D01*
X61337D01*
X60338Y238988D01*
Y237989D01*
X61337Y236989D01*
X64336D01*
X69335Y233990D02*
Y239988D01*
X66336Y236989D01*
X70334D01*
X78332Y239988D02*
X82331D01*
X80331D01*
Y233990D01*
X85330D02*
X87329D01*
X88328Y234990D01*
Y236989D01*
X87329Y237989D01*
X85330D01*
X84330Y236989D01*
Y234990D01*
X85330Y233990D01*
X91328Y238988D02*
Y237989D01*
X90328D01*
X92327D01*
X91328D01*
Y234990D01*
X92327Y233990D01*
X96326Y237989D02*
X98325D01*
X99325Y236989D01*
Y233990D01*
X96326D01*
X95326Y234990D01*
X96326Y235989D01*
X99325D01*
X101324Y233990D02*
X103324D01*
X102324D01*
Y239988D01*
X101324D01*
X63337Y293990D02*
Y299988D01*
X60338Y296989D01*
X64336D01*
X63337Y278990D02*
Y284988D01*
X60338Y281989D01*
X64336D01*
X60338Y263990D02*
X62337D01*
X61337D01*
Y269988D01*
X60338Y268988D01*
X68335Y263990D02*
Y269988D01*
X65336Y266989D01*
X69335D01*
X60338Y254988D02*
X64336D01*
Y253989D01*
X60338Y249990D01*
Y248990D01*
X70334D02*
X66336D01*
X70334Y252989D01*
Y253989D01*
X69335Y254988D01*
X67335D01*
X66336Y253989D01*
D13*
X131240Y96653D02*
G03*
X131240Y96653I-2500J0D01*
G01*
Y86811D02*
G03*
X131240Y86811I-2500J0D01*
G01*
X127106Y91732D02*
G03*
X127106Y91732I-2500J0D01*
G01*
X135349Y91767D02*
G03*
X135349Y91767I-2500J0D01*
G01*
X141870Y33268D02*
G03*
X141870Y33268I-2500J0D01*
G01*
X137933D02*
G03*
X137933Y33268I-2500J0D01*
G01*
X141870Y40748D02*
G03*
X141870Y40748I-2500J0D01*
G01*
X137933D02*
G03*
X137933Y40748I-2500J0D01*
G01*
X141870Y37008D02*
G03*
X141870Y37008I-2500J0D01*
G01*
X137933D02*
G03*
X137933Y37008I-2500J0D01*
G01*
X57409Y174583D02*
G03*
X57409Y174583I-2500J0D01*
G01*
X53472D02*
G03*
X53472Y174583I-2500J0D01*
G01*
X55441Y177043D02*
G03*
X55441Y177043I-2500J0D01*
G01*
Y172122D02*
G03*
X55441Y172122I-2500J0D01*
G01*
X111134Y25541D02*
X112384D01*
X111134D02*
Y28041D01*
X112384D01*
Y29291D01*
X114884D01*
Y28041D02*
Y29291D01*
Y28041D02*
X116134D01*
Y25541D02*
Y28041D01*
X114884Y25541D02*
X116134D01*
X114884Y24291D02*
Y25541D01*
X112384Y24291D02*
X114884D01*
X112384D02*
Y25541D01*
X95609Y59594D02*
X96860D01*
X95609D02*
Y62094D01*
X96860D01*
Y63344D01*
X99360D01*
Y62094D02*
Y63344D01*
Y62094D02*
X100610D01*
Y59594D02*
Y62094D01*
X99360Y59594D02*
X100610D01*
X99360Y58344D02*
Y59594D01*
X96860Y58344D02*
X99360D01*
X96860D02*
Y59594D01*
X95709Y63529D02*
X96959D01*
X95709D02*
Y66030D01*
X96959D01*
Y67279D01*
X99459D01*
Y66030D02*
Y67279D01*
Y66030D02*
X100709D01*
Y63529D02*
Y66030D01*
X99459Y63529D02*
X100709D01*
X99459Y62279D02*
Y63529D01*
X96959Y62279D02*
X99459D01*
X96959D02*
Y63529D01*
X86472Y57852D02*
X87722D01*
X86472D02*
Y60352D01*
X87722D01*
Y61602D01*
X90222D01*
Y60352D02*
Y61602D01*
Y60352D02*
X91472D01*
Y57852D02*
Y60352D01*
X90222Y57852D02*
X91472D01*
X90222Y56602D02*
Y57852D01*
X87722Y56602D02*
X90222D01*
X87722D02*
Y57852D01*
X86567Y88179D02*
X87817D01*
X86567D02*
Y90679D01*
X87817D01*
Y91929D01*
X90317D01*
Y90679D02*
Y91929D01*
Y90679D02*
X91567D01*
Y88179D02*
Y90679D01*
X90317Y88179D02*
X91567D01*
X90317Y86929D02*
Y88179D01*
X87817Y86929D02*
X90317D01*
X87817D02*
Y88179D01*
X81764Y57156D02*
X83014D01*
X81764D02*
Y59655D01*
X83014D01*
Y60905D01*
X85514D01*
Y59655D02*
Y60905D01*
Y59655D02*
X86764D01*
Y57156D02*
Y59655D01*
X85514Y57156D02*
X86764D01*
X85514Y55905D02*
Y57156D01*
X83014Y55905D02*
X85514D01*
X83014D02*
Y57156D01*
X69653Y82660D02*
X70903D01*
X69653D02*
Y85159D01*
X70903D01*
Y86409D01*
X73404D01*
Y85159D02*
Y86409D01*
Y85159D02*
X74654D01*
Y82660D02*
Y85159D01*
X73404Y82660D02*
X74654D01*
X73404Y81410D02*
Y82660D01*
X70903Y81410D02*
X73404D01*
X70903D02*
Y82660D01*
X44721Y64049D02*
X45970D01*
X44721D02*
Y66549D01*
X45970D01*
Y67799D01*
X48471D01*
Y66549D02*
Y67799D01*
Y66549D02*
X49720D01*
Y64049D02*
Y66549D01*
X48471Y64049D02*
X49720D01*
X48471Y62799D02*
Y64049D01*
X45970Y62799D02*
X48471D01*
X45970D02*
Y64049D01*
X120500Y48514D02*
X121750D01*
X120500D02*
Y51014D01*
X121750D01*
Y52264D01*
X124250D01*
Y51014D02*
Y52264D01*
Y51014D02*
X125500D01*
Y48514D02*
Y51014D01*
X124250Y48514D02*
X125500D01*
X124250Y47264D02*
Y48514D01*
X121750Y47264D02*
X124250D01*
X121750D02*
Y48514D01*
X77890Y44049D02*
X79140D01*
X77890D02*
Y46549D01*
X79140D01*
Y47799D01*
X81640D01*
Y46549D02*
Y47799D01*
Y46549D02*
X82890D01*
Y44049D02*
Y46549D01*
X81640Y44049D02*
X82890D01*
X81640Y42799D02*
Y44049D01*
X79140Y42799D02*
X81640D01*
X79140D02*
Y44049D01*
X42650Y102010D02*
X43900D01*
X42650D02*
Y104510D01*
X43900D01*
Y105760D01*
X46400D01*
Y104510D02*
Y105760D01*
Y104510D02*
X47650D01*
Y102010D02*
Y104510D01*
X46400Y102010D02*
X47650D01*
X46400Y100760D02*
Y102010D01*
X43900Y100760D02*
X46400D01*
X43900D02*
Y102010D01*
X44413Y95683D02*
X45663D01*
X44413D02*
Y98183D01*
X45663D01*
Y99433D01*
X48163D01*
Y98183D02*
Y99433D01*
Y98183D02*
X49413D01*
Y95683D02*
Y98183D01*
X48163Y95683D02*
X49413D01*
X48163Y94433D02*
Y95683D01*
X45663Y94433D02*
X48163D01*
X45663D02*
Y95683D01*
X29992Y69533D02*
X31242D01*
X29992D02*
Y72034D01*
X31242D01*
Y73283D01*
X33742D01*
Y72034D02*
Y73283D01*
Y72034D02*
X34992D01*
Y69533D02*
Y72034D01*
X33742Y69533D02*
X34992D01*
X33742Y68283D02*
Y69533D01*
X31242Y68283D02*
X33742D01*
X31242D02*
Y69533D01*
X38378Y104148D02*
X39628D01*
X38378D02*
Y106648D01*
X39628D01*
Y107898D01*
X42128D01*
Y106648D02*
Y107898D01*
Y106648D02*
X43378D01*
Y104148D02*
Y106648D01*
X42128Y104148D02*
X43378D01*
X42128Y102898D02*
Y104148D01*
X39628Y102898D02*
X42128D01*
X39628D02*
Y104148D01*
X29874Y74159D02*
X31124D01*
X29874D02*
Y76660D01*
X31124D01*
Y77909D01*
X33624D01*
Y76660D02*
Y77909D01*
Y76660D02*
X34874D01*
Y74159D02*
Y76660D01*
X33624Y74159D02*
X34874D01*
X33624Y72909D02*
Y74159D01*
X31124Y72909D02*
X33624D01*
X31124D02*
Y74159D01*
X110339Y157148D02*
X111589D01*
X110339D02*
Y159648D01*
X111589D01*
Y160898D01*
X114089D01*
Y159648D02*
Y160898D01*
Y159648D02*
X115339D01*
Y157148D02*
Y159648D01*
X114089Y157148D02*
X115339D01*
X114089Y155898D02*
Y157148D01*
X111589Y155898D02*
X114089D01*
X111589D02*
Y157148D01*
X37736Y94628D02*
X38986D01*
X37736D02*
Y97128D01*
X38986D01*
Y98378D01*
X41486D01*
Y97128D02*
Y98378D01*
Y97128D02*
X42736D01*
Y94628D02*
Y97128D01*
X41486Y94628D02*
X42736D01*
X41486Y93378D02*
Y94628D01*
X38986Y93378D02*
X41486D01*
X38986D02*
Y94628D01*
X34240Y78746D02*
X35490D01*
X34240D02*
Y81246D01*
X35490D01*
Y82496D01*
X37990D01*
Y81246D02*
Y82496D01*
Y81246D02*
X39240D01*
Y78746D02*
Y81246D01*
X37990Y78746D02*
X39240D01*
X37990Y77496D02*
Y78746D01*
X35490Y77496D02*
X37990D01*
X35490D02*
Y78746D01*
X74819Y75128D02*
X76069D01*
X74819D02*
Y77628D01*
X76069D01*
Y78878D01*
X78569D01*
Y77628D02*
Y78878D01*
Y77628D02*
X79819D01*
Y75128D02*
Y77628D01*
X78569Y75128D02*
X79819D01*
X78569Y73878D02*
Y75128D01*
X76069Y73878D02*
X78569D01*
X76069D02*
Y75128D01*
X101996Y37502D02*
X103246D01*
X101996D02*
Y40002D01*
X103246D01*
Y41252D01*
X105746D01*
Y40002D02*
Y41252D01*
Y40002D02*
X106996D01*
Y37502D02*
Y40002D01*
X105746Y37502D02*
X106996D01*
X105746Y36252D02*
Y37502D01*
X103246Y36252D02*
X105746D01*
X103246D02*
Y37502D01*
X75307Y177274D02*
X76557D01*
X75307D02*
Y179774D01*
X76557D01*
Y181024D01*
X79057D01*
Y179774D02*
Y181024D01*
Y179774D02*
X80307D01*
Y177274D02*
Y179774D01*
X79057Y177274D02*
X80307D01*
X79057Y176024D02*
Y177274D01*
X76557Y176024D02*
X79057D01*
X76557D02*
Y177274D01*
X59551Y188116D02*
X60801D01*
X59551D02*
Y190616D01*
X60801D01*
Y191866D01*
X63301D01*
Y190616D02*
Y191866D01*
Y190616D02*
X64551D01*
Y188116D02*
Y190616D01*
X63301Y188116D02*
X64551D01*
X63301Y186866D02*
Y188116D01*
X60801Y186866D02*
X63301D01*
X60801D02*
Y188116D01*
X24492Y180014D02*
X25742D01*
X24492D02*
Y182514D01*
X25742D01*
Y183764D01*
X28242D01*
Y182514D02*
Y183764D01*
Y182514D02*
X29492D01*
Y180014D02*
Y182514D01*
X28242Y180014D02*
X29492D01*
X28242Y178764D02*
Y180014D01*
X25742Y178764D02*
X28242D01*
X25742D02*
Y180014D01*
X52055Y179581D02*
X53305D01*
X52055D02*
Y182081D01*
X53305D01*
Y183331D01*
X55805D01*
Y182081D02*
Y183331D01*
Y182081D02*
X57055D01*
Y179581D02*
Y182081D01*
X55805Y179581D02*
X57055D01*
X55805Y178331D02*
Y179581D01*
X53305Y178331D02*
X55805D01*
X53305D02*
Y179581D01*
X36083Y116073D02*
X37333D01*
X36083D02*
Y118573D01*
X37333D01*
Y119823D01*
X39833D01*
Y118573D02*
Y119823D01*
Y118573D02*
X41083D01*
Y116073D02*
Y118573D01*
X39833Y116073D02*
X41083D01*
X39833Y114823D02*
Y116073D01*
X37333Y114823D02*
X39833D01*
X37333D02*
Y116073D01*
X53405Y134577D02*
X54655D01*
X53405D02*
Y137077D01*
X54655D01*
Y138327D01*
X57156D01*
Y137077D02*
Y138327D01*
Y137077D02*
X58406D01*
Y134577D02*
Y137077D01*
X57156Y134577D02*
X58406D01*
X57156Y133327D02*
Y134577D01*
X54655Y133327D02*
X57156D01*
X54655D02*
Y134577D01*
X8524Y50952D02*
X9774D01*
X8524D02*
Y53452D01*
X9774D01*
Y54702D01*
X12274D01*
Y53452D02*
Y54702D01*
Y53452D02*
X13524D01*
Y50952D02*
Y53452D01*
X12274Y50952D02*
X13524D01*
X12274Y49702D02*
Y50952D01*
X9774Y49702D02*
X12274D01*
X9774D02*
Y50952D01*
X19153D02*
X20403D01*
X19153D02*
Y53452D01*
X20403D01*
Y54702D01*
X22904D01*
Y53452D02*
Y54702D01*
Y53452D02*
X24153D01*
Y50952D02*
Y53452D01*
X22904Y50952D02*
X24153D01*
X22904Y49702D02*
Y50952D01*
X20403Y49702D02*
X22904D01*
X20403D02*
Y50952D01*
X30177D02*
X31427D01*
X30177D02*
Y53452D01*
X31427D01*
Y54702D01*
X33927D01*
Y53452D02*
Y54702D01*
Y53452D02*
X35177D01*
Y50952D02*
Y53452D01*
X33927Y50952D02*
X35177D01*
X33927Y49702D02*
Y50952D01*
X31427Y49702D02*
X33927D01*
X31427D02*
Y50952D01*
X8917Y33236D02*
X10167D01*
X8917D02*
Y35736D01*
X10167D01*
Y36986D01*
X12667D01*
Y35736D02*
Y36986D01*
Y35736D02*
X13917D01*
Y33236D02*
Y35736D01*
X12667Y33236D02*
X13917D01*
X12667Y31986D02*
Y33236D01*
X10167Y31986D02*
X12667D01*
X10167D02*
Y33236D01*
X19941D02*
X21191D01*
X19941D02*
Y35736D01*
X21191D01*
Y36986D01*
X23691D01*
Y35736D02*
Y36986D01*
Y35736D02*
X24941D01*
Y33236D02*
Y35736D01*
X23691Y33236D02*
X24941D01*
X23691Y31986D02*
Y33236D01*
X21191Y31986D02*
X23691D01*
X21191D02*
Y33236D01*
X30571D02*
X31821D01*
X30571D02*
Y35736D01*
X31821D01*
Y36986D01*
X34321D01*
Y35736D02*
Y36986D01*
Y35736D02*
X35571D01*
Y33236D02*
Y35736D01*
X34321Y33236D02*
X35571D01*
X34321Y31986D02*
Y33236D01*
X31821Y31986D02*
X34321D01*
X31821D02*
Y33236D01*
X9311Y24180D02*
X10561D01*
X9311D02*
Y26680D01*
X10561D01*
Y27930D01*
X13061D01*
Y26680D02*
Y27930D01*
Y26680D02*
X14311D01*
Y24180D02*
Y26680D01*
X13061Y24180D02*
X14311D01*
X13061Y22930D02*
Y24180D01*
X10561Y22930D02*
X13061D01*
X10561D02*
Y24180D01*
X20335D02*
X21585D01*
X20335D02*
Y26680D01*
X21585D01*
Y27930D01*
X24085D01*
Y26680D02*
Y27930D01*
Y26680D02*
X25335D01*
Y24180D02*
Y26680D01*
X24085Y24180D02*
X25335D01*
X24085Y22930D02*
Y24180D01*
X21585Y22930D02*
X24085D01*
X21585D02*
Y24180D01*
X30965Y24574D02*
X32215D01*
X30965D02*
Y27074D01*
X32215D01*
Y28324D01*
X34715D01*
Y27074D02*
Y28324D01*
Y27074D02*
X35965D01*
Y24574D02*
Y27074D01*
X34715Y24574D02*
X35965D01*
X34715Y23324D02*
Y24574D01*
X32215Y23324D02*
X34715D01*
X32215D02*
Y24574D01*
X11280Y101112D02*
X12529D01*
X11280D02*
Y103612D01*
X12529D01*
Y104862D01*
X15030D01*
Y103612D02*
Y104862D01*
Y103612D02*
X16280D01*
Y101112D02*
Y103612D01*
X15030Y101112D02*
X16280D01*
X15030Y99862D02*
Y101112D01*
X12529Y99862D02*
X15030D01*
X12529D02*
Y101112D01*
X19941D02*
X21191D01*
X19941D02*
Y103612D01*
X21191D01*
Y104862D01*
X23691D01*
Y103612D02*
Y104862D01*
Y103612D02*
X24941D01*
Y101112D02*
Y103612D01*
X23691Y101112D02*
X24941D01*
X23691Y99862D02*
Y101112D01*
X21191Y99862D02*
X23691D01*
X21191D02*
Y101112D01*
X14823Y93238D02*
X16073D01*
X14823D02*
Y95738D01*
X16073D01*
Y96988D01*
X18573D01*
Y95738D02*
Y96988D01*
Y95738D02*
X19823D01*
Y93238D02*
Y95738D01*
X18573Y93238D02*
X19823D01*
X18573Y91988D02*
Y93238D01*
X16073Y91988D02*
X18573D01*
X16073D02*
Y93238D01*
X23878Y93632D02*
X25128D01*
X23878D02*
Y96132D01*
X25128D01*
Y97382D01*
X27628D01*
Y96132D02*
Y97382D01*
Y96132D02*
X28878D01*
Y93632D02*
Y96132D01*
X27628Y93632D02*
X28878D01*
X27628Y92382D02*
Y93632D01*
X25128Y92382D02*
X27628D01*
X25128D02*
Y93632D01*
X16398Y108592D02*
X17648D01*
X16398D02*
Y111092D01*
X17648D01*
Y112343D01*
X20148D01*
Y111092D02*
Y112343D01*
Y111092D02*
X21398D01*
Y108592D02*
Y111092D01*
X20148Y108592D02*
X21398D01*
X20148Y107343D02*
Y108592D01*
X17648Y107343D02*
X20148D01*
X17648D02*
Y108592D01*
X28209Y115285D02*
X29459D01*
X28209D02*
Y117785D01*
X29459D01*
Y119035D01*
X31959D01*
Y117785D02*
Y119035D01*
Y117785D02*
X33209D01*
Y115285D02*
Y117785D01*
X31959Y115285D02*
X33209D01*
X31959Y114035D02*
Y115285D01*
X29459Y114035D02*
X31959D01*
X29459D02*
Y115285D01*
X19547Y41897D02*
X20797D01*
X19547D02*
Y44397D01*
X20797D01*
Y45647D01*
X23297D01*
Y44397D02*
Y45647D01*
Y44397D02*
X24547D01*
Y41897D02*
Y44397D01*
X23297Y41897D02*
X24547D01*
X23297Y40647D02*
Y41897D01*
X20797Y40647D02*
X23297D01*
X20797D02*
Y41897D01*
X8524D02*
X9774D01*
X8524D02*
Y44397D01*
X9774D01*
Y45647D01*
X12274D01*
Y44397D02*
Y45647D01*
Y44397D02*
X13524D01*
Y41897D02*
Y44397D01*
X12274Y41897D02*
X13524D01*
X12274Y40647D02*
Y41897D01*
X9774Y40647D02*
X12274D01*
X9774D02*
Y41897D01*
X34382Y132986D02*
X35632D01*
X34382D02*
Y135486D01*
X35632D01*
Y136736D01*
X38132D01*
Y135486D02*
Y136736D01*
Y135486D02*
X39382D01*
Y132986D02*
Y135486D01*
X38132Y132986D02*
X39382D01*
X38132Y131736D02*
Y132986D01*
X35632Y131736D02*
X38132D01*
X35632D02*
Y132986D01*
X109705Y19616D02*
X110955D01*
X109705D02*
Y22116D01*
X110955D01*
Y23366D01*
X113455D01*
Y22116D02*
Y23366D01*
Y22116D02*
X114705D01*
Y19616D02*
Y22116D01*
X113455Y19616D02*
X114705D01*
X113455Y18366D02*
Y19616D01*
X110955Y18366D02*
X113455D01*
X110955D02*
Y19616D01*
X62067Y9380D02*
X63317D01*
X62067D02*
Y11880D01*
X63317D01*
Y13130D01*
X65817D01*
Y11880D02*
Y13130D01*
Y11880D02*
X67067D01*
Y9380D02*
Y11880D01*
X65817Y9380D02*
X67067D01*
X65817Y8130D02*
Y9380D01*
X63317Y8130D02*
X65817D01*
X63317D02*
Y9380D01*
X96713D02*
X97963D01*
X96713D02*
Y11880D01*
X97963D01*
Y13130D01*
X100463D01*
Y11880D02*
Y13130D01*
Y11880D02*
X101713D01*
Y9380D02*
Y11880D01*
X100463Y9380D02*
X101713D01*
X100463Y8130D02*
Y9380D01*
X97963Y8130D02*
X100463D01*
X97963D02*
Y9380D01*
X50256Y21781D02*
X51506D01*
X50256D02*
Y24282D01*
X51506D01*
Y25532D01*
X54006D01*
Y24282D02*
Y25532D01*
Y24282D02*
X55256D01*
Y21781D02*
Y24282D01*
X54006Y21781D02*
X55256D01*
X54006Y20531D02*
Y21781D01*
X51506Y20531D02*
X54006D01*
X51506D02*
Y21781D01*
X44594Y72659D02*
X45845D01*
X44594D02*
Y75160D01*
X45845D01*
Y76410D01*
X48344D01*
Y75160D02*
Y76410D01*
Y75160D02*
X49595D01*
Y72659D02*
Y75160D01*
X48344Y72659D02*
X49595D01*
X48344Y71409D02*
Y72659D01*
X45845Y71409D02*
X48344D01*
X45845D02*
Y72659D01*
X43957Y43632D02*
X45207D01*
X43957D02*
Y46132D01*
X45207D01*
Y47382D01*
X47707D01*
Y46132D02*
Y47382D01*
Y46132D02*
X48957D01*
Y43632D02*
Y46132D01*
X47707Y43632D02*
X48957D01*
X47707Y42382D02*
Y43632D01*
X45207Y42382D02*
X47707D01*
X45207D02*
Y43632D01*
X53799Y77884D02*
X55049D01*
X53799D02*
Y80384D01*
X55049D01*
Y81634D01*
X57549D01*
Y80384D02*
Y81634D01*
Y80384D02*
X58799D01*
Y77884D02*
Y80384D01*
X57549Y77884D02*
X58799D01*
X57549Y76634D02*
Y77884D01*
X55049Y76634D02*
X57549D01*
X55049D02*
Y77884D01*
X93169Y93238D02*
X94419D01*
X93169D02*
Y95738D01*
X94419D01*
Y96988D01*
X96919D01*
Y95738D02*
Y96988D01*
Y95738D02*
X98169D01*
Y93238D02*
Y95738D01*
X96919Y93238D02*
X98169D01*
X96919Y91988D02*
Y93238D01*
X94419Y91988D02*
X96919D01*
X94419D02*
Y93238D01*
X104193Y93632D02*
X105443D01*
X104193D02*
Y96132D01*
X105443D01*
Y97382D01*
X107943D01*
Y96132D02*
Y97382D01*
Y96132D02*
X109193D01*
Y93632D02*
Y96132D01*
X107943Y93632D02*
X109193D01*
X107943Y92382D02*
Y93632D01*
X105443Y92382D02*
X107943D01*
X105443D02*
Y93632D01*
X148610Y45053D02*
X149860D01*
X148610D02*
Y47553D01*
X149860D01*
Y48803D01*
X152360D01*
Y47553D02*
Y48803D01*
Y47553D02*
X153610D01*
Y45053D02*
Y47553D01*
X152360Y45053D02*
X153610D01*
X152360Y43803D02*
Y45053D01*
X149860Y43803D02*
X152360D01*
X149860D02*
Y45053D01*
X128618Y143632D02*
X129868D01*
X128618D02*
Y146132D01*
X129868D01*
Y147382D01*
X132368D01*
Y146132D02*
Y147382D01*
Y146132D02*
X133618D01*
Y143632D02*
Y146132D01*
X132368Y143632D02*
X133618D01*
X132368Y142382D02*
Y143632D01*
X129868Y142382D02*
X132368D01*
X129868D02*
Y143632D01*
X109311Y86545D02*
X110561D01*
X109311D02*
Y89045D01*
X110561D01*
Y90295D01*
X113061D01*
Y89045D02*
Y90295D01*
Y89045D02*
X114311D01*
Y86545D02*
Y89045D01*
X113061Y86545D02*
X114311D01*
X113061Y85295D02*
Y86545D01*
X110561Y85295D02*
X113061D01*
X110561D02*
Y86545D01*
X113642Y91270D02*
X114892D01*
X113642D02*
Y93770D01*
X114892D01*
Y95020D01*
X117392D01*
Y93770D02*
Y95020D01*
Y93770D02*
X118642D01*
Y91270D02*
Y93770D01*
X117392Y91270D02*
X118642D01*
X117392Y90020D02*
Y91270D01*
X114892Y90020D02*
X117392D01*
X114892D02*
Y91270D01*
X114429Y81033D02*
X115679D01*
X114429D02*
Y83534D01*
X115679D01*
Y84784D01*
X118179D01*
Y83534D02*
Y84784D01*
Y83534D02*
X119429D01*
Y81033D02*
Y83534D01*
X118179Y81033D02*
X119429D01*
X118179Y79783D02*
Y81033D01*
X115679Y79783D02*
X118179D01*
X115679D02*
Y81033D01*
X142382Y8199D02*
X143632D01*
X142382D02*
Y10699D01*
X143632D01*
Y11949D01*
X146132D01*
Y10699D02*
Y11949D01*
Y10699D02*
X147382D01*
Y8199D02*
Y10699D01*
X146132Y8199D02*
X147382D01*
X146132Y6949D02*
Y8199D01*
X143632Y6949D02*
X146132D01*
X143632D02*
Y8199D01*
X123484Y35758D02*
X124734D01*
X123484D02*
Y38258D01*
X124734D01*
Y39508D01*
X127234D01*
Y38258D02*
Y39508D01*
Y38258D02*
X128484D01*
Y35758D02*
Y38258D01*
X127234Y35758D02*
X128484D01*
X127234Y34508D02*
Y35758D01*
X124734Y34508D02*
X127234D01*
X124734D02*
Y35758D01*
X90020Y79065D02*
X91270D01*
X90020D02*
Y81565D01*
X91270D01*
Y82815D01*
X93770D01*
Y81565D02*
Y82815D01*
Y81565D02*
X95020D01*
Y79065D02*
Y81565D01*
X93770Y79065D02*
X95020D01*
X93770Y77815D02*
Y79065D01*
X91270Y77815D02*
X93770D01*
X91270D02*
Y79065D01*
X122303Y40482D02*
X123553D01*
X122303D02*
Y42982D01*
X123553D01*
Y44232D01*
X126053D01*
Y42982D02*
Y44232D01*
Y42982D02*
X127303D01*
Y40482D02*
Y42982D01*
X126053Y40482D02*
X127303D01*
X126053Y39232D02*
Y40482D01*
X123553Y39232D02*
X126053D01*
X123553D02*
Y40482D01*
X117185Y51620D02*
X118435D01*
X117185D02*
Y54120D01*
X118435D01*
Y55370D01*
X120935D01*
Y54120D02*
Y55370D01*
Y54120D02*
X122185D01*
Y51620D02*
Y54120D01*
X120935Y51620D02*
X122185D01*
X120935Y50370D02*
Y51620D01*
X118435Y50370D02*
X120935D01*
X118435D02*
Y51620D01*
X144039Y73400D02*
X145289D01*
X144039D02*
Y75900D01*
X145289D01*
Y77150D01*
X147789D01*
Y75900D02*
Y77150D01*
Y75900D02*
X149039D01*
Y73400D02*
Y75900D01*
X147789Y73400D02*
X149039D01*
X147789Y72150D02*
Y73400D01*
X145289Y72150D02*
X147789D01*
X145289D02*
Y73400D01*
X137657Y75915D02*
X138908D01*
X137657D02*
Y78415D01*
X138908D01*
Y79665D01*
X141408D01*
Y78415D02*
Y79665D01*
Y78415D02*
X142657D01*
Y75915D02*
Y78415D01*
X141408Y75915D02*
X142657D01*
X141408Y74665D02*
Y75915D01*
X138908Y74665D02*
X141408D01*
X138908D02*
Y75915D01*
X133327Y103081D02*
X134577D01*
X133327D02*
Y105581D01*
X134577D01*
Y106831D01*
X137077D01*
Y105581D02*
Y106831D01*
Y105581D02*
X138327D01*
Y103081D02*
Y105581D01*
X137077Y103081D02*
X138327D01*
X137077Y101831D02*
Y103081D01*
X134577Y101831D02*
X137077D01*
X134577D02*
Y103081D01*
X116791Y104656D02*
X118041D01*
X116791D02*
Y107156D01*
X118041D01*
Y108405D01*
X120541D01*
Y107156D02*
Y108405D01*
Y107156D02*
X121791D01*
Y104656D02*
Y107156D01*
X120541Y104656D02*
X121791D01*
X120541Y103405D02*
Y104656D01*
X118041Y103405D02*
X120541D01*
X118041D02*
Y104656D01*
X137264Y100718D02*
X138514D01*
X137264D02*
Y103218D01*
X138514D01*
Y104469D01*
X141014D01*
Y103218D02*
Y104469D01*
Y103218D02*
X142264D01*
Y100718D02*
Y103218D01*
X141014Y100718D02*
X142264D01*
X141014Y99468D02*
Y100718D01*
X138514Y99468D02*
X141014D01*
X138514D02*
Y100718D01*
X125847Y156230D02*
X127096D01*
X125847D02*
Y158730D01*
X127096D01*
Y159980D01*
X129596D01*
Y158730D02*
Y159980D01*
Y158730D02*
X130847D01*
Y156230D02*
Y158730D01*
X129596Y156230D02*
X130847D01*
X129596Y154980D02*
Y156230D01*
X127096Y154980D02*
X129596D01*
X127096D02*
Y156230D01*
X132146D02*
X133396D01*
X132146D02*
Y158730D01*
X133396D01*
Y159980D01*
X135896D01*
Y158730D02*
Y159980D01*
Y158730D02*
X137146D01*
Y156230D02*
Y158730D01*
X135896Y156230D02*
X137146D01*
X135896Y154980D02*
Y156230D01*
X133396Y154980D02*
X135896D01*
X133396D02*
Y156230D01*
X142776Y106624D02*
X144026D01*
X142776D02*
Y109124D01*
X144026D01*
Y110374D01*
X146526D01*
Y109124D02*
Y110374D01*
Y109124D02*
X147776D01*
Y106624D02*
Y109124D01*
X146526Y106624D02*
X147776D01*
X146526Y105374D02*
Y106624D01*
X144026Y105374D02*
X146526D01*
X144026D02*
Y106624D01*
X160819Y105000D02*
X165819D01*
Y110000D01*
X160819D02*
X165819D01*
X160819Y105000D02*
Y110000D01*
X220419Y100000D02*
X225419D01*
Y105000D01*
X220419D02*
X225419D01*
X220419Y100000D02*
Y105000D01*
X160819Y97000D02*
X165819D01*
Y102000D01*
X160819D02*
X165819D01*
X160819Y97000D02*
Y102000D01*
X220419Y94000D02*
X225419D01*
Y99000D01*
X220419D02*
X225419D01*
X220419Y94000D02*
Y99000D01*
X148287Y156230D02*
X149537D01*
X148287D02*
Y158730D01*
X149537D01*
Y159980D01*
X152037D01*
Y158730D02*
Y159980D01*
Y158730D02*
X153287D01*
Y156230D02*
Y158730D01*
X152037Y156230D02*
X153287D01*
X152037Y154980D02*
Y156230D01*
X149537Y154980D02*
X152037D01*
X149537D02*
Y156230D01*
X160069Y16191D02*
X161319Y14941D01*
X158819Y16191D02*
X160069D01*
X158819D02*
X160069Y17441D01*
X158819Y18691D02*
X160069Y17441D01*
X158819Y18691D02*
X160069D01*
X161319Y19941D01*
X162569Y18691D01*
X163819D01*
X162569Y17441D02*
X163819Y18691D01*
X162569Y17441D02*
X163819Y16191D01*
X162569D02*
X163819D01*
X161319Y14941D02*
X162569Y16191D01*
X330069Y186191D02*
X331319Y184941D01*
X328819Y186191D02*
X330069D01*
X328819D02*
X330069Y187441D01*
X328819Y188691D02*
X330069Y187441D01*
X328819Y188691D02*
X330069D01*
X331319Y189941D01*
X332569Y188691D01*
X333819D01*
X332569Y187441D02*
X333819Y188691D01*
X332569Y187441D02*
X333819Y186191D01*
X332569D02*
X333819D01*
X331319Y184941D02*
X332569Y186191D01*
X330069Y16191D02*
X331319Y14941D01*
X328819Y16191D02*
X330069D01*
X328819D02*
X330069Y17441D01*
X328819Y18691D02*
X330069Y17441D01*
X328819Y18691D02*
X330069D01*
X331319Y19941D01*
X332569Y18691D01*
X333819D01*
X332569Y17441D02*
X333819Y18691D01*
X332569Y17441D02*
X333819Y16191D01*
X332569D02*
X333819D01*
X331319Y14941D02*
X332569Y16191D01*
X160069Y186191D02*
X161319Y184941D01*
X158819Y186191D02*
X160069D01*
X158819D02*
X160069Y187441D01*
X158819Y188691D02*
X160069Y187441D01*
X158819Y188691D02*
X160069D01*
X161319Y189941D01*
X162569Y188691D01*
X163819D01*
X162569Y187441D02*
X163819Y188691D01*
X162569Y187441D02*
X163819Y186191D01*
X162569D02*
X163819D01*
X161319Y184941D02*
X162569Y186191D01*
D80*
X750Y304490D02*
X1055857D01*
X750Y244490D02*
X1055857D01*
X750Y229490D02*
X1055857D01*
Y319490D01*
X750D02*
X1055857D01*
X750Y229490D02*
Y319490D01*
X917997Y229490D02*
Y319490D01*
X784636Y229490D02*
Y319490D01*
X699259Y229490D02*
Y319490D01*
X632277Y229490D02*
Y319490D01*
X557698Y229490D02*
Y319490D01*
X498713Y229490D02*
Y319490D01*
X348758Y229490D02*
Y319490D01*
X275378Y229490D02*
Y319490D01*
X224790Y229490D02*
Y319490D01*
X109824Y229490D02*
Y319490D01*
X55838Y229490D02*
Y319490D01*
D82*
X922497Y316188D02*
Y308990D01*
Y312589D01*
X927295D01*
Y316188D01*
Y308990D01*
X930894D02*
X933293D01*
X934493Y310190D01*
Y312589D01*
X933293Y313789D01*
X930894D01*
X929694Y312589D01*
Y310190D01*
X930894Y308990D01*
X936892D02*
X939291D01*
X938091D01*
Y316188D01*
X936892D01*
X946489Y308990D02*
X944090D01*
X942890Y310190D01*
Y312589D01*
X944090Y313789D01*
X946489D01*
X947688Y312589D01*
Y311389D01*
X942890D01*
X957285Y316188D02*
X962084D01*
X959684D01*
Y308990D01*
X965683D02*
X968082D01*
X969281Y310190D01*
Y312589D01*
X968082Y313789D01*
X965683D01*
X964483Y312589D01*
Y310190D01*
X965683Y308990D01*
X971681D02*
X974080D01*
X972880D01*
Y316188D01*
X971681D01*
X981277Y308990D02*
X978878D01*
X977679Y310190D01*
Y312589D01*
X978878Y313789D01*
X981277D01*
X982477Y312589D01*
Y311389D01*
X977679D01*
X984876Y313789D02*
Y308990D01*
Y311389D01*
X986076Y312589D01*
X987276Y313789D01*
X988475D01*
X993274D02*
X995673D01*
X996872Y312589D01*
Y308990D01*
X993274D01*
X992074Y310190D01*
X993274Y311389D01*
X996872D01*
X999272Y308990D02*
Y313789D01*
X1002870D01*
X1004070Y312589D01*
Y308990D01*
X1011268Y313789D02*
X1007669D01*
X1006469Y312589D01*
Y310190D01*
X1007669Y308990D01*
X1011268D01*
X1017266D02*
X1014867D01*
X1013667Y310190D01*
Y312589D01*
X1014867Y313789D01*
X1017266D01*
X1018465Y312589D01*
Y311389D01*
X1013667D01*
X1030462Y308990D02*
X1028062Y311389D01*
Y313789D01*
X1030462Y316188D01*
X1034060Y312589D02*
X1038859D01*
X1041258Y308990D02*
X1043657Y311389D01*
Y313789D01*
X1041258Y316188D01*
X789136D02*
Y308990D01*
Y312589D01*
X793934D01*
Y316188D01*
Y308990D01*
X797533D02*
X799932D01*
X801132Y310190D01*
Y312589D01*
X799932Y313789D01*
X797533D01*
X796333Y312589D01*
Y310190D01*
X797533Y308990D01*
X803531D02*
X805930D01*
X804731D01*
Y316188D01*
X803531D01*
X813128Y308990D02*
X810729D01*
X809529Y310190D01*
Y312589D01*
X810729Y313789D01*
X813128D01*
X814328Y312589D01*
Y311389D01*
X809529D01*
X823925Y316188D02*
X828723D01*
X826324D01*
Y308990D01*
X832322D02*
X834721D01*
X835921Y310190D01*
Y312589D01*
X834721Y313789D01*
X832322D01*
X831122Y312589D01*
Y310190D01*
X832322Y308990D01*
X838320D02*
X840719D01*
X839519D01*
Y316188D01*
X838320D01*
X847917Y308990D02*
X845518D01*
X844318Y310190D01*
Y312589D01*
X845518Y313789D01*
X847917D01*
X849116Y312589D01*
Y311389D01*
X844318D01*
X851515Y313789D02*
Y308990D01*
Y311389D01*
X852715Y312589D01*
X853915Y313789D01*
X855114D01*
X859913D02*
X862312D01*
X863512Y312589D01*
Y308990D01*
X859913D01*
X858713Y310190D01*
X859913Y311389D01*
X863512D01*
X865911Y308990D02*
Y313789D01*
X869510D01*
X870709Y312589D01*
Y308990D01*
X877907Y313789D02*
X874308D01*
X873108Y312589D01*
Y310190D01*
X874308Y308990D01*
X877907D01*
X883905D02*
X881506D01*
X880306Y310190D01*
Y312589D01*
X881506Y313789D01*
X883905D01*
X885105Y312589D01*
Y311389D01*
X880306D01*
X897101Y308990D02*
X894701Y311389D01*
Y313789D01*
X897101Y316188D01*
X900700Y312589D02*
X905498D01*
X903099Y314988D02*
Y310190D01*
X907897Y308990D02*
X910297Y311389D01*
Y313789D01*
X907897Y316188D01*
X703759D02*
Y308990D01*
X707358D01*
X708558Y310190D01*
Y314988D01*
X707358Y316188D01*
X703759D01*
X714556Y308990D02*
X712157D01*
X710957Y310190D01*
Y312589D01*
X712157Y313789D01*
X714556D01*
X715756Y312589D01*
Y311389D01*
X710957D01*
X718155Y308990D02*
X721754D01*
X722953Y310190D01*
X721754Y311389D01*
X719354D01*
X718155Y312589D01*
X719354Y313789D01*
X722953D01*
X730151D02*
X726552D01*
X725352Y312589D01*
Y310190D01*
X726552Y308990D01*
X730151D01*
X732550Y313789D02*
Y308990D01*
Y311389D01*
X733750Y312589D01*
X734949Y313789D01*
X736149D01*
X739748Y308990D02*
X742147D01*
X740947D01*
Y313789D01*
X739748D01*
X745746Y306591D02*
Y313789D01*
X749345D01*
X750544Y312589D01*
Y310190D01*
X749345Y308990D01*
X745746D01*
X754143Y314988D02*
Y313789D01*
X752944D01*
X755343D01*
X754143D01*
Y310190D01*
X755343Y308990D01*
X758942D02*
X761341D01*
X760141D01*
Y313789D01*
X758942D01*
X766139Y308990D02*
X768538D01*
X769738Y310190D01*
Y312589D01*
X768538Y313789D01*
X766139D01*
X764940Y312589D01*
Y310190D01*
X766139Y308990D01*
X772137D02*
Y313789D01*
X775736D01*
X776936Y312589D01*
Y308990D01*
X636777Y316188D02*
X641576D01*
X639177D01*
Y308990D01*
X647574D02*
X645175D01*
X643975Y310190D01*
Y312589D01*
X645175Y313789D01*
X647574D01*
X648774Y312589D01*
Y311389D01*
X643975D01*
X651173Y308990D02*
Y313789D01*
X652373D01*
X653572Y312589D01*
Y308990D01*
Y312589D01*
X654772Y313789D01*
X655971Y312589D01*
Y308990D01*
X658370Y306591D02*
Y313789D01*
X661969D01*
X663169Y312589D01*
Y310190D01*
X661969Y308990D01*
X658370D01*
X665568D02*
X667967D01*
X666768D01*
Y316188D01*
X665568D01*
X672766Y313789D02*
X675165D01*
X676365Y312589D01*
Y308990D01*
X672766D01*
X671566Y310190D01*
X672766Y311389D01*
X676365D01*
X679963Y314988D02*
Y313789D01*
X678764D01*
X681163D01*
X679963D01*
Y310190D01*
X681163Y308990D01*
X688361D02*
X685962D01*
X684762Y310190D01*
Y312589D01*
X685962Y313789D01*
X688361D01*
X689560Y312589D01*
Y311389D01*
X684762D01*
X562198Y308990D02*
Y316188D01*
X565797D01*
X566996Y314988D01*
Y312589D01*
X565797Y311389D01*
X562198D01*
X570595Y313789D02*
X572994D01*
X574194Y312589D01*
Y308990D01*
X570595D01*
X569395Y310190D01*
X570595Y311389D01*
X574194D01*
X581391Y316188D02*
Y308990D01*
X577793D01*
X576593Y310190D01*
Y312589D01*
X577793Y313789D01*
X581391D01*
X595787Y314988D02*
X594587Y316188D01*
X592188D01*
X590988Y314988D01*
Y313789D01*
X592188Y312589D01*
X594587D01*
X595787Y311389D01*
Y310190D01*
X594587Y308990D01*
X592188D01*
X590988Y310190D01*
X598186Y316188D02*
Y308990D01*
Y312589D01*
X599386Y313789D01*
X601785D01*
X602985Y312589D01*
Y308990D01*
X606583Y313789D02*
X608983D01*
X610182Y312589D01*
Y308990D01*
X606583D01*
X605384Y310190D01*
X606583Y311389D01*
X610182D01*
X612581Y306591D02*
Y313789D01*
X616180D01*
X617380Y312589D01*
Y310190D01*
X616180Y308990D01*
X612581D01*
X623378D02*
X620979D01*
X619779Y310190D01*
Y312589D01*
X620979Y313789D01*
X623378D01*
X624578Y312589D01*
Y311389D01*
X619779D01*
X503213Y316188D02*
Y311389D01*
X505612Y308990D01*
X508011Y311389D01*
Y316188D01*
X510410Y308990D02*
X512810D01*
X511610D01*
Y313789D01*
X510410D01*
X517608D02*
X520007D01*
X521207Y312589D01*
Y308990D01*
X517608D01*
X516409Y310190D01*
X517608Y311389D01*
X521207D01*
X523606Y308990D02*
X528405Y313789D01*
X530804Y308990D02*
Y316188D01*
X534403D01*
X535602Y314988D01*
Y312589D01*
X534403Y311389D01*
X530804D01*
X539201Y313789D02*
X541600D01*
X542800Y312589D01*
Y308990D01*
X539201D01*
X538002Y310190D01*
X539201Y311389D01*
X542800D01*
X549998Y316188D02*
Y308990D01*
X546399D01*
X545199Y310190D01*
Y312589D01*
X546399Y313789D01*
X549998D01*
X353258Y316188D02*
Y308990D01*
X356857D01*
X358056Y310190D01*
Y314988D01*
X356857Y316188D01*
X353258D01*
X360455Y313789D02*
Y308990D01*
Y311389D01*
X361655Y312589D01*
X362855Y313789D01*
X364054D01*
X367653Y308990D02*
X370052D01*
X368853D01*
Y313789D01*
X367653D01*
X373651Y308990D02*
X376050D01*
X374851D01*
Y316188D01*
X373651D01*
X379649Y308990D02*
X382049D01*
X380849D01*
Y316188D01*
X379649D01*
X392845D02*
Y308990D01*
X397643D01*
X401242Y313789D02*
X403642D01*
X404841Y312589D01*
Y308990D01*
X401242D01*
X400043Y310190D01*
X401242Y311389D01*
X404841D01*
X407240Y313789D02*
Y310190D01*
X408440Y308990D01*
X412039D01*
Y307790D01*
X410839Y306591D01*
X409640D01*
X412039Y308990D02*
Y313789D01*
X418037Y308990D02*
X415638D01*
X414438Y310190D01*
Y312589D01*
X415638Y313789D01*
X418037D01*
X419236Y312589D01*
Y311389D01*
X414438D01*
X421636Y313789D02*
Y308990D01*
Y311389D01*
X422835Y312589D01*
X424035Y313789D01*
X425235D01*
X436031Y308990D02*
Y316188D01*
X439630D01*
X440829Y314988D01*
Y312589D01*
X439630Y311389D01*
X436031D01*
X444428Y313789D02*
X446828D01*
X448027Y312589D01*
Y308990D01*
X444428D01*
X443229Y310190D01*
X444428Y311389D01*
X448027D01*
X450426Y308990D02*
X452826D01*
X451626D01*
Y313789D01*
X450426D01*
X456424D02*
Y308990D01*
Y311389D01*
X457624Y312589D01*
X458824Y313789D01*
X460023D01*
X279878Y316188D02*
Y308990D01*
Y312589D01*
X284676D01*
Y316188D01*
Y308990D01*
X288275D02*
X290674D01*
X291874Y310190D01*
Y312589D01*
X290674Y313789D01*
X288275D01*
X287075Y312589D01*
Y310190D01*
X288275Y308990D01*
X294273D02*
X296672D01*
X295473D01*
Y316188D01*
X294273D01*
X303870Y308990D02*
X301471D01*
X300271Y310190D01*
Y312589D01*
X301471Y313789D01*
X303870D01*
X305069Y312589D01*
Y311389D01*
X300271D01*
X314666Y316188D02*
X319465D01*
X317066D01*
Y308990D01*
X321864Y313789D02*
Y310190D01*
X323064Y308990D01*
X326662D01*
Y307790D01*
X325463Y306591D01*
X324263D01*
X326662Y308990D02*
Y313789D01*
X329062Y306591D02*
Y313789D01*
X332661D01*
X333860Y312589D01*
Y310190D01*
X332661Y308990D01*
X329062D01*
X339858D02*
X337459D01*
X336259Y310190D01*
Y312589D01*
X337459Y313789D01*
X339858D01*
X341058Y312589D01*
Y311389D01*
X336259D01*
X229290Y308990D02*
Y316188D01*
X232889D01*
X234088Y314988D01*
Y312589D01*
X232889Y311389D01*
X229290D01*
X236488Y308990D02*
X238887D01*
X237687D01*
Y316188D01*
X236488D01*
X243685Y313789D02*
X246085D01*
X247284Y312589D01*
Y308990D01*
X243685D01*
X242486Y310190D01*
X243685Y311389D01*
X247284D01*
X250883Y314988D02*
Y313789D01*
X249683D01*
X252083D01*
X250883D01*
Y310190D01*
X252083Y308990D01*
X259280D02*
X256881D01*
X255681Y310190D01*
Y312589D01*
X256881Y313789D01*
X259280D01*
X260480Y312589D01*
Y311389D01*
X255681D01*
X267678Y316188D02*
Y308990D01*
X264079D01*
X262879Y310190D01*
Y312589D01*
X264079Y313789D01*
X267678D01*
X114324Y316188D02*
Y308990D01*
Y312589D01*
X119122D01*
Y316188D01*
Y308990D01*
X122721D02*
X125120D01*
X126320Y310190D01*
Y312589D01*
X125120Y313789D01*
X122721D01*
X121521Y312589D01*
Y310190D01*
X122721Y308990D01*
X128719D02*
X131118D01*
X129919D01*
Y316188D01*
X128719D01*
X138316Y308990D02*
X135917D01*
X134717Y310190D01*
Y312589D01*
X135917Y313789D01*
X138316D01*
X139515Y312589D01*
Y311389D01*
X134717D01*
X153911Y314988D02*
X152711Y316188D01*
X150312D01*
X149112Y314988D01*
Y313789D01*
X150312Y312589D01*
X152711D01*
X153911Y311389D01*
Y310190D01*
X152711Y308990D01*
X150312D01*
X149112Y310190D01*
X156310Y308990D02*
X158709D01*
X157510D01*
Y313789D01*
X156310D01*
X162308D02*
X167107D01*
X162308Y308990D01*
X167107D01*
X173105D02*
X170705D01*
X169506Y310190D01*
Y312589D01*
X170705Y313789D01*
X173105D01*
X174304Y312589D01*
Y311389D01*
X169506D01*
X65136Y314988D02*
X63936Y316188D01*
X61537D01*
X60338Y314988D01*
Y310190D01*
X61537Y308990D01*
X63936D01*
X65136Y310190D01*
X68735Y308990D02*
X71134D01*
X72334Y310190D01*
Y312589D01*
X71134Y313789D01*
X68735D01*
X67535Y312589D01*
Y310190D01*
X68735Y308990D01*
X74733Y313789D02*
Y310190D01*
X75933Y308990D01*
X79531D01*
Y313789D01*
X81931Y308990D02*
Y313789D01*
X85529D01*
X86729Y312589D01*
Y308990D01*
X90328Y314988D02*
Y313789D01*
X89128D01*
X91527D01*
X90328D01*
Y310190D01*
X91527Y308990D01*
X14548Y314988D02*
X13349Y316188D01*
X10950D01*
X9750Y314988D01*
Y313789D01*
X10950Y312589D01*
X13349D01*
X14548Y311389D01*
Y310190D01*
X13349Y308990D01*
X10950D01*
X9750Y310190D01*
X16948Y313789D02*
Y310190D01*
X18147Y308990D01*
X21746D01*
Y307790D01*
X20547Y306591D01*
X19347D01*
X21746Y308990D02*
Y313789D01*
X24145Y308990D02*
Y313789D01*
X25345D01*
X26545Y312589D01*
Y308990D01*
Y312589D01*
X27744Y313789D01*
X28944Y312589D01*
Y308990D01*
X31343Y316188D02*
Y308990D01*
X34942D01*
X36141Y310190D01*
Y311389D01*
Y312589D01*
X34942Y313789D01*
X31343D01*
X39740Y308990D02*
X42140D01*
X43339Y310190D01*
Y312589D01*
X42140Y313789D01*
X39740D01*
X38541Y312589D01*
Y310190D01*
X39740Y308990D01*
X45738D02*
X48138D01*
X46938D01*
Y316188D01*
X45738D01*
M02*
