G04*
G04 #@! TF.GenerationSoftware,Altium Limited,Altium Designer,23.7.1 (13)*
G04*
G04 Layer_Color=128*
%FSLAX25Y25*%
%MOIN*%
G70*
G04*
G04 #@! TF.SameCoordinates,FE150CF2-D92F-4AEA-AE3F-07D5F2836877*
G04*
G04*
G04 #@! TF.FilePolarity,Positive*
G04*
G01*
G75*
%ADD13C,0.00500*%
D13*
X52547Y172122D02*
X53335D01*
X52941Y171728D02*
Y172516D01*
X52547Y177043D02*
X53335D01*
X52941Y176650D02*
Y177437D01*
X50579Y174583D02*
X51366D01*
X50972Y174189D02*
Y174976D01*
X54516Y174583D02*
X55303D01*
X54909Y174189D02*
Y174976D01*
X135039Y37008D02*
X135827D01*
X135433Y36614D02*
Y37402D01*
X138976Y37008D02*
X139764D01*
X139370Y36614D02*
Y37402D01*
X135039Y40748D02*
X135827D01*
X135433Y40354D02*
Y41142D01*
X138976Y40748D02*
X139764D01*
X139370Y40354D02*
Y41142D01*
X135039Y33268D02*
X135827D01*
X135433Y32874D02*
Y33661D01*
X138976Y33268D02*
X139764D01*
X139370Y32874D02*
Y33661D01*
X154035Y187441D02*
X168603D01*
X161319Y180157D02*
Y194725D01*
X324036Y17441D02*
X338602D01*
X331319Y10158D02*
Y24724D01*
X324036Y187441D02*
X338602D01*
X331319Y180157D02*
Y194725D01*
X154035Y17441D02*
X168603D01*
X161319Y10158D02*
Y24724D01*
X150197Y157480D02*
X151378D01*
X150787Y156890D02*
Y158071D01*
X222219Y96500D02*
X223619D01*
X222919Y95800D02*
Y97200D01*
X162619Y99500D02*
X164019D01*
X163319Y98800D02*
Y100200D01*
X222219Y102500D02*
X223619D01*
X222919Y101800D02*
Y103200D01*
X162619Y107500D02*
X164019D01*
X163319Y106800D02*
Y108200D01*
X144685Y107874D02*
X145866D01*
X145276Y107283D02*
Y108465D01*
X134055Y157480D02*
X135236D01*
X134646Y156890D02*
Y158071D01*
X127756Y157480D02*
X128937D01*
X128347Y156890D02*
Y158071D01*
X139173Y101969D02*
X140354D01*
X139764Y101378D02*
Y102559D01*
X118701Y105905D02*
X119882D01*
X119291Y105315D02*
Y106496D01*
X135236Y104331D02*
X136417D01*
X135827Y103740D02*
Y104921D01*
X139567Y77165D02*
X140748D01*
X140157Y76575D02*
Y77756D01*
X145949Y74650D02*
X147130D01*
X146539Y74059D02*
Y75240D01*
X119095Y52870D02*
X120276D01*
X119685Y52280D02*
Y53461D01*
X124213Y41732D02*
X125394D01*
X124803Y41142D02*
Y42323D01*
X91929Y80315D02*
X93110D01*
X92520Y79724D02*
Y80905D01*
X125394Y37008D02*
X126575D01*
X125984Y36417D02*
Y37598D01*
X144291Y9449D02*
X145472D01*
X144882Y8858D02*
Y10039D01*
X116339Y82284D02*
X117520D01*
X116929Y81693D02*
Y82874D01*
X115551Y92520D02*
X116732D01*
X116142Y91929D02*
Y93110D01*
X111221Y87795D02*
X112402D01*
X111811Y87205D02*
Y88386D01*
X130528Y144882D02*
X131709D01*
X131118Y144291D02*
Y145473D01*
X150520Y46303D02*
X151701D01*
X151110Y45713D02*
Y46894D01*
X106102Y94882D02*
X107283D01*
X106693Y94291D02*
Y95472D01*
X95079Y94488D02*
X96260D01*
X95669Y93898D02*
Y95079D01*
X55709Y79134D02*
X56890D01*
X56299Y78543D02*
Y79724D01*
X45866Y44882D02*
X47047D01*
X46457Y44291D02*
Y45472D01*
X46504Y73909D02*
X47685D01*
X47095Y73319D02*
Y74500D01*
X52165Y23031D02*
X53347D01*
X52756Y22441D02*
Y23622D01*
X98622Y10630D02*
X99803D01*
X99213Y10039D02*
Y11220D01*
X63976Y10630D02*
X65158D01*
X64567Y10039D02*
Y11220D01*
X111614Y20866D02*
X112795D01*
X112205Y20276D02*
Y21457D01*
X36291Y134236D02*
X37472D01*
X36882Y133646D02*
Y134827D01*
X10433Y43147D02*
X11614D01*
X11024Y42556D02*
Y43738D01*
X21457Y43147D02*
X22638D01*
X22047Y42556D02*
Y43738D01*
X30118Y116535D02*
X31299D01*
X30709Y115945D02*
Y117126D01*
X18307Y109843D02*
X19488D01*
X18898Y109252D02*
Y110433D01*
X25787Y94882D02*
X26969D01*
X26378Y94291D02*
Y95472D01*
X16732Y94488D02*
X17913D01*
X17323Y93898D02*
Y95079D01*
X21850Y102362D02*
X23031D01*
X22441Y101772D02*
Y102953D01*
X13189Y102362D02*
X14370D01*
X13780Y101772D02*
Y102953D01*
X32874Y25824D02*
X34055D01*
X33465Y25234D02*
Y26415D01*
X22244Y25430D02*
X23425D01*
X22835Y24840D02*
Y26021D01*
X11220Y25430D02*
X12402D01*
X11811Y24840D02*
Y26021D01*
X32480Y34486D02*
X33661D01*
X33071Y33895D02*
Y35076D01*
X21850Y34486D02*
X23031D01*
X22441Y33895D02*
Y35076D01*
X10827Y34486D02*
X12008D01*
X11417Y33895D02*
Y35076D01*
X32087Y52202D02*
X33268D01*
X32677Y51612D02*
Y52793D01*
X21063Y52202D02*
X22244D01*
X21654Y51612D02*
Y52793D01*
X10433Y52202D02*
X11614D01*
X11024Y51612D02*
Y52793D01*
X55315Y135827D02*
X56496D01*
X55905Y135236D02*
Y136417D01*
X37992Y117323D02*
X39173D01*
X38583Y116732D02*
Y117913D01*
X53965Y180831D02*
X55146D01*
X54555Y180240D02*
Y181421D01*
X26402Y181264D02*
X27583D01*
X26992Y180673D02*
Y181854D01*
X61461Y189366D02*
X62642D01*
X62051Y188776D02*
Y189957D01*
X77217Y178524D02*
X78398D01*
X77807Y177933D02*
Y179114D01*
X103905Y38752D02*
X105087D01*
X104496Y38161D02*
Y39342D01*
X76728Y76378D02*
X77909D01*
X77319Y75787D02*
Y76968D01*
X36150Y79996D02*
X37331D01*
X36740Y79405D02*
Y80587D01*
X39646Y95878D02*
X40827D01*
X40236Y95287D02*
Y96469D01*
X112248Y158398D02*
X113429D01*
X112839Y157807D02*
Y158988D01*
X31784Y75410D02*
X32965D01*
X32374Y74819D02*
Y76000D01*
X40287Y105398D02*
X41469D01*
X40878Y104807D02*
Y105988D01*
X31902Y70784D02*
X33083D01*
X32492Y70193D02*
Y71374D01*
X46323Y96933D02*
X47504D01*
X46913Y96342D02*
Y97524D01*
X44559Y103260D02*
X45740D01*
X45150Y102669D02*
Y103850D01*
X79799Y45299D02*
X80980D01*
X80390Y44709D02*
Y45890D01*
X122409Y49764D02*
X123591D01*
X123000Y49173D02*
Y50354D01*
X46630Y65299D02*
X47811D01*
X47221Y64709D02*
Y65890D01*
X71563Y83909D02*
X72744D01*
X72154Y83319D02*
Y84500D01*
X83673Y58406D02*
X84854D01*
X84264Y57815D02*
Y58996D01*
X88476Y89429D02*
X89657D01*
X89067Y88839D02*
Y90020D01*
X88382Y59102D02*
X89563D01*
X88972Y58512D02*
Y59693D01*
X97618Y64780D02*
X98799D01*
X98209Y64189D02*
Y65370D01*
X97519Y60844D02*
X98700D01*
X98110Y60253D02*
Y61434D01*
X113043Y26791D02*
X114224D01*
X113634Y26201D02*
Y27382D01*
X132455Y91767D02*
X133242D01*
X132849Y91373D02*
Y92160D01*
X124213Y91732D02*
X125000D01*
X124606Y91339D02*
Y92126D01*
X128347Y86811D02*
X129134D01*
X128740Y86417D02*
Y87205D01*
X128347Y96653D02*
X129134D01*
X128740Y96260D02*
Y97047D01*
M02*
