G04*
G04 #@! TF.GenerationSoftware,Altium Limited,Altium Designer,23.7.1 (13)*
G04*
G04 Layer_Color=16711935*
%FSLAX25Y25*%
%MOIN*%
G70*
G04*
G04 #@! TF.SameCoordinates,FE150CF2-D92F-4AEA-AE3F-07D5F2836877*
G04*
G04*
G04 #@! TF.FilePolarity,Positive*
G04*
G01*
G75*
%ADD10C,0.01000*%
%ADD12C,0.00394*%
%ADD13C,0.00500*%
%ADD78C,0.00000*%
%ADD79C,0.00100*%
%ADD80C,0.01500*%
%ADD81C,0.00300*%
D10*
X349662Y743602D02*
Y737604D01*
X352661D01*
X353661Y738604D01*
Y739604D01*
X352661Y740603D01*
X349662D01*
X352661D01*
X353661Y741603D01*
Y742603D01*
X352661Y743602D01*
X349662D01*
X356660Y737604D02*
X358659D01*
X359659Y738604D01*
Y740603D01*
X358659Y741603D01*
X356660D01*
X355660Y740603D01*
Y738604D01*
X356660Y737604D01*
X362658Y741603D02*
X364657D01*
X365657Y740603D01*
Y737604D01*
X362658D01*
X361658Y738604D01*
X362658Y739604D01*
X365657D01*
X367656Y741603D02*
Y737604D01*
Y739604D01*
X368656Y740603D01*
X369656Y741603D01*
X370655D01*
X377653Y743602D02*
Y737604D01*
X374654D01*
X373654Y738604D01*
Y740603D01*
X374654Y741603D01*
X377653D01*
X385650Y743602D02*
Y737604D01*
X389649D01*
X392648Y741603D02*
X394648D01*
X395647Y740603D01*
Y737604D01*
X392648D01*
X391649Y738604D01*
X392648Y739604D01*
X395647D01*
X397647Y741603D02*
Y738604D01*
X398646Y737604D01*
X401645D01*
Y736604D01*
X400646Y735605D01*
X399646D01*
X401645Y737604D02*
Y741603D01*
X406644Y737604D02*
X404644D01*
X403645Y738604D01*
Y740603D01*
X404644Y741603D01*
X406644D01*
X407643Y740603D01*
Y739604D01*
X403645D01*
X409643Y741603D02*
Y737604D01*
Y739604D01*
X410642Y740603D01*
X411642Y741603D01*
X412642D01*
X425637Y742603D02*
X424638Y743602D01*
X422639D01*
X421639Y742603D01*
Y741603D01*
X422639Y740603D01*
X424638D01*
X425637Y739604D01*
Y738604D01*
X424638Y737604D01*
X422639D01*
X421639Y738604D01*
X428637Y742603D02*
Y741603D01*
X427637D01*
X429636D01*
X428637D01*
Y738604D01*
X429636Y737604D01*
X433635Y741603D02*
X435634D01*
X436634Y740603D01*
Y737604D01*
X433635D01*
X432635Y738604D01*
X433635Y739604D01*
X436634D01*
X442632Y741603D02*
X439633D01*
X438633Y740603D01*
Y738604D01*
X439633Y737604D01*
X442632D01*
X444631D02*
Y743602D01*
Y739604D02*
X447630Y741603D01*
X444631Y739604D02*
X447630Y737604D01*
X292676Y718603D02*
X293676Y719602D01*
X295675D01*
X296675Y718603D01*
Y717603D01*
X295675Y716603D01*
X294675D01*
X295675D01*
X296675Y715604D01*
Y714604D01*
X295675Y713604D01*
X293676D01*
X292676Y714604D01*
X298674Y713604D02*
Y714604D01*
X299674D01*
Y713604D01*
X298674D01*
X307671Y719602D02*
X303672D01*
Y716603D01*
X305672Y717603D01*
X306672D01*
X307671Y716603D01*
Y714604D01*
X306672Y713604D01*
X304672D01*
X303672Y714604D01*
X295675Y689604D02*
Y695602D01*
X292676Y692603D01*
X296675D01*
X298674Y689604D02*
Y690604D01*
X299674D01*
Y689604D01*
X298674D01*
X303672Y694603D02*
X304672Y695602D01*
X306672D01*
X307671Y694603D01*
Y693603D01*
X306672Y692603D01*
X307671Y691604D01*
Y690604D01*
X306672Y689604D01*
X304672D01*
X303672Y690604D01*
Y691604D01*
X304672Y692603D01*
X303672Y693603D01*
Y694603D01*
X304672Y692603D02*
X306672D01*
X295675Y665604D02*
Y671602D01*
X292676Y668603D01*
X296675D01*
X298674Y665604D02*
Y666604D01*
X299674D01*
Y665604D01*
X298674D01*
X303672Y670603D02*
X304672Y671602D01*
X306672D01*
X307671Y670603D01*
Y669603D01*
X306672Y668603D01*
X307671Y667604D01*
Y666604D01*
X306672Y665604D01*
X304672D01*
X303672Y666604D01*
Y667604D01*
X304672Y668603D01*
X303672Y669603D01*
Y670603D01*
X304672Y668603D02*
X306672D01*
X295675Y641604D02*
Y647602D01*
X292676Y644603D01*
X296675D01*
X298674Y641604D02*
Y642604D01*
X299674D01*
Y641604D01*
X298674D01*
X303672Y646603D02*
X304672Y647602D01*
X306672D01*
X307671Y646603D01*
Y645603D01*
X306672Y644603D01*
X307671Y643604D01*
Y642604D01*
X306672Y641604D01*
X304672D01*
X303672Y642604D01*
Y643604D01*
X304672Y644603D01*
X303672Y645603D01*
Y646603D01*
X304672Y644603D02*
X306672D01*
X292676Y622603D02*
X293676Y623602D01*
X295675D01*
X296675Y622603D01*
Y621603D01*
X295675Y620603D01*
X294675D01*
X295675D01*
X296675Y619604D01*
Y618604D01*
X295675Y617604D01*
X293676D01*
X292676Y618604D01*
X298674Y617604D02*
Y618604D01*
X299674D01*
Y617604D01*
X298674D01*
X307671Y623602D02*
X303672D01*
Y620603D01*
X305672Y621603D01*
X306672D01*
X307671Y620603D01*
Y618604D01*
X306672Y617604D01*
X304672D01*
X303672Y618604D01*
X296675Y742603D02*
X295675Y743602D01*
X293676D01*
X292676Y742603D01*
Y738604D01*
X293676Y737604D01*
X295675D01*
X296675Y738604D01*
X299674Y737604D02*
X301673D01*
X302673Y738604D01*
Y740603D01*
X301673Y741603D01*
X299674D01*
X298674Y740603D01*
Y738604D01*
X299674Y737604D01*
X304672D02*
Y741603D01*
X307671D01*
X308671Y740603D01*
Y737604D01*
X310670D02*
X313669D01*
X314669Y738604D01*
X313669Y739604D01*
X311670D01*
X310670Y740603D01*
X311670Y741603D01*
X314669D01*
X317668Y742603D02*
Y741603D01*
X316668D01*
X318668D01*
X317668D01*
Y738604D01*
X318668Y737604D01*
X322666Y741603D02*
X324666D01*
X325665Y740603D01*
Y737604D01*
X322666D01*
X321667Y738604D01*
X322666Y739604D01*
X325665D01*
X327665Y737604D02*
Y741603D01*
X330664D01*
X331663Y740603D01*
Y737604D01*
X334662Y742603D02*
Y741603D01*
X333663D01*
X335662D01*
X334662D01*
Y738604D01*
X335662Y737604D01*
X227693Y718603D02*
X228692Y719602D01*
X230692D01*
X231691Y718603D01*
Y714604D01*
X230692Y713604D01*
X228692D01*
X227693Y714604D01*
Y718603D01*
X233691Y713604D02*
Y714604D01*
X234690D01*
Y713604D01*
X233691D01*
X241688D02*
Y719602D01*
X238689Y716603D01*
X242688D01*
X244687Y718603D02*
X245687Y719602D01*
X247686D01*
X248686Y718603D01*
Y714604D01*
X247686Y713604D01*
X245687D01*
X244687Y714604D01*
Y718603D01*
X250685Y713604D02*
Y717603D01*
X251685D01*
X252684Y716603D01*
Y713604D01*
Y716603D01*
X253684Y717603D01*
X254684Y716603D01*
Y713604D01*
X256683D02*
X258682D01*
X257683D01*
Y717603D01*
X256683D01*
X261682Y713604D02*
X263681D01*
X262681D01*
Y719602D01*
X261682D01*
X227693Y701604D02*
X229692D01*
X228692D01*
Y707602D01*
X227693Y706603D01*
X232691Y701604D02*
Y702604D01*
X233691D01*
Y701604D01*
X232691D01*
X237689Y706603D02*
X238689Y707602D01*
X240688D01*
X241688Y706603D01*
Y705603D01*
X240688Y704603D01*
X239689D01*
X240688D01*
X241688Y703604D01*
Y702604D01*
X240688Y701604D01*
X238689D01*
X237689Y702604D01*
X243687Y706603D02*
X244687Y707602D01*
X246686D01*
X247686Y706603D01*
Y705603D01*
X246686Y704603D01*
X247686Y703604D01*
Y702604D01*
X246686Y701604D01*
X244687D01*
X243687Y702604D01*
Y703604D01*
X244687Y704603D01*
X243687Y705603D01*
Y706603D01*
X244687Y704603D02*
X246686D01*
X249685Y701604D02*
Y705603D01*
X250685D01*
X251685Y704603D01*
Y701604D01*
Y704603D01*
X252684Y705603D01*
X253684Y704603D01*
Y701604D01*
X255683D02*
X257683D01*
X256683D01*
Y705603D01*
X255683D01*
X260682Y701604D02*
X262681D01*
X261682D01*
Y707602D01*
X260682D01*
X227693Y689604D02*
X229692D01*
X228692D01*
Y695602D01*
X227693Y694603D01*
X236690Y695602D02*
X232691D01*
Y692603D01*
X234690Y693603D01*
X235690D01*
X236690Y692603D01*
Y690604D01*
X235690Y689604D01*
X233691D01*
X232691Y690604D01*
X238689Y689604D02*
Y690604D01*
X239689D01*
Y689604D01*
X238689D01*
X243687Y695602D02*
X247686D01*
Y694603D01*
X243687Y690604D01*
Y689604D01*
X253684Y695602D02*
X249685D01*
Y692603D01*
X251685Y693603D01*
X252684D01*
X253684Y692603D01*
Y690604D01*
X252684Y689604D01*
X250685D01*
X249685Y690604D01*
X255683Y689604D02*
Y693603D01*
X256683D01*
X257683Y692603D01*
Y689604D01*
Y692603D01*
X258682Y693603D01*
X259682Y692603D01*
Y689604D01*
X261682D02*
X263681D01*
X262681D01*
Y693603D01*
X261682D01*
X266680Y689604D02*
X268679D01*
X267680D01*
Y695602D01*
X266680D01*
X227693Y677604D02*
X229692D01*
X228692D01*
Y683602D01*
X227693Y682603D01*
X232691Y677604D02*
Y678604D01*
X233691D01*
Y677604D01*
X232691D01*
X240688D02*
Y683602D01*
X237689Y680603D01*
X241688D01*
X243687Y682603D02*
X244687Y683602D01*
X246686D01*
X247686Y682603D01*
Y678604D01*
X246686Y677604D01*
X244687D01*
X243687Y678604D01*
Y682603D01*
X249685Y677604D02*
Y681603D01*
X250685D01*
X251685Y680603D01*
Y677604D01*
Y680603D01*
X252684Y681603D01*
X253684Y680603D01*
Y677604D01*
X255683D02*
X257683D01*
X256683D01*
Y681603D01*
X255683D01*
X260682Y677604D02*
X262681D01*
X261682D01*
Y683602D01*
X260682D01*
X227693Y665604D02*
X229692D01*
X228692D01*
Y671602D01*
X227693Y670603D01*
X236690Y671602D02*
X232691D01*
Y668603D01*
X234690Y669603D01*
X235690D01*
X236690Y668603D01*
Y666604D01*
X235690Y665604D01*
X233691D01*
X232691Y666604D01*
X238689Y665604D02*
Y666604D01*
X239689D01*
Y665604D01*
X238689D01*
X243687Y671602D02*
X247686D01*
Y670603D01*
X243687Y666604D01*
Y665604D01*
X253684Y671602D02*
X249685D01*
Y668603D01*
X251685Y669603D01*
X252684D01*
X253684Y668603D01*
Y666604D01*
X252684Y665604D01*
X250685D01*
X249685Y666604D01*
X255683Y665604D02*
Y669603D01*
X256683D01*
X257683Y668603D01*
Y665604D01*
Y668603D01*
X258682Y669603D01*
X259682Y668603D01*
Y665604D01*
X261682D02*
X263681D01*
X262681D01*
Y669603D01*
X261682D01*
X266680Y665604D02*
X268679D01*
X267680D01*
Y671602D01*
X266680D01*
X227693Y653604D02*
X229692D01*
X228692D01*
Y659602D01*
X227693Y658603D01*
X232691Y653604D02*
Y654604D01*
X233691D01*
Y653604D01*
X232691D01*
X240688D02*
Y659602D01*
X237689Y656603D01*
X241688D01*
X243687Y658603D02*
X244687Y659602D01*
X246686D01*
X247686Y658603D01*
Y654604D01*
X246686Y653604D01*
X244687D01*
X243687Y654604D01*
Y658603D01*
X249685Y653604D02*
Y657603D01*
X250685D01*
X251685Y656603D01*
Y653604D01*
Y656603D01*
X252684Y657603D01*
X253684Y656603D01*
Y653604D01*
X255683D02*
X257683D01*
X256683D01*
Y657603D01*
X255683D01*
X260682Y653604D02*
X262681D01*
X261682D01*
Y659602D01*
X260682D01*
X227693Y641604D02*
X229692D01*
X228692D01*
Y647602D01*
X227693Y646603D01*
X236690Y647602D02*
X232691D01*
Y644603D01*
X234690Y645603D01*
X235690D01*
X236690Y644603D01*
Y642604D01*
X235690Y641604D01*
X233691D01*
X232691Y642604D01*
X238689Y641604D02*
Y642604D01*
X239689D01*
Y641604D01*
X238689D01*
X243687Y647602D02*
X247686D01*
Y646603D01*
X243687Y642604D01*
Y641604D01*
X253684Y647602D02*
X249685D01*
Y644603D01*
X251685Y645603D01*
X252684D01*
X253684Y644603D01*
Y642604D01*
X252684Y641604D01*
X250685D01*
X249685Y642604D01*
X255683Y641604D02*
Y645603D01*
X256683D01*
X257683Y644603D01*
Y641604D01*
Y644603D01*
X258682Y645603D01*
X259682Y644603D01*
Y641604D01*
X261682D02*
X263681D01*
X262681D01*
Y645603D01*
X261682D01*
X266680Y641604D02*
X268679D01*
X267680D01*
Y647602D01*
X266680D01*
X227693Y629604D02*
X229692D01*
X228692D01*
Y635602D01*
X227693Y634603D01*
X232691Y629604D02*
Y630604D01*
X233691D01*
Y629604D01*
X232691D01*
X237689Y634603D02*
X238689Y635602D01*
X240688D01*
X241688Y634603D01*
Y633603D01*
X240688Y632603D01*
X239689D01*
X240688D01*
X241688Y631604D01*
Y630604D01*
X240688Y629604D01*
X238689D01*
X237689Y630604D01*
X243687Y634603D02*
X244687Y635602D01*
X246686D01*
X247686Y634603D01*
Y633603D01*
X246686Y632603D01*
X247686Y631604D01*
Y630604D01*
X246686Y629604D01*
X244687D01*
X243687Y630604D01*
Y631604D01*
X244687Y632603D01*
X243687Y633603D01*
Y634603D01*
X244687Y632603D02*
X246686D01*
X249685Y629604D02*
Y633603D01*
X250685D01*
X251685Y632603D01*
Y629604D01*
Y632603D01*
X252684Y633603D01*
X253684Y632603D01*
Y629604D01*
X255683D02*
X257683D01*
X256683D01*
Y633603D01*
X255683D01*
X260682Y629604D02*
X262681D01*
X261682D01*
Y635602D01*
X260682D01*
X227693Y622603D02*
X228692Y623602D01*
X230692D01*
X231691Y622603D01*
Y618604D01*
X230692Y617604D01*
X228692D01*
X227693Y618604D01*
Y622603D01*
X233691Y617604D02*
Y618604D01*
X234690D01*
Y617604D01*
X233691D01*
X241688D02*
Y623602D01*
X238689Y620603D01*
X242688D01*
X244687Y622603D02*
X245687Y623602D01*
X247686D01*
X248686Y622603D01*
Y618604D01*
X247686Y617604D01*
X245687D01*
X244687Y618604D01*
Y622603D01*
X250685Y617604D02*
Y621603D01*
X251685D01*
X252684Y620603D01*
Y617604D01*
Y620603D01*
X253684Y621603D01*
X254684Y620603D01*
Y617604D01*
X256683D02*
X258682D01*
X257683D01*
Y621603D01*
X256683D01*
X261682Y617604D02*
X263681D01*
X262681D01*
Y623602D01*
X261682D01*
X227693Y743602D02*
X231691D01*
X229692D01*
Y737604D01*
X233691Y743602D02*
Y737604D01*
Y740603D01*
X234690Y741603D01*
X236690D01*
X237689Y740603D01*
Y737604D01*
X239689D02*
X241688D01*
X240688D01*
Y741603D01*
X239689D01*
X248686D02*
X245687D01*
X244687Y740603D01*
Y738604D01*
X245687Y737604D01*
X248686D01*
X250685D02*
Y743602D01*
Y739604D02*
X253684Y741603D01*
X250685Y739604D02*
X253684Y737604D01*
X256683D02*
Y741603D01*
X259682D01*
X260682Y740603D01*
Y737604D01*
X265680D02*
X263681D01*
X262681Y738604D01*
Y740603D01*
X263681Y741603D01*
X265680D01*
X266680Y740603D01*
Y739604D01*
X262681D01*
X268679Y737604D02*
X271678D01*
X272678Y738604D01*
X271678Y739604D01*
X269679D01*
X268679Y740603D01*
X269679Y741603D01*
X272678D01*
X274677Y737604D02*
X277676D01*
X278676Y738604D01*
X277676Y739604D01*
X275677D01*
X274677Y740603D01*
X275677Y741603D01*
X278676D01*
X145714Y718603D02*
X144715Y719602D01*
X142716D01*
X141716Y718603D01*
Y717603D01*
X142716Y716603D01*
X144715D01*
X145714Y715604D01*
Y714604D01*
X144715Y713604D01*
X142716D01*
X141716Y714604D01*
X148714Y713604D02*
X150713D01*
X151713Y714604D01*
Y716603D01*
X150713Y717603D01*
X148714D01*
X147714Y716603D01*
Y714604D01*
X148714Y713604D01*
X153712D02*
X155711D01*
X154712D01*
Y719602D01*
X153712D01*
X162709D02*
Y713604D01*
X159710D01*
X158710Y714604D01*
Y716603D01*
X159710Y717603D01*
X162709D01*
X167707Y713604D02*
X165708D01*
X164708Y714604D01*
Y716603D01*
X165708Y717603D01*
X167707D01*
X168707Y716603D01*
Y715604D01*
X164708D01*
X170706Y717603D02*
Y713604D01*
Y715604D01*
X171706Y716603D01*
X172706Y717603D01*
X173705D01*
X182703Y713604D02*
Y719602D01*
X185702D01*
X186701Y718603D01*
Y716603D01*
X185702Y715604D01*
X182703D01*
X184702D02*
X186701Y713604D01*
X191700D02*
X189700D01*
X188701Y714604D01*
Y716603D01*
X189700Y717603D01*
X191700D01*
X192699Y716603D01*
Y715604D01*
X188701D01*
X194699Y713604D02*
X197698D01*
X198697Y714604D01*
X197698Y715604D01*
X195698D01*
X194699Y716603D01*
X195698Y717603D01*
X198697D01*
X200697Y713604D02*
X202696D01*
X201696D01*
Y717603D01*
X200697D01*
X205695Y713604D02*
X208694D01*
X209694Y714604D01*
X208694Y715604D01*
X206695D01*
X205695Y716603D01*
X206695Y717603D01*
X209694D01*
X212693Y718603D02*
Y717603D01*
X211693D01*
X213692D01*
X212693D01*
Y714604D01*
X213692Y713604D01*
X145714Y695602D02*
X141716D01*
Y692603D01*
X143715D01*
X141716D01*
Y689604D01*
X147714D02*
Y695602D01*
X150713D01*
X151713Y694603D01*
Y692603D01*
X150713Y691604D01*
X147714D01*
X149713D02*
X151713Y689604D01*
X153712Y692603D02*
X157711D01*
X162709Y689604D02*
Y695602D01*
X159710Y692603D01*
X163709D01*
X145714Y671602D02*
X141716D01*
Y668603D01*
X143715D01*
X141716D01*
Y665604D01*
X147714D02*
Y671602D01*
X150713D01*
X151713Y670603D01*
Y668603D01*
X150713Y667604D01*
X147714D01*
X149713D02*
X151713Y665604D01*
X153712Y668603D02*
X157711D01*
X162709Y665604D02*
Y671602D01*
X159710Y668603D01*
X163709D01*
X145714Y647602D02*
X141716D01*
Y644603D01*
X143715D01*
X141716D01*
Y641604D01*
X147714D02*
Y647602D01*
X150713D01*
X151713Y646603D01*
Y644603D01*
X150713Y643604D01*
X147714D01*
X149713D02*
X151713Y641604D01*
X153712Y644603D02*
X157711D01*
X162709Y641604D02*
Y647602D01*
X159710Y644603D01*
X163709D01*
X145714Y622603D02*
X144715Y623602D01*
X142716D01*
X141716Y622603D01*
Y621603D01*
X142716Y620603D01*
X144715D01*
X145714Y619604D01*
Y618604D01*
X144715Y617604D01*
X142716D01*
X141716Y618604D01*
X148714Y617604D02*
X150713D01*
X151713Y618604D01*
Y620603D01*
X150713Y621603D01*
X148714D01*
X147714Y620603D01*
Y618604D01*
X148714Y617604D01*
X153712D02*
X155711D01*
X154712D01*
Y623602D01*
X153712D01*
X162709D02*
Y617604D01*
X159710D01*
X158710Y618604D01*
Y620603D01*
X159710Y621603D01*
X162709D01*
X167707Y617604D02*
X165708D01*
X164708Y618604D01*
Y620603D01*
X165708Y621603D01*
X167707D01*
X168707Y620603D01*
Y619604D01*
X164708D01*
X170706Y621603D02*
Y617604D01*
Y619604D01*
X171706Y620603D01*
X172706Y621603D01*
X173705D01*
X182703Y617604D02*
Y623602D01*
X185702D01*
X186701Y622603D01*
Y620603D01*
X185702Y619604D01*
X182703D01*
X184702D02*
X186701Y617604D01*
X191700D02*
X189700D01*
X188701Y618604D01*
Y620603D01*
X189700Y621603D01*
X191700D01*
X192699Y620603D01*
Y619604D01*
X188701D01*
X194699Y617604D02*
X197698D01*
X198697Y618604D01*
X197698Y619604D01*
X195698D01*
X194699Y620603D01*
X195698Y621603D01*
X198697D01*
X200697Y617604D02*
X202696D01*
X201696D01*
Y621603D01*
X200697D01*
X205695Y617604D02*
X208694D01*
X209694Y618604D01*
X208694Y619604D01*
X206695D01*
X205695Y620603D01*
X206695Y621603D01*
X209694D01*
X212693Y622603D02*
Y621603D01*
X211693D01*
X213692D01*
X212693D01*
Y618604D01*
X213692Y617604D01*
X141716Y737604D02*
Y743602D01*
X143715Y741603D01*
X145714Y743602D01*
Y737604D01*
X148714Y741603D02*
X150713D01*
X151713Y740603D01*
Y737604D01*
X148714D01*
X147714Y738604D01*
X148714Y739604D01*
X151713D01*
X154712Y742603D02*
Y741603D01*
X153712D01*
X155711D01*
X154712D01*
Y738604D01*
X155711Y737604D01*
X161709D02*
X159710D01*
X158710Y738604D01*
Y740603D01*
X159710Y741603D01*
X161709D01*
X162709Y740603D01*
Y739604D01*
X158710D01*
X164708Y741603D02*
Y737604D01*
Y739604D01*
X165708Y740603D01*
X166708Y741603D01*
X167707D01*
X170706Y737604D02*
X172706D01*
X171706D01*
Y741603D01*
X170706D01*
X176705D02*
X178704D01*
X179703Y740603D01*
Y737604D01*
X176705D01*
X175705Y738604D01*
X176705Y739604D01*
X179703D01*
X181703Y737604D02*
X183702D01*
X182703D01*
Y743602D01*
X181703D01*
X48741Y731602D02*
X52740D01*
X50741D01*
Y725604D01*
X55739D02*
X57738D01*
X58738Y726604D01*
Y728603D01*
X57738Y729603D01*
X55739D01*
X54739Y728603D01*
Y726604D01*
X55739Y725604D01*
X60738Y723605D02*
Y729603D01*
X63736D01*
X64736Y728603D01*
Y726604D01*
X63736Y725604D01*
X60738D01*
X75733Y731602D02*
X73733D01*
X72734Y730603D01*
Y726604D01*
X73733Y725604D01*
X75733D01*
X76732Y726604D01*
Y730603D01*
X75733Y731602D01*
X78732Y729603D02*
X80731Y725604D01*
X82730Y729603D01*
X87729Y725604D02*
X85729D01*
X84730Y726604D01*
Y728603D01*
X85729Y729603D01*
X87729D01*
X88728Y728603D01*
Y727604D01*
X84730D01*
X90728Y729603D02*
Y725604D01*
Y727604D01*
X91727Y728603D01*
X92727Y729603D01*
X93727D01*
X96726Y725604D02*
X98725D01*
X97725D01*
Y731602D01*
X96726D01*
X102724Y729603D02*
X104723D01*
X105723Y728603D01*
Y725604D01*
X102724D01*
X101724Y726604D01*
X102724Y727604D01*
X105723D01*
X107722Y729603D02*
Y726604D01*
X108722Y725604D01*
X111721D01*
Y724605D01*
X110721Y723605D01*
X109722D01*
X111721Y725604D02*
Y729603D01*
X48741Y719602D02*
X52740D01*
X50741D01*
Y713604D01*
X55739D02*
X57738D01*
X58738Y714604D01*
Y716603D01*
X57738Y717603D01*
X55739D01*
X54739Y716603D01*
Y714604D01*
X55739Y713604D01*
X60738Y711605D02*
Y717603D01*
X63736D01*
X64736Y716603D01*
Y714604D01*
X63736Y713604D01*
X60738D01*
X76732Y718603D02*
X75733Y719602D01*
X73733D01*
X72734Y718603D01*
Y717603D01*
X73733Y716603D01*
X75733D01*
X76732Y715604D01*
Y714604D01*
X75733Y713604D01*
X73733D01*
X72734Y714604D01*
X79731Y713604D02*
X81731D01*
X82730Y714604D01*
Y716603D01*
X81731Y717603D01*
X79731D01*
X78732Y716603D01*
Y714604D01*
X79731Y713604D01*
X84730D02*
X86729D01*
X85729D01*
Y719602D01*
X84730D01*
X93727D02*
Y713604D01*
X90728D01*
X89728Y714604D01*
Y716603D01*
X90728Y717603D01*
X93727D01*
X98725Y713604D02*
X96726D01*
X95726Y714604D01*
Y716603D01*
X96726Y717603D01*
X98725D01*
X99725Y716603D01*
Y715604D01*
X95726D01*
X101724Y717603D02*
Y713604D01*
Y715604D01*
X102724Y716603D01*
X103724Y717603D01*
X104723D01*
X48741Y707602D02*
X52740D01*
X50741D01*
Y701604D01*
X55739D02*
X57738D01*
X58738Y702604D01*
Y704603D01*
X57738Y705603D01*
X55739D01*
X54739Y704603D01*
Y702604D01*
X55739Y701604D01*
X60738Y699605D02*
Y705603D01*
X63736D01*
X64736Y704603D01*
Y702604D01*
X63736Y701604D01*
X60738D01*
X72734Y707602D02*
Y701604D01*
X76732D01*
X79731Y705603D02*
X81731D01*
X82730Y704603D01*
Y701604D01*
X79731D01*
X78732Y702604D01*
X79731Y703604D01*
X82730D01*
X84730Y705603D02*
Y702604D01*
X85729Y701604D01*
X88728D01*
Y700604D01*
X87729Y699605D01*
X86729D01*
X88728Y701604D02*
Y705603D01*
X93727Y701604D02*
X91727D01*
X90728Y702604D01*
Y704603D01*
X91727Y705603D01*
X93727D01*
X94727Y704603D01*
Y703604D01*
X90728D01*
X96726Y705603D02*
Y701604D01*
Y703604D01*
X97725Y704603D01*
X98725Y705603D01*
X99725D01*
X48741Y695602D02*
Y689604D01*
X51740D01*
X52740Y690604D01*
Y694603D01*
X51740Y695602D01*
X48741D01*
X54739Y689604D02*
X56739D01*
X55739D01*
Y693603D01*
X54739D01*
X62737Y689604D02*
X60738D01*
X59738Y690604D01*
Y692603D01*
X60738Y693603D01*
X62737D01*
X63736Y692603D01*
Y691604D01*
X59738D01*
X65736Y689604D02*
X67735D01*
X66736D01*
Y695602D01*
X65736D01*
X73733Y689604D02*
X71734D01*
X70734Y690604D01*
Y692603D01*
X71734Y693603D01*
X73733D01*
X74733Y692603D01*
Y691604D01*
X70734D01*
X80731Y693603D02*
X77732D01*
X76732Y692603D01*
Y690604D01*
X77732Y689604D01*
X80731D01*
X83730Y694603D02*
Y693603D01*
X82730D01*
X84730D01*
X83730D01*
Y690604D01*
X84730Y689604D01*
X87729Y693603D02*
Y689604D01*
Y691604D01*
X88728Y692603D01*
X89728Y693603D01*
X90728D01*
X93727Y689604D02*
X95726D01*
X94727D01*
Y693603D01*
X93727D01*
X102724D02*
X99725D01*
X98725Y692603D01*
Y690604D01*
X99725Y689604D01*
X102724D01*
X110721D02*
X112721D01*
X111721D01*
Y695602D01*
X110721Y694603D01*
X48741Y677604D02*
Y683602D01*
X50741Y681603D01*
X52740Y683602D01*
Y677604D01*
X54739D02*
X56739D01*
X55739D01*
Y681603D01*
X54739D01*
X63736Y683602D02*
Y677604D01*
X60738D01*
X59738Y678604D01*
Y680603D01*
X60738Y681603D01*
X63736D01*
X65736Y680603D02*
X69735D01*
X71734Y683602D02*
Y677604D01*
X75733D01*
X78732Y681603D02*
X80731D01*
X81731Y680603D01*
Y677604D01*
X78732D01*
X77732Y678604D01*
X78732Y679604D01*
X81731D01*
X83730Y681603D02*
Y678604D01*
X84730Y677604D01*
X87729D01*
Y676605D01*
X86729Y675605D01*
X85729D01*
X87729Y677604D02*
Y681603D01*
X92727Y677604D02*
X90728D01*
X89728Y678604D01*
Y680603D01*
X90728Y681603D01*
X92727D01*
X93727Y680603D01*
Y679604D01*
X89728D01*
X95726Y681603D02*
Y677604D01*
Y679604D01*
X96726Y680603D01*
X97725Y681603D01*
X98725D01*
X107722Y677604D02*
X109722D01*
X108722D01*
Y683602D01*
X107722Y682603D01*
X48741Y671602D02*
Y665604D01*
X51740D01*
X52740Y666604D01*
Y670603D01*
X51740Y671602D01*
X48741D01*
X54739Y665604D02*
X56739D01*
X55739D01*
Y669603D01*
X54739D01*
X62737Y665604D02*
X60738D01*
X59738Y666604D01*
Y668603D01*
X60738Y669603D01*
X62737D01*
X63736Y668603D01*
Y667604D01*
X59738D01*
X65736Y665604D02*
X67735D01*
X66736D01*
Y671602D01*
X65736D01*
X73733Y665604D02*
X71734D01*
X70734Y666604D01*
Y668603D01*
X71734Y669603D01*
X73733D01*
X74733Y668603D01*
Y667604D01*
X70734D01*
X80731Y669603D02*
X77732D01*
X76732Y668603D01*
Y666604D01*
X77732Y665604D01*
X80731D01*
X83730Y670603D02*
Y669603D01*
X82730D01*
X84730D01*
X83730D01*
Y666604D01*
X84730Y665604D01*
X87729Y669603D02*
Y665604D01*
Y667604D01*
X88728Y668603D01*
X89728Y669603D01*
X90728D01*
X93727Y665604D02*
X95726D01*
X94727D01*
Y669603D01*
X93727D01*
X102724D02*
X99725D01*
X98725Y668603D01*
Y666604D01*
X99725Y665604D01*
X102724D01*
X104723Y670603D02*
X105723Y671602D01*
X107722D01*
X108722Y670603D01*
Y669603D01*
X107722Y668603D01*
X106723D01*
X107722D01*
X108722Y667604D01*
Y666604D01*
X107722Y665604D01*
X105723D01*
X104723Y666604D01*
X48741Y653604D02*
Y659602D01*
X50741Y657603D01*
X52740Y659602D01*
Y653604D01*
X54739D02*
X56739D01*
X55739D01*
Y657603D01*
X54739D01*
X63736Y659602D02*
Y653604D01*
X60738D01*
X59738Y654604D01*
Y656603D01*
X60738Y657603D01*
X63736D01*
X65736Y656603D02*
X69735D01*
X71734Y659602D02*
Y653604D01*
X75733D01*
X78732Y657603D02*
X80731D01*
X81731Y656603D01*
Y653604D01*
X78732D01*
X77732Y654604D01*
X78732Y655604D01*
X81731D01*
X83730Y657603D02*
Y654604D01*
X84730Y653604D01*
X87729D01*
Y652604D01*
X86729Y651605D01*
X85729D01*
X87729Y653604D02*
Y657603D01*
X92727Y653604D02*
X90728D01*
X89728Y654604D01*
Y656603D01*
X90728Y657603D01*
X92727D01*
X93727Y656603D01*
Y655604D01*
X89728D01*
X95726Y657603D02*
Y653604D01*
Y655604D01*
X96726Y656603D01*
X97725Y657603D01*
X98725D01*
X111721Y653604D02*
X107722D01*
X111721Y657603D01*
Y658603D01*
X110721Y659602D01*
X108722D01*
X107722Y658603D01*
X48741Y647602D02*
Y641604D01*
X51740D01*
X52740Y642604D01*
Y646603D01*
X51740Y647602D01*
X48741D01*
X54739Y641604D02*
X56739D01*
X55739D01*
Y645603D01*
X54739D01*
X62737Y641604D02*
X60738D01*
X59738Y642604D01*
Y644603D01*
X60738Y645603D01*
X62737D01*
X63736Y644603D01*
Y643604D01*
X59738D01*
X65736Y641604D02*
X67735D01*
X66736D01*
Y647602D01*
X65736D01*
X73733Y641604D02*
X71734D01*
X70734Y642604D01*
Y644603D01*
X71734Y645603D01*
X73733D01*
X74733Y644603D01*
Y643604D01*
X70734D01*
X80731Y645603D02*
X77732D01*
X76732Y644603D01*
Y642604D01*
X77732Y641604D01*
X80731D01*
X83730Y646603D02*
Y645603D01*
X82730D01*
X84730D01*
X83730D01*
Y642604D01*
X84730Y641604D01*
X87729Y645603D02*
Y641604D01*
Y643604D01*
X88728Y644603D01*
X89728Y645603D01*
X90728D01*
X93727Y641604D02*
X95726D01*
X94727D01*
Y645603D01*
X93727D01*
X102724D02*
X99725D01*
X98725Y644603D01*
Y642604D01*
X99725Y641604D01*
X102724D01*
X108722D02*
X104723D01*
X108722Y645603D01*
Y646603D01*
X107722Y647602D01*
X105723D01*
X104723Y646603D01*
X48741Y635602D02*
Y629604D01*
X51740D01*
X52740Y630604D01*
Y631604D01*
X51740Y632603D01*
X48741D01*
X51740D01*
X52740Y633603D01*
Y634603D01*
X51740Y635602D01*
X48741D01*
X55739Y629604D02*
X57738D01*
X58738Y630604D01*
Y632603D01*
X57738Y633603D01*
X55739D01*
X54739Y632603D01*
Y630604D01*
X55739Y629604D01*
X61737Y634603D02*
Y633603D01*
X60738D01*
X62737D01*
X61737D01*
Y630604D01*
X62737Y629604D01*
X66736Y634603D02*
Y633603D01*
X65736D01*
X67735D01*
X66736D01*
Y630604D01*
X67735Y629604D01*
X71734D02*
X73733D01*
X74733Y630604D01*
Y632603D01*
X73733Y633603D01*
X71734D01*
X70734Y632603D01*
Y630604D01*
X71734Y629604D01*
X76732D02*
Y633603D01*
X77732D01*
X78732Y632603D01*
Y629604D01*
Y632603D01*
X79731Y633603D01*
X80731Y632603D01*
Y629604D01*
X88728Y635602D02*
Y629604D01*
X92727D01*
X95726Y633603D02*
X97725D01*
X98725Y632603D01*
Y629604D01*
X95726D01*
X94727Y630604D01*
X95726Y631604D01*
X98725D01*
X100724Y633603D02*
Y630604D01*
X101724Y629604D01*
X104723D01*
Y628605D01*
X103724Y627605D01*
X102724D01*
X104723Y629604D02*
Y633603D01*
X109722Y629604D02*
X107722D01*
X106723Y630604D01*
Y632603D01*
X107722Y633603D01*
X109722D01*
X110721Y632603D01*
Y631604D01*
X106723D01*
X112721Y633603D02*
Y629604D01*
Y631604D01*
X113720Y632603D01*
X114720Y633603D01*
X115720D01*
X48741Y623602D02*
Y617604D01*
X51740D01*
X52740Y618604D01*
Y619604D01*
X51740Y620603D01*
X48741D01*
X51740D01*
X52740Y621603D01*
Y622603D01*
X51740Y623602D01*
X48741D01*
X55739Y617604D02*
X57738D01*
X58738Y618604D01*
Y620603D01*
X57738Y621603D01*
X55739D01*
X54739Y620603D01*
Y618604D01*
X55739Y617604D01*
X61737Y622603D02*
Y621603D01*
X60738D01*
X62737D01*
X61737D01*
Y618604D01*
X62737Y617604D01*
X66736Y622603D02*
Y621603D01*
X65736D01*
X67735D01*
X66736D01*
Y618604D01*
X67735Y617604D01*
X71734D02*
X73733D01*
X74733Y618604D01*
Y620603D01*
X73733Y621603D01*
X71734D01*
X70734Y620603D01*
Y618604D01*
X71734Y617604D01*
X76732D02*
Y621603D01*
X77732D01*
X78732Y620603D01*
Y617604D01*
Y620603D01*
X79731Y621603D01*
X80731Y620603D01*
Y617604D01*
X92727Y622603D02*
X91727Y623602D01*
X89728D01*
X88728Y622603D01*
Y621603D01*
X89728Y620603D01*
X91727D01*
X92727Y619604D01*
Y618604D01*
X91727Y617604D01*
X89728D01*
X88728Y618604D01*
X95726Y617604D02*
X97725D01*
X98725Y618604D01*
Y620603D01*
X97725Y621603D01*
X95726D01*
X94727Y620603D01*
Y618604D01*
X95726Y617604D01*
X100724D02*
X102724D01*
X101724D01*
Y623602D01*
X100724D01*
X109722D02*
Y617604D01*
X106723D01*
X105723Y618604D01*
Y620603D01*
X106723Y621603D01*
X109722D01*
X114720Y617604D02*
X112721D01*
X111721Y618604D01*
Y620603D01*
X112721Y621603D01*
X114720D01*
X115720Y620603D01*
Y619604D01*
X111721D01*
X117719Y621603D02*
Y617604D01*
Y619604D01*
X118719Y620603D01*
X119718Y621603D01*
X120718D01*
X48741Y611602D02*
Y605604D01*
X51740D01*
X52740Y606604D01*
Y607604D01*
X51740Y608603D01*
X48741D01*
X51740D01*
X52740Y609603D01*
Y610603D01*
X51740Y611602D01*
X48741D01*
X55739Y605604D02*
X57738D01*
X58738Y606604D01*
Y608603D01*
X57738Y609603D01*
X55739D01*
X54739Y608603D01*
Y606604D01*
X55739Y605604D01*
X61737Y610603D02*
Y609603D01*
X60738D01*
X62737D01*
X61737D01*
Y606604D01*
X62737Y605604D01*
X66736Y610603D02*
Y609603D01*
X65736D01*
X67735D01*
X66736D01*
Y606604D01*
X67735Y605604D01*
X71734D02*
X73733D01*
X74733Y606604D01*
Y608603D01*
X73733Y609603D01*
X71734D01*
X70734Y608603D01*
Y606604D01*
X71734Y605604D01*
X76732D02*
Y609603D01*
X77732D01*
X78732Y608603D01*
Y605604D01*
Y608603D01*
X79731Y609603D01*
X80731Y608603D01*
Y605604D01*
X91727Y611602D02*
X89728D01*
X88728Y610603D01*
Y606604D01*
X89728Y605604D01*
X91727D01*
X92727Y606604D01*
Y610603D01*
X91727Y611602D01*
X94727Y609603D02*
X96726Y605604D01*
X98725Y609603D01*
X103724Y605604D02*
X101724D01*
X100724Y606604D01*
Y608603D01*
X101724Y609603D01*
X103724D01*
X104723Y608603D01*
Y607604D01*
X100724D01*
X106723Y609603D02*
Y605604D01*
Y607604D01*
X107722Y608603D01*
X108722Y609603D01*
X109722D01*
X112721Y605604D02*
X114720D01*
X113720D01*
Y611602D01*
X112721D01*
X118719Y609603D02*
X120718D01*
X121718Y608603D01*
Y605604D01*
X118719D01*
X117719Y606604D01*
X118719Y607604D01*
X121718D01*
X123717Y609603D02*
Y606604D01*
X124717Y605604D01*
X127716D01*
Y604604D01*
X126716Y603605D01*
X125716D01*
X127716Y605604D02*
Y609603D01*
X48741Y737604D02*
Y743602D01*
X52740Y737604D01*
Y743602D01*
X55739Y741603D02*
X57738D01*
X58738Y740603D01*
Y737604D01*
X55739D01*
X54739Y738604D01*
X55739Y739604D01*
X58738D01*
X60738Y737604D02*
Y741603D01*
X61737D01*
X62737Y740603D01*
Y737604D01*
Y740603D01*
X63736Y741603D01*
X64736Y740603D01*
Y737604D01*
X69735D02*
X67735D01*
X66736Y738604D01*
Y740603D01*
X67735Y741603D01*
X69735D01*
X70734Y740603D01*
Y739604D01*
X66736D01*
X7750Y701604D02*
X9749D01*
X8750D01*
Y707602D01*
X7750Y706603D01*
X11749Y677604D02*
X7750D01*
X11749Y681603D01*
Y682603D01*
X10749Y683602D01*
X8750D01*
X7750Y682603D01*
Y658603D02*
X8750Y659602D01*
X10749D01*
X11749Y658603D01*
Y657603D01*
X10749Y656603D01*
X9749D01*
X10749D01*
X11749Y655604D01*
Y654604D01*
X10749Y653604D01*
X8750D01*
X7750Y654604D01*
X10749Y629604D02*
Y635602D01*
X7750Y632603D01*
X11749D01*
X7750Y743602D02*
Y737604D01*
X11749D01*
X14748Y741603D02*
X16747D01*
X17747Y740603D01*
Y737604D01*
X14748D01*
X13748Y738604D01*
X14748Y739604D01*
X17747D01*
X19746Y741603D02*
Y738604D01*
X20746Y737604D01*
X23745D01*
Y736604D01*
X22745Y735605D01*
X21745D01*
X23745Y737604D02*
Y741603D01*
X28743Y737604D02*
X26744D01*
X25744Y738604D01*
Y740603D01*
X26744Y741603D01*
X28743D01*
X29743Y740603D01*
Y739604D01*
X25744D01*
X31742Y741603D02*
Y737604D01*
Y739604D01*
X32742Y740603D01*
X33742Y741603D01*
X34741D01*
D12*
X58157Y170744D02*
G03*
X58157Y170744I-1181J0D01*
G01*
X134646Y40551D02*
G03*
X134646Y40551I-787J0D01*
G01*
X59142Y168382D02*
Y180783D01*
X46740Y168382D02*
Y180783D01*
Y168382D02*
X59142D01*
X46740Y180783D02*
X59142D01*
X131398Y31004D02*
X143405D01*
X131398Y43012D02*
X143405D01*
Y31004D02*
Y43012D01*
X131398Y31004D02*
Y43012D01*
D13*
X139370Y180315D02*
Y203543D01*
X123622Y180315D02*
X139370D01*
X123622D02*
Y203543D01*
X139370D01*
X140370Y181890D02*
X146370Y184390D01*
Y179390D02*
Y184390D01*
X140370Y181890D02*
X146370Y179390D01*
X25547Y85543D02*
X28047Y91543D01*
X23047D02*
X28047D01*
X23047D02*
X25547Y85543D01*
X3894Y60921D02*
Y84543D01*
Y60921D02*
X27122D01*
Y84543D01*
X3894D02*
X27122D01*
X26047Y142984D02*
X28547Y148984D01*
X23547D02*
X28547D01*
X23547D02*
X26047Y142984D01*
X4394Y118362D02*
Y141984D01*
Y118362D02*
X27622D01*
Y141984D01*
X4394D02*
X27622D01*
D78*
X53396Y69096D02*
G03*
X59297Y69096I2950J0D01*
G01*
Y48597D02*
G03*
X53396Y48597I-2950J0D01*
G01*
X74796Y129509D02*
G03*
X74796Y131909I0J1200D01*
G01*
X139276Y14567D02*
G03*
X139276Y14567I-300J0D01*
G01*
Y22047D02*
G03*
X139276Y22047I-300J0D01*
G01*
X139546Y119310D02*
G03*
X139546Y116910I0J-1200D01*
G01*
X138587Y119110D02*
G03*
X138587Y119110I-300J0D01*
G01*
X34004Y98717D02*
G03*
X34004Y101117I0J1200D01*
G01*
X55048Y74803D02*
G03*
X55048Y74803I-300J0D01*
G01*
X54260Y41339D02*
G03*
X54260Y41339I-300J0D01*
G01*
X45992Y135827D02*
G03*
X45992Y135827I-300J0D01*
G01*
D79*
X750Y595141D02*
X5267Y599658D01*
X750Y589141D02*
X11267Y599658D01*
X750Y583141D02*
X17267Y599658D01*
X750Y577141D02*
X23267Y599658D01*
X750Y571141D02*
X29267Y599658D01*
X750Y565141D02*
X35267Y599658D01*
X750Y559141D02*
X41267Y599658D01*
X750Y553141D02*
X47267Y599658D01*
X750Y547141D02*
X53267Y599658D01*
X750Y541141D02*
X59267Y599658D01*
X750Y535141D02*
X65267Y599658D01*
X750Y529141D02*
X71267Y599658D01*
X750Y523141D02*
X77267Y599658D01*
X750Y517141D02*
X83267Y599658D01*
X750Y511141D02*
X89267Y599658D01*
X750Y505141D02*
X95267Y599658D01*
X750Y499141D02*
X101267Y599658D01*
X750Y493141D02*
X107267Y599658D01*
X750Y487141D02*
X113267Y599658D01*
X750Y481141D02*
X119267Y599658D01*
X750Y475141D02*
X125267Y599658D01*
X750Y469141D02*
X131267Y599658D01*
X750Y463141D02*
X137267Y599658D01*
X750Y457141D02*
X143267Y599658D01*
X750Y451141D02*
X149267Y599658D01*
X750Y445141D02*
X155267Y599658D01*
X750Y439141D02*
X161267Y599658D01*
X750Y433141D02*
X167267Y599658D01*
X750Y427141D02*
X173267Y599658D01*
X750Y421141D02*
X179267Y599658D01*
X750Y415141D02*
X185267Y599658D01*
X750Y409141D02*
X191267Y599658D01*
X750Y403141D02*
X197267Y599658D01*
X750Y397141D02*
X203267Y599658D01*
X750Y391141D02*
X209267Y599658D01*
X750Y385141D02*
X215267Y599658D01*
X750Y379141D02*
X221267Y599658D01*
X750Y373141D02*
X227267Y599658D01*
X750Y367141D02*
X233267Y599658D01*
X750Y361141D02*
X239267Y599658D01*
X750Y355141D02*
X245267Y599658D01*
X750Y349141D02*
X251267Y599658D01*
X750Y343141D02*
X257267Y599658D01*
X750Y337141D02*
X263267Y599658D01*
X750Y331141D02*
X269267Y599658D01*
X4576Y328967D02*
X275267Y599658D01*
X10576Y328967D02*
X281267Y599658D01*
X16576Y328967D02*
X287267Y599658D01*
X22576Y328967D02*
X293267Y599658D01*
X28576Y328967D02*
X299267Y599658D01*
X34576Y328967D02*
X305267Y599658D01*
X40576Y328967D02*
X311267Y599658D01*
X46576Y328967D02*
X317267Y599658D01*
X52576Y328967D02*
X323267Y599658D01*
X58576Y328967D02*
X329267Y599658D01*
X64576Y328967D02*
X335267Y599658D01*
X70576Y328967D02*
X341267Y599658D01*
X76576Y328967D02*
X347267Y599658D01*
X82576Y328967D02*
X353267Y599658D01*
X88576Y328967D02*
X359267Y599658D01*
X94576Y328967D02*
X365267Y599658D01*
X100576Y328967D02*
X371267Y599658D01*
X106576Y328967D02*
X377267Y599658D01*
X112576Y328967D02*
X383267Y599658D01*
X118576Y328967D02*
X389267Y599658D01*
X124576Y328967D02*
X395267Y599658D01*
X130576Y328967D02*
X401267Y599658D01*
X136576Y328967D02*
X407267Y599658D01*
X142576Y328967D02*
X413267Y599658D01*
X148576Y328967D02*
X419267Y599658D01*
X154576Y328967D02*
X425267Y599658D01*
X160576Y328967D02*
X431267Y599658D01*
X166576Y328967D02*
X437267Y599658D01*
X172576Y328967D02*
X443267Y599658D01*
X178576Y328967D02*
X449267Y599658D01*
X184576Y328967D02*
X454631Y599022D01*
X190576Y328967D02*
X454631Y593022D01*
X196576Y328967D02*
X454631Y587022D01*
X202576Y328967D02*
X454631Y581022D01*
X208576Y328967D02*
X454631Y575022D01*
X214576Y328967D02*
X454631Y569022D01*
X220576Y328967D02*
X454631Y563022D01*
X226576Y328967D02*
X454631Y557022D01*
X232576Y328967D02*
X454631Y551022D01*
X238576Y328967D02*
X454631Y545022D01*
X244576Y328967D02*
X454631Y539022D01*
X250576Y328967D02*
X454631Y533022D01*
X256576Y328967D02*
X454631Y527022D01*
X262576Y328967D02*
X454631Y521022D01*
X268576Y328967D02*
X454631Y515022D01*
X274576Y328967D02*
X454631Y509022D01*
X280576Y328967D02*
X454631Y503022D01*
X286576Y328967D02*
X454631Y497022D01*
X292576Y328967D02*
X454631Y491022D01*
X298576Y328967D02*
X454631Y485022D01*
X304576Y328967D02*
X454631Y479022D01*
X310576Y328967D02*
X454631Y473022D01*
X316576Y328967D02*
X454631Y467022D01*
X322576Y328967D02*
X454631Y461022D01*
X328576Y328967D02*
X454631Y455022D01*
X334576Y328967D02*
X454631Y449022D01*
X340576Y328967D02*
X454631Y443022D01*
X346576Y328967D02*
X454631Y437022D01*
X352576Y328967D02*
X454631Y431022D01*
X358576Y328967D02*
X454631Y425022D01*
X364576Y328967D02*
X454631Y419022D01*
X370576Y328967D02*
X454631Y413022D01*
X376576Y328967D02*
X454631Y407022D01*
X382576Y328967D02*
X454631Y401022D01*
X388576Y328967D02*
X454631Y395022D01*
X394576Y328967D02*
X454631Y389022D01*
X400576Y328967D02*
X454631Y383022D01*
X406576Y328967D02*
X454631Y377022D01*
X412576Y328967D02*
X454631Y371022D01*
X418576Y328967D02*
X454631Y365022D01*
X424576Y328967D02*
X454631Y359022D01*
X430576Y328967D02*
X454631Y353022D01*
X436576Y328967D02*
X454631Y347022D01*
X442576Y328967D02*
X454631Y341022D01*
X448576Y328967D02*
X454631Y335022D01*
X342662Y730636D02*
X346630Y734604D01*
X342662Y724636D02*
X352630Y734604D01*
X346630Y722604D02*
X358630Y734604D01*
X352630Y722604D02*
X364630Y734604D01*
X358630Y722604D02*
X370630Y734604D01*
X364630Y722604D02*
X376630Y734604D01*
X370630Y722604D02*
X382630Y734604D01*
X376630Y722604D02*
X388630Y734604D01*
X382630Y722604D02*
X394630Y734604D01*
X388630Y722604D02*
X400630Y734604D01*
X394630Y722604D02*
X406630Y734604D01*
X400630Y722604D02*
X412630Y734604D01*
X406630Y722604D02*
X418630Y734604D01*
X412630Y722604D02*
X424630Y734604D01*
X418630Y722604D02*
X430630Y734604D01*
X424630Y722604D02*
X436630Y734604D01*
X430630Y722604D02*
X442630Y734604D01*
X436630Y722604D02*
X448630Y734604D01*
X442630Y722604D02*
X454630Y734604D01*
X448630Y722604D02*
X454630Y728604D01*
X342662Y718636D02*
X346630Y722604D01*
X342662Y712636D02*
X352630Y722604D01*
X346630Y710604D02*
X358630Y722604D01*
X352630Y710604D02*
X364630Y722604D01*
X358630Y710604D02*
X370630Y722604D01*
X364630Y710604D02*
X376630Y722604D01*
X370630Y710604D02*
X382630Y722604D01*
X376630Y710604D02*
X388630Y722604D01*
X382630Y710604D02*
X394630Y722604D01*
X388630Y710604D02*
X400630Y722604D01*
X394630Y710604D02*
X406630Y722604D01*
X400630Y710604D02*
X412630Y722604D01*
X406630Y710604D02*
X418630Y722604D01*
X412630Y710604D02*
X424630Y722604D01*
X418630Y710604D02*
X430630Y722604D01*
X424630Y710604D02*
X436630Y722604D01*
X430630Y710604D02*
X442630Y722604D01*
X436630Y710604D02*
X448630Y722604D01*
X442630Y710604D02*
X454630Y722604D01*
X448630Y710604D02*
X454630Y716604D01*
X342662Y706636D02*
X346630Y710604D01*
X342662Y700636D02*
X352630Y710604D01*
X346630Y698604D02*
X358630Y710604D01*
X352630Y698604D02*
X364630Y710604D01*
X358630Y698604D02*
X370630Y710604D01*
X364630Y698604D02*
X376630Y710604D01*
X370630Y698604D02*
X382630Y710604D01*
X376630Y698604D02*
X388630Y710604D01*
X382630Y698604D02*
X394630Y710604D01*
X388630Y698604D02*
X400630Y710604D01*
X394630Y698604D02*
X406630Y710604D01*
X400630Y698604D02*
X412630Y710604D01*
X406630Y698604D02*
X418630Y710604D01*
X412630Y698604D02*
X424630Y710604D01*
X418630Y698604D02*
X430630Y710604D01*
X424630Y698604D02*
X436630Y710604D01*
X430630Y698604D02*
X442630Y710604D01*
X436630Y698604D02*
X448630Y710604D01*
X442630Y698604D02*
X454630Y710604D01*
X448630Y698604D02*
X454630Y704604D01*
X342662Y694636D02*
X346630Y698604D01*
X342662Y688636D02*
X352630Y698604D01*
X346630Y686604D02*
X358630Y698604D01*
X352630Y686604D02*
X364630Y698604D01*
X358630Y686604D02*
X370630Y698604D01*
X364630Y686604D02*
X376630Y698604D01*
X370630Y686604D02*
X382630Y698604D01*
X376630Y686604D02*
X388630Y698604D01*
X382630Y686604D02*
X394630Y698604D01*
X388630Y686604D02*
X400630Y698604D01*
X394630Y686604D02*
X406630Y698604D01*
X400630Y686604D02*
X412630Y698604D01*
X406630Y686604D02*
X418630Y698604D01*
X412630Y686604D02*
X424630Y698604D01*
X418630Y686604D02*
X430630Y698604D01*
X424630Y686604D02*
X436630Y698604D01*
X430630Y686604D02*
X442630Y698604D01*
X436630Y686604D02*
X448630Y698604D01*
X442630Y686604D02*
X454630Y698604D01*
X448630Y686604D02*
X454630Y692604D01*
X342662Y682636D02*
X346630Y686604D01*
X342662Y676636D02*
X352630Y686604D01*
X346630Y674604D02*
X358630Y686604D01*
X352630Y674604D02*
X364630Y686604D01*
X358630Y674604D02*
X370630Y686604D01*
X364630Y674604D02*
X376630Y686604D01*
X370630Y674604D02*
X382630Y686604D01*
X376630Y674604D02*
X388630Y686604D01*
X382630Y674604D02*
X394630Y686604D01*
X388630Y674604D02*
X400630Y686604D01*
X394630Y674604D02*
X406630Y686604D01*
X400630Y674604D02*
X412630Y686604D01*
X406630Y674604D02*
X418630Y686604D01*
X412630Y674604D02*
X424630Y686604D01*
X418630Y674604D02*
X430630Y686604D01*
X424630Y674604D02*
X436630Y686604D01*
X430630Y674604D02*
X442630Y686604D01*
X436630Y674604D02*
X448630Y686604D01*
X442630Y674604D02*
X454630Y686604D01*
X448630Y674604D02*
X454630Y680604D01*
X342662Y670636D02*
X346630Y674604D01*
X342662Y664636D02*
X352630Y674604D01*
X346630Y662604D02*
X358630Y674604D01*
X352630Y662604D02*
X364630Y674604D01*
X358630Y662604D02*
X370630Y674604D01*
X364630Y662604D02*
X376630Y674604D01*
X370630Y662604D02*
X382630Y674604D01*
X376630Y662604D02*
X388630Y674604D01*
X382630Y662604D02*
X394630Y674604D01*
X388630Y662604D02*
X400630Y674604D01*
X394630Y662604D02*
X406630Y674604D01*
X400630Y662604D02*
X412630Y674604D01*
X406630Y662604D02*
X418630Y674604D01*
X412630Y662604D02*
X424630Y674604D01*
X418630Y662604D02*
X430630Y674604D01*
X424630Y662604D02*
X436630Y674604D01*
X430630Y662604D02*
X442630Y674604D01*
X436630Y662604D02*
X448630Y674604D01*
X442630Y662604D02*
X454630Y674604D01*
X448630Y662604D02*
X454630Y668604D01*
X342662Y658636D02*
X346630Y662604D01*
X342662Y652636D02*
X352630Y662604D01*
X346630Y650604D02*
X358630Y662604D01*
X352630Y650604D02*
X364630Y662604D01*
X358630Y650604D02*
X370630Y662604D01*
X364630Y650604D02*
X376630Y662604D01*
X370630Y650604D02*
X382630Y662604D01*
X376630Y650604D02*
X388630Y662604D01*
X382630Y650604D02*
X394630Y662604D01*
X388630Y650604D02*
X400630Y662604D01*
X394630Y650604D02*
X406630Y662604D01*
X400630Y650604D02*
X412630Y662604D01*
X406630Y650604D02*
X418630Y662604D01*
X412630Y650604D02*
X424630Y662604D01*
X418630Y650604D02*
X430630Y662604D01*
X424630Y650604D02*
X436630Y662604D01*
X430630Y650604D02*
X442630Y662604D01*
X436630Y650604D02*
X448630Y662604D01*
X442630Y650604D02*
X454630Y662604D01*
X448630Y650604D02*
X454630Y656604D01*
X342662Y646636D02*
X346630Y650604D01*
X342662Y640636D02*
X352630Y650604D01*
X346630Y638604D02*
X358630Y650604D01*
X352630Y638604D02*
X364630Y650604D01*
X358630Y638604D02*
X370630Y650604D01*
X364630Y638604D02*
X376630Y650604D01*
X370630Y638604D02*
X382630Y650604D01*
X376630Y638604D02*
X388630Y650604D01*
X382630Y638604D02*
X394630Y650604D01*
X388630Y638604D02*
X400630Y650604D01*
X394630Y638604D02*
X406630Y650604D01*
X400630Y638604D02*
X412630Y650604D01*
X406630Y638604D02*
X418630Y650604D01*
X412630Y638604D02*
X424630Y650604D01*
X418630Y638604D02*
X430630Y650604D01*
X424630Y638604D02*
X436630Y650604D01*
X430630Y638604D02*
X442630Y650604D01*
X436630Y638604D02*
X448630Y650604D01*
X442630Y638604D02*
X454630Y650604D01*
X448630Y638604D02*
X454630Y644604D01*
X342662Y634636D02*
X346630Y638604D01*
X342662Y628636D02*
X352630Y638604D01*
X346630Y626604D02*
X358630Y638604D01*
X352630Y626604D02*
X364630Y638604D01*
X358630Y626604D02*
X370630Y638604D01*
X364630Y626604D02*
X376630Y638604D01*
X370630Y626604D02*
X382630Y638604D01*
X376630Y626604D02*
X388630Y638604D01*
X382630Y626604D02*
X394630Y638604D01*
X388630Y626604D02*
X400630Y638604D01*
X394630Y626604D02*
X406630Y638604D01*
X400630Y626604D02*
X412630Y638604D01*
X406630Y626604D02*
X418630Y638604D01*
X412630Y626604D02*
X424630Y638604D01*
X418630Y626604D02*
X430630Y638604D01*
X424630Y626604D02*
X436630Y638604D01*
X430630Y626604D02*
X442630Y638604D01*
X436630Y626604D02*
X448630Y638604D01*
X442630Y626604D02*
X454630Y638604D01*
X448630Y626604D02*
X454630Y632604D01*
X342662Y622636D02*
X346630Y626604D01*
X342662Y616636D02*
X352630Y626604D01*
X346630Y614604D02*
X358630Y626604D01*
X352630Y614604D02*
X364630Y626604D01*
X358630Y614604D02*
X370630Y626604D01*
X364630Y614604D02*
X376630Y626604D01*
X370630Y614604D02*
X382630Y626604D01*
X376630Y614604D02*
X388630Y626604D01*
X382630Y614604D02*
X394630Y626604D01*
X388630Y614604D02*
X400630Y626604D01*
X394630Y614604D02*
X406630Y626604D01*
X400630Y614604D02*
X412630Y626604D01*
X406630Y614604D02*
X418630Y626604D01*
X412630Y614604D02*
X424630Y626604D01*
X418630Y614604D02*
X430630Y626604D01*
X424630Y614604D02*
X436630Y626604D01*
X430630Y614604D02*
X442630Y626604D01*
X436630Y614604D02*
X448630Y626604D01*
X442630Y614604D02*
X454630Y626604D01*
X448630Y614604D02*
X454630Y620604D01*
X342662Y610636D02*
X346630Y614604D01*
X342662Y604636D02*
X352630Y614604D01*
X346630Y602604D02*
X358630Y614604D01*
X352630Y602604D02*
X364630Y614604D01*
X358630Y602604D02*
X370630Y614604D01*
X364630Y602604D02*
X376630Y614604D01*
X370630Y602604D02*
X382630Y614604D01*
X376630Y602604D02*
X388630Y614604D01*
X382630Y602604D02*
X394630Y614604D01*
X388630Y602604D02*
X400630Y614604D01*
X394630Y602604D02*
X406630Y614604D01*
X400630Y602604D02*
X412630Y614604D01*
X406630Y602604D02*
X418630Y614604D01*
X412630Y602604D02*
X424630Y614604D01*
X418630Y602604D02*
X430630Y614604D01*
X424630Y602604D02*
X436630Y614604D01*
X430630Y602604D02*
X442630Y614604D01*
X436630Y602604D02*
X448630Y614604D01*
X442630Y602604D02*
X454630Y614604D01*
X448630Y602604D02*
X454630Y608604D01*
X74586Y68202D02*
X102186D01*
Y40602D02*
Y68202D01*
X74586Y40602D02*
X102186D01*
X74586D02*
Y68202D01*
Y63202D02*
X79586Y68202D01*
X102186Y66325D02*
X106086D01*
Y64525D02*
Y66325D01*
X102186Y64525D02*
X106086D01*
X102186D02*
Y66325D01*
Y63176D02*
X106086D01*
Y61376D02*
Y63176D01*
X102186Y61376D02*
X106086D01*
X102186D02*
Y63176D01*
Y60026D02*
X106086D01*
Y58226D02*
Y60026D01*
X102186Y58226D02*
X106086D01*
X102186D02*
Y60026D01*
Y56876D02*
X106086D01*
Y55076D02*
Y56876D01*
X102186Y55076D02*
X106086D01*
X102186D02*
Y56876D01*
Y53727D02*
X106086D01*
Y51927D02*
Y53727D01*
X102186Y51927D02*
X106086D01*
X102186D02*
Y53727D01*
Y50577D02*
X106086D01*
Y48777D02*
Y50577D01*
X102186Y48777D02*
X106086D01*
X102186D02*
Y50577D01*
Y47428D02*
X106086D01*
Y45628D02*
Y47428D01*
X102186Y45628D02*
X106086D01*
X102186D02*
Y47428D01*
Y44278D02*
X106086D01*
Y42478D02*
Y44278D01*
X102186Y42478D02*
X106086D01*
X102186D02*
Y44278D01*
X100310Y36702D02*
Y40602D01*
X98510Y36702D02*
X100310D01*
X98510D02*
Y40602D01*
X100310D01*
X97160Y36702D02*
Y40602D01*
X95360Y36702D02*
X97160D01*
X95360D02*
Y40602D01*
X97160D01*
X94010Y36702D02*
Y40602D01*
X92210Y36702D02*
X94010D01*
X92210D02*
Y40602D01*
X94010D01*
X90861Y36702D02*
Y40602D01*
X89061Y36702D02*
X90861D01*
X89061D02*
Y40602D01*
X90861D01*
X87711Y36702D02*
Y40602D01*
X85911Y36702D02*
X87711D01*
X85911D02*
Y40602D01*
X87711D01*
X84561Y36702D02*
Y40602D01*
X82761Y36702D02*
X84561D01*
X82761D02*
Y40602D01*
X84561D01*
X81412Y36702D02*
Y40602D01*
X79612Y36702D02*
X81412D01*
X79612D02*
Y40602D01*
X81412D01*
X78262Y36702D02*
Y40602D01*
X76462Y36702D02*
X78262D01*
X76462D02*
Y40602D01*
X78262D01*
X70686Y42478D02*
X74586D01*
X70686D02*
Y44278D01*
X74586D01*
Y42478D02*
Y44278D01*
X70686Y45628D02*
X74586D01*
X70686D02*
Y47428D01*
X74586D01*
Y45628D02*
Y47428D01*
X70686Y48777D02*
X74586D01*
X70686D02*
Y50577D01*
X74586D01*
Y48777D02*
Y50577D01*
X70686Y51927D02*
X74586D01*
X70686D02*
Y53727D01*
X74586D01*
Y51927D02*
Y53727D01*
X70686Y55076D02*
X74586D01*
X70686D02*
Y56876D01*
X74586D01*
Y55076D02*
Y56876D01*
X70686Y58226D02*
X74586D01*
X70686D02*
Y60026D01*
X74586D01*
Y58226D02*
Y60026D01*
X70686Y61376D02*
X74586D01*
X70686D02*
Y63176D01*
X74586D01*
Y61376D02*
Y63176D01*
X70686Y64525D02*
X74586D01*
X70686D02*
Y66325D01*
X74586D01*
Y64525D02*
Y66325D01*
X76462Y68202D02*
Y72102D01*
X78262D01*
Y68202D02*
Y72102D01*
X76462Y68202D02*
X78262D01*
X79612D02*
Y72102D01*
X81412D01*
Y68202D02*
Y72102D01*
X79612Y68202D02*
X81412D01*
X82761D02*
Y72102D01*
X84561D01*
Y68202D02*
Y72102D01*
X82761Y68202D02*
X84561D01*
X85911D02*
Y72102D01*
X87711D01*
Y68202D02*
Y72102D01*
X85911Y68202D02*
X87711D01*
X89061D02*
Y72102D01*
X90861D01*
Y68202D02*
Y72102D01*
X89061Y68202D02*
X90861D01*
X92210D02*
Y72102D01*
X94010D01*
Y68202D02*
Y72102D01*
X92210Y68202D02*
X94010D01*
X95360D02*
Y72102D01*
X97160D01*
Y68202D02*
Y72102D01*
X95360Y68202D02*
X97160D01*
X98510D02*
Y72102D01*
X100310D01*
Y68202D02*
Y72102D01*
X98510Y68202D02*
X100310D01*
X49646Y48597D02*
Y69096D01*
X63046Y48597D02*
Y69096D01*
X59297Y48597D02*
X63046D01*
X59297Y69096D02*
X63046D01*
X49646Y48597D02*
X53396D01*
X49646Y69096D02*
X53396D01*
X49646Y49597D02*
X50647Y48597D01*
X54921Y18406D02*
X60039D01*
Y11516D02*
Y18406D01*
X54921Y11516D02*
X60039D01*
X54921D02*
Y18406D01*
Y17126D02*
X56201Y18406D01*
X58760D02*
X60039Y17126D01*
X58268Y9646D02*
Y11516D01*
X56693Y9646D02*
X58268D01*
X56693D02*
Y11516D01*
X58268D01*
X56693Y18406D02*
Y20276D01*
X58268D01*
Y18406D02*
Y20276D01*
X56693Y18406D02*
X58268D01*
X69547Y13765D02*
Y23765D01*
X109547D01*
Y13765D02*
Y23765D01*
X69547Y13765D02*
X109547D01*
X42323Y18406D02*
X47441D01*
Y11516D02*
Y18406D01*
X42323Y11516D02*
X47441D01*
X42323D02*
Y18406D01*
Y17126D02*
X43602Y18406D01*
X46161D02*
X47441Y17126D01*
X45669Y9646D02*
Y11516D01*
X44094Y9646D02*
X45669D01*
X44094D02*
Y11516D01*
X45669D01*
X44094Y18406D02*
Y20276D01*
X45669D01*
Y18406D02*
Y20276D01*
X44094Y18406D02*
X45669D01*
X74796Y121859D02*
X94496D01*
X74796D02*
Y139559D01*
X94496D01*
Y121859D02*
Y139559D01*
X78528D02*
Y142909D01*
X80528D01*
Y139559D02*
Y142909D01*
X78528Y139559D02*
X80528D01*
X83646D02*
Y142909D01*
X85646D01*
Y139559D02*
Y142909D01*
X83646Y139559D02*
X85646D01*
X88764D02*
Y142909D01*
X90764D01*
Y139559D02*
Y142909D01*
X88764Y139559D02*
X90764D01*
Y118509D02*
Y121859D01*
X88764Y118509D02*
X90764D01*
X88764D02*
Y121859D01*
X90764D01*
X85646Y118509D02*
Y121859D01*
X83646Y118509D02*
X85646D01*
X83646D02*
Y121859D01*
X85646D01*
X80528Y118509D02*
Y121859D01*
X78528Y118509D02*
X80528D01*
X78528D02*
Y121859D01*
X80528D01*
X142126Y12967D02*
Y16167D01*
X135826Y12967D02*
X142126D01*
X135826D02*
Y16167D01*
X142126D01*
Y20447D02*
Y23647D01*
X135826Y20447D02*
X142126D01*
X135826D02*
Y23647D01*
X142126D01*
X129746Y122060D02*
X139546D01*
Y114160D02*
Y122060D01*
X129746Y114160D02*
X139546D01*
X129746D02*
Y122060D01*
X35354Y92067D02*
X37354D01*
X35354Y87717D02*
Y92067D01*
Y87717D02*
X37354D01*
Y92067D01*
X40354D02*
X42354D01*
X40354Y87717D02*
Y92067D01*
Y87717D02*
X42354D01*
Y92067D01*
X45354D02*
X47354D01*
X45354Y87717D02*
Y92067D01*
Y87717D02*
X47354D01*
Y92067D01*
X50354D02*
X52354D01*
X50354Y87717D02*
Y92067D01*
Y87717D02*
X52354D01*
Y92067D01*
X50354Y107767D02*
X52354D01*
Y112117D01*
X50354D02*
X52354D01*
X50354Y107767D02*
Y112117D01*
X45354Y107767D02*
X47354D01*
Y112117D01*
X45354D02*
X47354D01*
X45354Y107767D02*
Y112117D01*
X40354Y107767D02*
X42354D01*
Y112117D01*
X40354D02*
X42354D01*
X40354Y107767D02*
Y112117D01*
X35354Y107767D02*
X37354D01*
Y112117D01*
X35354D02*
X37354D01*
X35354Y107767D02*
Y112117D01*
X53704Y92067D02*
Y107767D01*
X34004Y92067D02*
Y107767D01*
X53704D01*
X34004Y92067D02*
X53704D01*
X124409Y12967D02*
Y16167D01*
X130709D01*
Y12967D02*
Y16167D01*
X124409Y12967D02*
X130709D01*
X129109Y16167D02*
X130709D01*
Y12967D02*
Y16167D01*
X129109Y12967D02*
X130709D01*
X129109D02*
Y16167D01*
X124409Y12967D02*
X126009D01*
X124409D02*
Y16167D01*
X126009D01*
Y12967D02*
Y16167D01*
X124409Y19266D02*
Y22466D01*
X130709D01*
Y19266D02*
Y22466D01*
X124409Y19266D02*
X130709D01*
X129109Y22466D02*
X130709D01*
Y19266D02*
Y22466D01*
X129109Y19266D02*
X130709D01*
X129109D02*
Y22466D01*
X124409Y19266D02*
X126009D01*
X124409D02*
Y22466D01*
X126009D01*
Y19266D02*
Y22466D01*
X50325Y123555D02*
X53525D01*
X50325D02*
Y129855D01*
X53525D01*
Y123555D02*
Y129855D01*
X50325Y128255D02*
Y129855D01*
X53525D01*
Y128255D02*
Y129855D01*
X50325Y128255D02*
X53525D01*
Y123555D02*
Y125155D01*
X50325Y123555D02*
X53525D01*
X50325D02*
Y125155D01*
X53525D01*
X28321Y110237D02*
X31521D01*
Y103937D02*
Y110237D01*
X28321Y103937D02*
X31521D01*
X28321D02*
Y110237D01*
X31521Y103937D02*
Y105537D01*
X28321Y103937D02*
X31521D01*
X28321D02*
Y105537D01*
X31521D01*
X28321Y108637D02*
Y110237D01*
X31521D01*
Y108637D02*
Y110237D01*
X28321Y108637D02*
X31521D01*
X42128Y129721D02*
X45328D01*
Y123421D02*
Y129721D01*
X42128Y123421D02*
X45328D01*
X42128D02*
Y129721D01*
X45328Y123421D02*
Y125021D01*
X42128Y123421D02*
X45328D01*
X42128D02*
Y125021D01*
X45328D01*
X42128Y128121D02*
Y129721D01*
X45328D01*
Y128121D02*
Y129721D01*
X42128Y128121D02*
X45328D01*
X53937Y73203D02*
Y76403D01*
X60237D01*
Y73203D02*
Y76403D01*
X53937Y73203D02*
X60237D01*
X58237Y76403D02*
X60237D01*
Y73203D02*
Y76403D01*
X58237Y73203D02*
X60237D01*
X58237D02*
Y76403D01*
X53937Y73203D02*
X55937D01*
X53937D02*
Y76403D01*
X55937D01*
Y73203D02*
Y76403D01*
X53149Y39739D02*
Y42939D01*
X59449D01*
Y39739D02*
Y42939D01*
X53149Y39739D02*
X59449D01*
X57449Y42939D02*
X59449D01*
Y39739D02*
Y42939D01*
X57449Y39739D02*
X59449D01*
X57449D02*
Y42939D01*
X53149Y39739D02*
X55149D01*
X53149D02*
Y42939D01*
X55149D01*
Y39739D02*
Y42939D01*
X44881Y134227D02*
Y137427D01*
X51182D01*
Y134227D02*
Y137427D01*
X44881Y134227D02*
X51182D01*
X49182Y137427D02*
X51182D01*
Y134227D02*
Y137427D01*
X49182Y134227D02*
X51182D01*
X49182D02*
Y137427D01*
X44881Y134227D02*
X46881D01*
X44881D02*
Y137427D01*
X46881D01*
Y134227D02*
Y137427D01*
D80*
X750Y329022D02*
Y599604D01*
X454631D01*
Y329022D02*
Y599604D01*
X750Y329022D02*
X454631D01*
X454630Y602604D02*
Y746604D01*
X342662Y722604D02*
X454630D01*
X342662Y710604D02*
X454630D01*
X342662Y698604D02*
X454630D01*
X342662Y686604D02*
X454630D01*
X342662Y674604D02*
X454630D01*
X342662Y662604D02*
X454630D01*
X342662Y650604D02*
X454630D01*
X342662Y638604D02*
X454630D01*
X342662Y626604D02*
X454630D01*
X342662Y614604D02*
X454630D01*
X342662Y602604D02*
X454630D01*
X342662D02*
Y746604D01*
X285676Y722604D02*
X342662D01*
X285676Y710604D02*
X342662D01*
X285676Y698604D02*
X342662D01*
X285676Y686604D02*
X342662D01*
X285676Y674604D02*
X342662D01*
X285676Y662604D02*
X342662D01*
X285676Y650604D02*
X342662D01*
X285676Y638604D02*
X342662D01*
X285676Y626604D02*
X342662D01*
X285676Y614604D02*
X342662D01*
X285676Y602604D02*
X342662D01*
X285676D02*
Y746604D01*
X220692Y722604D02*
X285676D01*
X220692Y710604D02*
X285676D01*
X220692Y698604D02*
X285676D01*
X220692Y686604D02*
X285676D01*
X220692Y674604D02*
X285676D01*
X220692Y662604D02*
X285676D01*
X220692Y650604D02*
X285676D01*
X220692Y638604D02*
X285676D01*
X220692Y626604D02*
X285676D01*
X220692Y614604D02*
X285676D01*
X220692Y602604D02*
X285676D01*
X220692D02*
Y746604D01*
X134716Y722604D02*
X220692D01*
X134716Y710604D02*
X220692D01*
X134716Y698604D02*
X220692D01*
X134716Y686604D02*
X220692D01*
X134716Y674604D02*
X220692D01*
X134716Y662604D02*
X220692D01*
X134716Y650604D02*
X220692D01*
X134716Y638604D02*
X220692D01*
X134716Y626604D02*
X220692D01*
X134716Y614604D02*
X220692D01*
X134716Y602604D02*
X220692D01*
X134716D02*
Y746604D01*
X41741Y722604D02*
X134716D01*
X41741Y710604D02*
X134716D01*
X41741Y698604D02*
X134716D01*
X41741Y686604D02*
X134716D01*
X41741Y674604D02*
X134716D01*
X41741Y662604D02*
X134716D01*
X41741Y650604D02*
X134716D01*
X41741Y638604D02*
X134716D01*
X41741Y626604D02*
X134716D01*
X41741Y614604D02*
X134716D01*
X41741Y602604D02*
X134716D01*
X41741D02*
Y746604D01*
X750Y722604D02*
X41741D01*
X750Y710604D02*
X41741D01*
X750Y698604D02*
X41741D01*
X750Y686604D02*
X41741D01*
X750Y674604D02*
X41741D01*
X750Y662604D02*
X41741D01*
X750Y650604D02*
X41741D01*
X750Y638604D02*
X41741D01*
X750Y626604D02*
X41741D01*
X750Y614604D02*
X41741D01*
X750Y602604D02*
X41741D01*
X750D02*
Y746604D01*
X454630D01*
X750Y734604D02*
X454630D01*
D81*
X74836Y68665D02*
X78168Y65333D01*
X74836D02*
X78168Y68665D01*
X74836Y66999D02*
X78168D01*
X76502Y65333D02*
Y68665D01*
X50831Y49847D02*
X54163Y53179D01*
Y49847D02*
X50831Y53179D01*
X52497Y49847D02*
Y53179D01*
X54163Y51513D02*
X50831D01*
X59146Y18655D02*
X55813Y15323D01*
Y18655D02*
X59146Y15323D01*
X57480Y18655D02*
Y15323D01*
X55813Y16989D02*
X59146D01*
X46547Y18655D02*
X43215Y15323D01*
Y18655D02*
X46547Y15323D01*
X44881Y18655D02*
Y15323D01*
X43215Y16989D02*
X46547D01*
X75930Y122109D02*
X79263Y125441D01*
Y122109D02*
X75930Y125441D01*
X77596Y122109D02*
Y125441D01*
X79263Y123775D02*
X75930D01*
M02*
