G04*
G04 #@! TF.GenerationSoftware,Altium Limited,Altium Designer,23.7.1 (13)*
G04*
G04 Layer_Physical_Order=1*
G04 Layer_Color=255*
%FSLAX25Y25*%
%MOIN*%
G70*
G04*
G04 #@! TF.SameCoordinates,FE150CF2-D92F-4AEA-AE3F-07D5F2836877*
G04*
G04*
G04 #@! TF.FilePolarity,Positive*
G04*
G01*
G75*
%ADD10C,0.01000*%
%ADD15R,0.02400X0.02200*%
%ADD16R,0.04921X0.03347*%
%ADD17R,0.03347X0.04921*%
%ADD18R,0.01997X0.05756*%
%ADD19R,0.05756X0.01997*%
%ADD20R,0.09449X0.07874*%
%ADD21R,0.01811X0.04331*%
%ADD22R,0.02500X0.13156*%
%ADD23R,0.02197X0.04156*%
%ADD24R,0.04724X0.07087*%
%ADD25R,0.02362X0.06102*%
G04:AMPARAMS|DCode=26|XSize=55.12mil|YSize=70.87mil|CornerRadius=6.89mil|HoleSize=0mil|Usage=FLASHONLY|Rotation=180.000|XOffset=0mil|YOffset=0mil|HoleType=Round|Shape=RoundedRectangle|*
%AMROUNDEDRECTD26*
21,1,0.05512,0.05709,0,0,180.0*
21,1,0.04134,0.07087,0,0,180.0*
1,1,0.01378,-0.02067,0.02854*
1,1,0.01378,0.02067,0.02854*
1,1,0.01378,0.02067,-0.02854*
1,1,0.01378,-0.02067,-0.02854*
%
%ADD26ROUNDEDRECTD26*%
G04:AMPARAMS|DCode=27|XSize=55.12mil|YSize=70.87mil|CornerRadius=6.89mil|HoleSize=0mil|Usage=FLASHONLY|Rotation=270.000|XOffset=0mil|YOffset=0mil|HoleType=Round|Shape=RoundedRectangle|*
%AMROUNDEDRECTD27*
21,1,0.05512,0.05709,0,0,270.0*
21,1,0.04134,0.07087,0,0,270.0*
1,1,0.01378,-0.02854,-0.02067*
1,1,0.01378,-0.02854,0.02067*
1,1,0.01378,0.02854,0.02067*
1,1,0.01378,0.02854,-0.02067*
%
%ADD27ROUNDEDRECTD27*%
%ADD29R,0.02362X0.01575*%
%ADD30R,0.01600X0.02800*%
%ADD31R,0.06102X0.02362*%
%ADD32R,0.07087X0.04724*%
%ADD33R,0.04100X0.03700*%
G04:AMPARAMS|DCode=34|XSize=23.62mil|YSize=9.84mil|CornerRadius=1.23mil|HoleSize=0mil|Usage=FLASHONLY|Rotation=0.000|XOffset=0mil|YOffset=0mil|HoleType=Round|Shape=RoundedRectangle|*
%AMROUNDEDRECTD34*
21,1,0.02362,0.00738,0,0,0.0*
21,1,0.02116,0.00984,0,0,0.0*
1,1,0.00246,0.01058,-0.00369*
1,1,0.00246,-0.01058,-0.00369*
1,1,0.00246,-0.01058,0.00369*
1,1,0.00246,0.01058,0.00369*
%
%ADD34ROUNDEDRECTD34*%
%ADD35R,0.02197X0.05728*%
%ADD36R,0.02978X0.03200*%
%ADD37R,0.03200X0.02978*%
%ADD38R,0.03378X0.03200*%
%ADD61C,0.03937*%
%ADD62R,0.05906X0.06890*%
%ADD63O,0.02362X0.01181*%
%ADD64R,0.05906X0.09449*%
G04:AMPARAMS|DCode=65|XSize=102.36mil|YSize=118.11mil|CornerRadius=2.56mil|HoleSize=0mil|Usage=FLASHONLY|Rotation=0.000|XOffset=0mil|YOffset=0mil|HoleType=Round|Shape=RoundedRectangle|*
%AMROUNDEDRECTD65*
21,1,0.10236,0.11299,0,0,0.0*
21,1,0.09724,0.11811,0,0,0.0*
1,1,0.00512,0.04862,-0.05650*
1,1,0.00512,-0.04862,-0.05650*
1,1,0.00512,-0.04862,0.05650*
1,1,0.00512,0.04862,0.05650*
%
%ADD65ROUNDEDRECTD65*%
%ADD66C,0.01181*%
%ADD67C,0.01181*%
%ADD68C,0.00787*%
%ADD69C,0.00800*%
%ADD70C,0.03937*%
%ADD71C,0.00799*%
%ADD72C,0.01400*%
%ADD73C,0.02362*%
%ADD74C,0.01968*%
%ADD75C,0.01968*%
%ADD76C,0.02756*%
%ADD77C,0.04000*%
G36*
X33858Y121803D02*
Y111547D01*
X32521D01*
Y112615D01*
X27321D01*
Y107637D01*
X28321D01*
Y106537D01*
X27321D01*
Y104548D01*
X29921D01*
X32521D01*
Y106537D01*
X31521D01*
Y107637D01*
X32521D01*
Y108705D01*
X33858D01*
Y77910D01*
X33358Y77576D01*
X32847Y77787D01*
X31901D01*
X31027Y77425D01*
X30358Y76756D01*
X30095Y76122D01*
X29598D01*
Y80819D01*
X25762D01*
X25547Y80862D01*
X18010D01*
X17929Y80943D01*
Y86933D01*
X17929Y86933D01*
X17759Y87784D01*
X17277Y88506D01*
X17277Y88506D01*
X9704Y96079D01*
Y106012D01*
X19041Y115349D01*
X19041Y115349D01*
X19523Y116070D01*
X19692Y116921D01*
Y125984D01*
X21996D01*
Y124768D01*
X26047D01*
X30098D01*
Y125984D01*
X33858D01*
Y121803D01*
D02*
G37*
G36*
X13481Y80022D02*
X13650Y79171D01*
X14132Y78449D01*
X15516Y77065D01*
X15516Y77065D01*
X16238Y76583D01*
X17088Y76414D01*
X17088Y76414D01*
X21496D01*
Y72520D01*
Y68583D01*
Y67327D01*
X25547D01*
X29598D01*
Y69362D01*
X30550D01*
X31145Y68767D01*
X32019Y68405D01*
X32965D01*
X33358Y68568D01*
X33858Y68234D01*
Y58346D01*
X37575D01*
Y20472D01*
X6537D01*
Y58346D01*
X14736D01*
Y65071D01*
X6537D01*
Y80394D01*
X13174D01*
X13481Y80022D01*
D02*
G37*
%LPC*%
G36*
X30098Y123768D02*
X26547D01*
Y122087D01*
X30098D01*
Y123768D01*
D02*
G37*
G36*
X25547D02*
X21996D01*
Y122087D01*
X25547D01*
Y123768D01*
D02*
G37*
G36*
X31209Y118902D02*
Y117035D01*
X33075D01*
X32725Y117882D01*
X32056Y118551D01*
X31209Y118902D01*
D02*
G37*
G36*
X30209D02*
X29362Y118551D01*
X28693Y117882D01*
X28342Y117035D01*
X30209D01*
Y118902D01*
D02*
G37*
G36*
X33075Y116035D02*
X31209D01*
Y114169D01*
X32056Y114520D01*
X32725Y115188D01*
X33075Y116035D01*
D02*
G37*
G36*
X30209D02*
X28342D01*
X28693Y115188D01*
X29362Y114520D01*
X30209Y114169D01*
Y116035D01*
D02*
G37*
G36*
X19398Y112209D02*
Y110343D01*
X21264D01*
X20914Y111189D01*
X20245Y111858D01*
X19398Y112209D01*
D02*
G37*
G36*
X18398D02*
X17551Y111858D01*
X16882Y111189D01*
X16531Y110343D01*
X18398D01*
Y112209D01*
D02*
G37*
G36*
X21264Y109343D02*
X19398D01*
Y107476D01*
X20245Y107827D01*
X20914Y108495D01*
X21264Y109343D01*
D02*
G37*
G36*
X18398D02*
X16531D01*
X16882Y108495D01*
X17551Y107827D01*
X18398Y107476D01*
Y109343D01*
D02*
G37*
G36*
X22941Y104729D02*
Y102862D01*
X24808D01*
X24457Y103709D01*
X23788Y104378D01*
X22941Y104729D01*
D02*
G37*
G36*
X21941D02*
X21094Y104378D01*
X20425Y103709D01*
X20074Y102862D01*
X21941D01*
Y104729D01*
D02*
G37*
G36*
X14279D02*
Y102862D01*
X16146D01*
X15796Y103709D01*
X15126Y104378D01*
X14279Y104729D01*
D02*
G37*
G36*
X13280D02*
X12432Y104378D01*
X11764Y103709D01*
X11413Y102862D01*
X13280D01*
Y104729D01*
D02*
G37*
G36*
X32521Y103548D02*
X30421D01*
Y101559D01*
X32521D01*
Y103548D01*
D02*
G37*
G36*
X29421D02*
X27321D01*
Y101559D01*
X29421D01*
Y103548D01*
D02*
G37*
G36*
X24808Y101862D02*
X22941D01*
Y99995D01*
X23788Y100346D01*
X24457Y101015D01*
X24808Y101862D01*
D02*
G37*
G36*
X21941D02*
X20074D01*
X20425Y101015D01*
X21094Y100346D01*
X21941Y99995D01*
Y101862D01*
D02*
G37*
G36*
X16146D02*
X14279D01*
Y99995D01*
X15126Y100346D01*
X15796Y101015D01*
X16146Y101862D01*
D02*
G37*
G36*
X13280D02*
X11413D01*
X11764Y101015D01*
X12432Y100346D01*
X13280Y99995D01*
Y101862D01*
D02*
G37*
G36*
X26878Y97249D02*
Y95382D01*
X28745D01*
X28394Y96229D01*
X27725Y96898D01*
X26878Y97249D01*
D02*
G37*
G36*
X25878D02*
X25031Y96898D01*
X24362Y96229D01*
X24011Y95382D01*
X25878D01*
Y97249D01*
D02*
G37*
G36*
X17823Y96855D02*
Y94988D01*
X19690D01*
X19339Y95835D01*
X18670Y96504D01*
X17823Y96855D01*
D02*
G37*
G36*
X16823D02*
X15976Y96504D01*
X15307Y95835D01*
X14956Y94988D01*
X16823D01*
Y96855D01*
D02*
G37*
G36*
X28745Y94382D02*
X26878D01*
Y92515D01*
X27725Y92866D01*
X28394Y93535D01*
X28745Y94382D01*
D02*
G37*
G36*
X25878D02*
X24011D01*
X24362Y93535D01*
X25031Y92866D01*
X25878Y92515D01*
Y94382D01*
D02*
G37*
G36*
X19690Y93988D02*
X17823D01*
Y92121D01*
X18670Y92472D01*
X19339Y93141D01*
X19690Y93988D01*
D02*
G37*
G36*
X16823D02*
X14956D01*
X15307Y93141D01*
X15976Y92472D01*
X16823Y92121D01*
Y93988D01*
D02*
G37*
G36*
X29598Y66327D02*
X26047D01*
Y64646D01*
X29598D01*
Y66327D01*
D02*
G37*
G36*
X25047D02*
X21496D01*
Y64646D01*
X25047D01*
Y66327D01*
D02*
G37*
G36*
X33177Y54569D02*
Y52702D01*
X35044D01*
X34693Y53549D01*
X34024Y54218D01*
X33443Y54459D01*
D01*
X33177Y54569D01*
D02*
G37*
G36*
X32177D02*
X31330Y54218D01*
X30661Y53549D01*
X30310Y52702D01*
X32177D01*
Y54569D01*
D02*
G37*
G36*
X22153D02*
Y52702D01*
X24020D01*
X23670Y53549D01*
X23000Y54218D01*
X22153Y54569D01*
D02*
G37*
G36*
X21154D02*
X20306Y54218D01*
X19638Y53549D01*
X19287Y52702D01*
X21154D01*
Y54569D01*
D02*
G37*
G36*
X11524D02*
Y52702D01*
X13390D01*
X13039Y53549D01*
X12371Y54218D01*
X11524Y54569D01*
D02*
G37*
G36*
X10524D02*
X9677Y54218D01*
X9008Y53549D01*
X8657Y52702D01*
X10524D01*
Y54569D01*
D02*
G37*
G36*
X35044Y51702D02*
X33177D01*
Y49835D01*
X33443Y49945D01*
D01*
X34024Y50186D01*
X34693Y50855D01*
X35044Y51702D01*
D02*
G37*
G36*
X32177D02*
X30310D01*
X30661Y50855D01*
X31330Y50186D01*
X32177Y49835D01*
Y51702D01*
D02*
G37*
G36*
X24020D02*
X22153D01*
Y49835D01*
X23000Y50186D01*
X23670Y50855D01*
X24020Y51702D01*
D02*
G37*
G36*
X21154D02*
X19287D01*
X19638Y50855D01*
X20306Y50186D01*
X21154Y49835D01*
Y51702D01*
D02*
G37*
G36*
X13390D02*
X11524D01*
Y49835D01*
X12371Y50186D01*
X13039Y50855D01*
X13390Y51702D01*
D02*
G37*
G36*
X10524D02*
X8657D01*
X9008Y50855D01*
X9677Y50186D01*
X10524Y49835D01*
Y51702D01*
D02*
G37*
G36*
X33571Y46246D02*
Y43807D01*
X36010D01*
X35837Y44453D01*
X35446Y45130D01*
X34894Y45682D01*
X34217Y46073D01*
X33571Y46246D01*
D02*
G37*
G36*
X32571D02*
X31925Y46073D01*
X31248Y45682D01*
X30696Y45130D01*
X30305Y44453D01*
X30132Y43807D01*
X32571D01*
Y46246D01*
D02*
G37*
G36*
X22547Y45514D02*
Y43647D01*
X24414D01*
X24063Y44494D01*
X23394Y45163D01*
X22547Y45514D01*
D02*
G37*
G36*
X21547D02*
X20700Y45163D01*
X20031Y44494D01*
X19681Y43647D01*
X21547D01*
Y45514D01*
D02*
G37*
G36*
X11524D02*
Y43647D01*
X13390D01*
X13039Y44494D01*
X12371Y45163D01*
X11524Y45514D01*
D02*
G37*
G36*
X10524D02*
X9677Y45163D01*
X9008Y44494D01*
X8657Y43647D01*
X10524D01*
Y45514D01*
D02*
G37*
G36*
X24414Y42647D02*
X22547D01*
Y40780D01*
X23394Y41131D01*
X24063Y41800D01*
X24414Y42647D01*
D02*
G37*
G36*
X21547D02*
X19681D01*
X20031Y41800D01*
X20700Y41131D01*
X21547Y40780D01*
Y42647D01*
D02*
G37*
G36*
X13390D02*
X11524D01*
Y40780D01*
X12371Y41131D01*
X13039Y41800D01*
X13390Y42647D01*
D02*
G37*
G36*
X10524D02*
X8657D01*
X9008Y41800D01*
X9677Y41131D01*
X10524Y40780D01*
Y42647D01*
D02*
G37*
G36*
X36010Y42807D02*
X33571D01*
Y40368D01*
X34217Y40541D01*
X34894Y40932D01*
X35446Y41484D01*
X35837Y42161D01*
X36010Y42807D01*
D02*
G37*
G36*
X32571D02*
X30132D01*
X30305Y42161D01*
X30696Y41484D01*
X31248Y40932D01*
X31925Y40541D01*
X32571Y40368D01*
Y42807D01*
D02*
G37*
G36*
X33571Y36852D02*
Y34986D01*
X35438D01*
X35087Y35833D01*
X34418Y36502D01*
X33571Y36852D01*
D02*
G37*
G36*
X32571D02*
X31724Y36502D01*
X31055Y35833D01*
X30704Y34986D01*
X32571D01*
Y36852D01*
D02*
G37*
G36*
X22941D02*
Y34986D01*
X24808D01*
X24457Y35833D01*
X23788Y36502D01*
X22941Y36852D01*
D02*
G37*
G36*
X21941D02*
X21094Y36502D01*
X20425Y35833D01*
X20074Y34986D01*
X21941D01*
Y36852D01*
D02*
G37*
G36*
X11917D02*
Y34986D01*
X13784D01*
X13433Y35833D01*
X12764Y36502D01*
X11917Y36852D01*
D02*
G37*
G36*
X10917D02*
X10070Y36502D01*
X9401Y35833D01*
X9050Y34986D01*
X10917D01*
Y36852D01*
D02*
G37*
G36*
X35438Y33986D02*
X33571D01*
Y32119D01*
X34418Y32470D01*
X35087Y33138D01*
X35438Y33986D01*
D02*
G37*
G36*
X32571D02*
X30704D01*
X31055Y33138D01*
X31724Y32470D01*
X32571Y32119D01*
Y33986D01*
D02*
G37*
G36*
X24808D02*
X22941D01*
Y32119D01*
X23788Y32470D01*
X24457Y33138D01*
X24808Y33986D01*
D02*
G37*
G36*
X21941D02*
X20074D01*
X20425Y33138D01*
X21094Y32470D01*
X21941Y32119D01*
Y33986D01*
D02*
G37*
G36*
X13784D02*
X11917D01*
Y32119D01*
X12764Y32470D01*
X13433Y33138D01*
X13784Y33986D01*
D02*
G37*
G36*
X10917D02*
X9050D01*
X9401Y33138D01*
X10070Y32470D01*
X10917Y32119D01*
Y33986D01*
D02*
G37*
G36*
X33965Y28191D02*
Y26324D01*
X35831D01*
X35480Y27171D01*
X34812Y27840D01*
X33965Y28191D01*
D02*
G37*
G36*
X32965D02*
X32118Y27840D01*
X31449Y27171D01*
X31098Y26324D01*
X32965D01*
Y28191D01*
D02*
G37*
G36*
X23335Y27797D02*
Y25930D01*
X25201D01*
X24851Y26777D01*
X24182Y27446D01*
X23335Y27797D01*
D02*
G37*
G36*
X22335D02*
X21488Y27446D01*
X20819Y26777D01*
X20468Y25930D01*
X22335D01*
Y27797D01*
D02*
G37*
G36*
X12311D02*
Y25930D01*
X14178D01*
X13827Y26777D01*
X13158Y27446D01*
X12311Y27797D01*
D02*
G37*
G36*
X11311D02*
X10464Y27446D01*
X9795Y26777D01*
X9444Y25930D01*
X11311D01*
Y27797D01*
D02*
G37*
G36*
X35831Y25324D02*
X33965D01*
Y23457D01*
X34812Y23808D01*
X35480Y24477D01*
X35831Y25324D01*
D02*
G37*
G36*
X32965D02*
X31098D01*
X31449Y24477D01*
X32118Y23808D01*
X32965Y23457D01*
Y25324D01*
D02*
G37*
G36*
X25201Y24930D02*
X23335D01*
Y23064D01*
X24182Y23415D01*
X24851Y24083D01*
X25201Y24930D01*
D02*
G37*
G36*
X22335D02*
X20468D01*
X20819Y24083D01*
X21488Y23415D01*
X22335Y23064D01*
Y24930D01*
D02*
G37*
G36*
X14178D02*
X12311D01*
Y23064D01*
X13158Y23415D01*
X13827Y24083D01*
X14178Y24930D01*
D02*
G37*
G36*
X11311D02*
X9444D01*
X9795Y24083D01*
X10464Y23415D01*
X11311Y23064D01*
Y24930D01*
D02*
G37*
%LPD*%
D10*
X159611Y105266D02*
Y107547D01*
X163272D01*
X163285Y91547D02*
X165685D01*
D15*
X163285D02*
D03*
X159611Y107547D02*
D03*
D16*
X155118Y95768D02*
D03*
Y88484D02*
D03*
X95276Y100689D02*
D03*
Y107972D02*
D03*
X106299Y100689D02*
D03*
Y107972D02*
D03*
X146063Y79823D02*
D03*
Y87106D02*
D03*
X145669Y102854D02*
D03*
Y95571D02*
D03*
X52492Y27343D02*
D03*
Y34626D02*
D03*
X61122Y27327D02*
D03*
Y34610D02*
D03*
X38996Y72555D02*
D03*
Y65272D02*
D03*
X71437Y170988D02*
D03*
Y178272D02*
D03*
X150787Y42224D02*
D03*
Y34941D02*
D03*
D17*
X128248Y164961D02*
D03*
X135531D02*
D03*
X120177D02*
D03*
X112894D02*
D03*
X150492D02*
D03*
X143209D02*
D03*
X131150Y138957D02*
D03*
X138433D02*
D03*
X130968Y130972D02*
D03*
X138252D02*
D03*
X40547Y80079D02*
D03*
X47831D02*
D03*
X57268Y188126D02*
D03*
X49984D02*
D03*
D18*
X77362Y70602D02*
D03*
X80512D02*
D03*
X83661D02*
D03*
X86811D02*
D03*
X89961D02*
D03*
X93110D02*
D03*
X96260D02*
D03*
X99410D02*
D03*
Y38202D02*
D03*
X96260D02*
D03*
X93110D02*
D03*
X89961D02*
D03*
X86811D02*
D03*
X83661D02*
D03*
X80512D02*
D03*
X77362D02*
D03*
D19*
X104586Y65425D02*
D03*
Y62276D02*
D03*
Y59126D02*
D03*
Y55976D02*
D03*
Y52827D02*
D03*
Y49677D02*
D03*
Y46528D02*
D03*
Y43378D02*
D03*
X72186D02*
D03*
Y46528D02*
D03*
Y49677D02*
D03*
Y52827D02*
D03*
Y55976D02*
D03*
Y59126D02*
D03*
Y62276D02*
D03*
Y65425D02*
D03*
D20*
X56346Y66327D02*
D03*
Y51366D02*
D03*
D21*
X57480Y10433D02*
D03*
Y19488D02*
D03*
X44882Y10433D02*
D03*
Y19488D02*
D03*
D22*
X104547Y13565D02*
D03*
X94547Y23965D02*
D03*
X84547Y13565D02*
D03*
X74547Y23965D02*
D03*
D23*
X79528Y142209D02*
D03*
X84646D02*
D03*
X89764D02*
D03*
Y119209D02*
D03*
X84646D02*
D03*
X79528D02*
D03*
D24*
X124409Y197244D02*
D03*
X138583D02*
D03*
D25*
X129528Y181890D02*
D03*
X133465D02*
D03*
D26*
X133661Y74803D02*
D03*
X123425D02*
D03*
D27*
X36169Y171634D02*
D03*
Y181870D02*
D03*
D29*
X131890Y40945D02*
D03*
Y37008D02*
D03*
Y33071D02*
D03*
X142913D02*
D03*
Y37008D02*
D03*
Y40945D02*
D03*
D30*
X136626Y14567D02*
D03*
X141326D02*
D03*
X136626Y22047D02*
D03*
X141326D02*
D03*
D31*
X25547Y78638D02*
D03*
Y74701D02*
D03*
Y70764D02*
D03*
Y66827D02*
D03*
X26047Y136079D02*
D03*
Y132142D02*
D03*
Y128205D02*
D03*
Y124268D02*
D03*
D32*
X10193Y83756D02*
D03*
Y61709D02*
D03*
X10693Y141197D02*
D03*
Y119150D02*
D03*
D33*
X138287Y115260D02*
D03*
X131004D02*
D03*
Y120960D02*
D03*
X138287D02*
D03*
D34*
X136221Y92716D02*
D03*
Y86811D02*
D03*
Y88779D02*
D03*
Y90748D02*
D03*
Y94685D02*
D03*
Y96653D02*
D03*
X121260Y86811D02*
D03*
Y88779D02*
D03*
Y90748D02*
D03*
Y92716D02*
D03*
Y94685D02*
D03*
Y96653D02*
D03*
D35*
X36354Y89203D02*
D03*
X41354D02*
D03*
X46354D02*
D03*
X51354D02*
D03*
Y110631D02*
D03*
X46354D02*
D03*
X41354D02*
D03*
X36354D02*
D03*
D36*
X130598Y14567D02*
D03*
X124520D02*
D03*
X130598Y20866D02*
D03*
X124520D02*
D03*
D37*
X51925Y129744D02*
D03*
Y123666D02*
D03*
X29921Y104048D02*
D03*
Y110126D02*
D03*
X43728Y123532D02*
D03*
Y129610D02*
D03*
D38*
X59926Y74803D02*
D03*
X54248D02*
D03*
X59138Y41339D02*
D03*
X53460D02*
D03*
X50871Y135827D02*
D03*
X45193D02*
D03*
D61*
X115354Y44094D02*
D03*
X33071Y43307D02*
D03*
X126772Y108661D02*
D03*
X110004Y80315D02*
D03*
X44488Y58661D02*
D03*
X43701Y51575D02*
D03*
X77870Y83854D02*
D03*
X89098Y84110D02*
D03*
D62*
X52941Y174583D02*
D03*
D63*
X47429Y170744D02*
D03*
Y173303D02*
D03*
Y175862D02*
D03*
Y178421D02*
D03*
X58453D02*
D03*
Y175862D02*
D03*
Y173303D02*
D03*
Y170744D02*
D03*
D64*
X137402Y37008D02*
D03*
D65*
X128740Y91732D02*
D03*
D66*
X15157Y15748D02*
D03*
X315354D02*
D03*
X15264Y192642D02*
D03*
X132849Y91767D02*
D03*
X124606Y91732D02*
D03*
X128740Y86811D02*
D03*
Y96653D02*
D03*
D67*
X150492Y164961D02*
X150640Y164813D01*
Y157628D02*
Y164813D01*
Y157628D02*
X150787Y157480D01*
X163285Y89259D02*
Y91547D01*
X126378Y68110D02*
X161231D01*
X125000Y69488D02*
X126378Y68110D01*
X161231D02*
X161744Y68624D01*
X161520Y57027D02*
X161744D01*
X125000Y69488D02*
Y73228D01*
X123425Y74803D02*
X125000Y73228D01*
X136221Y90748D02*
X141634D01*
X145276Y87106D01*
X148228Y88484D02*
X155118D01*
X145669Y95571D02*
X154921D01*
X136221Y92716D02*
X142028D01*
X144882Y95571D01*
X145276Y103248D02*
Y107874D01*
X138287Y115260D02*
Y120960D01*
X138252Y120996D02*
Y130972D01*
Y120996D02*
X138287Y120960D01*
X138252Y130972D02*
X138342Y131063D01*
X125101Y82284D02*
X132114D01*
X123425Y74803D02*
X124409Y75787D01*
Y81592D01*
X125101Y82284D01*
X132114D02*
X135630Y85800D01*
Y86713D01*
X135728Y86811D01*
X136221D01*
X133661Y74803D02*
X137795D01*
X140157Y77165D01*
Y87402D01*
X138878Y88681D02*
X140157Y87402D01*
X136221Y88779D02*
X136319Y88681D01*
X137224D01*
X137224Y88681D01*
X138878D01*
X146539Y74650D02*
Y79347D01*
X159197Y130972D02*
X159803Y131579D01*
X126123Y40945D02*
X131890D01*
X119642Y52827D02*
X119685Y52870D01*
X104629Y49720D02*
X122957D01*
X92520Y80315D02*
X110004D01*
X125984Y37008D02*
X131890D01*
X150787Y34941D02*
X160071D01*
X142913Y37008D02*
X147933D01*
X150000Y34941D01*
X106299Y107972D02*
X116240D01*
X122835Y114567D02*
Y146063D01*
X116240Y107972D02*
X122835Y114567D01*
X95276Y107972D02*
X106299D01*
X124803Y148031D02*
X158705D01*
X159492Y148819D01*
X122835Y146063D02*
X124803Y148031D01*
X54531Y74520D02*
X55346Y75335D01*
Y77755D01*
X56299Y78708D01*
Y79134D01*
X59138Y41339D02*
Y48574D01*
X48374Y41510D02*
X53413D01*
X46457Y44456D02*
Y44882D01*
Y44456D02*
X47593Y43319D01*
Y42292D02*
Y43319D01*
Y42292D02*
X48374Y41510D01*
X58453Y170744D02*
X71193D01*
X71437Y170988D01*
X36957Y171634D02*
X43744Y178421D01*
X47429D01*
X37059Y170744D02*
X47429D01*
X99410Y38202D02*
Y38344D01*
X99817Y38752D01*
X104496D01*
X77341Y70623D02*
X77362Y70602D01*
X77341Y70623D02*
Y76356D01*
X77319Y76378D02*
X77341Y76356D01*
X39465Y78996D02*
X40465Y79996D01*
X40547Y80079D01*
X36740Y79996D02*
X40465D01*
X39465Y76468D02*
Y78996D01*
X38996Y76000D02*
X39465Y76468D01*
X38996Y72555D02*
Y76000D01*
X41354Y89203D02*
Y94334D01*
X40236Y95452D02*
X41354Y94334D01*
X40236Y95452D02*
Y95878D01*
X112894Y158453D02*
Y164961D01*
X112839Y158398D02*
X112894Y158453D01*
X80451Y38263D02*
X80512Y38202D01*
X80451Y38263D02*
Y45238D01*
X80390Y45299D02*
X80451Y45238D01*
X104586Y52827D02*
X119642D01*
X122957Y49720D02*
X123000Y49764D01*
X72146Y83917D02*
X72154Y83909D01*
X36354Y87438D02*
X39875Y83917D01*
X77842Y83882D02*
X77870Y83854D01*
X72154Y83909D02*
X72181Y83882D01*
X36354Y87438D02*
Y89203D01*
X88972Y59102D02*
X90381Y57694D01*
X99414D01*
X51354Y89203D02*
X51580Y89429D01*
X89083Y84126D02*
X89098Y84110D01*
X89083Y84126D02*
Y89413D01*
X89067Y89429D02*
X89083Y89413D01*
X104178Y58718D02*
X104586Y59126D01*
X100438Y58718D02*
X104178D01*
X99414Y57694D02*
X100438Y58718D01*
X104586Y49677D02*
X104629Y49720D01*
X138342Y138866D02*
X138433Y138957D01*
X138342Y131063D02*
Y138866D01*
D68*
X159611Y100261D02*
Y105266D01*
X157185Y97835D02*
X159611Y100261D01*
X155118Y95768D02*
X155905D01*
X157185Y97047D01*
Y97835D01*
X154921Y95571D02*
X155118Y95768D01*
X144882Y95571D02*
X145669D01*
X145276Y103248D02*
X145669Y102854D01*
X133465Y167815D02*
Y181890D01*
Y167815D02*
X135531Y165748D01*
Y164961D02*
Y165748D01*
X129528Y166240D02*
Y181890D01*
X128248Y164961D02*
X129528Y166240D01*
X134646Y164075D02*
X135531Y164961D01*
X134646Y157480D02*
Y164075D01*
X135531Y164961D02*
X143209D01*
X120177D02*
X128248D01*
X128347Y164862D01*
Y157480D02*
Y164862D01*
X143209Y164173D02*
Y164961D01*
X134646Y157480D02*
X135022Y157857D01*
X138779Y94685D02*
X139764Y95669D01*
Y101969D01*
X131004Y120960D02*
Y130937D01*
X130968Y130972D02*
X131004Y130937D01*
X130804Y115260D02*
X131004D01*
X129348Y113804D02*
X130804Y115260D01*
X129348Y111237D02*
Y113804D01*
X126772Y108661D02*
X129348Y111237D01*
X124016Y105905D02*
X126772Y108661D01*
X119291Y105905D02*
X124016D01*
X136122Y96653D02*
X136221D01*
X136024Y96752D02*
X136122Y96653D01*
X136024Y96752D02*
Y104134D01*
X135827Y104331D02*
X136024Y104134D01*
X136221Y94685D02*
X138779D01*
X146063Y79823D02*
X146539Y79347D01*
X123000Y49764D02*
X134252D01*
X142126Y41890D01*
Y41800D02*
Y41890D01*
Y41800D02*
X142126Y41800D01*
Y41339D02*
Y41800D01*
X124803Y41732D02*
X125336D01*
X126123Y40945D01*
X160071Y34941D02*
X161744Y36614D01*
X150000Y34941D02*
X150787D01*
X142520Y40945D02*
X142913D01*
X142126Y41339D02*
X142520Y40945D01*
X141326Y14567D02*
Y22047D01*
X130598Y20866D02*
X131626Y21894D01*
X136473D01*
X130598Y14567D02*
X136626D01*
X121653D02*
X124520D01*
X118504Y17717D02*
Y31102D01*
Y17717D02*
X121653Y14567D01*
X90686Y31929D02*
X117677D01*
X118504Y31102D01*
X124520Y20866D02*
Y31385D01*
Y20755D02*
Y20866D01*
X122150Y33756D02*
X124520Y31385D01*
X92009Y33756D02*
X122150D01*
X141326Y13967D02*
Y14567D01*
Y13967D02*
X142986Y12308D01*
Y11345D02*
Y12308D01*
Y11345D02*
X144882Y9449D01*
X120571Y86811D02*
X121260D01*
X117306Y83546D02*
X120571Y86811D01*
X117306Y82660D02*
Y83546D01*
X116929Y82284D02*
X117306Y82660D01*
X110004Y80315D02*
X118468Y88779D01*
X114001Y96653D02*
X114107Y96760D01*
X118152Y94685D02*
X121260D01*
X117365Y95472D02*
X118152Y94685D01*
X114107Y96760D02*
X118176D01*
X118283Y96653D02*
X121260D01*
X108540D02*
X114001D01*
X118176Y96760D02*
X118283Y96653D01*
X114640Y95472D02*
X117365D01*
X111097Y91929D02*
X114640Y95472D01*
X118468Y88779D02*
X121260D01*
X118712Y92520D02*
X118898Y92705D01*
X118546Y90748D02*
X121260D01*
X111811Y87795D02*
X115593D01*
X118546Y90748D01*
X118898Y92705D02*
X121248D01*
X116142Y92520D02*
X118712D01*
X133373Y88674D02*
Y88688D01*
X128740Y91732D02*
X130315D01*
X133373Y88674D01*
Y88688D02*
X133465Y88779D01*
X132864Y88165D02*
X133373Y88674D01*
X134671Y164961D02*
X134729D01*
X129051Y181413D02*
X129528Y181890D01*
X120177Y164173D02*
Y164961D01*
Y164173D02*
X121457Y162894D01*
X131118Y138988D02*
Y144882D01*
X95669Y94488D02*
X98228Y91929D01*
X111097D01*
X151110Y42547D02*
Y46303D01*
X106769Y94882D02*
X108540Y96653D01*
X106693Y94882D02*
X106769D01*
X95276Y100689D02*
X95669Y100295D01*
Y94488D02*
Y100295D01*
X106299Y100689D02*
X106693Y100295D01*
Y94882D02*
Y100295D01*
X121248Y92705D02*
X121260Y92716D01*
X57307Y64535D02*
X57723Y64951D01*
X56382Y66327D02*
X59926Y69870D01*
Y74803D01*
X56346Y66327D02*
X56382D01*
X56346Y51366D02*
X56346Y51366D01*
X56138Y51575D02*
X56346Y51366D01*
Y53157D01*
X43701Y51575D02*
X56138D01*
X56346Y64535D02*
X57307D01*
X44488Y58661D02*
X47894D01*
X55559Y66327D01*
X56346D01*
X49040Y69685D02*
X54159Y74803D01*
X44488Y69685D02*
X49040D01*
X38996Y72555D02*
X39555Y71997D01*
X42176D01*
X44488Y69685D01*
X54159Y74803D02*
X54248D01*
X39875Y83917D02*
X72146D01*
X56346Y51366D02*
X59138Y48574D01*
X104586Y46528D02*
X112921D01*
X115354Y44094D01*
X58453Y175862D02*
X62870D01*
X63689Y176681D02*
Y182846D01*
X62870Y175862D02*
X63689Y176681D01*
X47095Y73909D02*
Y79343D01*
X104547Y11486D02*
Y13565D01*
X103691Y10630D02*
X104547Y11486D01*
X57480Y10433D02*
X57677Y10630D01*
X100000Y16929D02*
Y20405D01*
X107469Y20866D02*
X112205D01*
X107011Y21324D02*
X107469Y20866D01*
X100919Y21324D02*
X107011D01*
X100000Y20405D02*
X100919Y21324D01*
X98425Y15354D02*
X100000Y16929D01*
X85404Y15354D02*
X98425D01*
X84547Y13565D02*
Y14498D01*
X85404Y15354D01*
X94547Y23965D02*
Y25935D01*
X95403Y26791D01*
X113634D01*
X123425Y19660D02*
X124520Y20755D01*
X123314Y19660D02*
X123425D01*
X34824Y132142D02*
X42408Y139726D01*
X46354Y110631D02*
X46457Y110734D01*
X46354Y104997D02*
Y110631D01*
X45150Y103793D02*
X46354Y104997D01*
X45150Y103260D02*
Y103793D01*
X29921Y110126D02*
X35849D01*
X36354Y110631D01*
X84646Y142209D02*
Y145276D01*
X83858Y146063D02*
X84646Y145276D01*
X67716D02*
X68504Y146063D01*
X83858D01*
X79528Y129134D02*
Y138976D01*
X89764Y138189D02*
Y142209D01*
X79528Y138976D02*
Y142209D01*
X80709Y124016D02*
X88976D01*
X88583Y137008D02*
X89764Y138189D01*
X79528Y138976D02*
X81496Y137008D01*
X88583D01*
X79528Y122835D02*
X80709Y124016D01*
X79528Y119209D02*
Y122835D01*
X74059Y123666D02*
X79528Y129134D01*
X84184Y115748D02*
X84646Y116209D01*
X89764Y119209D02*
Y123228D01*
X84646Y116209D02*
Y119209D01*
X88976Y124016D02*
X89764Y123228D01*
X48163Y119209D02*
X79528D01*
X51925Y123666D02*
X74059D01*
X47783Y115748D02*
X84184D01*
X50871Y135827D02*
X55905D01*
X43728Y129610D02*
X51791D01*
X51925Y129744D01*
X45103Y135827D02*
X45193D01*
X43897Y134620D02*
X45103Y135827D01*
X43897Y134531D02*
Y134620D01*
X43728Y134363D02*
X43897Y134531D01*
X43728Y129610D02*
Y134363D01*
X46457Y114422D02*
Y118110D01*
Y110734D02*
Y114422D01*
X47783Y115748D01*
X40945Y119291D02*
X45276D01*
X46457Y118110D01*
X40157Y120079D02*
X40945Y119291D01*
X35354Y128102D02*
X40157Y123299D01*
Y120079D02*
Y123299D01*
X39091Y117323D02*
X41354Y115059D01*
X38583Y117323D02*
X39091D01*
X41354Y110631D02*
Y115059D01*
Y105874D02*
Y110631D01*
X43839Y123532D02*
X48163Y119209D01*
X43728Y123532D02*
X43839D01*
X42408Y139726D02*
X62256D01*
X67716Y145187D01*
Y145276D01*
X54327Y183783D02*
X55778D01*
X49984Y187339D02*
Y188126D01*
Y187339D02*
X51264Y186059D01*
X55778Y183783D02*
X56715Y182846D01*
X63689D01*
X51264Y186059D02*
X52051D01*
X54327Y183783D01*
X57342Y54153D02*
X60348D01*
X56346Y53158D02*
X57342Y54153D01*
X57268Y188126D02*
X60278D01*
X61519Y189366D01*
X62051D01*
X26047Y132142D02*
X34824D01*
X58453Y175862D02*
X58528Y175787D01*
X131118Y138988D02*
X131150Y138957D01*
X150787Y42224D02*
X151110Y42547D01*
X25547Y74701D02*
X31133D01*
X31841Y75410D01*
X32374D01*
X40878Y105398D02*
X41354Y105874D01*
X25547Y70764D02*
X25567Y70784D01*
X32492D01*
X46634Y96653D02*
X46913Y96933D01*
X46634Y89483D02*
Y96653D01*
X38996Y7322D02*
Y65272D01*
X35906Y4231D02*
X38996Y7322D01*
Y65272D02*
X39024Y65299D01*
X47221D01*
X46354Y89203D02*
X46634Y89483D01*
X47095Y79343D02*
X47831Y80079D01*
X72181Y83882D02*
X77842D01*
X84264Y57717D02*
X86004Y55976D01*
X84264Y57717D02*
Y58406D01*
X86004Y55976D02*
X104586D01*
X51580Y89429D02*
X89067D01*
X131150Y131154D02*
Y138957D01*
X130968Y130972D02*
X131150Y131154D01*
X99387Y65425D02*
X104586D01*
X98741Y64780D02*
X99387Y65425D01*
X98209Y64780D02*
X98741D01*
X98642Y60844D02*
X100076Y62278D01*
X98110Y60844D02*
X98642D01*
X100076Y62278D02*
X104584D01*
X104586Y62276D01*
X86811Y38202D02*
X87416Y37597D01*
Y35200D02*
Y37597D01*
Y35200D02*
X90686Y31929D01*
X89961Y38202D02*
X90565Y37597D01*
Y35200D02*
Y37597D01*
Y35200D02*
X92009Y33756D01*
X26150Y128102D02*
X35354D01*
X26047Y128205D02*
X26150Y128102D01*
X136473Y21894D02*
X136626Y22047D01*
X62096Y60096D02*
X69336D01*
X60890Y58890D02*
X62096Y60096D01*
X69336D02*
X70306Y59126D01*
X72186D01*
X60890Y54969D02*
Y58890D01*
X72150Y62311D02*
X72186Y62276D01*
X62161Y62311D02*
X72150D01*
X56346Y64535D02*
X57342Y63540D01*
X60932D01*
X62161Y62311D01*
D69*
X162510Y88484D02*
X163285Y89259D01*
X155118Y88484D02*
X162510D01*
X145276Y87106D02*
X146063D01*
X146850D02*
X148228Y88484D01*
X146063Y87106D02*
X146850D01*
D70*
X161744Y57027D02*
Y68624D01*
Y36614D02*
Y57027D01*
X138342Y130972D02*
X159197D01*
X42913Y4231D02*
X147792D01*
X161744Y33734D02*
Y36614D01*
X159492Y148819D02*
Y173400D01*
Y131268D02*
Y148819D01*
X71437Y170988D02*
X80779D01*
X84031Y174240D01*
X35906Y4231D02*
X42913D01*
X3543Y9433D02*
Y197559D01*
X71437Y178272D02*
X77555D01*
X77807Y178524D01*
X150099Y22089D02*
X161744Y33734D01*
X147792Y4231D02*
X150099Y6538D01*
Y22089D01*
X156363Y198354D02*
Y201615D01*
X154057Y203921D02*
X156363Y201615D01*
X150099Y192089D02*
X156363Y198354D01*
X150099Y182793D02*
X159492Y173400D01*
X87113Y203921D02*
X154057D01*
X150099Y182793D02*
Y192089D01*
X8745Y4231D02*
X35906D01*
X9921Y203937D02*
X87098D01*
X87113Y203921D01*
X3543Y197559D02*
X9921Y203937D01*
X3543Y9433D02*
X8745Y4231D01*
X84031Y200839D02*
X87113Y203921D01*
X84031Y174240D02*
Y200839D01*
D71*
X163285Y91547D02*
X165685D01*
X168085Y95547D01*
Y99547D01*
X218435D02*
X220681D01*
X218377Y95646D02*
X218435Y99547D01*
X218377Y95646D02*
X220342Y88087D01*
X224204Y81281D01*
X229707Y75696D01*
X236481Y71717D01*
X244069Y69624D01*
X251956Y69566D01*
X259603Y71555D01*
X266489Y75463D01*
X272139Y81031D01*
X276164Y87885D01*
X278281Y95561D01*
X278339Y103540D01*
X276326Y111276D02*
X278339Y103540D01*
X272372Y118241D02*
X276326Y111276D01*
X266739Y123957D02*
X272372Y118241D01*
X259806Y128027D02*
X266739Y123957D01*
X252040Y130168D02*
X259806Y128027D01*
X243970Y130226D02*
X252040Y130168D01*
X236144Y128190D02*
X243970Y130226D01*
X229100Y124189D02*
X236144Y128190D01*
X223319Y118491D02*
X229100Y124189D01*
X219203Y111478D02*
X223319Y118491D01*
X217038Y103624D02*
X219203Y111478D01*
X216980Y95462D02*
X217038Y103624D01*
X216980Y95462D02*
X219040Y87548D01*
X223086Y80423D01*
X228849Y74578D01*
X235942Y70416D01*
X243885Y68227D01*
X252140Y68169D01*
X260143Y70253D01*
X267347Y74345D01*
X273257Y80173D01*
X277465Y87345D01*
X279678Y95377D01*
X279736Y103724D01*
X277628Y111815D02*
X279736Y103724D01*
X273490Y119099D02*
X277628Y111815D01*
X267597Y125075D02*
X273490Y119099D01*
X260345Y129329D02*
X267597Y125075D01*
X252224Y131565D02*
X260345Y129329D01*
X243786Y131623D02*
X252224Y131565D01*
X235605Y129491D02*
X243786Y131623D01*
X228242Y125307D02*
X235605Y129491D01*
X222201Y119349D02*
X228242Y125307D01*
X217901Y112018D02*
X222201Y119349D01*
X215641Y103808D02*
X217901Y112018D01*
X215583Y95278D02*
X215641Y103808D01*
X215583Y95278D02*
X217739Y87008D01*
X221969Y79565D01*
X227992Y73460D01*
X235403Y69114D01*
X243702Y66830D01*
X252324Y66772D01*
X260682Y68951D01*
X268204Y73227D01*
X274375Y79315D01*
X278767Y86806D01*
X281075Y95193D01*
X281133Y103908D01*
X278930Y112355D02*
X281133Y103908D01*
X274608Y119957D02*
X278930Y112355D01*
X268455Y126192D02*
X274608Y119957D01*
X260884Y130631D02*
X268455Y126192D01*
X252408Y132962D02*
X260884Y130631D01*
X243602Y133020D02*
X252408Y132962D01*
X235066Y130793D02*
X243602Y133020D01*
X227384Y126425D02*
X235066Y130793D01*
X221084Y120207D02*
X227384Y126425D01*
X216599Y112557D02*
X221084Y120207D01*
X214244Y103992D02*
X216599Y112557D01*
X214186Y95094D02*
X214244Y103992D01*
X214186Y95094D02*
X216437Y86469D01*
X220851Y78707D01*
X227134Y72342D01*
X234864Y67812D01*
X243518Y65433D01*
X252508Y65375D01*
X261221Y67649D01*
X269062Y72109D01*
X275493Y78457D01*
X280069Y86267D01*
X282472Y95009D01*
X282530Y104092D01*
X280232Y112894D02*
X282530Y104092D01*
X275726Y120815D02*
X280232Y112894D01*
X269313Y127310D02*
X275726Y120815D01*
X261423Y131932D02*
X269313Y127310D01*
X252592Y134359D02*
X261423Y131932D01*
X243418Y134417D02*
X252592Y134359D01*
X234527Y132095D02*
X243418Y134417D01*
X226526Y127543D02*
X234527Y132095D01*
X219966Y121065D02*
X226526Y127543D01*
X215298Y113096D02*
X219966Y121065D01*
X212847Y104176D02*
X215298Y113096D01*
X212789Y94910D02*
X212847Y104176D01*
X212789Y94910D02*
X215135Y85930D01*
X219733Y77850D01*
X226276Y71224D01*
X234325Y66510D01*
X243334Y64036D01*
X252692Y63978D01*
X261760Y66347D01*
X269920Y70991D01*
X276611Y77600D01*
X281371Y85728D01*
X283869Y94826D01*
X283927Y104275D01*
X281533Y113433D02*
X283927Y104275D01*
X276844Y121672D02*
X281533Y113433D01*
X270170Y128428D02*
X276844Y121672D01*
X261963Y133234D02*
X270170Y128428D01*
X252776Y135756D02*
X261963Y133234D01*
X243234Y135814D02*
X252776Y135756D01*
X233987Y133397D02*
X243234Y135814D01*
X225669Y128661D02*
X233987Y133397D01*
X218848Y121923D02*
X225669Y128661D01*
X213996Y113635D02*
X218848Y121923D01*
X211450Y104360D02*
X213996Y113635D01*
X211392Y94726D02*
X211450Y104360D01*
X211392Y94726D02*
X213833Y85391D01*
X218615Y76992D01*
X225418Y70106D01*
X233785Y65208D01*
X243150Y62639D01*
X252875Y62581D01*
X262299Y65046D01*
X270778Y69873D01*
X277729Y76742D01*
X282673Y85189D01*
X285266Y94642D01*
X285324Y104459D01*
X282835Y113972D02*
X285324Y104459D01*
X277961Y122530D02*
X282835Y113972D01*
X271028Y129546D02*
X277961Y122530D01*
X262502Y134536D02*
X271028Y129546D01*
X252960Y137153D02*
X262502Y134536D01*
X243050Y137211D02*
X252960Y137153D01*
X233448Y134699D02*
X243050Y137211D01*
X224811Y129779D02*
X233448Y134699D01*
X217730Y122780D02*
X224811Y129779D01*
X212694Y114174D02*
X217730Y122780D01*
X210053Y104544D02*
X212694Y114174D01*
X209995Y94542D02*
X210053Y104544D01*
X209995Y94542D02*
X212531Y84851D01*
X217497Y76134D01*
X224560Y68988D01*
X233246Y63907D01*
X242966Y61242D01*
X253059Y61184D01*
X262839Y63744D01*
X271636Y68756D01*
X278847Y75884D01*
X283974Y84649D01*
X286663Y94458D01*
X286721Y104643D01*
X284137Y114512D02*
X286721Y104643D01*
X279079Y123388D02*
X284137Y114512D01*
X271886Y130664D02*
X279079Y123388D01*
X263041Y135838D02*
X271886Y130664D01*
X253144Y138550D02*
X263041Y135838D01*
X242866Y138608D02*
X253144Y138550D01*
X232909Y136000D02*
X242866Y138608D01*
X223953Y130897D02*
X232909Y136000D01*
X216612Y123638D02*
X223953Y130897D01*
X211392Y114714D02*
X216612Y123638D01*
X208656Y104727D02*
X211392Y114714D01*
X208598Y94358D02*
X208656Y104727D01*
X208598Y94358D02*
X211229Y84312D01*
X216379Y75276D01*
X223703Y67870D01*
X232707Y62605D01*
X242782Y59845D01*
X253243Y59787D01*
X263378Y62442D01*
X272493Y67638D01*
X279964Y75026D01*
X285276Y84110D01*
X288060Y94274D01*
X288118Y104827D01*
X285439Y115051D02*
X288118Y104827D01*
X280197Y124246D02*
X285439Y115051D01*
X272744Y131782D02*
X280197Y124246D01*
X263580Y137139D02*
X272744Y131782D01*
X253327Y139947D02*
X263580Y137139D01*
X242682Y140005D02*
X253327Y139947D01*
X232370Y137302D02*
X242682Y140005D01*
X223095Y132015D02*
X232370Y137302D01*
X215494Y124496D02*
X223095Y132015D01*
X210090Y115253D02*
X215494Y124496D01*
X207259Y104911D02*
X210090Y115253D01*
X207201Y94174D02*
X207259Y104911D01*
X207201Y94174D02*
X209928Y83773D01*
X215261Y74419D01*
X222845Y66753D01*
X232168Y61303D01*
X242598Y58448D01*
X253427Y58390D01*
X263917Y61140D01*
X273351Y66520D01*
X281082Y74168D01*
X286578Y83571D01*
X289457Y94090D01*
X289515Y105011D01*
X286741Y115590D02*
X289515Y105011D01*
X281315Y125104D02*
X286741Y115590D01*
X273601Y132900D02*
X281315Y125104D01*
X264119Y138441D02*
X273601Y132900D01*
X253512Y141344D02*
X264119Y138441D01*
X242498Y141402D02*
X253512Y141344D01*
X231831Y138604D02*
X242498Y141402D01*
X222237Y133133D02*
X231831Y138604D01*
X214376Y125354D02*
X222237Y133133D01*
X208789Y115792D02*
X214376Y125354D01*
X205862Y105095D02*
X208789Y115792D01*
X205804Y93990D02*
X205862Y105095D01*
X205804Y93990D02*
X208626Y83234D01*
X214143Y73561D01*
X221987Y65635D01*
X231628Y60001D01*
X242414Y57051D01*
X253611Y56993D01*
X264456Y59838D01*
X274209Y65402D01*
X282200Y73311D01*
X287880Y83032D01*
X290854Y93906D01*
X290912Y105195D01*
X288042Y116129D02*
X290912Y105195D01*
X282433Y125961D02*
X288042Y116129D01*
X274459Y134018D02*
X282433Y125961D01*
X264659Y139743D02*
X274459Y134018D01*
X253695Y142741D02*
X264659Y139743D01*
X242314Y142799D02*
X253695Y142741D01*
X231291Y139906D02*
X242314Y142799D01*
X221380Y134250D02*
X231291Y139906D01*
X213258Y126212D02*
X221380Y134250D01*
X207487Y116331D02*
X213258Y126212D01*
X204465Y105279D02*
X207487Y116331D01*
X204407Y93806D02*
X204465Y105279D01*
X204407Y93806D02*
X207324Y82695D01*
X213025Y72703D01*
X221129Y64517D01*
X231089Y58699D01*
X242230Y55654D01*
X253795Y55596D01*
X264996Y58537D01*
X275067Y64284D01*
X283318Y72453D01*
X289181Y82492D01*
X292251Y93722D01*
X292309Y105379D01*
X289344Y116668D02*
X292309Y105379D01*
X283551Y126819D02*
X289344Y116668D01*
X275317Y135135D02*
X283551Y126819D01*
X265198Y141045D02*
X275317Y135135D01*
X253879Y144138D02*
X265198Y141045D01*
X242130Y144196D02*
X253879Y144138D01*
X230752Y141208D02*
X242130Y144196D01*
X220522Y135368D02*
X230752Y141208D01*
X212140Y127069D02*
X220522Y135368D01*
X206185Y116871D02*
X212140Y127069D01*
X203068Y105463D02*
X206185Y116871D01*
X203010Y93622D02*
X203068Y105463D01*
X203010Y93622D02*
X206022Y82155D01*
X211908Y71845D01*
X220272Y63399D01*
X230550Y57398D01*
X242046Y54257D01*
X253979Y54199D01*
X265535Y57235D01*
X275924Y63166D01*
X284436Y71595D01*
X290483Y81953D01*
X293648Y93538D01*
X293706Y105563D01*
X290646Y117208D02*
X293706Y105563D01*
X284669Y127677D02*
X290646Y117208D01*
X276175Y136253D02*
X284669Y127677D01*
X265737Y142347D02*
X276175Y136253D01*
X254063Y145535D02*
X265737Y142347D01*
X241947Y145593D02*
X254063Y145535D01*
X230213Y142509D02*
X241947Y145593D01*
X219664Y136486D02*
X230213Y142509D01*
X211023Y127927D02*
X219664Y136486D01*
X204883Y117410D02*
X211023Y127927D01*
X201671Y105647D02*
X204883Y117410D01*
X201613Y93439D02*
X201671Y105647D01*
X201613Y93439D02*
X204721Y81616D01*
X210790Y70987D01*
X219414Y62281D01*
X230011Y56096D01*
X241862Y52860D01*
X254163Y52802D01*
X266074Y55933D01*
X276782Y62048D01*
X285554Y70737D01*
X291785Y81414D01*
X295045Y93354D01*
X295103Y105747D01*
X291948Y117747D02*
X295103Y105747D01*
X285787Y128535D02*
X291948Y117747D01*
X277032Y137371D02*
X285787Y128535D01*
X266276Y143649D02*
X277032Y137371D01*
X254247Y146932D02*
X266276Y143649D01*
X241763Y146990D02*
X254247Y146932D01*
X229674Y143811D02*
X241763Y146990D01*
X218806Y137604D02*
X229674Y143811D01*
X209905Y128785D02*
X218806Y137604D01*
X203582Y117949D02*
X209905Y128785D01*
X200274Y105831D02*
X203582Y117949D01*
X200216Y93255D02*
X200274Y105831D01*
X200216Y93255D02*
X203419Y81077D01*
X209672Y70130D01*
X218556Y61163D01*
X229472Y54794D01*
X241678Y51463D01*
X254347Y51405D01*
X266613Y54631D01*
X277640Y60930D01*
X286672Y69880D01*
X293087Y80875D01*
X296442Y93170D01*
X296500Y105931D01*
X293250Y118286D02*
X296500Y105931D01*
X286905Y129393D02*
X293250Y118286D01*
X277890Y138489D02*
X286905Y129393D01*
X266815Y144950D02*
X277890Y138489D01*
X254431Y148329D02*
X266815Y144950D01*
X241579Y148387D02*
X254431Y148329D01*
X229134Y145113D02*
X241579Y148387D01*
X217949Y138722D02*
X229134Y145113D01*
X208787Y129643D02*
X217949Y138722D01*
X202280Y118488D02*
X208787Y129643D01*
X198877Y106015D02*
X202280Y118488D01*
X198819Y93071D02*
X198877Y106015D01*
X198819Y93071D02*
X202117Y80538D01*
X208554Y69272D01*
X217698Y60045D01*
X228932Y53492D01*
X241494Y50066D01*
X254531Y50008D01*
X267153Y53329D01*
X278498Y59812D01*
X287790Y69022D01*
X294389Y80335D01*
X297839Y92986D01*
X297897Y106115D01*
X294551Y118825D02*
X297897Y106115D01*
X288022Y130250D02*
X294551Y118825D01*
X278748Y139607D02*
X288022Y130250D01*
X267355Y146252D02*
X278748Y139607D01*
X254615Y149726D02*
X267355Y146252D01*
X241395Y149784D02*
X254615Y149726D01*
X228595Y146415D02*
X241395Y149784D01*
X217091Y139840D02*
X228595Y146415D01*
X207669Y130500D02*
X217091Y139840D01*
X200978Y119027D02*
X207669Y130500D01*
X197480Y106199D02*
X200978Y119027D01*
X197422Y92887D02*
X197480Y106199D01*
X197422Y92887D02*
X200815Y79998D01*
X207436Y68414D01*
X216841Y58928D01*
X228393Y52190D01*
X241311Y48669D01*
X254715Y48611D01*
X267692Y52028D01*
X279356Y58695D01*
X288907Y68164D01*
X295690Y79796D01*
X299236Y92803D01*
X299294Y106298D01*
X295853Y119365D02*
X299294Y106298D01*
X289140Y131108D02*
X295853Y119365D01*
X279606Y140725D02*
X289140Y131108D01*
X267894Y147554D02*
X279606Y140725D01*
X254799Y151123D02*
X267894Y147554D01*
X241211Y151181D02*
X254799Y151123D01*
X228056Y147717D02*
X241211Y151181D01*
X216233Y140958D02*
X228056Y147717D01*
X206551Y131358D02*
X216233Y140958D01*
X199676Y119567D02*
X206551Y131358D01*
X196083Y106383D02*
X199676Y119567D01*
X196025Y92703D02*
X196083Y106383D01*
X196025Y92703D02*
X199513Y79459D01*
X206318Y67556D01*
X215983Y57810D01*
X227854Y50889D01*
X241127Y47272D01*
X254899Y47214D01*
X268231Y50726D01*
X280213Y57577D01*
X290025Y67306D01*
X296992Y79257D01*
X300633Y92619D01*
X300691Y106482D01*
X297155Y119904D02*
X300691Y106482D01*
X290258Y131966D02*
X297155Y119904D01*
X280464Y141843D02*
X290258Y131966D01*
X268433Y148856D02*
X280464Y141843D01*
X254983Y152520D02*
X268433Y148856D01*
X241027Y152578D02*
X254983Y152520D01*
X227517Y149018D02*
X241027Y152578D01*
X215375Y142076D02*
X227517Y149018D01*
X205433Y132216D02*
X215375Y142076D01*
X198374Y120106D02*
X205433Y132216D01*
X194686Y106567D02*
X198374Y120106D01*
X194628Y92519D02*
X194686Y106567D01*
X194628Y92519D02*
X198212Y78920D01*
X205200Y66699D01*
X215125Y56692D01*
X227315Y49587D01*
X240943Y45875D01*
X255082Y45817D01*
X268770Y49424D01*
X281071Y56459D01*
X291143Y66448D01*
X298294Y78718D01*
X302030Y92435D01*
X302088Y106666D01*
X298457Y120443D02*
X302088Y106666D01*
X291376Y132824D02*
X298457Y120443D01*
X281321Y142961D02*
X291376Y132824D01*
X268972Y150157D02*
X281321Y142961D01*
X255167Y153917D02*
X268972Y150157D01*
X240843Y153975D02*
X255167Y153917D01*
X226978Y150320D02*
X240843Y153975D01*
X214517Y143193D02*
X226978Y150320D01*
X204315Y133074D02*
X214517Y143193D01*
X197073Y120645D02*
X204315Y133074D01*
X193289Y106751D02*
X197073Y120645D01*
X193231Y92335D02*
X193289Y106751D01*
X193231Y92335D02*
X196910Y78381D01*
X204082Y65841D01*
X214267Y55574D01*
X226776Y48285D01*
X240759Y44478D01*
X255266Y44420D01*
X269309Y48122D01*
X281929Y55341D01*
X292261Y65591D01*
X299596Y78179D01*
X303427Y92251D01*
X303485Y106850D01*
X299759Y120982D02*
X303485Y106850D01*
X292494Y133681D02*
X299759Y120982D01*
X282179Y144078D02*
X292494Y133681D01*
X269512Y151459D02*
X282179Y144078D01*
X255351Y155314D02*
X269512Y151459D01*
X240659Y155372D02*
X255351Y155314D01*
X226438Y151622D02*
X240659Y155372D01*
X213660Y144311D02*
X226438Y151622D01*
X203198Y133932D02*
X213660Y144311D01*
X195771Y121184D02*
X203198Y133932D01*
X191892Y106934D02*
X195771Y121184D01*
X191834Y92151D02*
X191892Y106934D01*
X191834Y92151D02*
X195608Y77842D01*
X202965Y64983D01*
X213409Y54456D01*
X226236Y46983D01*
X240575Y43081D01*
X255450Y43023D01*
X269849Y46821D01*
X282787Y54223D01*
X293379Y64733D01*
X300898Y77639D01*
X304824Y92067D01*
X304882Y107034D01*
X301060Y121521D02*
X304882Y107034D01*
X293612Y134539D02*
X301060Y121521D01*
X283037Y145196D02*
X293612Y134539D01*
X270051Y152761D02*
X283037Y145196D01*
X255535Y156711D02*
X270051Y152761D01*
X240475Y156769D02*
X255535Y156711D01*
X225899Y152924D02*
X240475Y156769D01*
X212802Y145429D02*
X225899Y152924D01*
X202080Y134789D02*
X212802Y145429D01*
X194469Y121724D02*
X202080Y134789D01*
X190495Y107118D02*
X194469Y121724D01*
X190437Y91967D02*
X190495Y107118D01*
X190437Y91967D02*
X194306Y77302D01*
X201847Y64125D01*
X212552Y53338D01*
X225697Y45681D01*
X240391Y41684D01*
X255634Y41626D01*
X270388Y45519D01*
X283645Y53105D01*
X294497Y63875D01*
X302200Y77100D01*
X306221Y91883D01*
X306279Y107218D01*
X302362Y122061D02*
X306279Y107218D01*
X294730Y135397D02*
X302362Y122061D01*
X283895Y146314D02*
X294730Y135397D01*
X270590Y154063D02*
X283895Y146314D01*
X255718Y158108D02*
X270590Y154063D01*
X240291Y158166D02*
X255718Y158108D01*
X225360Y154226D02*
X240291Y158166D01*
X211944Y146547D02*
X225360Y154226D01*
X200962Y135647D02*
X211944Y146547D01*
X193167Y122263D02*
X200962Y135647D01*
X189098Y107302D02*
X193167Y122263D01*
X189040Y91783D02*
X189098Y107302D01*
X189040Y91783D02*
X193004Y76763D01*
X200729Y63267D01*
X211694Y52220D01*
X225158Y44380D01*
X240207Y40287D01*
X255818Y40229D01*
X270927Y44217D01*
X284502Y51987D01*
X295615Y63017D01*
X303501Y76561D01*
X307618Y91699D01*
X307676Y107402D01*
X303664Y122600D02*
X307676Y107402D01*
X295848Y136255D02*
X303664Y122600D01*
X284752Y147432D02*
X295848Y136255D01*
X271129Y155365D02*
X284752Y147432D01*
X255902Y159505D02*
X271129Y155365D01*
X240107Y159563D02*
X255902Y159505D01*
X224821Y155527D02*
X240107Y159563D01*
X211086Y147665D02*
X224821Y155527D01*
X199844Y136505D02*
X211086Y147665D01*
X191865Y122802D02*
X199844Y136505D01*
X187701Y107486D02*
X191865Y122802D01*
X187643Y91599D02*
X187701Y107486D01*
X187643Y91599D02*
X191703Y76224D01*
X199611Y62410D01*
X210836Y51102D01*
X224619Y43078D01*
X240023Y38890D01*
X256002Y38832D01*
X271466Y42915D01*
X285360Y50869D01*
X296732Y62160D01*
X304803Y76022D01*
X309015Y91515D01*
X309073Y107586D01*
X304966Y123139D02*
X309073Y107586D01*
X296965Y137112D02*
X304966Y123139D01*
X285610Y148550D02*
X296965Y137112D01*
X271669Y156666D02*
X285610Y148550D01*
X256086Y160902D02*
X271669Y156666D01*
X239924Y160960D02*
X256086Y160902D01*
X224282Y156829D02*
X239924Y160960D01*
X210228Y148783D02*
X224282Y156829D01*
X198726Y137363D02*
X210228Y148783D01*
X190563Y123341D02*
X198726Y137363D01*
X186304Y107670D02*
X190563Y123341D01*
X186246Y91415D02*
X186304Y107670D01*
X186246Y91415D02*
X190401Y75685D01*
X198493Y61552D01*
X209978Y49984D01*
X224079Y41776D01*
X239839Y37493D01*
X256186Y37435D01*
X272006Y41613D01*
X286218Y49751D01*
X297850Y61302D01*
X306105Y75482D01*
X310412Y91331D01*
X310470Y107770D01*
X306268Y123678D02*
X310470Y107770D01*
X298083Y137970D02*
X306268Y123678D01*
X286468Y149668D02*
X298083Y137970D01*
X272208Y157968D02*
X286468Y149668D01*
X256270Y162299D02*
X272208Y157968D01*
X239740Y162357D02*
X256270Y162299D01*
X223742Y158131D02*
X239740Y162357D01*
X209371Y149901D02*
X223742Y158131D01*
X197608Y138220D02*
X209371Y149901D01*
X189262Y123881D02*
X197608Y138220D01*
X184907Y107854D02*
X189262Y123881D01*
X184849Y91232D02*
X184907Y107854D01*
X184849Y91232D02*
X189099Y75146D01*
X197375Y60694D01*
X209120Y48867D01*
X223540Y40474D01*
X239655Y36096D01*
X256370Y36038D01*
X272545Y40312D01*
X287076Y48634D01*
X298968Y60444D01*
X307407Y74943D01*
X311809Y91147D01*
X311867Y107954D01*
X307569Y124217D02*
X311867Y107954D01*
X299201Y138828D02*
X307569Y124217D01*
X287326Y150786D02*
X299201Y138828D01*
X272747Y159270D02*
X287326Y150786D01*
X256454Y163696D02*
X272747Y159270D01*
X239556Y163754D02*
X256454Y163696D01*
X223203Y159433D02*
X239556Y163754D01*
X208513Y151019D02*
X223203Y159433D01*
X196490Y139078D02*
X208513Y151019D01*
X187960Y124420D02*
X196490Y139078D01*
X183510Y108038D02*
X187960Y124420D01*
X183452Y91048D02*
X183510Y108038D01*
X183452Y91048D02*
X187797Y74606D01*
X196257Y59836D01*
X208263Y47749D01*
X223001Y39172D01*
X239471Y34699D01*
X256554Y34641D01*
X273084Y39010D01*
X287933Y47516D01*
X300086Y59586D01*
X308708Y74404D01*
X313206Y90963D01*
X313264Y108138D01*
X308871Y124757D02*
X313264Y108138D01*
X300319Y139686D02*
X308871Y124757D01*
X288184Y151904D02*
X300319Y139686D01*
X273286Y160572D02*
X288184Y151904D01*
X256638Y165093D02*
X273286Y160572D01*
X239372Y165151D02*
X256638Y165093D01*
X222664Y160735D02*
X239372Y165151D01*
X207655Y152137D02*
X222664Y160735D01*
X195372Y139936D02*
X207655Y152137D01*
X186658Y124959D02*
X195372Y139936D01*
X182113Y108222D02*
X186658Y124959D01*
X182055Y90864D02*
X182113Y108222D01*
X182055Y90864D02*
X186495Y74067D01*
X195140Y58979D01*
X207405Y46631D01*
X222462Y37871D01*
X239287Y33302D01*
X256738Y33244D01*
X273623Y37708D01*
X288791Y46398D01*
X301204Y58728D01*
X310010Y73865D01*
X314603Y90779D01*
X314661Y108322D01*
X310173Y125296D02*
X314661Y108322D01*
X301437Y140544D02*
X310173Y125296D01*
X289041Y153022D02*
X301437Y140544D01*
X273825Y161874D02*
X289041Y153022D01*
X256822Y166490D02*
X273825Y161874D01*
X239188Y166548D02*
X256822Y166490D01*
X222125Y162036D02*
X239188Y166548D01*
X206797Y153254D02*
X222125Y162036D01*
X194255Y140794D02*
X206797Y153254D01*
X185356Y125498D02*
X194255Y140794D01*
X180716Y108406D02*
X185356Y125498D01*
X180658Y90680D02*
X180716Y108406D01*
X180658Y90680D02*
X185194Y73528D01*
X194022Y58121D01*
X206547Y45513D01*
X221922Y36569D01*
X239104Y31905D01*
X256922Y31847D01*
X274162Y36406D01*
X289649Y45280D01*
X302322Y57871D01*
X311312Y73326D01*
X316000Y90596D01*
X316058Y108505D01*
X311475Y125835D02*
X316058Y108505D01*
X302555Y141401D02*
X311475Y125835D01*
X289899Y154139D02*
X302555Y141401D01*
X274365Y163175D02*
X289899Y154139D01*
X257006Y167887D02*
X274365Y163175D01*
X239004Y167945D02*
X257006Y167887D01*
X221585Y163338D02*
X239004Y167945D01*
X205940Y154372D02*
X221585Y163338D01*
X193137Y141651D02*
X205940Y154372D01*
X184055Y126037D02*
X193137Y141651D01*
X179319Y108590D02*
X184055Y126037D01*
X179261Y90496D02*
X179319Y108590D01*
X179261Y90496D02*
X183892Y72989D01*
X192904Y57263D01*
X205689Y44395D01*
X221383Y35267D01*
X238920Y30508D01*
X257105Y30450D01*
X274702Y35104D01*
X290507Y44162D01*
X303440Y57013D01*
X312614Y72786D01*
X317397Y90412D01*
X317455Y108689D01*
X312777Y126374D02*
X317455Y108689D01*
X303673Y142259D02*
X312777Y126374D01*
X290757Y155257D02*
X303673Y142259D01*
X274904Y164477D02*
X290757Y155257D01*
X257190Y169284D02*
X274904Y164477D01*
X238820Y169342D02*
X257190Y169284D01*
X221046Y164640D02*
X238820Y169342D01*
X205082Y155490D02*
X221046Y164640D01*
X192019Y142509D02*
X205082Y155490D01*
X182753Y126577D02*
X192019Y142509D01*
X177922Y108774D02*
X182753Y126577D01*
X177864Y90312D02*
X177922Y108774D01*
X177864Y90312D02*
X182590Y72449D01*
X191786Y56405D01*
X204832Y43277D01*
X220844Y33965D01*
X238736Y29111D01*
X257289Y29053D01*
X275241Y33803D01*
X291365Y43044D01*
X304558Y56155D01*
X313916Y72247D01*
X318794Y90228D01*
X318852Y108873D01*
X314078Y126914D02*
X318852Y108873D01*
X304791Y143117D02*
X314078Y126914D01*
X291615Y156375D02*
X304791Y143117D01*
X275443Y165779D02*
X291615Y156375D01*
X257374Y170681D02*
X275443Y165779D01*
X238636Y170739D02*
X257374Y170681D01*
X220507Y165942D02*
X238636Y170739D01*
X204224Y156608D02*
X220507Y165942D01*
X190901Y143367D02*
X204224Y156608D01*
X181451Y127116D02*
X190901Y143367D01*
X176525Y108958D02*
X181451Y127116D01*
X176467Y90128D02*
X176525Y108958D01*
X176467Y90128D02*
X181288Y71910D01*
X190668Y55547D01*
X203974Y42159D01*
X220305Y32663D01*
X238552Y27714D01*
X257473Y27656D01*
X275780Y32501D01*
X292222Y41926D01*
X305676Y55297D01*
X315217Y71708D01*
X320191Y90044D01*
X320249Y109057D01*
X315380Y127453D02*
X320249Y109057D01*
X305908Y143975D02*
X315380Y127453D01*
X292473Y157493D02*
X305908Y143975D01*
X275982Y167081D02*
X292473Y157493D01*
X257558Y172078D02*
X275982Y167081D01*
X238452Y172136D02*
X257558Y172078D01*
X219968Y167244D02*
X238452Y172136D01*
X203366Y157726D02*
X219968Y167244D01*
X189783Y144225D02*
X203366Y157726D01*
X180149Y127655D02*
X189783Y144225D01*
X175128Y109142D02*
X180149Y127655D01*
X175070Y89944D02*
X175128Y109142D01*
X175070Y89944D02*
X179986Y71371D01*
X189550Y54690D01*
X203116Y41041D01*
X219766Y31362D01*
X238368Y26317D01*
X257657Y26259D01*
X276319Y31199D01*
X293080Y40808D01*
X306793Y54440D01*
X316519Y71169D01*
X321588Y89860D01*
X321646Y109241D01*
X316682Y127992D02*
X321646Y109241D01*
X307026Y144833D02*
X316682Y127992D01*
X293330Y158611D02*
X307026Y144833D01*
X276521Y168383D02*
X293330Y158611D01*
X257742Y173475D02*
X276521Y168383D01*
X238268Y173533D02*
X257742Y173475D01*
X219428Y168545D02*
X238268Y173533D01*
X202508Y158844D02*
X219428Y168545D01*
X188665Y145083D02*
X202508Y158844D01*
X178847Y128194D02*
X188665Y145083D01*
X173731Y109326D02*
X178847Y128194D01*
X173673Y89760D02*
X173731Y109326D01*
X173673Y89760D02*
X178685Y70832D01*
X188432Y53832D01*
X202258Y39924D01*
X219226Y30060D01*
X238184Y24920D01*
X257841Y24862D01*
X276858Y29897D01*
X293938Y39691D01*
X307911Y53582D01*
X317821Y70630D01*
X322985Y89676D01*
X323043Y109425D01*
X317984Y128531D02*
X323043Y109425D01*
X308144Y145690D02*
X317984Y128531D01*
X294188Y159729D02*
X308144Y145690D01*
X277061Y169684D02*
X294188Y159729D01*
X257926Y174872D02*
X277061Y169684D01*
X238084Y174930D02*
X257926Y174872D01*
X218889Y169847D02*
X238084Y174930D01*
X201651Y159962D02*
X218889Y169847D01*
X187547Y145940D02*
X201651Y159962D01*
X177545Y128734D02*
X187547Y145940D01*
X172334Y109509D02*
X177545Y128734D01*
X172276Y89576D02*
X172334Y109509D01*
X172276Y89576D02*
X177383Y70292D01*
X187314Y52974D01*
X201400Y38806D01*
X218687Y28758D01*
X238000Y23523D01*
X258025Y23465D01*
X277398Y28595D01*
X294796Y38573D01*
X309029Y52724D01*
X319123Y70090D01*
X324382Y89492D01*
X324440Y109609D01*
X319286Y129070D02*
X324440Y109609D01*
X309262Y146548D02*
X319286Y129070D01*
X295046Y160847D02*
X309262Y146548D01*
X277600Y170986D02*
X295046Y160847D01*
X258109Y176269D02*
X277600Y170986D01*
X237900Y176327D02*
X258109Y176269D01*
X218350Y171149D02*
X237900Y176327D01*
X200793Y161080D02*
X218350Y171149D01*
X186429Y146798D02*
X200793Y161080D01*
X176244Y129273D02*
X186429Y146798D01*
X170937Y109693D02*
X176244Y129273D01*
X170879Y89392D02*
X170937Y109693D01*
X170879Y89392D02*
X176081Y69753D01*
X186196Y52116D01*
X200543Y37688D01*
X218148Y27456D01*
X237816Y22126D01*
X258209Y22068D01*
X277937Y27294D01*
X295653Y37455D01*
X310147Y51866D01*
X320425Y69551D01*
X325779Y89308D01*
X325837Y109793D01*
X320587Y129610D02*
X325837Y109793D01*
X310380Y147406D02*
X320587Y129610D01*
X295904Y161964D02*
X310380Y147406D01*
X278139Y172288D02*
X295904Y161964D01*
X258293Y177666D02*
X278139Y172288D01*
X237717Y177724D02*
X258293Y177666D01*
X217811Y172451D02*
X237717Y177724D01*
X199935Y162197D02*
X217811Y172451D01*
X185311Y147656D02*
X199935Y162197D01*
X174942Y129812D02*
X185311Y147656D01*
X169540Y109877D02*
X174942Y129812D01*
X169482Y89208D02*
X169540Y109877D01*
X169482Y89208D02*
X174779Y69214D01*
X185079Y51259D01*
X199685Y36570D01*
X217609Y26154D01*
X237632Y20729D01*
X258393Y20671D01*
X278476Y25992D01*
X296511Y36337D01*
X311265Y51008D01*
X321726Y69012D01*
X327176Y89124D01*
X327234Y109977D01*
X321889Y130149D02*
X327234Y109977D01*
X311498Y148264D02*
X321889Y130149D01*
X296761Y163082D02*
X311498Y148264D01*
X278678Y173590D02*
X296761Y163082D01*
X258477Y179063D02*
X278678Y173590D01*
X237533Y179121D02*
X258477Y179063D01*
X217272Y173752D02*
X237533Y179121D01*
X199077Y163315D02*
X217272Y173752D01*
X184194Y148514D02*
X199077Y163315D01*
X173640Y130351D02*
X184194Y148514D01*
X168143Y110061D02*
X173640Y130351D01*
X168085Y99547D02*
X168143Y110061D01*
D72*
X220681Y99547D02*
X222927Y102547D01*
D73*
X36169Y171634D02*
X36957D01*
X36169D02*
X37059Y170744D01*
X35433Y171634D02*
X36169D01*
X33858Y170059D02*
X35433Y171634D01*
X33858Y143890D02*
Y170059D01*
X26630Y136661D02*
X33858Y143890D01*
X7480Y95158D02*
Y106933D01*
X17469Y116921D02*
Y133382D01*
X7480Y106933D02*
X17469Y116921D01*
X7480Y95158D02*
X15705Y86933D01*
Y80022D02*
Y86933D01*
Y80022D02*
X17088Y78638D01*
X25547D01*
X54662Y180831D02*
X57071Y178421D01*
X54555Y180831D02*
X54662D01*
X57071Y178421D02*
X58453D01*
X27008Y181280D02*
X35776D01*
X26992Y181264D02*
X27008Y181280D01*
X20165Y136079D02*
X26047D01*
X17469Y133382D02*
X20165Y136079D01*
D74*
X44882Y6200D02*
Y10433D01*
X42913Y4231D02*
X44882Y6200D01*
X47602Y34610D02*
X61122D01*
X44882Y31890D02*
X47602Y34610D01*
X44882Y19488D02*
Y31890D01*
X52492Y27343D02*
X52756Y27079D01*
Y23031D02*
Y27079D01*
X44882Y19488D02*
X57480D01*
X99213Y10630D02*
X103691D01*
X57677D02*
X64567D01*
X61283Y27165D02*
X74016D01*
X61122Y27327D02*
X61283Y27165D01*
X74547Y23965D02*
Y26634D01*
X74016Y27165D02*
X74547Y26634D01*
X76701Y65425D02*
X79528Y62598D01*
X72186Y65425D02*
X76701D01*
X61122Y34610D02*
X61910D01*
X63189Y35890D01*
Y36677D01*
X66142Y39630D01*
Y50394D01*
X68575Y52827D02*
X72186D01*
X66142Y50394D02*
X68575Y52827D01*
X77956D02*
X82213D01*
X79528Y54398D02*
Y62598D01*
X72186Y52827D02*
X77956D01*
X79528Y54398D01*
X91661Y43378D02*
X104586D01*
X82213Y52827D02*
X91661Y43378D01*
X52492Y27343D02*
X61106D01*
D75*
X52941Y172122D02*
D03*
Y177043D02*
D03*
X50972Y174583D02*
D03*
X54909D02*
D03*
X135433Y37008D02*
D03*
X139370D02*
D03*
X135433Y40748D02*
D03*
X139370D02*
D03*
X135433Y33268D02*
D03*
X139370D02*
D03*
D76*
X150787Y157480D02*
D03*
X145276Y107874D02*
D03*
X134646Y157480D02*
D03*
X128347D02*
D03*
X139764Y101969D02*
D03*
X119291Y105905D02*
D03*
X135827Y104331D02*
D03*
X140157Y77165D02*
D03*
X146539Y74650D02*
D03*
X119685Y52870D02*
D03*
X124803Y41732D02*
D03*
X92520Y80315D02*
D03*
X125984Y37008D02*
D03*
X144882Y9449D02*
D03*
X116929Y82284D02*
D03*
X116142Y92520D02*
D03*
X111811Y87795D02*
D03*
X131118Y144882D02*
D03*
X151110Y46303D02*
D03*
X106693Y94882D02*
D03*
X95669Y94488D02*
D03*
X56299Y79134D02*
D03*
X46457Y44882D02*
D03*
X47095Y73909D02*
D03*
X52756Y23031D02*
D03*
X99213Y10630D02*
D03*
X64567D02*
D03*
X112205Y20866D02*
D03*
X36882Y134236D02*
D03*
X11024Y43147D02*
D03*
X22047D02*
D03*
X30709Y116535D02*
D03*
X18898Y109843D02*
D03*
X26378Y94882D02*
D03*
X17323Y94488D02*
D03*
X22441Y102362D02*
D03*
X13780D02*
D03*
X33465Y25824D02*
D03*
X22835Y25430D02*
D03*
X11811D02*
D03*
X33071Y34486D02*
D03*
X22441D02*
D03*
X11417D02*
D03*
X32677Y52202D02*
D03*
X21654D02*
D03*
X11024D02*
D03*
X55905Y135827D02*
D03*
X38583Y117323D02*
D03*
X54555Y180831D02*
D03*
X26992Y181264D02*
D03*
X62051Y189366D02*
D03*
X77807Y178524D02*
D03*
X104496Y38752D02*
D03*
X77319Y76378D02*
D03*
X36740Y79996D02*
D03*
X40236Y95878D02*
D03*
X112839Y158398D02*
D03*
X32374Y75410D02*
D03*
X40878Y105398D02*
D03*
X32492Y70784D02*
D03*
X46913Y96933D02*
D03*
X45150Y103260D02*
D03*
X80390Y45299D02*
D03*
X123000Y49764D02*
D03*
X47221Y65299D02*
D03*
X72154Y83909D02*
D03*
X84264Y58406D02*
D03*
X89067Y89429D02*
D03*
X88972Y59102D02*
D03*
X98209Y64780D02*
D03*
X98110Y60844D02*
D03*
X113634Y26791D02*
D03*
D77*
X222919Y96500D02*
D03*
X163319Y99500D02*
D03*
X222919Y102500D02*
D03*
X163319Y107500D02*
D03*
M02*
