G04*
G04 #@! TF.GenerationSoftware,Altium Limited,Altium Designer,23.7.1 (13)*
G04*
G04 Layer_Color=16711935*
%FSLAX25Y25*%
%MOIN*%
G70*
G04*
G04 #@! TF.SameCoordinates,FE150CF2-D92F-4AEA-AE3F-07D5F2836877*
G04*
G04*
G04 #@! TF.FilePolarity,Positive*
G04*
G01*
G75*
G36*
X57249Y39739D02*
X55349D01*
Y42939D01*
X57249D01*
Y39739D01*
D02*
G37*
G36*
X128909Y19266D02*
X126209D01*
Y22466D01*
X128909D01*
Y19266D01*
D02*
G37*
G36*
Y12967D02*
X126209D01*
Y16167D01*
X128909D01*
Y12967D01*
D02*
G37*
G36*
X59839Y12798D02*
X55121D01*
Y17123D01*
X59839D01*
Y12798D01*
D02*
G37*
G36*
X47241D02*
X42523D01*
Y17123D01*
X47241D01*
Y12798D01*
D02*
G37*
G36*
X48981Y134227D02*
X47082D01*
Y137427D01*
X48981D01*
Y134227D01*
D02*
G37*
G36*
X53525Y125355D02*
X50325D01*
Y128055D01*
X53525D01*
Y125355D01*
D02*
G37*
G36*
X45328Y125221D02*
X42128D01*
Y127921D01*
X45328D01*
Y125221D01*
D02*
G37*
G36*
X31521Y105737D02*
X28321D01*
Y108437D01*
X31521D01*
Y105737D01*
D02*
G37*
G36*
X58037Y73203D02*
X56137D01*
Y76403D01*
X58037D01*
Y73203D01*
D02*
G37*
M02*
