M48
;Layer_Color=9474304
;FILE_FORMAT=2:4
INCH,TZ
;TYPE=PLATED
T01F00S00C0.0079
T02F00S00C0.0118
T03F00S00C0.0140
;TYPE=NON_PLATED
T04F00S00C0.1457
%
T01
X13543Y3327
Y3701
Y4075
X13937
Y3701
Y3327
X12874Y8681
X12461Y9173
X13285Y9177
X12874Y9665
X5294Y17212
X5491Y17458
X5097
X5294Y17704
T02
X1181Y2543
X1142Y3449
X1102Y4315
Y5220
X2165
X2205Y4315
X2244Y3449
X2283Y2543
X3346Y2582
X3307Y3449
X3268Y5220
X3249Y7078
X3237Y7541
X3674Y8000
X4709Y7391
X4722Y6530
X4646Y4488
X5276Y2303
X6457Y1063
X9921
X11220Y2087
X11363Y2679
X10450Y3875
X12598Y3701
X12480Y4173
X12300Y4976
X11968Y5287
X9811Y6084
X9821Y6478
X8897Y5910
X8426Y5841
X8039Y4530
X7732Y7638
X7215Y8391
X5630Y7913
X4691Y9693
X4024Y9588
X4088Y10540
X4515Y10326
X3858Y11732
X3071Y11654
X1890Y10984
X2244Y10236
X1378
X1732Y9449
X2638Y9488
X3688Y13424
X5591Y13583
X8907Y8943
X9567Y9449
X10669Y9488
X11614Y9252
X11181Y8780
X11693Y8228
X11929Y10591
X13583Y10433
X13976Y10197
X14528Y10787
X14654Y7465
X14016Y7717
X15111Y4630
X14488Y945
X9252Y8031
X13112Y14488
X12835Y15748
X13465
X15079
X11284Y15840
X7781Y17852
X5456Y18083
X6205Y18937
X2699Y18126
T03
X16332Y9950
Y10750
X22292Y10250
Y9650
T04
X16132Y1744
X33132
Y18744
X16132
M30
